<svg width="242" height="164" viewBox="0 0 242 164" fill="none" xmlns="http://www.w3.org/2000/svg">
<path d="M205.659 119.996C205.112 119.997 204.579 119.826 204.135 119.507C203.691 119.188 203.359 118.737 203.187 118.219C203.084 117.899 203.045 117.561 203.073 117.226C203.101 116.89 203.196 116.564 203.352 116.266C203.508 115.967 203.722 115.702 203.982 115.487C204.241 115.272 204.541 115.11 204.863 115.012C217.643 110.978 232.454 101.428 234.759 90.0709C235.272 87.5946 235.241 84.1048 232.255 81.6076C224.179 74.8683 213.505 85.5571 213.055 86.0169C212.574 86.5029 211.921 86.7825 211.237 86.7962C210.552 86.8099 209.889 86.5565 209.389 86.09C209.143 85.8603 208.946 85.5842 208.809 85.2778C208.672 84.9713 208.597 84.6407 208.589 84.3052C208.581 83.9696 208.641 83.6359 208.764 83.3235C208.886 83.011 209.07 82.7261 209.305 82.4853C214.28 77.3968 226.169 69.8426 235.618 77.7207C239.452 80.9284 240.96 85.6616 239.808 91.074C237.074 104.542 221.058 115.241 206.403 119.87C206.163 119.947 205.912 119.99 205.659 119.996Z" fill="#FFC3D5"/>
<path d="M205.659 121.04C204.892 121.045 204.143 120.807 203.52 120.36C202.896 119.913 202.432 119.281 202.192 118.554C202.043 118.108 201.985 117.636 202.023 117.168C202.061 116.699 202.193 116.243 202.412 115.826C202.625 115.404 202.919 115.027 203.279 114.718C203.639 114.41 204.056 114.176 204.507 114.029C217.004 110.08 231.47 100.843 233.69 89.8723C234.141 87.6677 234.13 84.5854 231.543 82.4225C224.211 76.3102 214.186 86.3303 213.736 86.7587C213.063 87.4414 212.148 87.8337 211.188 87.8513C210.229 87.8689 209.3 87.5104 208.603 86.8527C208.255 86.5305 207.976 86.1411 207.784 85.7083C207.591 85.2755 207.488 84.8081 207.482 84.3346C207.474 83.8579 207.563 83.3846 207.743 82.9429C207.923 82.5012 208.19 82.1003 208.53 81.7643C213.767 76.4355 226.222 68.5573 236.257 76.9371C240.447 80.3955 242.029 85.484 240.855 91.2933C238.038 105.179 221.686 116.161 206.738 120.873C206.389 120.982 206.025 121.038 205.659 121.04ZM226.253 78.3476C228.703 78.3376 231.074 79.2137 232.926 80.8135C236.309 83.6346 236.351 87.5214 235.796 90.2798C233.397 102.076 218.24 111.887 205.178 116.004C204.983 116.063 204.803 116.161 204.648 116.292C204.493 116.424 204.367 116.585 204.277 116.767C204.184 116.938 204.128 117.127 204.112 117.321C204.096 117.515 204.12 117.711 204.182 117.895C204.316 118.281 204.596 118.599 204.963 118.781C205.329 118.963 205.752 118.993 206.141 118.867C220.523 114.374 236.236 103.926 238.834 90.865C239.881 85.8497 238.467 81.4613 234.947 78.5252C226.086 71.1381 214.794 78.3581 210.059 83.2166C209.783 83.4945 209.627 83.8701 209.627 84.2615C209.627 84.6529 209.783 85.0284 210.059 85.3063C210.356 85.5917 210.752 85.7512 211.164 85.7512C211.576 85.7512 211.972 85.5917 212.269 85.3063C212.667 84.9197 219.266 78.3476 226.253 78.3476Z" fill="#093F68"/>
<path d="M142.872 68.0872H221.634L215.202 112.378C214.297 118.684 211.144 124.452 206.321 128.627C201.497 132.801 195.327 135.1 188.941 135.104H175.554C169.17 135.096 163.002 132.795 158.179 128.621C153.357 124.448 150.202 118.682 149.293 112.378L142.872 68.0872Z" fill="#FFC3D5"/>
<path d="M188.941 136.149H175.554C168.924 136.113 162.526 133.711 157.517 129.378C152.508 125.045 149.219 119.067 148.246 112.525L141.825 68.2439C141.802 68.0941 141.812 67.9412 141.854 67.7958C141.897 67.6503 141.97 67.5158 142.07 67.4015C142.17 67.2872 142.293 67.1959 142.432 67.1338C142.57 67.0718 142.72 67.0406 142.872 67.0423H221.634C221.786 67.0406 221.936 67.0718 222.075 67.1338C222.213 67.1959 222.336 67.2872 222.436 67.4015C222.536 67.5158 222.609 67.6503 222.652 67.7958C222.694 67.9412 222.704 68.0941 222.681 68.2439L216.25 112.525C215.281 119.068 211.993 125.049 206.983 129.383C201.973 133.717 195.573 136.117 188.941 136.149ZM144.056 69.132L150.341 112.284C151.241 118.327 154.279 123.849 158.905 127.852C163.531 131.855 169.44 134.075 175.565 134.111H188.952C195.076 134.075 200.985 131.855 205.612 127.852C210.238 123.849 213.275 118.327 214.176 112.284L220.461 69.1843L144.056 69.132Z" fill="#093F68"/>
<path d="M174.025 35.1012V143.766C174.025 148.551 170.621 152.428 166.431 152.428H9.41032C5.22032 152.428 1.81595 148.551 1.81595 143.766V35.1012C1.81595 30.3262 5.20985 26.4393 9.41032 26.4393H166.431C170.621 26.4393 174.025 30.3262 174.025 35.1012Z" fill="#FBE6EA"/>
<path d="M166.431 153.462H9.41031C4.64418 153.462 0.768433 149.105 0.768433 143.755V35.0907C0.768433 29.7411 4.64418 25.384 9.41031 25.384H166.431C171.197 25.384 175.083 29.7411 175.083 35.0907V143.755C175.083 149.105 171.197 153.462 166.431 153.462ZM9.41031 27.4842C5.79643 27.4842 2.86343 30.9009 2.86343 35.1012V143.766C2.86343 147.945 5.79643 151.383 9.41031 151.383H166.431C170.044 151.383 172.988 147.966 172.988 143.766V35.1012C172.988 30.9217 170.044 27.4842 166.431 27.4842H9.41031Z" fill="#093F68"/>
<path d="M65.1163 67.1364H28.7052C27.8718 67.1364 27.0725 66.8061 26.4832 66.2183C25.8938 65.6304 25.5627 64.8331 25.5627 64.0018C25.5627 63.1705 25.8938 62.3732 26.4832 61.7854C27.0725 61.1975 27.8718 60.8672 28.7052 60.8672H65.1163C65.9498 60.8672 66.7491 61.1975 67.3384 61.7854C67.9278 62.3732 68.2588 63.1705 68.2588 64.0018C68.2588 64.8331 67.9278 65.6304 67.3384 66.2183C66.7491 66.8061 65.9498 67.1364 65.1163 67.1364Z" fill="#093F68"/>
<path d="M75.7485 70.3441C75.4892 70.1827 75.2778 69.9554 75.1361 69.6854C74.9943 69.4154 74.9273 69.1126 74.9419 68.8081V65.4019C74.9647 65.2383 74.9449 65.0716 74.8844 64.9179C74.8238 64.7641 74.7246 64.6286 74.5962 64.5242C74.1935 64.3271 73.7442 64.2439 73.2973 64.2839V62.6226C73.7432 62.6647 74.1921 62.5853 74.5962 62.3927C74.7188 62.2837 74.8139 62.1475 74.874 61.995C74.934 61.8425 74.9573 61.6781 74.9419 61.5151V58.0984C74.9273 57.7939 74.9943 57.4911 75.1361 57.2211C75.2778 56.9512 75.4892 56.7238 75.7485 56.5624C76.3824 56.1931 77.1102 56.0152 77.8435 56.0505H79.2995V57.7118H78.8805C78.5072 57.678 78.1344 57.7821 77.833 58.0043C77.7027 58.1426 77.605 58.3082 77.547 58.489C77.489 58.6697 77.4722 58.8611 77.4978 59.0492V61.8285C77.4978 62.6957 76.9636 63.2391 75.9056 63.4585C76.9531 63.6883 77.4978 64.2317 77.4978 65.0884V67.8678C77.4737 68.0558 77.4912 68.2468 77.5491 68.4273C77.607 68.6079 77.7039 68.7735 77.833 68.9126C78.1383 69.1261 78.509 69.2259 78.8805 69.1947H79.2995V70.8665H77.8435C77.1091 70.8986 76.3813 70.7171 75.7485 70.3441Z" fill="#093F68"/>
<path d="M28.3491 91.8785H26.8931V90.2172H27.3121C27.6855 90.252 28.0586 90.1478 28.3596 89.9246C28.4918 89.7872 28.5914 89.6221 28.6513 89.4413C28.7111 89.2605 28.7295 89.0686 28.7053 88.8797V86.1631C28.7053 85.2959 29.229 84.7526 30.2975 84.5332C29.25 84.3137 28.7053 83.7704 28.7053 82.9032V80.1343C28.7288 79.9455 28.71 79.7538 28.6502 79.5731C28.5904 79.3924 28.4912 79.2272 28.3596 79.0895C28.0551 78.8743 27.6838 78.7744 27.3121 78.8074H26.8931V77.1356H28.3491C29.0836 77.1023 29.8118 77.2839 30.4441 77.658C30.7061 77.8172 30.9202 78.0439 31.064 78.3141C31.2077 78.5844 31.2759 78.8883 31.2612 79.194V82.6002C31.2381 82.7628 31.2568 82.9286 31.3154 83.0821C31.374 83.2356 31.4707 83.3717 31.5964 83.4778C32.0005 83.6704 32.4494 83.7499 32.8953 83.7077V85.3795C32.4494 85.3373 32.0005 85.4168 31.5964 85.6094C31.4715 85.7161 31.3753 85.8523 31.3168 86.0056C31.2582 86.1589 31.2391 86.3244 31.2612 86.487V89.9037C31.2759 90.2093 31.2077 90.5132 31.064 90.7835C30.9202 91.0538 30.7061 91.2804 30.4441 91.4396C29.8029 91.7847 29.0753 91.9371 28.3491 91.8785Z" fill="#093F68"/>
<path d="M28.3491 134.059H26.8931V132.387H27.3121C27.6838 132.42 28.0551 132.32 28.3596 132.105C28.4906 131.967 28.5894 131.802 28.6491 131.621C28.7089 131.441 28.728 131.249 28.7053 131.061V128.281C28.7053 127.424 29.229 126.881 30.2975 126.651C29.25 126.432 28.7053 125.888 28.7053 125.021V122.242C28.7295 122.053 28.7111 121.861 28.6513 121.68C28.5914 121.5 28.4918 121.334 28.3596 121.197C28.0586 120.974 27.6855 120.87 27.3121 120.905H26.8931V119.233H28.3491C29.0836 119.199 29.8118 119.381 30.4441 119.755C30.7061 119.914 30.9202 120.141 31.064 120.411C31.2077 120.682 31.2759 120.986 31.2612 121.291V124.697C31.2428 124.861 31.2636 125.027 31.3219 125.182C31.3801 125.336 31.4742 125.474 31.5964 125.585C32.002 125.773 32.4496 125.852 32.8953 125.815V127.477C32.4484 127.437 31.9991 127.52 31.5964 127.717C31.4699 127.822 31.3727 127.959 31.314 128.112C31.2553 128.266 31.2371 128.432 31.2612 128.595V132.001C31.2759 132.306 31.2077 132.61 31.064 132.881C30.9202 133.151 30.7061 133.378 30.4441 133.537C29.8118 133.911 29.0836 134.093 28.3491 134.059Z" fill="#093F68"/>
<path d="M136.723 91.3874C136.464 91.2261 136.253 90.9987 136.111 90.7287C135.969 90.4588 135.902 90.1559 135.917 89.8515V86.4348C135.939 86.2722 135.92 86.1068 135.861 85.9534C135.803 85.8001 135.707 85.6639 135.582 85.5572C135.177 85.3656 134.729 85.2862 134.283 85.3273V83.6555C134.729 83.6966 135.177 83.6172 135.582 83.4257C135.707 83.3195 135.804 83.1834 135.863 83.0299C135.921 82.8764 135.94 82.7106 135.917 82.548V79.1418C135.902 78.8373 135.969 78.5345 136.111 78.2645C136.253 77.9945 136.464 77.7672 136.723 77.6058C137.357 77.2345 138.084 77.0531 138.818 77.0834H140.285V78.7552H139.866C139.495 78.7266 139.125 78.8262 138.818 79.0373C138.691 79.1771 138.594 79.3429 138.537 79.5232C138.479 79.7035 138.461 79.8942 138.483 80.0821V82.851C138.483 83.7182 137.949 84.2615 136.891 84.481C137.939 84.7004 138.483 85.2437 138.483 86.1109V88.8902C138.46 89.0782 138.478 89.2691 138.536 89.4495C138.593 89.6299 138.69 89.7956 138.818 89.9351C139.121 90.1548 139.493 90.2586 139.866 90.2276H140.285V91.889H138.818C138.086 91.9256 137.359 91.7515 136.723 91.3874Z" fill="#093F68"/>
<path d="M141.584 90.2171H142.003C142.376 90.252 142.749 90.1478 143.05 89.9246C143.183 89.7872 143.282 89.6221 143.342 89.4413C143.402 89.2605 143.42 89.0686 143.396 88.8797V86.1631C143.396 85.2959 143.92 84.7526 144.978 84.5331C143.93 84.3137 143.396 83.7704 143.396 82.9032V80.1343C143.42 79.9455 143.401 79.7538 143.341 79.5731C143.281 79.3924 143.182 79.2272 143.05 79.0894C142.746 78.8743 142.375 78.7743 142.003 78.8074H141.584V77.1356H143.008C143.743 77.1035 144.471 77.285 145.103 77.658C145.364 77.8177 145.577 78.0448 145.719 78.3151C145.861 78.5855 145.927 78.8892 145.91 79.1939V82.6002C145.889 82.7636 145.91 82.9297 145.97 83.0831C146.031 83.2365 146.129 83.3722 146.256 83.4778C146.66 83.6704 147.109 83.7498 147.555 83.7077V85.3795C147.109 85.3373 146.66 85.4168 146.256 85.6093C146.133 85.7184 146.038 85.8546 145.978 86.0071C145.918 86.1595 145.895 86.3239 145.91 86.487V89.9037C145.917 90.1998 145.847 90.4926 145.705 90.753C145.564 91.0133 145.356 91.2321 145.103 91.3874C144.47 91.7567 143.742 91.9346 143.008 91.8994H141.552L141.584 90.2171Z" fill="#093F68"/>
<path d="M158.145 91.8785H156.689C155.955 91.9137 155.228 91.7359 154.594 91.3665C154.333 91.2068 154.12 90.9798 153.978 90.7094C153.836 90.439 153.77 90.1353 153.787 89.8306V86.4139C153.803 86.2508 153.779 86.0864 153.719 85.934C153.659 85.7815 153.564 85.6452 153.442 85.5362C153.037 85.3437 152.588 85.2642 152.143 85.3063V83.6346C152.588 83.6767 153.037 83.5973 153.442 83.4047C153.568 83.2991 153.666 83.1633 153.727 83.01C153.787 82.8566 153.808 82.6905 153.787 82.5271V79.1208C153.77 78.8161 153.836 78.5124 153.978 78.242C154.12 77.9716 154.333 77.7446 154.594 77.5849C155.227 77.2119 155.954 77.0304 156.689 77.0625H158.145V78.7342H157.726C157.354 78.7012 156.983 78.8012 156.678 79.0163C156.547 79.1541 156.447 79.3193 156.388 79.5C156.328 79.6807 156.309 79.8724 156.333 80.0612V82.8301C156.333 83.6973 155.809 84.2406 154.751 84.46C155.798 84.6794 156.333 85.2228 156.333 86.09V88.8693C156.308 89.0582 156.327 89.25 156.387 89.4309C156.446 89.6117 156.546 89.7768 156.678 89.9142C156.979 90.1373 157.352 90.2415 157.726 90.2067H158.145V91.8785Z" fill="#093F68"/>
<path d="M123.546 87.6051H44.3235C43.49 87.6051 42.6907 87.2748 42.1014 86.687C41.5121 86.0991 41.181 85.3018 41.181 84.4705C41.181 83.6392 41.5121 82.8419 42.1014 82.254C42.6907 81.6662 43.49 81.3359 44.3235 81.3359H123.546C124.379 81.3359 125.179 81.6662 125.768 82.254C126.357 82.8419 126.688 83.6392 126.688 84.4705C126.688 85.3018 126.357 86.0991 125.768 86.687C125.179 87.2748 124.379 87.6051 123.546 87.6051Z" fill="#093F68"/>
<path d="M28.3491 112.023H26.8931V110.362H27.3121C27.685 110.392 28.0565 110.288 28.3596 110.069C28.4918 109.932 28.5914 109.767 28.6513 109.586C28.7111 109.405 28.7295 109.213 28.7053 109.025V106.245C28.7053 105.378 29.229 104.835 30.2975 104.615C29.25 104.396 28.7053 103.853 28.7053 102.985V100.206C28.7295 100.017 28.7111 99.8253 28.6513 99.6445C28.5914 99.4636 28.4918 99.2985 28.3596 99.1612C28.0565 98.9423 27.685 98.8386 27.3121 98.8686H26.8931V97.2073H28.3491C29.0841 97.169 29.8137 97.3509 30.4441 97.7297C30.7061 97.8889 30.9202 98.1156 31.064 98.3858C31.2077 98.6561 31.2759 98.96 31.2612 99.2656V102.672C31.2391 102.834 31.2582 103 31.3168 103.153C31.3753 103.307 31.4715 103.443 31.5964 103.55C32.0005 103.742 32.4494 103.822 32.8953 103.779V105.451C32.4494 105.409 32.0005 105.488 31.5964 105.681C31.4715 105.788 31.3753 105.924 31.3168 106.077C31.2582 106.231 31.2391 106.396 31.2612 106.559V109.965C31.2744 110.272 31.2058 110.577 31.0622 110.848C30.9187 111.12 30.7054 111.349 30.4441 111.511C29.8107 111.882 29.0825 112.06 28.3491 112.023Z" fill="#093F68"/>
<path d="M128.878 111.511C128.619 111.347 128.408 111.117 128.267 110.846C128.125 110.574 128.058 110.271 128.071 109.965V106.559C128.088 106.396 128.066 106.233 128.008 106.08C127.95 105.928 127.857 105.791 127.736 105.681C127.328 105.489 126.876 105.409 126.427 105.451V103.779C126.876 103.821 127.328 103.742 127.736 103.549C127.857 103.439 127.95 103.303 128.008 103.15C128.066 102.998 128.088 102.834 128.071 102.672V99.2656C128.056 98.9611 128.123 98.6583 128.265 98.3883C128.407 98.1184 128.618 97.891 128.878 97.7297C129.509 97.3521 130.238 97.1702 130.973 97.2072H132.429V98.8685H132.01C131.637 98.8421 131.267 98.9455 130.962 99.1611C130.832 99.2994 130.734 99.4649 130.676 99.6457C130.618 99.8265 130.601 100.018 130.627 100.206V102.985C130.627 103.852 130.093 104.396 129.035 104.615C130.082 104.835 130.627 105.378 130.627 106.245V109.025C130.601 109.213 130.618 109.404 130.676 109.585C130.734 109.766 130.832 109.931 130.962 110.069C131.267 110.285 131.637 110.388 132.01 110.362H132.429V112.023H130.962C130.232 112.056 129.509 111.879 128.878 111.511Z" fill="#093F68"/>
<path d="M133.728 110.362H134.136C134.509 110.387 134.879 110.284 135.184 110.069C135.312 109.93 135.409 109.764 135.467 109.584C135.524 109.403 135.542 109.212 135.519 109.024V106.245C135.519 105.378 136.053 104.835 137.111 104.615C136.064 104.396 135.519 103.852 135.519 102.985V100.206C135.542 100.018 135.524 99.8271 135.467 99.6467C135.409 99.4662 135.312 99.3005 135.184 99.1611C134.879 98.9463 134.509 98.843 134.136 98.8685H133.728V97.2072H135.184C135.918 97.1714 136.647 97.3532 137.279 97.7296C137.538 97.8909 137.749 98.1183 137.891 98.3883C138.033 98.6583 138.1 98.9611 138.085 99.2655V102.672C138.069 102.834 138.09 102.998 138.148 103.15C138.207 103.303 138.3 103.439 138.42 103.549C138.828 103.742 139.281 103.821 139.73 103.779V105.451C139.281 105.409 138.828 105.488 138.42 105.681C138.3 105.791 138.207 105.928 138.148 106.08C138.09 106.232 138.069 106.396 138.085 106.559V109.965C138.098 110.27 138.031 110.574 137.889 110.846C137.748 111.117 137.537 111.347 137.279 111.511C136.644 111.879 135.917 112.057 135.184 112.023H133.728V110.362Z" fill="#093F68"/>
<path d="M150.341 112.023H148.874C148.141 112.057 147.414 111.879 146.779 111.511C146.521 111.347 146.31 111.117 146.169 110.846C146.027 110.574 145.96 110.27 145.973 109.965V106.559C145.995 106.396 145.976 106.231 145.917 106.077C145.859 105.924 145.763 105.788 145.638 105.681C145.233 105.489 144.785 105.41 144.339 105.451V103.779C144.785 103.82 145.233 103.741 145.638 103.549C145.763 103.443 145.859 103.306 145.917 103.153C145.976 103 145.995 102.834 145.973 102.672V99.2655C145.958 98.9611 146.025 98.6583 146.167 98.3883C146.309 98.1183 146.52 97.8909 146.779 97.7296C147.411 97.3532 148.14 97.1714 148.874 97.2072H150.341V98.8685H149.922C149.549 98.843 149.18 98.9463 148.874 99.1611C148.746 99.3005 148.649 99.4662 148.592 99.6467C148.534 99.8271 148.516 100.018 148.539 100.206V102.985C148.539 103.852 148.005 104.396 146.947 104.615C147.995 104.835 148.539 105.378 148.539 106.245V109.024C148.516 109.212 148.534 109.403 148.592 109.584C148.649 109.764 148.746 109.93 148.874 110.069C149.18 110.284 149.549 110.387 149.922 110.362H150.341V112.023Z" fill="#093F68"/>
<path d="M115.365 107.75H79.289C78.4556 107.75 77.6563 107.42 77.067 106.832C76.4776 106.244 76.1465 105.447 76.1465 104.615C76.1465 103.784 76.4776 102.987 77.067 102.399C77.6563 101.811 78.4556 101.481 79.289 101.481H115.365C116.198 101.481 116.998 101.811 117.587 102.399C118.176 102.987 118.507 103.784 118.507 104.615C118.507 105.447 118.176 106.244 117.587 106.832C116.998 107.42 116.198 107.75 115.365 107.75Z" fill="#093F68"/>
<path d="M67.7351 107.75H44.3235C43.49 107.75 42.6907 107.42 42.1014 106.832C41.5121 106.244 41.181 105.447 41.181 104.615C41.181 103.784 41.5121 102.987 42.1014 102.399C42.6907 101.811 43.49 101.481 44.3235 101.481H67.7351C68.5685 101.481 69.3678 101.811 69.9572 102.399C70.5465 102.987 70.8776 103.784 70.8776 104.615C70.8776 105.447 70.5465 106.244 69.9572 106.832C69.3678 107.42 68.5685 107.75 67.7351 107.75Z" fill="#093F68"/>
<path d="M182.017 15.6565C181.347 10.4322 184.332 5.52141 187.182 1.10168C181.818 5.5841 176.34 11.1427 176.057 18.1119C175.858 23.0958 178.466 27.8813 182.112 31.2875C184.102 33.1473 186.385 34.6833 188.239 36.6685C193.089 41.8927 192.869 47.8798 192.01 54.3683C196.326 48.9246 198.442 40.4404 194.828 34.2653C191.068 27.8395 183.033 23.5556 182.017 15.6565Z" fill="#093F68"/>
<path d="M192.01 55.4131C191.87 55.4105 191.732 55.3822 191.602 55.3295C191.391 55.2402 191.216 55.0846 191.103 54.8865C190.989 54.6884 190.944 54.4587 190.973 54.2324C191.77 48.2036 192.115 42.3733 187.475 37.379C186.396 36.2567 185.241 35.2094 184.018 34.2444C183.149 33.5339 182.248 32.7921 181.399 31.998C177.136 28.0066 174.811 22.9182 175.01 18.0178C175.324 10.5053 181.295 4.58102 186.532 0.25533C186.723 0.0906528 186.966 0 187.218 0C187.47 0 187.714 0.0906528 187.904 0.25533C188.09 0.421856 188.21 0.649242 188.243 0.896422C188.276 1.1436 188.219 1.39428 188.082 1.60319C185.107 6.22144 182.478 10.7561 183.075 15.4579C183.662 20.0448 186.815 23.3466 190.146 26.8364C192.272 28.8913 194.152 31.1843 195.75 33.6697C199.825 40.6389 197.101 49.5828 192.848 54.9534C192.755 55.0909 192.631 55.2043 192.485 55.2842C192.339 55.3641 192.177 55.4083 192.01 55.4131ZM182.813 6.58714C179.671 9.92022 177.293 13.7339 177.115 18.1537C176.937 22.5734 179.032 26.9513 182.845 30.5247C183.641 31.277 184.51 31.9875 185.359 32.6771C186.652 33.6885 187.877 34.7846 189.025 35.958C193.037 40.2836 193.76 45.1736 193.508 50.053C195.844 45.2989 196.651 39.3537 193.927 34.7877C192.416 32.439 190.634 30.2753 188.617 28.341C185.202 24.7571 181.661 21.027 180.991 15.8027C180.682 12.6192 181.316 9.41529 182.813 6.58714Z" fill="#093F68"/>
<path d="M202.548 44.2541C203.502 42.3629 204.308 40.4195 204.046 38.5074C203.554 34.9862 199.427 33.0533 198.002 29.9396C197.097 27.7374 197.053 25.2771 197.876 23.0436C198.706 20.8289 199.942 18.7879 201.522 17.0252C199.888 18.9268 200.003 21.842 201.071 24.1198C202.14 26.3975 203.962 28.1842 205.638 30.0545C207.314 31.9248 208.907 34.0145 209.336 36.4908C209.933 40.012 207.388 43.8048 205.356 46.5423C204.45 47.6161 203.601 48.7355 202.81 49.8963C202.2 50.9408 201.807 52.0969 201.654 53.2959C201.501 54.4949 201.592 55.7124 201.92 56.8759C199.731 55.0683 199.532 51.7248 200.349 49.0082C200.955 47.3682 201.691 45.7786 202.548 44.2541Z" fill="#093F68"/>
<path d="M201.92 57.9521C201.679 57.9502 201.446 57.8653 201.26 57.7118C198.536 55.4654 198.526 51.4427 199.343 48.747C199.792 47.4271 200.36 46.1506 201.04 44.9333C201.239 44.5676 201.428 44.1914 201.616 43.8257C202.475 42.1122 203.229 40.315 203.009 38.685C202.789 37.0551 201.459 35.6759 200.066 34.2653C198.846 33.1619 197.826 31.8577 197.049 30.4098C196.02 27.9671 195.96 25.2257 196.881 22.7406C197.729 20.4384 198.997 18.3128 200.621 16.4715C200.65 16.4283 200.685 16.3896 200.726 16.3565C200.81 16.2395 200.918 16.1411 201.042 16.0676C201.167 15.9942 201.305 15.9472 201.449 15.9297C201.592 15.9122 201.738 15.9245 201.877 15.9659C202.015 16.0073 202.143 16.0769 202.254 16.1702C202.364 16.2636 202.454 16.3786 202.517 16.5083C202.581 16.6379 202.616 16.7792 202.623 16.9233C202.629 17.0674 202.605 17.2112 202.552 17.3456C202.5 17.4801 202.42 17.6022 202.318 17.7044L202.245 17.7984C200.935 19.4075 201.197 21.9047 202.014 23.6809C202.971 25.4573 204.189 27.0809 205.628 28.4977L206.414 29.3649C208.1 31.2561 209.891 33.5444 210.363 36.3237C211.012 40.0747 208.624 43.9198 206.173 47.1692C205.858 47.5976 205.523 48.0051 205.188 48.4022C204.637 49.063 204.133 49.7613 203.68 50.4919C203.142 51.4129 202.796 52.4327 202.663 53.4901C202.53 54.5476 202.612 55.621 202.905 56.6461C202.951 56.8052 202.959 56.9732 202.928 57.1361C202.897 57.2989 202.827 57.452 202.725 57.5827C202.622 57.7134 202.49 57.8179 202.339 57.8876C202.188 57.9573 202.023 57.9901 201.857 57.9835L201.92 57.9521ZM203.491 44.7556L202.905 45.8945C202.284 46.996 201.762 48.1498 201.344 49.3425C201.133 50.0641 201.007 50.8073 200.967 51.5576C201.191 50.8011 201.508 50.0747 201.909 49.3948C202.417 48.5935 202.981 47.8289 203.596 47.1066C203.91 46.72 204.224 46.3438 204.518 45.9468C206.676 43.0421 208.812 39.6777 208.299 36.6894C207.912 34.4429 206.34 32.4473 204.853 30.7859C204.601 30.4934 204.34 30.2113 204.078 29.9292C202.493 28.361 201.158 26.5605 200.118 24.59C199.763 23.8242 199.506 23.0168 199.353 22.1868C199.17 22.5851 199.009 22.9932 198.872 23.4093C198.135 25.3931 198.165 27.5795 198.955 29.5426C199.634 30.7623 200.512 31.8606 201.553 32.7921C203.124 34.3907 204.759 36.0311 205.083 38.3925C205.387 40.5971 204.497 42.7495 203.491 44.7556Z" fill="#093F68"/>
<path d="M196.42 125.941H79.4566C77.3335 125.941 75.6123 127.657 75.6123 129.775V158.655C75.6123 160.773 77.3335 162.49 79.4566 162.49H196.42C198.544 162.49 200.265 160.773 200.265 158.655V129.775C200.265 127.657 198.544 125.941 196.42 125.941Z" fill="white"/>
<path d="M196.431 163.535H79.4566C78.1583 163.532 76.9141 163.015 75.997 162.099C75.0799 161.182 74.5648 159.94 74.5648 158.645V129.775C74.5676 128.482 75.0839 127.243 76.0007 126.328C76.9175 125.414 78.1601 124.899 79.4566 124.896H196.431C197.728 124.899 198.97 125.414 199.887 126.328C200.804 127.243 201.32 128.482 201.323 129.775V158.645C201.323 159.94 200.808 161.182 199.891 162.099C198.974 163.015 197.729 163.532 196.431 163.535ZM79.4671 126.965C78.7262 126.967 78.0164 127.262 77.4925 127.785C76.9686 128.307 76.673 129.015 76.6703 129.754V158.624C76.6703 159.365 76.9646 160.075 77.4888 160.6C78.013 161.125 78.7244 161.421 79.4671 161.424H196.431C197.174 161.421 197.885 161.125 198.409 160.6C198.933 160.075 199.228 159.365 199.228 158.624V129.775C199.225 129.036 198.929 128.328 198.406 127.806C197.882 127.283 197.172 126.988 196.431 126.986L79.4671 126.965Z" fill="#093F68"/>
<path d="M115.512 148.405C115.513 149.176 115.386 149.943 115.134 150.672C114.894 151.387 114.509 152.045 114.003 152.605C113.483 153.177 112.843 153.627 112.128 153.922C111.298 154.263 110.407 154.431 109.509 154.413C108.139 154.486 106.781 154.12 105.634 153.368C104.553 152.502 103.845 151.258 103.654 149.889L106.974 149.095C107.062 149.695 107.346 150.249 107.781 150.672C108.203 151.066 108.764 151.277 109.342 151.257C109.756 151.311 110.176 151.241 110.549 151.054C110.923 150.868 111.232 150.575 111.437 150.213C111.844 149.33 112.031 148.362 111.982 147.392V134.007H115.533L115.512 148.405Z" fill="#093F68"/>
<path d="M126.248 134.007H129.391L137.98 153.911H133.927L132.062 149.356H123.42L121.608 153.911H117.638L126.248 134.007ZM130.753 146.326L127.684 138.228L124.541 146.326H130.753Z" fill="#093F68"/>
<path d="M136.105 134.007H140.191L145.627 149.042L151.242 134.007H155.065L147.01 153.911H143.941L136.105 134.007Z" fill="#093F68"/>
<path d="M162.115 134.007H165.184L173.774 153.911H169.72L167.855 149.356H159.213L157.401 153.911H153.483L162.115 134.007ZM166.619 146.326L163.55 138.228L160.407 146.326H166.619Z" fill="#093F68"/>
<path d="M166.431 26.4393H88.3604L83.5943 18.7178C82.8153 17.4632 81.7282 16.4276 80.436 15.709C79.1437 14.9904 77.6889 14.6127 76.2094 14.6116H25.06C22.7597 14.6116 20.5536 15.5231 18.927 17.1455C17.3005 18.768 16.3867 20.9685 16.3867 23.263V26.3975H9.41032C5.22032 26.3975 1.81595 30.2844 1.81595 35.0593V44.0869H174.025V35.0593C174.025 30.3262 170.621 26.4393 166.431 26.4393Z" fill="white"/>
<path d="M174.035 45.1736H1.81593C1.53812 45.1736 1.27168 45.0635 1.07524 44.8675C0.878793 44.6716 0.768433 44.4058 0.768433 44.1287V35.1012C0.768433 29.7515 4.64418 25.3945 9.41031 25.3945H15.3392V23.3048C15.3419 20.734 16.367 18.2694 18.1894 16.4516C20.0118 14.6338 22.4827 13.6113 25.06 13.6085H76.2094C77.8696 13.6014 79.5037 14.0218 80.9534 14.829C82.4031 15.6362 83.6194 16.803 84.4846 18.2164L88.947 25.4363H166.462C171.228 25.4363 175.114 29.7933 175.114 35.143V44.1705C175.103 44.4458 174.984 44.7057 174.782 44.8935C174.58 45.0814 174.312 45.182 174.035 45.1736ZM2.86343 43.0839H172.988V35.1012C172.988 30.9218 170.044 27.4842 166.431 27.4842H88.3604C88.1814 27.4835 88.0056 27.437 87.8497 27.3492C87.6938 27.2614 87.5631 27.1352 87.47 26.9827L82.7039 19.2926C82.0245 18.1836 81.0699 17.2683 79.9322 16.635C78.7945 16.0017 77.5122 15.6718 76.2094 15.6774H25.06C23.0383 15.6801 21.1003 16.4824 19.6708 17.9083C18.2413 19.3342 17.4369 21.2674 17.4342 23.2839V26.4184C17.4342 26.6956 17.3238 26.9613 17.1274 27.1573C16.9309 27.3532 16.6645 27.4633 16.3867 27.4633H9.41031C5.79643 27.4633 2.86343 30.88 2.86343 35.0803V43.0839Z" fill="#093F68"/>
<path d="M34.875 33.4189C37.1139 33.4189 38.9289 31.6086 38.9289 29.3754C38.9289 27.1422 37.1139 25.3318 34.875 25.3318C32.6362 25.3318 30.8212 27.1422 30.8212 29.3754C30.8212 31.6086 32.6362 33.4189 34.875 33.4189Z" fill="#093F68"/>
<path d="M34.875 34.4638C33.8661 34.4638 32.8798 34.1654 32.0409 33.6062C31.202 33.0471 30.5481 32.2524 30.162 31.3226C29.7759 30.3928 29.6749 29.3697 29.8717 28.3827C30.0686 27.3956 30.5544 26.4889 31.2679 25.7773C31.9813 25.0657 32.8903 24.581 33.8798 24.3847C34.8694 24.1884 35.8951 24.2891 36.8272 24.6743C37.7594 25.0594 38.5561 25.7116 39.1166 26.5484C39.6772 27.3852 39.9764 28.369 39.9764 29.3754C39.9736 30.7241 39.4353 32.0167 38.4792 32.9704C37.5231 33.9241 36.2271 34.461 34.875 34.4638ZM34.875 26.3766C34.2804 26.3766 33.6992 26.5525 33.2048 26.882C32.7104 27.2115 32.3251 27.6799 32.0976 28.2278C31.87 28.7757 31.8105 29.3787 31.9265 29.9604C32.0425 30.5421 32.3288 31.0764 32.7492 31.4958C33.1697 31.9152 33.7054 32.2008 34.2885 32.3165C34.8717 32.4322 35.4762 32.3728 36.0255 32.1458C36.5748 31.9189 37.0444 31.5345 37.3747 31.0414C37.705 30.5482 37.8814 29.9685 37.8814 29.3754C37.8814 28.5801 37.5646 27.8173 37.0008 27.2549C36.437 26.6926 35.6724 26.3766 34.875 26.3766Z" fill="#093F68"/>
<path d="M51.2475 33.4189C53.4863 33.4189 55.3013 31.6086 55.3013 29.3754C55.3013 27.1422 53.4863 25.3318 51.2475 25.3318C49.0086 25.3318 47.1936 27.1422 47.1936 29.3754C47.1936 31.6086 49.0086 33.4189 51.2475 33.4189Z" fill="#FFC3D5"/>
<path d="M51.2474 34.4638C50.2385 34.4638 49.2522 34.1654 48.4133 33.6062C47.5744 33.0471 46.9205 32.2524 46.5344 31.3226C46.1483 30.3928 46.0473 29.3697 46.2441 28.3827C46.441 27.3956 46.9268 26.4889 47.6403 25.7773C48.3537 25.0657 49.2627 24.581 50.2522 24.3847C51.2418 24.1884 52.2675 24.2891 53.1996 24.6743C54.1318 25.0594 54.9285 25.7116 55.489 26.5484C56.0496 27.3852 56.3488 28.369 56.3488 29.3754C56.346 30.7241 55.8077 32.0167 54.8516 32.9704C53.8955 33.9241 52.5995 34.461 51.2474 34.4638ZM51.2474 26.3766C50.6528 26.3766 50.0716 26.5525 49.5772 26.882C49.0828 27.2115 48.6975 27.6799 48.47 28.2278C48.2424 28.7757 48.1829 29.3787 48.2989 29.9604C48.4149 30.5421 48.7012 31.0764 49.1216 31.4958C49.5421 31.9152 50.0778 32.2008 50.6609 32.3165C51.2441 32.4322 51.8486 32.3728 52.3979 32.1458C52.9472 31.9189 53.4168 31.5345 53.7471 31.0414C54.0774 30.5482 54.2538 29.9685 54.2538 29.3754C54.2538 28.5801 53.937 27.8173 53.3732 27.2549C52.8094 26.6926 52.0448 26.3766 51.2474 26.3766Z" fill="#093F68"/>
<path d="M67.6199 33.4189C69.8588 33.4189 71.6737 31.6086 71.6737 29.3754C71.6737 27.1422 69.8588 25.3318 67.6199 25.3318C65.381 25.3318 63.5661 27.1422 63.5661 29.3754C63.5661 31.6086 65.381 33.4189 67.6199 33.4189Z" fill="#FFC3D5"/>
<path d="M67.5885 34.4638C66.5795 34.4638 65.5932 34.1654 64.7543 33.6062C63.9154 33.0471 63.2615 32.2524 62.8754 31.3226C62.4893 30.3928 62.3883 29.3697 62.5851 28.3827C62.782 27.3956 63.2678 26.4889 63.9813 25.7773C64.6947 25.0657 65.6037 24.581 66.5932 24.3847C67.5828 24.1884 68.6085 24.2891 69.5406 24.6743C70.4728 25.0594 71.2695 25.7116 71.83 26.5484C72.3906 27.3852 72.6898 28.369 72.6898 29.3754C72.687 30.7241 72.1487 32.0167 71.1926 32.9704C70.2365 33.9241 68.9406 34.461 67.5885 34.4638ZM67.5885 26.3766C66.9939 26.3766 66.4126 26.5525 65.9182 26.882C65.4238 27.2115 65.0385 27.6799 64.811 28.2278C64.5834 28.7757 64.5239 29.3787 64.6399 29.9604C64.7559 30.5421 65.0422 31.0764 65.4627 31.4958C65.8831 31.9152 66.4188 32.2008 67.002 32.3165C67.5851 32.4322 68.1896 32.3728 68.7389 32.1458C69.2883 31.9189 69.7578 31.5345 70.0881 31.0414C70.4185 30.5482 70.5948 29.9685 70.5948 29.3754C70.5948 28.5801 70.278 27.8173 69.7143 27.2549C69.1505 26.6926 68.3858 26.3766 67.5885 26.3766Z" fill="#093F68"/>
</svg>
