<svg xmlns="http://www.w3.org/2000/svg" width="227" height="155" viewBox="0 0 227 155" fill="none">
  <path d="M193.325 113.143C192.809 113.144 192.306 112.983 191.888 112.682C191.469 112.382 191.156 111.957 190.994 111.468C190.896 111.166 190.86 110.848 190.886 110.532C190.913 110.216 191.003 109.908 191.15 109.626C191.297 109.345 191.498 109.095 191.743 108.892C191.988 108.689 192.27 108.537 192.574 108.444C204.624 104.641 218.59 95.6365 220.763 84.9275C221.247 82.5926 221.217 79.3021 218.402 76.9475C210.787 70.593 200.723 80.6715 200.298 81.105C199.844 81.5633 199.229 81.8269 198.584 81.8398C197.938 81.8527 197.313 81.6138 196.841 81.1739C196.61 80.9573 196.424 80.697 196.295 80.408C196.165 80.1191 196.095 79.8074 196.088 79.491C196.08 79.1746 196.136 78.86 196.252 78.5654C196.368 78.2707 196.541 78.0021 196.762 77.775C201.454 72.9772 212.664 65.8543 221.573 73.2826C225.188 76.3071 226.61 80.77 225.523 85.8733C222.946 98.5723 207.844 108.661 194.026 113.025C193.799 113.098 193.563 113.138 193.325 113.143Z" fill="#FFC3D5"/>
  <path d="M193.325 114.128C192.601 114.133 191.895 113.909 191.307 113.487C190.72 113.066 190.282 112.469 190.056 111.784C189.915 111.363 189.861 110.919 189.896 110.477C189.932 110.035 190.057 109.605 190.263 109.212C190.464 108.813 190.741 108.458 191.081 108.167C191.42 107.877 191.813 107.656 192.239 107.518C204.022 103.794 217.662 95.0847 219.755 84.7403C220.18 82.6615 220.17 79.7552 217.731 77.7159C210.817 71.9525 201.365 81.4005 200.94 81.8044C200.306 82.4482 199.443 82.8181 198.538 82.8346C197.634 82.8512 196.758 82.5132 196.1 81.8931C195.772 81.5892 195.51 81.2221 195.328 80.814C195.146 80.4059 195.05 79.9652 195.044 79.5188C195.036 79.0693 195.12 78.6229 195.29 78.2065C195.459 77.7901 195.712 77.4121 196.031 77.0952C200.97 72.0707 212.713 64.6424 222.175 72.5436C226.126 75.8046 227.617 80.6025 226.511 86.0801C223.854 99.1732 208.437 109.528 194.342 113.971C194.013 114.074 193.67 114.127 193.325 114.128ZM212.743 73.8736C215.053 73.8642 217.288 74.6902 219.034 76.1987C222.225 78.8587 222.264 82.5236 221.741 85.1245C219.479 96.2472 205.187 105.498 192.871 109.38C192.687 109.435 192.517 109.528 192.371 109.652C192.225 109.775 192.106 109.928 192.021 110.099C191.934 110.261 191.881 110.439 191.866 110.622C191.851 110.805 191.873 110.989 191.932 111.163C192.058 111.527 192.323 111.827 192.668 111.998C193.013 112.169 193.413 112.198 193.779 112.079C207.34 107.843 222.156 97.991 224.605 85.6762C225.593 80.9473 224.259 76.8095 220.941 74.0411C212.585 67.0758 201.938 73.8835 197.473 78.4646C197.213 78.7266 197.067 79.0807 197.067 79.4498C197.067 79.8188 197.213 80.173 197.473 80.435C197.753 80.7041 198.127 80.8544 198.515 80.8544C198.904 80.8544 199.278 80.7041 199.557 80.435C199.933 80.0705 206.155 73.8736 212.743 73.8736Z" fill="#093F68"/>
  <path d="M134.124 64.1991H208.387L202.323 105.961C201.47 111.906 198.497 117.346 193.949 121.281C189.401 125.217 183.583 127.386 177.562 127.389H164.939C158.919 127.381 153.104 125.212 148.556 121.277C144.009 117.342 141.035 111.905 140.178 105.961L134.124 64.1991Z" fill="#FFC3D5"/>
  <path d="M177.562 128.374H164.939C158.687 128.341 152.654 126.076 147.931 121.99C143.209 117.905 140.108 112.267 139.19 106.099L133.136 64.3469C133.114 64.2057 133.124 64.0615 133.164 63.9244C133.204 63.7872 133.273 63.6604 133.367 63.5526C133.461 63.4448 133.577 63.3587 133.708 63.3002C133.838 63.2418 133.98 63.2123 134.123 63.2139H208.387C208.53 63.2123 208.672 63.2418 208.803 63.3002C208.933 63.3587 209.05 63.4448 209.144 63.5526C209.238 63.6604 209.307 63.7872 209.347 63.9244C209.387 64.0615 209.396 64.2057 209.375 64.3469L203.311 106.099C202.397 112.269 199.297 117.909 194.573 121.995C189.85 126.081 183.814 128.345 177.562 128.374ZM135.239 65.1843L141.166 105.873C142.014 111.57 144.879 116.777 149.241 120.551C153.603 124.326 159.174 126.419 164.949 126.453H177.572C183.346 126.419 188.918 124.326 193.28 120.551C197.642 116.777 200.506 111.57 201.355 105.873L207.281 65.2336L135.239 65.1843Z" fill="#093F68"/>
  <path d="M163.497 33.0968V135.556C163.497 140.068 160.287 143.723 156.336 143.723H8.28277C4.33204 143.723 1.12207 140.068 1.12207 135.556V33.0968C1.12207 28.5945 4.32216 24.9296 8.28277 24.9296H156.336C160.287 24.9296 163.497 28.5945 163.497 33.0968Z" fill="#FBE6EA"/>
  <path d="M156.336 144.699H8.28266C3.7887 144.699 0.134277 140.59 0.134277 135.546V33.0868C0.134277 28.0427 3.7887 23.9344 8.28266 23.9344H156.336C160.83 23.9344 164.495 28.0427 164.495 33.0868V135.546C164.495 140.59 160.83 144.699 156.336 144.699ZM8.28266 25.9147C4.87516 25.9147 2.10964 29.1362 2.10964 33.0967V135.556C2.10964 139.497 4.87516 142.738 8.28266 142.738H156.336C159.744 142.738 162.519 139.517 162.519 135.556V33.0967C162.519 29.1559 159.744 25.9147 156.336 25.9147H8.28266Z" fill="#093F68"/>
  <path d="M60.8076 63.3025H26.4757C25.6899 63.3025 24.9362 62.9911 24.3806 62.4368C23.8249 61.8825 23.5127 61.1308 23.5127 60.3469C23.5127 59.5631 23.8249 58.8113 24.3806 58.257C24.9362 57.7028 25.6899 57.3914 26.4757 57.3914H60.8076C61.5935 57.3914 62.3471 57.7028 62.9028 58.257C63.4585 58.8113 63.7707 59.5631 63.7707 60.3469C63.7707 61.1308 63.4585 61.8825 62.9028 62.4368C62.3471 62.9911 61.5935 63.3025 60.8076 63.3025Z" fill="#093F68"/>
  <path d="M70.8327 66.3272C70.5882 66.1751 70.3889 65.9607 70.2552 65.7061C70.1215 65.4516 70.0583 65.166 70.0722 64.879V61.6673C70.0937 61.513 70.075 61.3558 70.0179 61.2109C69.9608 61.0659 69.8672 60.9381 69.7462 60.8397C69.3665 60.6538 68.9428 60.5754 68.5215 60.6131V59.0467C68.9419 59.0864 69.3652 59.0115 69.7462 58.8299C69.8618 58.7271 69.9515 58.5987 70.0081 58.4549C70.0647 58.3111 70.0867 58.1561 70.0722 58.0024V54.7808C70.0583 54.4938 70.1215 54.2082 70.2552 53.9537C70.3889 53.6991 70.5882 53.4847 70.8327 53.3326C71.4304 52.9843 72.1166 52.8166 72.808 52.8498H74.1809V54.4163H73.7858C73.4338 54.3844 73.0824 54.4826 72.7982 54.6921C72.6753 54.8225 72.5831 54.9786 72.5284 55.1491C72.4738 55.3195 72.4579 55.5 72.4821 55.6773V58.2979C72.4821 59.1156 71.9784 59.6279 70.9808 59.8348C71.9685 60.0516 72.4821 60.5639 72.4821 61.3717V63.9923C72.4593 64.1696 72.4758 64.3497 72.5304 64.5199C72.585 64.6901 72.6764 64.8463 72.7982 64.9775C73.086 65.1788 73.4355 65.2729 73.7858 65.2435H74.1809V66.8198H72.808C72.1156 66.85 71.4293 66.6789 70.8327 66.3272Z" fill="#093F68"/>
  <path d="M26.14 86.6318H24.7671V85.0654H25.1622C25.5142 85.0982 25.8661 85 26.1498 84.7895C26.2745 84.66 26.3685 84.5043 26.4249 84.3338C26.4813 84.1633 26.4987 83.9824 26.4758 83.8043V81.2428C26.4758 80.4251 26.9696 79.9128 27.9771 79.706C26.9894 79.4991 26.4758 78.9868 26.4758 78.1691V75.5583C26.498 75.3803 26.4802 75.1995 26.4239 75.0292C26.3675 74.8588 26.2739 74.703 26.1498 74.5731C25.8627 74.3703 25.5126 74.276 25.1622 74.3071H24.7671V72.7308H26.14C26.8325 72.6994 27.5191 72.8707 28.1153 73.2234C28.3623 73.3735 28.5642 73.5872 28.6998 73.8421C28.8353 74.0969 28.8996 74.3835 28.8857 74.6716V77.8834C28.864 78.0367 28.8816 78.193 28.9369 78.3377C28.9921 78.4825 29.0833 78.6109 29.2018 78.7109C29.5828 78.8925 30.0061 78.9674 30.4265 78.9277V80.504C30.0061 80.4642 29.5828 80.5391 29.2018 80.7207C29.084 80.8213 28.9934 80.9498 28.9382 81.0944C28.8829 81.2389 28.8649 81.395 28.8857 81.5483V84.7698C28.8996 85.058 28.8353 85.3445 28.6998 85.5994C28.5642 85.8542 28.3623 86.0679 28.1153 86.218C27.5108 86.5434 26.8247 86.6871 26.14 86.6318Z" fill="#093F68"/>
  <path d="M26.14 126.404H24.7671V124.828H25.1622C25.5126 124.859 25.8627 124.764 26.1498 124.562C26.2733 124.431 26.3665 124.275 26.4229 124.105C26.4792 123.935 26.4973 123.754 26.4758 123.576V120.956C26.4758 120.148 26.9696 119.636 27.9771 119.419C26.9894 119.212 26.4758 118.7 26.4758 117.882V115.261C26.4987 115.083 26.4813 114.902 26.4249 114.732C26.3685 114.561 26.2745 114.406 26.1498 114.276C25.8661 114.066 25.5142 113.968 25.1622 114H24.7671V112.424H26.14C26.8325 112.393 27.5191 112.564 28.1153 112.917C28.3623 113.067 28.5642 113.28 28.6998 113.535C28.8353 113.79 28.8996 114.077 28.8857 114.365V117.577C28.8684 117.731 28.888 117.888 28.9429 118.033C28.9979 118.179 29.0866 118.309 29.2018 118.414C29.5843 118.591 30.0063 118.666 30.4265 118.631V120.197C30.0052 120.159 29.5815 120.238 29.2018 120.424C29.0825 120.523 28.9909 120.652 28.9355 120.796C28.8802 120.941 28.863 121.098 28.8857 121.251V124.463C28.8996 124.751 28.8353 125.038 28.6998 125.293C28.5642 125.547 28.3623 125.761 28.1153 125.911C27.5191 126.264 26.8325 126.435 26.14 126.404Z" fill="#093F68"/>
  <path d="M128.326 86.1688C128.081 86.0166 127.882 85.8022 127.748 85.5477C127.615 85.2931 127.551 85.0076 127.565 84.7205V81.499C127.586 81.3457 127.568 81.1896 127.513 81.0451C127.458 80.9005 127.367 80.772 127.249 80.6714C126.868 80.4908 126.445 80.4159 126.024 80.4547V78.8784C126.445 78.9171 126.868 78.8423 127.249 78.6616C127.368 78.5616 127.459 78.4332 127.514 78.2885C127.569 78.1438 127.587 77.9874 127.565 77.8341V74.6224C127.551 74.3353 127.615 74.0498 127.748 73.7952C127.882 73.5407 128.081 73.3263 128.326 73.1741C128.923 72.824 129.609 72.653 130.301 72.6815H131.684V74.2578H131.289C130.939 74.2309 130.59 74.3248 130.301 74.5238C130.18 74.6557 130.09 74.812 130.035 74.982C129.981 75.152 129.964 75.3318 129.985 75.509V78.1198C129.985 78.9375 129.481 79.4498 128.484 79.6567C129.471 79.8636 129.985 80.3758 129.985 81.1936V83.8142C129.963 83.9914 129.98 84.1713 130.034 84.3415C130.089 84.5116 130.18 84.6678 130.301 84.7993C130.586 85.0065 130.937 85.1044 131.289 85.0752H131.684V86.6416H130.301C129.611 86.6761 128.925 86.512 128.326 86.1688Z" fill="#093F68"/>
  <path d="M132.909 85.0654H133.304C133.656 85.0982 134.007 85 134.291 84.7895C134.416 84.66 134.51 84.5043 134.566 84.3338C134.623 84.1633 134.64 83.9824 134.617 83.8043V81.2428C134.617 80.4251 135.111 79.9128 136.109 79.706C135.121 79.4991 134.617 78.9868 134.617 78.1691V75.5583C134.639 75.3803 134.622 75.1995 134.565 75.0292C134.509 74.8588 134.415 74.703 134.291 74.5731C134.004 74.3703 133.654 74.276 133.304 74.3071H132.909V72.7308H134.252C134.944 72.7006 135.63 72.8717 136.227 73.2234C136.473 73.374 136.674 73.5881 136.807 73.843C136.941 74.098 137.004 74.3843 136.988 74.6717V77.8834C136.968 78.0375 136.988 78.1941 137.045 78.3387C137.102 78.4833 137.194 78.6113 137.314 78.7109C137.695 78.8925 138.118 78.9674 138.538 78.9277V80.504C138.118 80.4642 137.695 80.5391 137.314 80.7207C137.198 80.8235 137.108 80.952 137.052 81.0957C136.995 81.2395 136.973 81.3945 136.988 81.5483V84.7698C136.995 85.049 136.928 85.3251 136.795 85.5706C136.661 85.8161 136.466 86.0223 136.227 86.1688C135.629 86.517 134.943 86.6847 134.252 86.6515H132.879L132.909 85.0654Z" fill="#093F68"/>
  <path d="M148.524 86.6318H147.151C146.459 86.665 145.773 86.4973 145.175 86.1491C144.93 85.9985 144.729 85.7844 144.595 85.5295C144.461 85.2745 144.399 84.9882 144.415 84.7008V81.4793C144.429 81.3255 144.407 81.1705 144.351 81.0268C144.294 80.883 144.205 80.7545 144.089 80.6517C143.708 80.4702 143.285 80.3952 142.864 80.435V78.8587C143.285 78.8984 143.708 78.8235 144.089 78.642C144.209 78.5424 144.301 78.4144 144.358 78.2697C144.415 78.1251 144.435 77.9685 144.415 77.8144V74.6027C144.399 74.3153 144.461 74.029 144.595 73.7741C144.729 73.5191 144.93 73.305 145.175 73.1545C145.772 72.8028 146.458 72.6316 147.151 72.6619H148.524V74.2382H148.129C147.778 74.207 147.428 74.3013 147.141 74.5042C147.017 74.6341 146.923 74.7898 146.867 74.9602C146.811 75.1306 146.793 75.3113 146.815 75.4894V78.1001C146.815 78.9178 146.321 79.4301 145.324 79.637C146.311 79.8439 146.815 80.3562 146.815 81.1739V83.7945C146.792 83.9725 146.809 84.1535 146.866 84.324C146.922 84.4944 147.016 84.6502 147.141 84.7797C147.425 84.9901 147.777 85.0883 148.129 85.0555H148.524V86.6318Z" fill="#093F68"/>
  <path d="M115.901 82.6024H41.2023C40.4165 82.6024 39.6628 82.291 39.1071 81.7367C38.5514 81.1825 38.2393 80.4307 38.2393 79.6468C38.2393 78.863 38.5514 78.1112 39.1071 77.5569C39.6628 77.0027 40.4165 76.6913 41.2023 76.6913H115.901C116.687 76.6913 117.44 77.0027 117.996 77.5569C118.552 78.1112 118.864 78.863 118.864 79.6468C118.864 80.4307 118.552 81.1825 117.996 81.7367C117.44 82.291 116.687 82.6024 115.901 82.6024Z" fill="#093F68"/>
  <path d="M26.14 105.626H24.7671V104.06H25.1622C25.5138 104.088 25.864 103.99 26.1498 103.784C26.2745 103.654 26.3685 103.499 26.4249 103.328C26.4813 103.158 26.4987 102.977 26.4758 102.799V100.178C26.4758 99.3605 26.9696 98.8482 27.9771 98.6413C26.9894 98.4344 26.4758 97.9221 26.4758 97.1044V94.4838C26.4987 94.3057 26.4813 94.1248 26.4249 93.9543C26.3685 93.7839 26.2745 93.6281 26.1498 93.4986C25.864 93.2923 25.5138 93.1945 25.1622 93.2228H24.7671V91.6563H26.14C26.833 91.6202 27.5209 91.7918 28.1153 92.1489C28.3623 92.299 28.5642 92.5127 28.6998 92.7676C28.8353 93.0224 28.8996 93.309 28.8857 93.5971V96.8089C28.8649 96.9622 28.8829 97.1182 28.9382 97.2628C28.9934 97.4073 29.084 97.5358 29.2018 97.6364C29.5828 97.818 30.0061 97.8929 30.4265 97.8532V99.4295C30.0061 99.3897 29.5828 99.4646 29.2018 99.6462C29.084 99.7468 28.9934 99.8753 28.9382 100.02C28.8829 100.164 28.8649 100.32 28.8857 100.474V103.685C28.8982 103.975 28.8335 104.262 28.6981 104.518C28.5628 104.775 28.3617 104.99 28.1153 105.144C27.518 105.493 26.8315 105.661 26.14 105.626Z" fill="#093F68"/>
  <path d="M120.928 105.143C120.684 104.988 120.485 104.772 120.352 104.516C120.219 104.26 120.155 103.974 120.167 103.685V100.474C120.183 100.321 120.163 100.166 120.108 100.023C120.053 99.8788 119.965 99.7499 119.851 99.6462C119.467 99.4647 119.04 99.3899 118.617 99.4294V97.8531C119.04 97.8927 119.467 97.8178 119.851 97.6364C119.965 97.5326 120.053 97.4037 120.108 97.26C120.163 97.1163 120.183 96.9618 120.167 96.8088V93.5971C120.154 93.3101 120.217 93.0245 120.35 92.77C120.484 92.5154 120.683 92.301 120.928 92.1489C121.523 91.7929 122.21 91.6214 122.903 91.6563H124.276V93.2227H123.881C123.53 93.1979 123.181 93.2954 122.893 93.4986C122.77 93.629 122.678 93.7851 122.624 93.9555C122.569 94.126 122.553 94.3065 122.577 94.4838V97.1044C122.577 97.9221 122.074 98.4344 121.076 98.6413C122.064 98.8482 122.577 99.3605 122.577 100.178V102.799C122.553 102.976 122.569 103.157 122.624 103.327C122.678 103.497 122.77 103.654 122.893 103.784C123.181 103.987 123.53 104.085 123.881 104.06H124.276V105.626H122.893C122.205 105.658 121.523 105.49 120.928 105.143Z" fill="#093F68"/>
  <path d="M125.501 104.06H125.886C126.237 104.084 126.586 103.986 126.874 103.784C126.995 103.652 127.086 103.496 127.141 103.326C127.195 103.156 127.212 102.976 127.19 102.799V100.178C127.19 99.3604 127.694 98.8481 128.691 98.6412C127.704 98.4344 127.19 97.9221 127.19 97.1044V94.4838C127.212 94.3065 127.195 94.1266 127.141 93.9564C127.086 93.7863 126.995 93.6301 126.874 93.4986C126.586 93.2961 126.237 93.1986 125.886 93.2227H125.501V91.6563H126.874C127.567 91.6225 128.254 91.7939 128.849 92.1489C129.094 92.301 129.293 92.5154 129.427 92.7699C129.56 93.0245 129.624 93.31 129.61 93.5971V96.8088C129.594 96.9618 129.614 97.1163 129.669 97.26C129.724 97.4037 129.812 97.5326 129.926 97.6363C130.31 97.8178 130.737 97.8927 131.16 97.8531V99.4294C130.737 99.3898 130.31 99.4647 129.926 99.6461C129.812 99.7499 129.724 99.8788 129.669 100.022C129.614 100.166 129.594 100.321 129.61 100.474V103.685C129.622 103.974 129.559 104.26 129.425 104.516C129.292 104.772 129.093 104.988 128.849 105.143C128.251 105.49 127.565 105.658 126.874 105.626H125.501V104.06Z" fill="#093F68"/>
  <path d="M141.165 105.626H139.783C139.091 105.658 138.406 105.49 137.807 105.143C137.563 104.988 137.365 104.772 137.231 104.516C137.098 104.26 137.034 103.974 137.047 103.685V100.474C137.067 100.32 137.049 100.164 136.994 100.02C136.939 99.8752 136.848 99.7468 136.731 99.6461C136.349 99.4655 135.926 99.3906 135.506 99.4294V97.8531C135.926 97.8918 136.349 97.817 136.731 97.6363C136.848 97.5357 136.939 97.4073 136.994 97.2627C137.049 97.1181 137.067 96.9621 137.047 96.8088V93.5971C137.033 93.31 137.096 93.0245 137.23 92.7699C137.363 92.5154 137.563 92.301 137.807 92.1489C138.403 91.7939 139.09 91.6225 139.783 91.6563H141.165V93.2227H140.77C140.419 93.1986 140.07 93.2961 139.783 93.4986C139.661 93.6301 139.57 93.7863 139.516 93.9564C139.461 94.1266 139.444 94.3065 139.466 94.4838V97.1044C139.466 97.9221 138.963 98.4344 137.965 98.6412C138.953 98.8481 139.466 99.3604 139.466 100.178V102.799C139.444 102.976 139.461 103.156 139.516 103.326C139.57 103.496 139.661 103.652 139.783 103.784C140.07 103.986 140.419 104.084 140.77 104.06H141.165V105.626Z" fill="#093F68"/>
  <path d="M108.187 101.597H74.1711C73.3852 101.597 72.6315 101.285 72.0759 100.731C71.5202 100.177 71.208 99.4251 71.208 98.6412C71.208 97.8574 71.5202 97.1056 72.0759 96.5513C72.6315 95.9971 73.3852 95.6857 74.1711 95.6857H108.187C108.973 95.6857 109.726 95.9971 110.282 96.5513C110.838 97.1056 111.15 97.8574 111.15 98.6412C111.15 99.4251 110.838 100.177 110.282 100.731C109.726 101.285 108.973 101.597 108.187 101.597Z" fill="#093F68"/>
  <path d="M63.277 101.597H41.2023C40.4165 101.597 39.6628 101.285 39.1071 100.731C38.5514 100.177 38.2393 99.4251 38.2393 98.6412C38.2393 97.8574 38.5514 97.1056 39.1071 96.5513C39.6628 95.9971 40.4165 95.6857 41.2023 95.6857H63.277C64.0629 95.6857 64.8165 95.9971 65.3722 96.5513C65.9279 97.1056 66.2401 97.8574 66.2401 98.6412C66.2401 99.4251 65.9279 100.177 65.3722 100.731C64.8165 101.285 64.0629 101.597 63.277 101.597Z" fill="#093F68"/>
  <path d="M171.033 14.7625C170.401 9.83654 173.216 5.20616 175.902 1.03882C170.845 5.26527 165.68 10.5065 165.413 17.0777C165.225 21.777 167.685 26.2892 171.122 29.5009C172.998 31.2545 175.151 32.7027 176.9 34.5746C181.473 39.5005 181.265 45.1456 180.455 51.2637C184.525 46.1308 186.52 38.1311 183.112 32.3087C179.566 26.2498 171.991 22.2105 171.033 14.7625Z" fill="#093F68"/>
  <path d="M180.456 52.2488C180.324 52.2463 180.193 52.2196 180.071 52.17C179.872 52.0857 179.707 51.939 179.6 51.7522C179.493 51.5654 179.45 51.3488 179.478 51.1355C180.229 45.451 180.555 39.9536 176.179 35.2444C175.162 34.1862 174.073 33.1987 172.92 32.2889C172.1 31.619 171.251 30.9195 170.451 30.1707C166.431 26.4073 164.238 21.6095 164.426 16.9889C164.722 9.90543 170.352 4.31942 175.29 0.24075C175.47 0.0854761 175.699 0 175.937 0C176.175 0 176.404 0.0854761 176.584 0.24075C176.759 0.397766 176.873 0.612168 176.904 0.845232C176.934 1.0783 176.881 1.31466 176.752 1.51164C173.947 5.86617 171.468 10.1419 172.031 14.5752C172.584 18.9002 175.557 22.0134 178.698 25.3039C180.702 27.2415 182.475 29.4035 183.982 31.747C187.824 38.3182 185.256 46.7514 181.246 51.8153C181.158 51.9449 181.041 52.0518 180.903 52.1272C180.766 52.2026 180.613 52.2443 180.456 52.2488ZM171.784 6.21098C168.821 9.35373 166.579 12.9497 166.411 17.117C166.243 21.2843 168.218 25.4123 171.814 28.7816C172.564 29.491 173.384 30.1609 174.184 30.8111C175.404 31.7648 176.559 32.7982 177.641 33.9046C181.424 37.9833 182.105 42.5939 181.868 47.1948C184.071 42.7122 184.831 37.1064 182.263 32.8012C180.838 30.5866 179.157 28.5465 177.256 26.7226C174.036 23.3434 170.697 19.8263 170.065 14.9003C169.775 11.8986 170.372 8.87764 171.784 6.21098Z" fill="#093F68"/>
  <path d="M190.392 41.7271C191.29 39.9439 192.051 38.1114 191.804 36.3085C191.34 32.9885 187.448 31.1659 186.105 28.23C185.252 26.1536 185.21 23.8337 185.987 21.7278C186.769 19.6395 187.934 17.7151 189.424 16.0531C187.883 17.8461 187.992 20.5948 188.999 22.7425C190.006 24.8902 191.725 26.5749 193.305 28.3384C194.886 30.1019 196.387 32.0722 196.792 34.4071C197.355 37.7272 194.955 41.3034 193.039 43.8846C192.185 44.8971 191.384 45.9526 190.639 47.0471C190.064 48.0319 189.693 49.122 189.549 50.2526C189.404 51.3831 189.49 52.531 189.799 53.6281C187.735 51.9238 187.547 48.7712 188.317 46.2097C188.889 44.6634 189.583 43.1645 190.392 41.7271Z" fill="#093F68"/>
  <path d="M189.799 54.6428C189.572 54.641 189.352 54.561 189.177 54.4162C186.609 52.2981 186.599 48.5051 187.369 45.9633C187.792 44.7188 188.328 43.5152 188.969 42.3674C189.157 42.0226 189.335 41.6679 189.513 41.3231C190.322 39.7074 191.034 38.0129 190.826 36.476C190.619 34.9391 189.364 33.6386 188.051 32.3086C186.901 31.2682 185.939 30.0386 185.206 28.6733C184.236 26.37 184.18 23.7853 185.048 21.442C185.847 19.2713 187.043 17.2671 188.574 15.5309C188.602 15.4903 188.635 15.4538 188.673 15.4225C188.753 15.3121 188.854 15.2194 188.972 15.1501C189.089 15.0809 189.22 15.0366 189.355 15.0201C189.49 15.0036 189.628 15.0152 189.758 15.0543C189.889 15.0933 190.01 15.1589 190.114 15.2469C190.218 15.3349 190.302 15.4434 190.362 15.5656C190.422 15.6878 190.456 15.821 190.462 15.9569C190.467 16.0928 190.445 16.2284 190.395 16.3552C190.346 16.4819 190.271 16.5971 190.174 16.6934L190.105 16.7821C188.871 18.2993 189.117 20.6539 189.888 22.3287C190.79 24.0036 191.939 25.5345 193.295 26.8704L194.036 27.6881C195.626 29.4713 197.315 31.6289 197.76 34.2495C198.372 37.7863 196.12 41.4118 193.809 44.4757C193.513 44.8796 193.197 45.2639 192.881 45.6382C192.361 46.2613 191.886 46.9197 191.458 47.6086C190.951 48.477 190.625 49.4386 190.5 50.4356C190.374 51.4327 190.452 52.4448 190.727 53.4114C190.771 53.5614 190.779 53.7198 190.75 53.8734C190.72 54.0269 190.654 54.1713 190.558 54.2945C190.461 54.4177 190.337 54.5163 190.195 54.582C190.052 54.6477 189.896 54.6787 189.74 54.6724L189.799 54.6428ZM191.281 42.1999L190.727 43.2738C190.142 44.3123 189.65 45.4002 189.256 46.5249C189.057 47.2052 188.938 47.906 188.9 48.6135C189.112 47.9001 189.411 47.2153 189.789 46.5742C190.268 45.8187 190.799 45.0977 191.379 44.4166C191.676 44.0521 191.972 43.6974 192.248 43.323C194.283 40.5842 196.298 37.4119 195.814 34.5943C195.449 32.4761 193.967 30.5944 192.565 29.028C192.327 28.7521 192.081 28.4861 191.834 28.2201C190.339 26.7415 189.08 25.0438 188.1 23.1858C187.765 22.4638 187.523 21.7025 187.379 20.9199C187.206 21.2954 187.055 21.6802 186.925 22.0726C186.23 23.9431 186.258 26.0046 187.004 27.8556C187.644 29.0057 188.472 30.0413 189.453 30.9195C190.935 32.4269 192.476 33.9736 192.782 36.2001C193.068 38.2789 192.229 40.3084 191.281 42.1999Z" fill="#093F68"/>
  <path d="M184.614 118.749H74.3289C72.327 118.749 70.7041 120.368 70.7041 122.365V149.595C70.7041 151.592 72.327 153.211 74.3289 153.211H184.614C186.615 153.211 188.238 151.592 188.238 149.595V122.365C188.238 120.368 186.615 118.749 184.614 118.749Z" fill="white"/>
  <path d="M184.624 154.196H74.3293C73.1051 154.193 71.9319 153.706 71.0672 152.842C70.2024 151.978 69.7168 150.806 69.7168 149.585V122.365C69.7194 121.145 70.2062 119.976 71.0706 119.114C71.9351 118.252 73.1068 117.766 74.3293 117.764H184.624C185.846 117.766 187.018 118.252 187.882 119.114C188.747 119.976 189.234 121.145 189.236 122.365V149.585C189.236 150.806 188.751 151.978 187.886 152.842C187.021 153.706 185.848 154.193 184.624 154.196ZM74.3391 119.714C73.6405 119.717 72.9713 119.995 72.4773 120.488C71.9833 120.981 71.7046 121.648 71.702 122.345V149.566C71.702 150.264 71.9796 150.934 72.4738 151.429C72.9681 151.924 73.6388 152.203 74.3391 152.206H184.624C185.324 152.203 185.995 151.924 186.489 151.429C186.983 150.934 187.261 150.264 187.261 149.566V122.365C187.258 121.668 186.98 121 186.486 120.507C185.992 120.015 185.322 119.737 184.624 119.734L74.3391 119.714Z" fill="#093F68"/>
  <path d="M108.325 139.93C108.327 140.658 108.207 141.38 107.97 142.068C107.743 142.742 107.38 143.362 106.903 143.891C106.413 144.43 105.809 144.854 105.135 145.132C104.353 145.454 103.512 145.612 102.666 145.595C101.373 145.664 100.093 145.319 99.0113 144.61C97.9926 143.794 97.3248 142.62 97.1445 141.329L100.275 140.581C100.358 141.146 100.625 141.669 101.036 142.068C101.434 142.439 101.963 142.638 102.508 142.62C102.898 142.671 103.294 142.604 103.646 142.428C103.998 142.253 104.29 141.977 104.483 141.635C104.867 140.802 105.043 139.89 104.997 138.975V126.354H108.345L108.325 139.93Z" fill="#093F68"/>
  <path d="M118.449 126.354H121.412L129.511 145.122H125.689L123.93 140.827H115.782L114.073 145.122H110.33L118.449 126.354ZM122.696 137.97L119.802 130.335L116.839 137.97H122.696Z" fill="#093F68"/>
  <path d="M127.743 126.354H131.595L136.721 140.531L142.015 126.354H145.62L138.025 145.122H135.131L127.743 126.354Z" fill="#093F68"/>
  <path d="M152.267 126.354H155.161L163.26 145.122H159.438L157.679 140.827H149.531L147.822 145.122H144.128L152.267 126.354ZM156.514 137.97L153.62 130.335L150.657 137.97H156.514Z" fill="#093F68"/>
  <path d="M156.336 24.9295H82.7244L78.2305 17.649C77.496 16.466 76.471 15.4895 75.2525 14.812C74.034 14.1345 72.6623 13.7783 71.2673 13.7772H23.0388C20.8698 13.7772 18.7897 14.6367 17.256 16.1665C15.7224 17.6963 14.8607 19.7711 14.8607 21.9346V24.8901H8.28277C4.33204 24.8901 1.12207 28.555 1.12207 33.0573V41.5694H163.497V33.0573C163.497 28.5944 160.287 24.9295 156.336 24.9295Z" fill="white"/>
  <path d="M163.507 42.5939H1.12196C0.86001 42.5939 0.608789 42.4901 0.423562 42.3053C0.238336 42.1206 0.134277 41.87 0.134277 41.6087V33.0967C0.134277 28.0525 3.7887 23.9443 8.28266 23.9443H13.873V21.9739C13.8756 19.55 14.8421 17.226 16.5604 15.5121C18.2787 13.7981 20.6086 12.834 23.0386 12.8314H71.2672C72.8327 12.8247 74.3734 13.221 75.7403 13.9821C77.1072 14.7433 78.254 15.8434 79.0699 17.1761L83.2774 23.9837H156.366C160.86 23.9837 164.524 28.0919 164.524 33.1361V41.6481C164.514 41.9077 164.401 42.1527 164.211 42.3299C164.02 42.507 163.767 42.6019 163.507 42.5939ZM2.10964 40.6235H162.519V33.0967C162.519 29.1559 159.744 25.9147 156.336 25.9147H82.7243C82.5555 25.914 82.3898 25.8701 82.2428 25.7873C82.0958 25.7046 81.9726 25.5856 81.8848 25.4418L77.3908 18.1908C76.7503 17.1452 75.8501 16.2821 74.7774 15.685C73.7047 15.0879 72.4957 14.7769 71.2672 14.7821H23.0386C21.1325 14.7847 19.3051 15.5411 17.9572 16.8856C16.6093 18.2301 15.8509 20.0528 15.8483 21.9542V24.9098C15.8483 25.1711 15.7443 25.4217 15.559 25.6064C15.3738 25.7912 15.1226 25.895 14.8606 25.895H8.28266C4.87516 25.895 2.10964 29.1165 2.10964 33.077V40.6235Z" fill="#093F68"/>
  <path d="M32.293 31.5106C34.404 31.5106 36.1154 29.8036 36.1154 27.6979C36.1154 25.5922 34.404 23.8853 32.293 23.8853C30.182 23.8853 28.4707 25.5922 28.4707 27.6979C28.4707 29.8036 30.182 31.5106 32.293 31.5106Z" fill="#093F68"/>
  <path d="M32.2934 32.4959C31.3421 32.4959 30.4121 32.2145 29.6211 31.6873C28.8301 31.1601 28.2136 30.4108 27.8495 29.5341C27.4855 28.6574 27.3902 27.6927 27.5758 26.762C27.7614 25.8313 28.2195 24.9764 28.8922 24.3054C29.5649 23.6344 30.422 23.1775 31.355 22.9923C32.2881 22.8072 33.2552 22.9022 34.1341 23.2654C35.013 23.6285 35.7643 24.2435 36.2928 25.0325C36.8213 25.8215 37.1034 26.7491 37.1034 27.698C37.1008 28.9697 36.5932 30.1885 35.6917 31.0877C34.7902 31.9869 33.5683 32.4933 32.2934 32.4959ZM32.2934 24.8705C31.7328 24.8705 31.1847 25.0364 30.7186 25.347C30.2524 25.6577 29.8891 26.0993 29.6745 26.616C29.46 27.1326 29.4039 27.7011 29.5132 28.2496C29.6226 28.7981 29.8926 29.3019 30.289 29.6973C30.6854 30.0928 31.1905 30.3621 31.7404 30.4712C32.2903 30.5803 32.8602 30.5243 33.3782 30.3103C33.8962 30.0963 34.3389 29.7339 34.6503 29.2689C34.9618 28.8039 35.1281 28.2572 35.1281 27.698C35.1281 26.9481 34.8294 26.2289 34.2978 25.6987C33.7662 25.1684 33.0452 24.8705 32.2934 24.8705Z" fill="#093F68"/>
  <path d="M47.7305 31.5106C49.8415 31.5106 51.5529 29.8036 51.5529 27.6979C51.5529 25.5922 49.8415 23.8853 47.7305 23.8853C45.6195 23.8853 43.9082 25.5922 43.9082 27.6979C43.9082 29.8036 45.6195 31.5106 47.7305 31.5106Z" fill="#FFC3D5"/>
  <path d="M47.7309 32.4959C46.7796 32.4959 45.8496 32.2145 45.0586 31.6873C44.2676 31.1601 43.6511 30.4108 43.287 29.5341C42.923 28.6574 42.8277 27.6927 43.0133 26.762C43.1989 25.8313 43.657 24.9764 44.3297 24.3054C45.0024 23.6344 45.8595 23.1775 46.7925 22.9923C47.7256 22.8072 48.6927 22.9022 49.5716 23.2654C50.4505 23.6285 51.2018 24.2435 51.7303 25.0325C52.2588 25.8215 52.5409 26.7491 52.5409 27.698C52.5383 28.9697 52.0307 30.1885 51.1292 31.0877C50.2277 31.9869 49.0058 32.4933 47.7309 32.4959ZM47.7309 24.8705C47.1703 24.8705 46.6222 25.0364 46.1561 25.347C45.6899 25.6577 45.3266 26.0993 45.112 26.616C44.8975 27.1326 44.8414 27.7011 44.9507 28.2496C45.0601 28.7981 45.3301 29.3019 45.7265 29.6973C46.1229 30.0928 46.628 30.3621 47.1779 30.4712C47.7278 30.5803 48.2977 30.5243 48.8157 30.3103C49.3337 30.0963 49.7764 29.7339 50.0878 29.2689C50.3993 28.8039 50.5656 28.2572 50.5656 27.698C50.5656 26.9481 50.2669 26.2289 49.7353 25.6987C49.2037 25.1684 48.4827 24.8705 47.7309 24.8705Z" fill="#093F68"/>
  <path d="M63.168 31.5106C65.279 31.5106 66.9904 29.8036 66.9904 27.6979C66.9904 25.5922 65.279 23.8853 63.168 23.8853C61.057 23.8853 59.3457 25.5922 59.3457 27.6979C59.3457 29.8036 61.057 31.5106 63.168 31.5106Z" fill="#FFC3D5"/>
  <path d="M63.1386 32.4959C62.1873 32.4959 61.2573 32.2145 60.4663 31.6873C59.6753 31.1601 59.0588 30.4108 58.6948 29.5341C58.3307 28.6574 58.2354 27.6927 58.421 26.762C58.6066 25.8313 59.0648 24.9764 59.7374 24.3054C60.4101 23.6344 61.2672 23.1775 62.2002 22.9923C63.1333 22.8072 64.1004 22.9022 64.9793 23.2654C65.8583 23.6285 66.6095 24.2435 67.138 25.0325C67.6665 25.8215 67.9486 26.7491 67.9486 27.698C67.946 28.9697 67.4384 30.1885 66.5369 31.0877C65.6355 31.9869 64.4135 32.4933 63.1386 32.4959ZM63.1386 24.8705C62.578 24.8705 62.0299 25.0364 61.5638 25.347C61.0976 25.6577 60.7343 26.0993 60.5198 26.616C60.3052 27.1326 60.2491 27.7011 60.3585 28.2496C60.4678 28.7981 60.7378 29.3019 61.1342 29.6973C61.5307 30.0928 62.0358 30.3621 62.5856 30.4712C63.1355 30.5803 63.7054 30.5243 64.2234 30.3103C64.7414 30.0963 65.1841 29.7339 65.4956 29.2689C65.807 28.8039 65.9733 28.2572 65.9733 27.698C65.9733 26.9481 65.6746 26.2289 65.143 25.6987C64.6114 25.1684 63.8904 24.8705 63.1386 24.8705Z" fill="#093F68"/>
</svg>