<svg width="508" height="381" viewBox="0 0 508 381" fill="none" xmlns="http://www.w3.org/2000/svg">
<path d="M471.97 82.561H356.857V194.658H471.97V82.561Z" fill="white"/>
<path d="M471.97 195.239H356.87C356.715 195.239 356.566 195.178 356.457 195.069C356.347 194.96 356.286 194.812 356.286 194.658V82.5611C356.286 82.4069 356.347 82.259 356.457 82.15C356.566 82.041 356.715 81.9797 356.87 81.9797H471.983C472.137 81.983 472.283 82.0452 472.392 82.1536C472.501 82.2619 472.564 82.4079 472.567 82.5611V194.658C472.564 194.813 472.499 194.961 472.388 195.07C472.276 195.178 472.126 195.239 471.97 195.239ZM357.442 194.077H471.386V83.1424H357.442V194.077Z" fill="#B3DBD8"/>
<path d="M471.97 173.945H356.857V194.658H471.97V173.945Z" fill="white"/>
<path d="M471.97 195.239H356.87C356.715 195.239 356.566 195.178 356.457 195.069C356.347 194.96 356.286 194.812 356.286 194.658V173.945C356.284 173.868 356.298 173.791 356.327 173.72C356.355 173.649 356.398 173.584 356.453 173.53C356.508 173.475 356.573 173.433 356.644 173.404C356.716 173.375 356.793 173.362 356.87 173.363H471.983C472.06 173.363 472.135 173.378 472.206 173.408C472.277 173.437 472.342 173.48 472.396 173.534C472.45 173.588 472.493 173.652 472.523 173.722C472.552 173.793 472.567 173.868 472.567 173.945V194.658C472.564 194.813 472.499 194.961 472.388 195.07C472.276 195.178 472.126 195.239 471.97 195.239ZM357.442 194.077H471.386V174.526H357.442V194.077Z" fill="#B3DBD8"/>
<path d="M141.605 189.982H36.0299V109.492L50.4571 94.845H141.605V189.982Z" fill="white"/>
<path d="M141.605 190.563H36.0299C35.875 190.563 35.7264 190.502 35.6168 190.393C35.5073 190.284 35.4457 190.136 35.4457 189.982V109.492C35.4484 109.342 35.5073 109.197 35.6108 109.088L50.038 94.4532C50.1487 94.3414 50.2994 94.2778 50.4571 94.2762H141.605C141.76 94.2762 141.909 94.3375 142.018 94.4465C142.128 94.5555 142.189 94.7034 142.189 94.8576V189.995C142.189 190.07 142.174 190.145 142.145 190.215C142.115 190.285 142.072 190.348 142.017 190.401C141.963 190.454 141.898 190.496 141.828 190.524C141.757 190.551 141.681 190.565 141.605 190.563ZM36.6141 189.401H140.97V95.4263H50.7111L36.6141 109.732V189.401Z" fill="#B3DBD8"/>
<path d="M132.512 118.541H45.4787C45.3238 118.541 45.1752 118.479 45.0656 118.37C44.9561 118.261 44.8945 118.114 44.8945 117.959C44.8945 117.805 44.9561 117.657 45.0656 117.548C45.1752 117.439 45.3238 117.378 45.4787 117.378H132.512C132.667 117.378 132.815 117.439 132.925 117.548C133.034 117.657 133.096 117.805 133.096 117.959C133.096 118.114 133.034 118.261 132.925 118.37C132.815 118.479 132.667 118.541 132.512 118.541Z" fill="#B3DBD8"/>
<path d="M132.512 132.366H45.4787C45.3238 132.366 45.1752 132.305 45.0656 132.196C44.9561 132.087 44.8945 131.939 44.8945 131.785C44.8945 131.631 44.9561 131.483 45.0656 131.374C45.1752 131.265 45.3238 131.204 45.4787 131.204H132.512C132.667 131.204 132.815 131.265 132.925 131.374C133.034 131.483 133.096 131.631 133.096 131.785C133.096 131.939 133.034 132.087 132.925 132.196C132.815 132.305 132.667 132.366 132.512 132.366Z" fill="#B3DBD8"/>
<path d="M132.512 146.091H45.4787C45.3238 146.091 45.1752 146.03 45.0656 145.921C44.9561 145.812 44.8945 145.664 44.8945 145.51C44.8945 145.355 44.9561 145.208 45.0656 145.099C45.1752 144.99 45.3238 144.928 45.4787 144.928H132.512C132.667 144.928 132.815 144.99 132.925 145.099C133.034 145.208 133.096 145.355 133.096 145.51C133.096 145.664 133.034 145.812 132.925 145.921C132.815 146.03 132.667 146.091 132.512 146.091Z" fill="#B3DBD8"/>
<path d="M132.512 159.866H45.4787C45.3238 159.866 45.1752 159.805 45.0656 159.696C44.956 159.587 44.8945 159.439 44.8945 159.285C44.8928 159.208 44.9067 159.132 44.9354 159.06C44.9642 158.989 45.0071 158.924 45.0617 158.87C45.1163 158.816 45.1814 158.773 45.2531 158.744C45.3248 158.716 45.4015 158.702 45.4787 158.704H132.512C132.59 158.702 132.667 158.716 132.739 158.744C132.812 158.773 132.878 158.815 132.933 158.869C132.989 158.923 133.033 158.988 133.063 159.059C133.093 159.131 133.109 159.207 133.109 159.285C133.105 159.44 133.041 159.588 132.929 159.697C132.818 159.805 132.668 159.866 132.512 159.866Z" fill="#B3DBD8"/>
<path d="M132.512 173.641H45.4787C45.402 173.641 45.326 173.626 45.2551 173.597C45.1843 173.568 45.1198 173.525 45.0656 173.471C45.0114 173.417 44.9683 173.353 44.939 173.282C44.9096 173.212 44.8945 173.136 44.8945 173.06C44.8928 172.983 44.9067 172.907 44.9354 172.836C44.9642 172.764 45.0071 172.699 45.0617 172.645C45.1163 172.591 45.1814 172.548 45.2531 172.519C45.3248 172.491 45.4015 172.477 45.4787 172.479H132.512C132.59 172.477 132.667 172.491 132.739 172.519C132.812 172.548 132.878 172.59 132.933 172.644C132.989 172.699 133.033 172.763 133.063 172.835C133.093 172.906 133.109 172.983 133.109 173.06C133.105 173.215 133.041 173.363 132.929 173.472C132.818 173.581 132.668 173.641 132.512 173.641Z" fill="#B3DBD8"/>
<path d="M50.4063 109.909H36.2077C36.066 109.888 35.9364 109.818 35.8428 109.71C35.7492 109.602 35.6976 109.464 35.6976 109.321C35.6976 109.179 35.7492 109.041 35.8428 108.933C35.9364 108.825 36.066 108.755 36.2077 108.734H49.8221L50.0507 94.668C50.06 94.5147 50.1263 94.3703 50.2366 94.2629C50.3469 94.1555 50.4934 94.0927 50.6476 94.0867C50.8015 94.0932 50.9468 94.1586 51.0533 94.2693C51.1598 94.38 51.2192 94.5274 51.2191 94.6806L50.9905 109.328C50.9873 109.481 50.9247 109.627 50.8158 109.735C50.7069 109.844 50.5602 109.906 50.4063 109.909Z" fill="#B3DBD8"/>
<path d="M260.668 115.318C260.668 115.318 287.998 118.187 295.212 129.965C302.425 141.744 354.101 206.613 354.101 206.613L218.211 205.754C218.211 205.754 211.15 132.126 220.751 116.443C220.84 116.443 222.72 111.186 260.668 115.318Z" fill="#B3DBD8"/>
<path d="M242.964 132.455C244.674 134.663 246.845 136.476 249.327 137.769C251.808 139.063 254.542 139.807 257.34 139.949C258.071 139.99 258.803 139.896 259.499 139.671C260.447 139.26 261.254 138.584 261.823 137.725C264.363 134.237 264.478 129.561 263.83 125.315C263.385 122.319 262.56 119.198 260.236 117.201C257.569 114.851 253.695 114.674 250.076 114.522C246.456 114.37 238.277 113.41 236.931 117.77C235.75 121.776 240.614 129.548 242.964 132.455Z" fill="#093F68"/>
<path d="M257.556 140.518H257.327C254.453 140.368 251.646 139.6 249.098 138.267C246.551 136.934 244.323 135.067 242.57 132.796C240.03 129.662 235.191 121.814 236.487 117.631C237.782 113.448 244.627 113.713 248.717 113.928H250.19C254.14 114.042 257.924 114.345 260.642 116.746C263.36 119.147 264.046 122.661 264.452 125.188C265.278 130.66 264.566 134.97 262.344 138.003C261.728 138.952 260.844 139.699 259.804 140.151C259.083 140.407 258.321 140.531 257.556 140.518ZM243.396 132.101C245.053 134.253 247.161 136.021 249.573 137.282C251.986 138.543 254.644 139.268 257.366 139.406C258.032 139.444 258.699 139.358 259.334 139.153C260.181 138.785 260.9 138.179 261.404 137.409C263.449 134.616 264.084 130.572 263.309 125.403C262.954 123.04 262.204 119.665 259.893 117.631C257.581 115.596 253.886 115.204 250.139 115.103H248.641C244.831 114.914 238.595 114.598 237.541 118.023C236.385 121.814 241.097 129.308 243.421 132.177L243.396 132.101Z" fill="#093F68"/>
<path d="M265.633 87.8057C265.999 86.6003 266.608 85.4821 267.424 84.5198C267.845 84.0503 268.401 83.7209 269.017 83.5762C269.632 83.4316 270.278 83.4786 270.866 83.711C271.279 83.9504 271.627 84.2881 271.877 84.6939C272.128 85.0997 272.273 85.5609 272.301 86.0364C272.357 86.9854 272.201 87.9351 271.844 88.8167C271.303 90.4948 270.366 92.02 269.113 93.2652C268.487 93.8876 267.739 94.375 266.915 94.6968C266.091 95.0186 265.21 95.1679 264.325 95.1356" fill="white"/>
<path d="M264.693 95.7169H264.287C264.154 95.7041 264.032 95.6399 263.947 95.5383C263.861 95.4366 263.819 95.3056 263.83 95.1735C263.829 95.1064 263.843 95.0399 263.871 94.9787C263.898 94.9174 263.938 94.8627 263.989 94.8183C264.04 94.774 264.099 94.741 264.164 94.7216C264.228 94.7022 264.296 94.6968 264.363 94.7059C265.177 94.7336 265.987 94.5954 266.745 94.2998C267.503 94.0042 268.192 93.5575 268.77 92.9872C269.942 91.7861 270.812 90.3269 271.31 88.7282C271.633 87.9255 271.784 87.0648 271.755 86.2007C271.733 85.8081 271.615 85.4267 271.411 85.0897C271.208 84.7527 270.925 84.4703 270.586 84.2671C270.095 84.0794 269.558 84.0479 269.049 84.1769C268.539 84.306 268.082 84.5892 267.741 84.9875C266.971 85.896 266.4 86.955 266.065 88.0964C266.018 88.2221 265.922 88.324 265.8 88.3796C265.677 88.4353 265.537 88.4403 265.411 88.3933C265.285 88.3464 265.182 88.2515 265.126 88.1294C265.07 88.0074 265.065 87.8682 265.113 87.7425C265.493 86.4665 266.142 85.286 267.018 84.2798C267.512 83.7332 268.165 83.3524 268.885 83.1895C269.606 83.0266 270.36 83.0896 271.043 83.3698C271.53 83.6499 271.94 84.0437 272.239 84.5171C272.538 84.9906 272.716 85.5295 272.758 86.087C272.817 87.1136 272.648 88.1405 272.263 89.0947C271.701 90.8486 270.725 92.4432 269.418 93.7454C268.147 94.969 266.461 95.6727 264.693 95.7169Z" fill="#093F68"/>
<path d="M258.978 104.563L260.477 119.463C260.477 119.463 259.753 127.931 250.393 126.25C247.633 125.724 245.026 124.594 242.759 122.941C240.492 121.289 238.623 119.155 237.287 116.696C237.287 116.696 237.642 89.9793 237.63 89.9667C237.63 88.8799 239.852 85.1391 238.785 75.6987C241.992 75.3693 245.095 74.3788 247.896 72.7905C250.697 71.2021 253.135 69.0507 255.054 66.4731C255.054 66.4731 259.398 71.8063 261.226 73.4492C262.663 74.6833 263.943 76.0882 265.036 77.6323C267.919 81.967 267.818 89.0062 267.119 94.0613C266.573 98.1307 264.16 104.652 258.978 104.563Z" fill="white"/>
<path d="M252.73 127.033C251.912 127.028 251.096 126.952 250.292 126.806C247.434 126.28 244.733 125.118 242.391 123.407C240.049 121.695 238.126 119.479 236.766 116.923C236.726 116.845 236.704 116.758 236.703 116.67C236.703 116.67 237.058 90.1311 237.058 89.9541C237.081 89.4607 237.184 88.9743 237.363 88.5134C238.562 84.3684 238.848 80.0145 238.201 75.7493C238.192 75.5957 238.237 75.4436 238.328 75.3196C238.431 75.2053 238.57 75.1294 238.722 75.1048C241.84 74.7729 244.856 73.8062 247.583 72.2648C250.31 70.7233 252.689 68.6401 254.572 66.1446C254.626 66.0715 254.697 66.012 254.778 65.971C254.86 65.93 254.95 65.9087 255.041 65.9087C255.133 65.9087 255.223 65.93 255.305 65.971C255.386 66.012 255.457 66.0715 255.511 66.1446C255.511 66.1446 259.842 71.4525 261.607 73.0575C263.099 74.3108 264.426 75.7459 265.557 77.329C268.935 82.3841 268.199 90.763 267.729 94.112C267.157 98.1055 264.82 104.74 259.613 105.145L261.049 119.425C260.803 121.783 259.641 123.951 257.81 125.466C256.339 126.537 254.552 127.089 252.73 127.033ZM237.871 116.544C239.177 118.891 240.984 120.924 243.165 122.5C245.346 124.077 247.848 125.158 250.495 125.668C251.614 125.957 252.782 126.007 253.922 125.815C255.063 125.623 256.149 125.195 257.112 124.556C258.658 123.247 259.651 121.406 259.893 119.4L258.394 104.563C258.386 104.398 258.44 104.236 258.547 104.108C258.666 103.994 258.825 103.93 258.991 103.931C263.817 104.07 266.04 97.6126 266.611 93.8213C267.068 90.5987 267.792 82.599 264.617 77.8345C263.528 76.3206 262.248 74.9529 260.807 73.7652C258.784 71.7114 256.868 69.556 255.067 67.3073C251.197 72.1586 245.571 75.3073 239.395 76.0779C239.963 80.3098 239.643 84.613 238.455 88.7156C238.328 89.0675 238.239 89.4318 238.189 89.8025C238.189 89.8025 238.214 89.9541 237.871 116.544Z" fill="#093F68"/>
<path d="M259.486 109.454C257.029 109.889 254.498 109.626 252.184 108.696C246.85 106.838 246.545 103.224 246.545 103.224C246.545 103.224 251.028 106.029 258.978 104.488L259.486 109.454Z" fill="#093F68"/>
<path d="M257.315 110.2C255.503 110.171 253.709 109.842 252.006 109.227C246.38 107.268 245.999 103.426 245.986 103.3C245.981 103.197 246.003 103.096 246.05 103.005C246.097 102.914 246.167 102.837 246.253 102.781C246.342 102.725 246.446 102.695 246.551 102.695C246.657 102.695 246.761 102.725 246.85 102.781C246.85 102.781 251.27 105.448 258.877 104.045C259.028 104.021 259.184 104.057 259.309 104.146C259.372 104.192 259.424 104.251 259.464 104.319C259.503 104.386 259.528 104.461 259.537 104.538L260.033 109.34C260.059 109.442 260.056 109.549 260.024 109.65C259.993 109.75 259.934 109.84 259.855 109.909C259.743 109.999 259.604 110.048 259.461 110.048C258.751 110.16 258.033 110.211 257.315 110.2ZM247.447 104.273C247.957 105.224 248.657 106.061 249.505 106.732C250.352 107.404 251.329 107.896 252.374 108.178C254.446 108.96 256.677 109.233 258.877 108.974L258.483 105.183C254.791 105.902 250.97 105.587 247.447 104.273Z" fill="#093F68"/>
<path d="M251.257 83.6985C251.257 83.6985 256.794 90.3712 255.778 91.7235C254.762 93.0757 251.473 92.5828 251.473 92.5828" fill="white"/>
<path d="M252.832 93.1894C252.347 93.1844 251.864 93.1506 251.384 93.0883C251.238 93.0606 251.108 92.9785 251.021 92.8587C250.933 92.739 250.895 92.5906 250.914 92.4438C250.939 92.297 251.021 92.1658 251.142 92.0784C251.263 91.991 251.414 91.9543 251.562 91.9762C252.324 92.09 254.66 92.229 255.372 91.3443C255.689 90.7251 253.594 87.2876 250.863 84.0018C250.769 83.8878 250.724 83.7413 250.738 83.5943C250.752 83.4474 250.825 83.3121 250.939 83.2183C251.054 83.1244 251.201 83.0797 251.349 83.0939C251.496 83.1081 251.632 83.1801 251.727 83.2941C253.898 85.9101 257.378 90.5229 256.261 92.0141C255.812 92.4501 255.272 92.7816 254.679 92.9848C254.086 93.1881 253.455 93.2579 252.832 93.1894Z" fill="#093F68"/>
<path d="M259.839 85.5694C260.291 85.5093 260.565 84.7707 260.45 83.9198C260.336 83.0689 259.877 82.4278 259.425 82.488C258.973 82.5482 258.699 83.2867 258.814 84.1376C258.928 84.9886 259.387 85.6296 259.839 85.5694Z" fill="#093F68"/>
<path d="M246.528 85.2222C246.984 85.2169 247.345 84.5167 247.335 83.6583C247.325 82.7999 246.948 82.1083 246.492 82.1136C246.036 82.1189 245.674 82.8191 245.684 83.6775C245.695 84.5359 246.072 85.2275 246.528 85.2222Z" fill="#093F68"/>
<path d="M240.703 85.9606C240.37 84.6838 239.802 83.4797 239.027 82.4094C238.583 81.7981 237.999 81.3013 237.323 80.9605C236.647 80.6197 235.898 80.4449 235.141 80.4506C234.674 80.468 234.218 80.5909 233.807 80.8098C233.395 81.0288 233.039 81.3381 232.766 81.7143C232.434 82.2567 232.226 82.865 232.156 83.4963C231.673 86.8074 232.778 91.0789 235.966 92.8356C236.495 93.1666 237.107 93.3422 237.731 93.3422C238.356 93.3422 238.968 93.1666 239.497 92.8356" fill="white"/>
<path d="M237.896 93.8718C237.118 93.8555 236.356 93.6517 235.674 93.2778C232.347 91.458 231.14 86.9589 231.661 83.4204C231.756 82.711 232.012 82.0324 232.41 81.4362C232.724 80.9938 233.135 80.6292 233.613 80.3706C234.091 80.112 234.622 79.9664 235.166 79.945C236.007 79.9363 236.837 80.128 237.589 80.5039C238.34 80.8799 238.99 81.4292 239.484 82.106C240.3 83.2198 240.898 84.4757 241.249 85.8089C241.269 85.8728 241.275 85.9399 241.269 86.0063C241.262 86.0728 241.242 86.1372 241.21 86.196C241.178 86.2547 241.135 86.3066 241.083 86.3486C241.031 86.3906 240.971 86.422 240.906 86.4408C240.778 86.4761 240.642 86.4602 240.525 86.3964C240.409 86.3327 240.322 86.2261 240.284 86.0996C239.964 84.8863 239.422 83.7423 238.684 82.7253C238.294 82.1748 237.777 81.7264 237.175 81.4183C236.574 81.1102 235.906 80.9516 235.229 80.956C234.842 80.9667 234.461 81.0656 234.118 81.2453C233.774 81.4249 233.477 81.6805 233.248 81.9923C232.957 82.4683 232.779 83.0043 232.728 83.5594C232.258 86.7441 233.299 90.8008 236.22 92.4058C236.661 92.6916 237.173 92.851 237.7 92.8666C238.226 92.8822 238.747 92.7534 239.205 92.4943C239.256 92.4427 239.317 92.4027 239.385 92.3769C239.453 92.3511 239.526 92.3401 239.599 92.3447C239.671 92.3493 239.742 92.3694 239.806 92.4036C239.87 92.4377 239.926 92.4852 239.97 92.5428C240.014 92.6004 240.046 92.6668 240.062 92.7374C240.078 92.808 240.078 92.8812 240.064 92.9521C240.049 93.023 240.019 93.0899 239.976 93.1482C239.933 93.2066 239.878 93.2551 239.814 93.2904C239.259 93.6938 238.583 93.8987 237.896 93.8718Z" fill="#093F68"/>
<path d="M292.57 200.408C292.415 200.407 292.265 200.353 292.147 200.253C292.029 200.154 291.949 200.016 291.922 199.865C288.595 179.177 282.219 139.76 281.927 138.572C281.906 138.489 281.902 138.404 281.914 138.32C281.927 138.236 281.955 138.156 281.999 138.083C282.043 138.01 282.1 137.947 282.169 137.896C282.237 137.845 282.315 137.809 282.397 137.788C282.566 137.746 282.744 137.771 282.894 137.858C283.043 137.946 283.153 138.089 283.197 138.256C283.578 139.797 292.824 197.211 293.218 199.65C293.243 199.821 293.2 199.994 293.098 200.134C292.996 200.274 292.843 200.367 292.672 200.395L292.57 200.408Z" fill="#093F68"/>
<path d="M251.955 159.929L235.522 160.094L235.001 154.166L250.774 153.977L251.955 159.929Z" fill="white"/>
<path d="M435.724 173.945V305.655C435.723 308.832 435.092 311.977 433.869 314.911C432.646 317.845 430.854 320.51 428.596 322.755C426.337 325 423.657 326.781 420.707 327.995C417.757 329.209 414.596 329.833 411.404 329.831H91.0971C87.9062 329.833 84.7462 329.209 81.7978 327.994C78.8494 326.78 76.1705 324.999 73.9142 322.754C71.6578 320.509 69.8683 317.843 68.648 314.909C67.4276 311.975 66.8003 308.83 66.802 305.655V173.945C66.8003 170.769 67.4275 167.624 68.6477 164.689C69.8679 161.754 71.6572 159.088 73.9134 156.841C76.1696 154.595 78.8484 152.813 81.7968 151.597C84.7453 150.382 87.9056 149.756 91.0971 149.756H411.404C417.852 149.756 424.036 152.304 428.597 156.84C433.157 161.376 435.721 167.528 435.724 173.945Z" fill="white"/>
<path d="M411.404 330.488H91.0971C84.4806 330.482 78.1369 327.863 73.4583 323.207C68.7797 318.552 66.1483 312.239 66.1416 305.655V173.945C66.145 167.358 68.7749 161.042 73.4538 156.384C78.1328 151.726 84.4784 149.105 91.0971 149.099H411.404C418.024 149.105 424.371 151.725 429.052 156.383C433.733 161.041 436.365 167.357 436.372 173.945V305.655C436.362 312.24 433.728 318.553 429.047 323.208C424.366 327.864 418.021 330.482 411.404 330.488ZM91.0971 150.4C84.8263 150.41 78.8154 152.895 74.3825 157.308C69.9496 161.722 67.4564 167.705 67.4497 173.945V305.655C67.4598 311.892 69.9548 317.87 74.3878 322.279C78.8207 326.688 84.8297 329.167 91.0971 329.174H411.404C417.673 329.171 423.686 326.693 428.121 322.283C432.557 317.874 435.054 311.894 435.064 305.655V173.945C435.057 167.702 432.562 161.718 428.127 157.304C423.691 152.89 417.677 150.407 411.404 150.4H91.0971Z" fill="#093F68"/>
<path d="M435.724 173.945V182.791H66.802V173.945C66.8003 170.769 67.4275 167.624 68.6477 164.689C69.8679 161.754 71.6572 159.088 73.9134 156.841C76.1696 154.595 78.8484 152.813 81.7968 151.597C84.7453 150.382 87.9056 149.756 91.0971 149.756H411.404C417.852 149.756 424.036 152.304 428.597 156.84C433.157 161.376 435.721 167.528 435.724 173.945Z" fill="white"/>
<path d="M435.724 183.511H66.802C66.6268 183.511 66.4589 183.442 66.335 183.319C66.2112 183.196 66.1416 183.028 66.1416 182.854V174.008C66.145 167.421 68.7749 161.106 73.4538 156.447C78.1328 151.789 84.4784 149.169 91.0971 149.162H411.404C418.013 149.169 424.35 151.78 429.029 156.424C433.708 161.069 436.349 167.368 436.372 173.945V182.791C436.383 182.882 436.374 182.974 436.346 183.061C436.319 183.148 436.273 183.229 436.211 183.297C436.15 183.365 436.075 183.419 435.991 183.456C435.907 183.493 435.816 183.512 435.724 183.511ZM67.4243 182.248H435.064V173.945C435.057 167.702 432.562 161.718 428.127 157.304C423.691 152.89 417.677 150.407 411.404 150.4H91.0971C84.8263 150.411 78.8154 152.895 74.3825 157.308C69.9496 161.722 67.4564 167.705 67.4497 173.945L67.4243 182.248Z" fill="#093F68"/>
<path d="M359.715 287.153H129.121C125.44 287.15 121.912 285.694 119.309 283.104C116.707 280.514 115.243 277.003 115.24 273.34V246.195C115.243 242.532 116.707 239.021 119.309 236.431C121.912 233.841 125.44 232.385 129.121 232.381H359.715C363.395 232.385 366.924 233.841 369.527 236.431C372.129 239.021 373.593 242.532 373.596 246.195V273.34C373.593 277.003 372.129 280.514 369.527 283.104C366.924 285.694 363.395 287.15 359.715 287.153ZM129.121 233.683C125.787 233.687 122.591 235.006 120.234 237.351C117.877 239.697 116.551 242.877 116.548 246.195V273.34C116.551 276.658 117.877 279.838 120.234 282.184C122.591 284.529 125.787 285.848 129.121 285.852H359.715C363.047 285.848 366.242 284.529 368.597 282.183C370.952 279.837 372.275 276.656 372.275 273.34V246.195C372.275 242.879 370.952 239.698 368.597 237.352C366.242 235.006 363.047 233.687 359.715 233.683H129.121Z" fill="#B3DBD8"/>
<path d="M372.936 246.195V273.34C372.941 275.072 372.602 276.787 371.94 278.389C371.278 279.99 370.306 281.445 369.078 282.672C367.85 283.899 366.391 284.872 364.784 285.537C363.177 286.202 361.455 286.545 359.715 286.547H310.883V233.026H359.715C363.222 233.029 366.585 234.418 369.064 236.887C371.543 239.357 372.936 242.704 372.936 246.195Z" fill="#B3DBD8"/>
<path d="M359.715 287.153H310.883C310.797 287.155 310.712 287.14 310.632 287.108C310.552 287.076 310.479 287.029 310.417 286.969C310.356 286.909 310.307 286.838 310.273 286.759C310.24 286.68 310.223 286.595 310.223 286.509V233.026C310.223 232.94 310.24 232.855 310.273 232.776C310.307 232.697 310.356 232.626 310.417 232.566C310.479 232.506 310.552 232.459 310.632 232.427C310.712 232.395 310.797 232.38 310.883 232.381H359.715C363.395 232.385 366.924 233.841 369.527 236.431C372.129 239.021 373.593 242.532 373.596 246.195V273.34C373.593 277.003 372.129 280.514 369.527 283.104C366.924 285.694 363.395 287.15 359.715 287.153ZM311.531 285.89H359.715C363.047 285.886 366.242 284.567 368.597 282.221C370.952 279.875 372.275 276.694 372.275 273.378V246.195C372.275 242.879 370.952 239.698 368.597 237.352C366.242 235.006 363.047 233.687 359.715 233.683H311.531V285.89Z" fill="#B3DBD8"/>
<path d="M148.085 250.395C147.994 249.624 147.623 249.026 146.974 248.6C146.325 248.174 145.529 247.961 144.586 247.961C143.897 247.961 143.293 248.072 142.776 248.296C142.264 248.519 141.864 248.825 141.575 249.216C141.291 249.606 141.149 250.05 141.149 250.547C141.149 250.962 141.248 251.32 141.445 251.619C141.648 251.913 141.907 252.159 142.221 252.357C142.535 252.549 142.865 252.709 143.21 252.836C143.555 252.958 143.871 253.056 144.16 253.132L145.742 253.558C146.148 253.665 146.599 253.812 147.096 253.999C147.598 254.187 148.077 254.443 148.533 254.768C148.995 255.087 149.375 255.498 149.674 256C149.973 256.502 150.123 257.118 150.123 257.848C150.123 258.689 149.902 259.45 149.461 260.129C149.025 260.809 148.386 261.349 147.545 261.749C146.708 262.15 145.692 262.35 144.495 262.35C143.38 262.35 142.414 262.17 141.597 261.81C140.786 261.45 140.147 260.948 139.681 260.304C139.22 259.66 138.958 258.912 138.898 258.061H140.845C140.895 258.649 141.093 259.136 141.438 259.521C141.788 259.901 142.229 260.185 142.761 260.373C143.299 260.555 143.877 260.646 144.495 260.646C145.215 260.646 145.861 260.53 146.434 260.297C147.007 260.058 147.461 259.729 147.796 259.308C148.13 258.882 148.298 258.385 148.298 257.817C148.298 257.3 148.153 256.879 147.864 256.555C147.575 256.23 147.195 255.967 146.723 255.764C146.252 255.561 145.742 255.384 145.195 255.232L143.278 254.684C142.061 254.334 141.098 253.835 140.388 253.186C139.678 252.537 139.323 251.687 139.323 250.638C139.323 249.766 139.559 249.005 140.031 248.356C140.507 247.702 141.146 247.195 141.947 246.835C142.753 246.47 143.653 246.288 144.647 246.288C145.651 246.288 146.543 246.468 147.324 246.828C148.105 247.183 148.724 247.669 149.18 248.288C149.641 248.906 149.885 249.609 149.91 250.395H148.085ZM157.878 262.32C156.753 262.32 155.782 262.071 154.966 261.574C154.154 261.072 153.528 260.373 153.087 259.475C152.651 258.573 152.433 257.523 152.433 256.327C152.433 255.13 152.651 254.076 153.087 253.163C153.528 252.245 154.142 251.53 154.928 251.018C155.719 250.501 156.641 250.242 157.696 250.242C158.304 250.242 158.905 250.344 159.498 250.547C160.092 250.749 160.632 251.079 161.118 251.535C161.605 251.987 161.993 252.585 162.282 253.33C162.571 254.076 162.715 254.993 162.715 256.083V256.844H153.711V255.292H160.89C160.89 254.633 160.758 254.045 160.495 253.528C160.236 253.011 159.866 252.603 159.384 252.303C158.908 252.004 158.345 251.855 157.696 251.855C156.981 251.855 156.362 252.032 155.84 252.387C155.323 252.737 154.925 253.193 154.646 253.756C154.367 254.319 154.228 254.922 154.228 255.566V256.6C154.228 257.483 154.38 258.231 154.684 258.844C154.994 259.452 155.422 259.916 155.97 260.236C156.517 260.55 157.153 260.707 157.878 260.707C158.35 260.707 158.776 260.641 159.156 260.51C159.542 260.373 159.874 260.17 160.152 259.901C160.431 259.627 160.647 259.288 160.799 258.882L162.533 259.369C162.35 259.957 162.044 260.474 161.613 260.92C161.182 261.361 160.649 261.706 160.016 261.955C159.382 262.198 158.669 262.32 157.878 262.32ZM168.883 262.35C168.143 262.35 167.471 262.211 166.868 261.932C166.265 261.648 165.785 261.24 165.431 260.707C165.076 260.17 164.898 259.521 164.898 258.76C164.898 258.091 165.03 257.549 165.294 257.133C165.557 256.712 165.91 256.382 166.351 256.144C166.792 255.906 167.279 255.728 167.811 255.612C168.348 255.49 168.888 255.394 169.431 255.323C170.141 255.232 170.716 255.163 171.157 255.117C171.603 255.067 171.928 254.983 172.131 254.866C172.339 254.75 172.443 254.547 172.443 254.258V254.197C172.443 253.447 172.237 252.864 171.827 252.448C171.421 252.032 170.805 251.824 169.978 251.824C169.122 251.824 168.45 252.012 167.963 252.387C167.476 252.762 167.134 253.163 166.936 253.589L165.233 252.98C165.537 252.271 165.943 251.718 166.45 251.322C166.962 250.922 167.519 250.643 168.123 250.486C168.731 250.324 169.33 250.242 169.918 250.242C170.293 250.242 170.724 250.288 171.211 250.379C171.702 250.466 172.176 250.646 172.633 250.919C173.094 251.193 173.477 251.606 173.781 252.159C174.085 252.712 174.237 253.452 174.237 254.38V262.076H172.443V260.494H172.351C172.23 260.748 172.027 261.019 171.743 261.308C171.459 261.597 171.081 261.843 170.61 262.046C170.138 262.249 169.563 262.35 168.883 262.35ZM169.157 260.738C169.867 260.738 170.465 260.598 170.952 260.319C171.444 260.041 171.814 259.681 172.062 259.24C172.316 258.798 172.443 258.334 172.443 257.848V256.205C172.367 256.296 172.199 256.38 171.941 256.456C171.687 256.527 171.393 256.59 171.058 256.646C170.729 256.697 170.407 256.742 170.093 256.783C169.783 256.819 169.532 256.849 169.34 256.874C168.873 256.935 168.437 257.034 168.032 257.171C167.631 257.303 167.307 257.503 167.058 257.772C166.815 258.035 166.693 258.395 166.693 258.852C166.693 259.475 166.924 259.947 167.385 260.266C167.852 260.581 168.442 260.738 169.157 260.738ZM177.513 262.076V250.395H179.247V252.159H179.369C179.582 251.581 179.967 251.112 180.525 250.752C181.083 250.392 181.712 250.212 182.411 250.212C182.543 250.212 182.708 250.215 182.906 250.22C183.103 250.225 183.253 250.232 183.354 250.242V252.068C183.293 252.053 183.154 252.03 182.936 251.999C182.723 251.964 182.497 251.946 182.259 251.946C181.691 251.946 181.184 252.065 180.738 252.303C180.297 252.537 179.947 252.861 179.689 253.277C179.435 253.688 179.308 254.157 179.308 254.684V262.076H177.513ZM189.872 262.32C188.777 262.32 187.834 262.061 187.043 261.544C186.252 261.027 185.643 260.314 185.218 259.407C184.792 258.499 184.579 257.462 184.579 256.296C184.579 255.11 184.797 254.063 185.233 253.155C185.674 252.243 186.287 251.53 187.073 251.018C187.864 250.501 188.787 250.242 189.842 250.242C190.663 250.242 191.403 250.395 192.062 250.699C192.721 251.003 193.261 251.429 193.682 251.976C194.103 252.524 194.364 253.163 194.466 253.893H192.671C192.534 253.361 192.23 252.889 191.758 252.478C191.292 252.063 190.663 251.855 189.872 251.855C189.172 251.855 188.559 252.037 188.032 252.402C187.509 252.762 187.101 253.272 186.807 253.931C186.518 254.585 186.374 255.353 186.374 256.235C186.374 257.138 186.516 257.924 186.799 258.593C187.089 259.262 187.494 259.782 188.016 260.152C188.544 260.522 189.162 260.707 189.872 260.707C190.338 260.707 190.762 260.626 191.142 260.464C191.522 260.302 191.844 260.068 192.108 259.764C192.372 259.46 192.559 259.095 192.671 258.669H194.466C194.364 259.359 194.113 259.98 193.713 260.532C193.317 261.08 192.792 261.516 192.138 261.841C191.489 262.16 190.734 262.32 189.872 262.32ZM198.884 255.049V262.076H197.089V246.501H198.884V252.22H199.036C199.31 251.616 199.721 251.137 200.268 250.782C200.821 250.422 201.556 250.242 202.474 250.242C203.27 250.242 203.967 250.402 204.565 250.722C205.164 251.036 205.628 251.52 205.957 252.174C206.292 252.823 206.459 253.65 206.459 254.654V262.076H204.664V254.775C204.664 253.847 204.423 253.13 203.942 252.623C203.465 252.111 202.804 251.855 201.957 251.855C201.369 251.855 200.841 251.979 200.375 252.227C199.914 252.476 199.549 252.838 199.28 253.315C199.016 253.792 198.884 254.37 198.884 255.049ZM211.051 262.198C210.676 262.198 210.354 262.064 210.085 261.795C209.816 261.526 209.682 261.204 209.682 260.829C209.682 260.454 209.816 260.132 210.085 259.863C210.354 259.594 210.676 259.46 211.051 259.46C211.426 259.46 211.748 259.594 212.017 259.863C212.285 260.132 212.42 260.454 212.42 260.829C212.42 261.077 212.356 261.306 212.23 261.514C212.108 261.721 211.943 261.889 211.735 262.015C211.533 262.137 211.304 262.198 211.051 262.198ZM216.949 262.198C216.574 262.198 216.252 262.064 215.983 261.795C215.714 261.526 215.58 261.204 215.58 260.829C215.58 260.454 215.714 260.132 215.983 259.863C216.252 259.594 216.574 259.46 216.949 259.46C217.324 259.46 217.646 259.594 217.915 259.863C218.183 260.132 218.318 260.454 218.318 260.829C218.318 261.077 218.254 261.306 218.128 261.514C218.006 261.721 217.841 261.889 217.633 262.015C217.43 262.137 217.202 262.198 216.949 262.198ZM222.847 262.198C222.471 262.198 222.15 262.064 221.881 261.795C221.612 261.526 221.478 261.204 221.478 260.829C221.478 260.454 221.612 260.132 221.881 259.863C222.15 259.594 222.471 259.46 222.847 259.46C223.222 259.46 223.544 259.594 223.813 259.863C224.081 260.132 224.216 260.454 224.216 260.829C224.216 261.077 224.152 261.306 224.026 261.514C223.904 261.721 223.739 261.889 223.531 262.015C223.328 262.137 223.1 262.198 222.847 262.198Z" fill="black"/>
<path d="M336.766 267.097C334.656 267.098 332.579 266.581 330.718 265.592C328.857 264.603 327.27 263.172 326.098 261.427C324.925 259.681 324.203 257.675 323.996 255.586C323.789 253.497 324.103 251.389 324.911 249.449C325.718 247.51 326.993 245.798 328.624 244.466C330.255 243.134 332.191 242.223 334.26 241.814C336.329 241.405 338.468 241.51 340.487 242.119C342.506 242.729 344.342 243.825 345.834 245.31C347.627 247.095 348.848 249.369 349.342 251.844C349.837 254.32 349.583 256.885 348.612 259.217C347.642 261.549 345.998 263.542 343.89 264.945C341.781 266.347 339.302 267.096 336.766 267.097ZM336.766 245.373C334.685 245.372 332.669 246.09 331.06 247.403C329.451 248.716 328.35 250.544 327.944 252.574C327.538 254.605 327.852 256.713 328.833 258.539C329.814 260.365 331.401 261.796 333.323 262.588C335.246 263.38 337.385 263.484 339.375 262.882C341.366 262.28 343.086 261.01 344.241 259.288C345.396 257.566 345.915 255.499 345.71 253.438C345.505 251.378 344.588 249.452 343.116 247.989C342.285 247.155 341.295 246.495 340.205 246.046C339.115 245.597 337.946 245.368 336.766 245.373Z" fill="white"/>
<path d="M356.438 276.437C356.18 276.44 355.923 276.39 355.685 276.29C355.447 276.19 355.232 276.042 355.054 275.855L343.116 263.395C342.921 263.22 342.764 263.008 342.656 262.77C342.547 262.533 342.489 262.276 342.485 262.015C342.481 261.754 342.531 261.495 342.632 261.255C342.733 261.014 342.882 260.797 343.072 260.616C343.261 260.436 343.486 260.296 343.731 260.206C343.977 260.116 344.239 260.077 344.501 260.093C344.763 260.108 345.018 260.177 345.252 260.295C345.486 260.413 345.692 260.577 345.859 260.779L357.81 273.239C358.071 273.506 358.246 273.843 358.315 274.208C358.384 274.574 358.342 274.951 358.195 275.293C358.049 275.635 357.803 275.926 357.491 276.13C357.178 276.333 356.812 276.44 356.438 276.437Z" fill="white"/>
<path d="M95.6818 171.796C97.9053 171.796 99.7077 170.003 99.7077 167.79C99.7077 165.577 97.9053 163.784 95.6818 163.784C93.4584 163.784 91.6559 165.577 91.6559 167.79C91.6559 170.003 93.4584 171.796 95.6818 171.796Z" fill="#B3DBD8"/>
<path d="M109.779 171.796C112.002 171.796 113.805 170.003 113.805 167.79C113.805 165.577 112.002 163.784 109.779 163.784C107.555 163.784 105.753 165.577 105.753 167.79C105.753 170.003 107.555 171.796 109.779 171.796Z" fill="#B3DBD8"/>
<path d="M123.876 171.796C126.099 171.796 127.902 170.003 127.902 167.79C127.902 165.577 126.099 163.784 123.876 163.784C121.652 163.784 119.85 165.577 119.85 167.79C119.85 170.003 121.652 171.796 123.876 171.796Z" fill="#B3DBD8"/>
<path d="M250.838 194.557C250.838 194.557 260.756 198.171 263.665 197.805C266.573 197.438 275.781 193.356 276.86 194.317C277.94 195.277 277.597 197.931 267.97 202.266C267.97 202.266 293.281 215.637 291.821 217.077C290.36 218.518 279.362 213.589 269.545 209.608C269.545 209.608 264.465 218.164 256.959 216.597C249.453 215.03 244.856 208.408 244.856 208.408" fill="white"/>
<path d="M290.932 217.911C288.493 217.911 283.312 215.889 274.117 212.098L269.824 210.329C268.656 212.098 263.804 218.606 256.896 217.166C249.276 215.573 244.615 209.014 244.424 208.736C244.369 208.675 244.327 208.603 244.302 208.524C244.277 208.445 244.269 208.362 244.278 208.28C244.288 208.198 244.315 208.119 244.357 208.048C244.4 207.978 244.457 207.917 244.526 207.87C244.594 207.823 244.671 207.791 244.753 207.776C244.834 207.761 244.918 207.763 244.999 207.783C245.079 207.803 245.155 207.84 245.22 207.891C245.285 207.942 245.338 208.006 245.377 208.079C245.377 208.142 249.949 214.537 257.124 216.041C264.3 217.545 269.05 209.406 269.1 209.318C269.172 209.198 269.285 209.108 269.417 209.064C269.55 209.02 269.695 209.025 269.824 209.078L274.561 211.024C280.556 213.551 289.42 217.153 291.224 216.787C289.751 215.005 278.435 208.42 267.754 202.771C267.659 202.723 267.579 202.649 267.525 202.557C267.471 202.465 267.445 202.359 267.449 202.253C267.452 202.145 267.484 202.04 267.542 201.948C267.6 201.857 267.682 201.783 267.78 201.735C275.488 198.247 276.593 196.136 276.67 195.416C276.698 195.297 276.694 195.173 276.655 195.057C276.617 194.941 276.547 194.838 276.454 194.759C275.819 194.494 272.059 195.795 269.57 196.655C267.665 197.38 265.708 197.963 263.716 198.399C260.693 198.79 251.016 195.252 250.609 195.113C250.465 195.059 250.347 194.95 250.283 194.81C250.219 194.671 250.213 194.511 250.266 194.367C250.292 194.296 250.331 194.231 250.382 194.176C250.433 194.12 250.494 194.075 250.563 194.044C250.631 194.012 250.706 193.994 250.781 193.991C250.857 193.988 250.932 194 251.003 194.026C253.733 195.012 261.315 197.527 263.576 197.249C265.505 196.829 267.398 196.263 269.24 195.555C274.193 193.849 276.466 193.179 277.279 193.9C277.515 194.105 277.694 194.368 277.799 194.662C277.903 194.957 277.93 195.273 277.876 195.58C277.584 197.514 274.714 199.776 269.354 202.316C276.974 206.36 292.214 214.701 292.532 216.812C292.553 216.936 292.544 217.064 292.507 217.185C292.469 217.306 292.404 217.416 292.316 217.507C292.124 217.663 291.903 217.779 291.665 217.849C291.427 217.918 291.178 217.939 290.932 217.911Z" fill="#093F68"/>
<path d="M220.84 116.443C220.84 116.443 154.013 147.254 154.394 166.033C154.876 190.045 239.395 214.12 239.395 214.12L252.489 189.072L198.565 163.405L238.43 141.782L220.84 116.443Z" fill="#B3DBD8"/>
<path d="M321.374 145.168C317.729 143.993 313.398 143.248 310.325 145.535C308.889 146.766 307.752 148.304 306.997 150.034C305.322 153.336 303.875 156.747 302.666 160.245C302.349 161.155 302.146 162.368 302.933 162.912C303.72 163.455 305.118 162.52 305.74 161.522C306.842 159.745 307.697 157.828 308.28 155.822C306.908 158.683 305.942 161.72 305.41 164.845C305.295 165.225 305.295 165.629 305.41 166.008C305.605 166.323 305.914 166.551 306.273 166.645C306.633 166.739 307.015 166.692 307.34 166.514C307.977 166.123 308.492 165.563 308.826 164.896C310.398 162.254 311.676 159.448 312.636 156.53C311.53 159.529 310.921 162.688 310.832 165.882C310.807 166.15 310.839 166.421 310.926 166.676C311.014 166.93 311.155 167.164 311.34 167.36C311.597 167.524 311.9 167.601 312.204 167.581C312.508 167.56 312.797 167.443 313.03 167.247C313.472 166.831 313.815 166.321 314.033 165.755L317.843 157.794C317.001 160.757 316.536 163.814 316.459 166.893C316.426 167.147 316.465 167.405 316.573 167.638C317.005 168.447 318.262 167.904 318.808 167.158C319.627 165.884 320.199 164.47 320.497 162.988C321.539 159.083 322.44 155.102 323.634 151.247C324.777 148.1 325.12 146.382 321.374 145.168Z" fill="white"/>
<path d="M317.411 168.611H317.297C317.069 168.604 316.847 168.535 316.655 168.413C316.463 168.291 316.307 168.119 316.205 167.916C316.055 167.588 315.994 167.226 316.027 166.867C316.065 165.374 316.192 163.884 316.408 162.406L314.681 166.008C314.416 166.648 314.013 167.222 313.5 167.689C313.17 167.971 312.755 168.136 312.321 168.159C311.887 168.182 311.457 168.061 311.099 167.815C310.85 167.566 310.655 167.267 310.528 166.938C310.402 166.61 310.345 166.258 310.363 165.907C310.345 164.999 310.392 164.091 310.502 163.19C310.147 163.872 309.766 164.542 309.372 165.199C308.985 165.962 308.386 166.599 307.645 167.032C307.376 167.164 307.084 167.241 306.785 167.258C306.486 167.275 306.187 167.233 305.905 167.133C305.69 167.056 305.493 166.936 305.325 166.782C305.157 166.628 305.022 166.442 304.927 166.236C304.751 165.757 304.725 165.238 304.851 164.744C304.952 164.176 305.067 163.607 305.181 163.038C304.819 163.351 304.381 163.564 303.911 163.657C303.676 163.709 303.433 163.712 303.197 163.667C302.962 163.621 302.738 163.527 302.539 163.392C301.943 162.975 301.371 162.065 302.057 160.068C303.271 156.542 304.731 153.105 306.426 149.781C307.208 147.962 308.403 146.349 309.918 145.067C312.56 143.096 316.357 142.957 321.5 144.625C325.958 146.066 325.184 148.543 324.282 151.424C323.482 153.952 322.809 156.631 322.161 159.196C321.831 160.46 321.5 161.825 321.145 163.127C320.828 164.681 320.226 166.163 319.367 167.499C319.139 167.812 318.846 168.073 318.509 168.264C318.172 168.456 317.798 168.574 317.411 168.611ZM317.995 157.237C318.062 157.225 318.131 157.225 318.199 157.237C318.333 157.294 318.443 157.396 318.508 157.526C318.573 157.656 318.59 157.804 318.554 157.945C317.729 160.86 317.269 163.865 317.183 166.893C317.155 167.047 317.155 167.206 317.183 167.36C317.183 167.36 317.246 167.436 317.335 167.449C317.772 167.38 318.166 167.15 318.44 166.804C319.213 165.586 319.755 164.236 320.04 162.823C320.396 161.56 320.726 160.207 321.056 158.906C321.704 156.315 322.326 153.648 323.19 151.07C324.18 147.898 324.358 146.748 321.145 145.699C316.382 144.157 312.953 144.258 310.629 145.977C309.262 147.158 308.181 148.631 307.467 150.287C305.81 153.559 304.371 156.936 303.162 160.397C302.997 160.877 302.679 162.027 303.162 162.406C303.231 162.455 303.31 162.488 303.393 162.503C303.477 162.519 303.562 162.516 303.644 162.495C304.276 162.259 304.806 161.812 305.143 161.231C305.448 160.738 305.74 160.233 306.007 159.714C306.473 158.303 307.029 156.923 307.67 155.582C307.736 155.452 307.847 155.351 307.983 155.297C308.119 155.244 308.27 155.242 308.407 155.291C308.543 155.345 308.653 155.448 308.717 155.579C308.78 155.71 308.792 155.86 308.75 155.999C308.329 157.438 307.772 158.835 307.086 160.169C306.566 161.733 306.167 163.335 305.892 164.959C305.815 165.227 305.815 165.512 305.892 165.781C305.923 165.846 305.967 165.905 306.021 165.953C306.076 166.001 306.14 166.037 306.21 166.059C306.47 166.165 306.762 166.165 307.023 166.059C307.57 165.725 308.011 165.243 308.293 164.668C309.861 162.064 311.138 159.297 312.103 156.416C312.126 156.344 312.163 156.278 312.212 156.221C312.26 156.164 312.32 156.117 312.388 156.082C312.455 156.048 312.528 156.028 312.604 156.022C312.679 156.017 312.755 156.026 312.826 156.049C312.972 156.096 313.094 156.198 313.165 156.332C313.236 156.467 313.251 156.624 313.207 156.77C312.109 159.705 311.508 162.801 311.429 165.932C311.388 166.306 311.492 166.682 311.722 166.981C311.874 167.06 312.047 167.09 312.218 167.067C312.388 167.045 312.547 166.97 312.674 166.855C313.045 166.499 313.335 166.068 313.525 165.591L317.335 157.617C317.374 157.479 317.463 157.361 317.586 157.286C317.708 157.211 317.854 157.185 317.995 157.212V157.237Z" fill="#093F68"/>
<path d="M260.566 94.5669C260.566 94.5669 250.749 106.863 243.586 93.3031L260.566 94.5669Z" fill="white"/>
<path d="M251.701 100.216H251.015C247.929 99.9254 245.262 97.6885 243.078 93.5307C243.014 93.3974 243.003 93.2449 243.048 93.104C243.093 92.9632 243.19 92.8446 243.319 92.7724C243.385 92.7375 243.457 92.716 243.531 92.7092C243.605 92.7025 243.68 92.7105 243.751 92.7329C243.822 92.7552 243.888 92.7915 243.945 92.8395C244.001 92.8875 244.048 92.9464 244.081 93.0125C246.075 96.8038 248.437 98.8512 251.117 99.1039C255.829 99.5462 260.083 94.2889 260.134 94.2384C260.18 94.1811 260.237 94.1334 260.301 94.098C260.366 94.0625 260.436 94.0401 260.509 94.0319C260.583 94.0237 260.657 94.0298 260.727 94.0501C260.798 94.0704 260.864 94.1043 260.921 94.1499C260.979 94.1956 261.027 94.252 261.063 94.3161C261.098 94.3802 261.121 94.4506 261.129 94.5234C261.137 94.5961 261.131 94.6698 261.111 94.7401C261.09 94.8105 261.056 94.8762 261.01 94.9334C260.833 95.1357 256.718 100.216 251.701 100.216Z" fill="#093F68"/>
<path d="M338.785 139.861C338.707 139.863 338.629 139.848 338.556 139.818C338.484 139.787 338.419 139.741 338.366 139.684C338.257 139.575 338.195 139.427 338.195 139.273C338.195 139.119 338.257 138.971 338.366 138.862C345.224 132.316 346.799 118.465 338.201 108.266C329.311 97.7769 315.201 95.7422 307.543 95.4642C305.88 95.4642 304.178 95.3884 302.463 95.3757C294.843 95.3757 287.058 95.2999 281.038 90.7882C277.546 88.1848 275.146 82.8896 272.606 77.2911C269.316 70.0623 265.925 62.5808 260.147 61.7088C259.145 61.6619 258.144 61.83 257.213 62.2016C256.24 62.6962 255.142 62.8952 254.056 62.7739C252.97 62.6525 251.943 62.2162 251.104 61.5192L250.685 61.2538C245.694 58.1323 238.9 58.1828 232.474 61.3928C224.053 65.6138 220.294 75.2059 219.583 82.7759C218.758 91.6223 220.942 100.368 223.063 108.848C223.101 108.997 223.079 109.155 223 109.288C222.922 109.42 222.794 109.517 222.644 109.555C222.492 109.59 222.333 109.564 222.2 109.484C222.068 109.404 221.972 109.275 221.933 109.126C219.786 100.557 217.576 91.6981 218.415 82.6622C219.354 72.552 224.549 64.0594 231.953 60.3565C238.735 56.957 245.923 56.9191 251.308 60.2681L251.752 60.5461C252.441 61.1439 253.297 61.5167 254.206 61.6139C255.115 61.7111 256.031 61.528 256.832 61.0895C257.932 60.6533 259.118 60.4718 260.299 60.5587C266.649 61.5192 270.231 69.2914 273.647 76.8109C276.123 82.2704 278.46 87.4266 281.711 89.8657C287.426 94.1372 295.059 94.1751 302.438 94.2131C304.165 94.2131 305.88 94.2131 307.518 94.3015C315.354 94.5795 329.883 96.6774 339.027 107.521C348.171 118.364 346.342 132.796 339.103 139.696C339.018 139.784 338.906 139.842 338.785 139.861Z" fill="#093F68"/>
<path d="M191.58 166.994C191.448 166.994 191.32 166.951 191.217 166.87C191.114 166.789 191.041 166.676 191.01 166.549C190.979 166.422 190.992 166.288 191.047 166.169C191.102 166.051 191.196 165.954 191.313 165.894L235.102 143.349C235.241 143.281 235.4 143.27 235.547 143.317C235.694 143.364 235.817 143.466 235.89 143.601C235.927 143.669 235.949 143.743 235.957 143.82C235.964 143.897 235.955 143.974 235.931 144.047C235.908 144.121 235.869 144.188 235.818 144.246C235.768 144.304 235.705 144.352 235.636 144.385L191.846 166.931C191.762 166.969 191.672 166.991 191.58 166.994Z" fill="#093F68"/>
<path d="M185.064 60.1796H129.934V104.07H185.064V60.1796Z" fill="white"/>
<path d="M185.064 104.652H129.934C129.78 104.649 129.633 104.586 129.524 104.478C129.415 104.37 129.353 104.224 129.35 104.07V60.1796C129.35 60.0254 129.411 59.8776 129.521 59.7685C129.63 59.6595 129.779 59.5983 129.934 59.5983H185.064C185.219 59.5983 185.368 59.6595 185.478 59.7685C185.587 59.8776 185.649 60.0254 185.649 60.1796V104.07C185.645 104.224 185.583 104.37 185.474 104.478C185.365 104.586 185.218 104.649 185.064 104.652ZM130.518 103.489H184.48V60.7609H130.518V103.489Z" fill="#B3DBD8"/>
<path d="M129.705 94.4532C129.59 94.4531 129.478 94.4194 129.383 94.3563C129.287 94.2932 129.212 94.2035 129.168 94.0984C129.123 93.9933 129.11 93.8774 129.131 93.7652C129.152 93.653 129.206 93.5494 129.286 93.4675L147.32 75.4966C147.855 74.9641 148.495 74.5475 149.2 74.2731C149.905 73.9987 150.659 73.8724 151.415 73.9021C152.172 73.9317 152.913 74.1168 153.594 74.4456C154.275 74.7743 154.88 75.2398 155.372 75.8125L169.799 92.5954C169.905 92.706 169.965 92.8531 169.965 93.0062C169.965 93.1592 169.905 93.3064 169.799 93.4169C169.741 93.4685 169.674 93.5079 169.601 93.5327C169.527 93.5576 169.45 93.5673 169.373 93.5614C169.295 93.5555 169.22 93.534 169.152 93.4983C169.083 93.4626 169.022 93.4134 168.974 93.3537L154.521 76.5961C154.139 76.1407 153.664 75.7712 153.127 75.512C152.591 75.2528 152.005 75.1097 151.409 75.0922C150.813 75.0673 150.218 75.1668 149.662 75.3845C149.107 75.6021 148.603 75.933 148.184 76.3559L130.112 94.3268C129.998 94.4207 129.852 94.4661 129.705 94.4532Z" fill="#B3DBD8"/>
<path d="M185.077 90.2953C184.996 90.2961 184.915 90.2796 184.841 90.247C184.766 90.2143 184.7 90.1661 184.645 90.1057L177.025 81.8533C176.624 81.4172 176.135 81.0693 175.59 80.8321C175.046 80.5949 174.457 80.4735 173.863 80.4758C173.265 80.4734 172.674 80.5959 172.127 80.8353C171.58 81.0748 171.09 81.4259 170.688 81.8659L165.1 87.8815C165.048 87.9379 164.986 87.9837 164.916 88.0161C164.847 88.0486 164.772 88.0671 164.695 88.0706C164.619 88.0741 164.542 88.0626 164.47 88.0366C164.398 88.0107 164.331 87.9709 164.275 87.9194C164.218 87.868 164.172 87.8059 164.139 87.7368C164.107 87.6677 164.088 87.5928 164.084 87.5165C164.081 87.4403 164.093 87.364 164.119 87.2922C164.145 87.2204 164.185 87.1544 164.236 87.098L169.786 81.0824C170.301 80.5266 170.925 80.0825 171.62 79.778C172.315 79.4736 173.066 79.3153 173.825 79.3131C174.573 79.3216 175.311 79.4817 175.994 79.7837C176.678 80.0858 177.292 80.5234 177.8 81.0698L185.42 89.3096C185.5 89.3916 185.554 89.4951 185.575 89.6073C185.596 89.7195 185.583 89.8354 185.538 89.9405C185.494 90.0456 185.419 90.1353 185.323 90.1984C185.228 90.2615 185.116 90.2952 185.001 90.2953H185.077Z" fill="#B3DBD8"/>
<path d="M165.837 72.4256C167.52 72.4256 168.885 71.0677 168.885 69.3926C168.885 67.7174 167.52 66.3595 165.837 66.3595C164.153 66.3595 162.789 67.7174 162.789 69.3926C162.789 71.0677 164.153 72.4256 165.837 72.4256Z" fill="white"/>
<path d="M165.837 72.969C165.115 72.9715 164.409 72.7609 163.808 72.3639C163.207 71.9669 162.738 71.4013 162.46 70.7388C162.182 70.0762 162.108 69.3466 162.247 68.6422C162.387 67.9378 162.733 67.2903 163.242 66.7818C163.751 66.2733 164.401 65.9266 165.108 65.7856C165.816 65.6446 166.549 65.7157 167.216 65.9898C167.883 66.264 168.453 66.7289 168.854 67.3256C169.255 67.9223 169.469 68.6241 169.469 69.342C169.469 70.3017 169.087 71.2224 168.406 71.9022C167.725 72.5821 166.801 72.9657 165.837 72.969ZM165.837 66.8903C165.346 66.8878 164.865 67.0305 164.456 67.3003C164.047 67.5701 163.727 67.9549 163.538 68.4057C163.349 68.8565 163.299 69.3531 163.394 69.8323C163.49 70.3115 163.726 70.7517 164.073 71.0972C164.42 71.4426 164.862 71.6775 165.344 71.7722C165.825 71.8669 166.324 71.817 166.777 71.6289C167.231 71.4409 167.617 71.123 167.888 70.7158C168.159 70.3086 168.303 69.8305 168.3 69.342C168.287 68.7005 168.022 68.0898 167.561 67.6409C167.1 67.192 166.481 66.9407 165.837 66.9408V66.8903Z" fill="#B3DBD8"/>
<path d="M433.934 128.36L408.127 141.731C407.742 141.924 407.315 142.016 406.884 141.999C406.454 141.983 406.035 141.857 405.666 141.635C405.298 141.412 404.992 141.1 404.779 140.728C404.565 140.356 404.45 139.935 404.444 139.507V112.753C404.45 112.324 404.565 111.904 404.779 111.531C404.992 111.159 405.298 110.847 405.666 110.625C406.035 110.402 406.454 110.277 406.884 110.26C407.315 110.243 407.742 110.335 408.127 110.528L433.934 123.899C434.34 124.115 434.68 124.436 434.917 124.829C435.154 125.222 435.279 125.671 435.279 126.13C435.279 126.588 435.154 127.037 434.917 127.43C434.68 127.823 434.34 128.145 433.934 128.36Z" fill="white"/>
<path d="M406.959 142.603C406.136 142.6 405.348 142.272 404.767 141.692C404.186 141.111 403.86 140.326 403.86 139.507V112.753C403.858 112.222 403.995 111.699 404.256 111.236C404.516 110.773 404.893 110.384 405.349 110.108C405.805 109.832 406.325 109.678 406.859 109.661C407.392 109.644 407.921 109.764 408.394 110.01L434.2 123.394C434.707 123.653 435.132 124.046 435.429 124.53C435.725 125.013 435.882 125.569 435.882 126.136C435.882 126.703 435.725 127.259 435.429 127.742C435.132 128.226 434.707 128.619 434.2 128.878L408.394 142.249C407.95 142.477 407.458 142.598 406.959 142.603ZM406.959 110.832C406.447 110.832 405.956 111.034 405.594 111.394C405.232 111.755 405.028 112.243 405.028 112.753V139.507C405.027 139.839 405.112 140.165 405.275 140.454C405.438 140.744 405.674 140.986 405.959 141.158C406.244 141.329 406.569 141.425 406.902 141.435C407.236 141.444 407.566 141.368 407.86 141.213L433.654 127.842C433.968 127.678 434.231 127.432 434.414 127.13C434.598 126.828 434.695 126.482 434.695 126.13C434.695 125.777 434.598 125.431 434.414 125.129C434.231 124.827 433.968 124.581 433.654 124.417L407.86 111.047C407.578 110.92 407.268 110.864 406.959 110.882V110.832Z" fill="#B3DBD8"/>
</svg>
