<svg width="293" height="220" viewBox="0 0 293 220" fill="none" xmlns="http://www.w3.org/2000/svg">
<path d="M272.219 47.6729H205.825V112.401H272.219V47.6729Z" fill="white"/>
<path d="M272.219 112.737H205.832C205.743 112.737 205.657 112.701 205.594 112.638C205.531 112.575 205.495 112.49 205.495 112.401V47.6731C205.495 47.5841 205.531 47.4987 205.594 47.4357C205.657 47.3728 205.743 47.3374 205.832 47.3374H272.226C272.315 47.3393 272.399 47.3752 272.462 47.4378C272.525 47.5003 272.561 47.5846 272.563 47.6731V112.401C272.561 112.491 272.524 112.576 272.459 112.639C272.395 112.701 272.309 112.737 272.219 112.737ZM206.162 112.065H271.882V48.0088H206.162V112.065Z" fill="#B3DBD8"/>
<path d="M272.219 100.44H205.825V112.401H272.219V100.44Z" fill="white"/>
<path d="M272.219 112.736H205.832C205.743 112.736 205.657 112.701 205.594 112.638C205.531 112.575 205.495 112.49 205.495 112.401V100.44C205.494 100.396 205.502 100.352 205.519 100.311C205.535 100.27 205.56 100.232 205.592 100.201C205.623 100.169 205.661 100.145 205.702 100.128C205.743 100.112 205.788 100.104 205.832 100.105H272.226C272.27 100.105 272.314 100.113 272.355 100.13C272.396 100.147 272.433 100.172 272.464 100.203C272.495 100.234 272.52 100.271 272.537 100.312C272.554 100.353 272.563 100.396 272.563 100.44V112.401C272.561 112.49 272.524 112.576 272.46 112.639C272.395 112.701 272.309 112.736 272.219 112.736ZM206.162 112.065H271.882V100.776H206.162V112.065Z" fill="#B3DBD8"/>
<path d="M81.6735 109.701H20.7808V63.2238L29.102 54.7661H81.6735V109.701Z" fill="white"/>
<path d="M81.6735 110.037H20.7808C20.6914 110.037 20.6057 110.001 20.5425 109.938C20.4793 109.875 20.4438 109.79 20.4438 109.701V63.2238C20.4454 63.1369 20.4793 63.0537 20.5391 62.9903L28.8603 54.5399C28.9241 54.4754 29.011 54.4386 29.102 54.4377H81.6735C81.7629 54.4377 81.8486 54.4731 81.9118 54.5361C81.975 54.599 82.0105 54.6844 82.0105 54.7734V109.708C82.0105 109.752 82.0017 109.795 81.9847 109.836C81.9677 109.876 81.9427 109.912 81.9114 109.943C81.88 109.974 81.8428 109.998 81.8019 110.014C81.7611 110.03 81.7174 110.038 81.6735 110.037ZM21.1177 109.365H81.3073V55.1018H29.2485L21.1177 63.3624V109.365Z" fill="#B3DBD8"/>
<path d="M76.4287 68.4487H26.2305C26.1411 68.4487 26.0554 68.4133 25.9922 68.3504C25.9291 68.2874 25.8936 68.2021 25.8936 68.113C25.8936 68.024 25.9291 67.9386 25.9922 67.8757C26.0554 67.8127 26.1411 67.7773 26.2305 67.7773H76.4287C76.5181 67.7773 76.6038 67.8127 76.667 67.8757C76.7302 67.9386 76.7657 68.024 76.7657 68.113C76.7657 68.2021 76.7302 68.2874 76.667 68.3504C76.6038 68.4133 76.5181 68.4487 76.4287 68.4487Z" fill="#B3DBD8"/>
<path d="M76.4287 76.4319H26.2305C26.1411 76.4319 26.0554 76.3965 25.9922 76.3335C25.9291 76.2706 25.8936 76.1852 25.8936 76.0962C25.8936 76.0071 25.9291 75.9218 25.9922 75.8588C26.0554 75.7959 26.1411 75.7605 26.2305 75.7605H76.4287C76.5181 75.7605 76.6038 75.7959 76.667 75.8588C76.7302 75.9218 76.7657 76.0071 76.7657 76.0962C76.7657 76.1852 76.7302 76.2706 76.667 76.3335C76.6038 76.3965 76.5181 76.4319 76.4287 76.4319Z" fill="#B3DBD8"/>
<path d="M76.4287 84.3569H26.2305C26.1411 84.3569 26.0554 84.3215 25.9922 84.2586C25.9291 84.1956 25.8936 84.1103 25.8936 84.0212C25.8936 83.9322 25.9291 83.8468 25.9922 83.7839C26.0554 83.7209 26.1411 83.6855 26.2305 83.6855H76.4287C76.5181 83.6855 76.6038 83.7209 76.667 83.7839C76.7302 83.8468 76.7657 83.9322 76.7657 84.0212C76.7657 84.1103 76.7302 84.1956 76.667 84.2586C76.6038 84.3215 76.5181 84.3569 76.4287 84.3569Z" fill="#B3DBD8"/>
<path d="M76.4288 92.3111H26.2306C26.1412 92.3111 26.0555 92.2757 25.9923 92.2128C25.9291 92.1498 25.8936 92.0644 25.8936 91.9754C25.8926 91.9311 25.9007 91.887 25.9172 91.8458C25.9338 91.8046 25.9586 91.7672 25.9901 91.7358C26.0216 91.7045 26.0591 91.6798 26.1005 91.6633C26.1418 91.6467 26.1861 91.6387 26.2306 91.6397H76.4288C76.4737 91.6388 76.5183 91.6467 76.56 91.6632C76.6017 91.6796 76.6398 91.7042 76.6718 91.7354C76.7039 91.7667 76.7294 91.804 76.7468 91.8452C76.7641 91.8865 76.7731 91.9307 76.7731 91.9754C76.7712 92.0651 76.7341 92.1505 76.6697 92.2132C76.6053 92.276 76.5189 92.3111 76.4288 92.3111Z" fill="#B3DBD8"/>
<path d="M76.4288 100.265H26.2306C26.1863 100.265 26.1425 100.257 26.1016 100.24C26.0608 100.223 26.0236 100.198 25.9923 100.167C25.961 100.136 25.9362 100.099 25.9193 100.058C25.9024 100.017 25.8936 99.9736 25.8936 99.9295C25.8926 99.8852 25.9007 99.8411 25.9172 99.7999C25.9338 99.7587 25.9586 99.7213 25.9901 99.6899C26.0216 99.6586 26.0591 99.6339 26.1005 99.6173C26.1418 99.6008 26.1861 99.5928 26.2306 99.5938H76.4288C76.4737 99.5929 76.5183 99.6008 76.56 99.6173C76.6017 99.6337 76.6398 99.6583 76.6718 99.6895C76.7039 99.7208 76.7294 99.7581 76.7468 99.7993C76.7641 99.8405 76.7731 99.8848 76.7731 99.9295C76.7712 100.019 76.7341 100.105 76.6697 100.167C76.6053 100.23 76.5189 100.265 76.4288 100.265Z" fill="#B3DBD8"/>
<path d="M29.0729 63.4645H20.8835C20.8018 63.4525 20.7271 63.4116 20.6731 63.3493C20.6191 63.287 20.5894 63.2074 20.5894 63.1251C20.5894 63.0428 20.6191 62.9632 20.6731 62.9009C20.7271 62.8386 20.8018 62.7978 20.8835 62.7858H28.7359L28.8678 54.6638C28.8732 54.5753 28.9114 54.4919 28.975 54.4299C29.0386 54.3678 29.1231 54.3316 29.2121 54.3281C29.3008 54.3319 29.3847 54.3697 29.4461 54.4336C29.5075 54.4975 29.5418 54.5826 29.5417 54.6711L29.4098 63.1288C29.408 63.2172 29.3719 63.3015 29.3091 63.3641C29.2463 63.4266 29.1617 63.4626 29.0729 63.4645Z" fill="#B3DBD8"/>
<path d="M150.345 66.5878C150.345 66.5878 166.109 68.2443 170.269 75.0454C174.43 81.8466 204.235 119.304 204.235 119.304L125.858 118.808C125.858 118.808 121.785 76.2933 127.323 67.2372C127.374 67.2372 128.458 64.2015 150.345 66.5878Z" fill="#B3DBD8"/>
<path d="M140.134 76.4831C141.121 77.7579 142.373 78.8048 143.804 79.5518C145.236 80.2988 146.812 80.7282 148.426 80.8104C148.848 80.8341 149.27 80.7796 149.671 80.6499C150.218 80.4122 150.683 80.0219 151.012 79.5261C152.477 77.512 152.543 74.812 152.169 72.36C151.913 70.6306 151.437 68.8281 150.096 67.6751C148.558 66.3178 146.324 66.2156 144.236 66.1281C142.149 66.0405 137.431 65.4859 136.655 68.0035C135.974 70.3168 138.779 74.8047 140.134 76.4831Z" fill="#093F68"/>
<path d="M148.551 81.1389H148.419C146.761 81.0522 145.142 80.6088 143.673 79.8391C142.203 79.0694 140.919 77.9917 139.907 76.6802C138.442 74.8704 135.652 70.3387 136.399 67.9233C137.146 65.5079 141.094 65.6611 143.453 65.7852H144.302C146.58 65.8509 148.763 66.026 150.331 67.4125C151.898 68.799 152.294 70.8277 152.528 72.2872C153.004 75.4469 152.594 77.9353 151.312 79.6867C150.957 80.2346 150.447 80.6661 149.847 80.9273C149.432 81.0751 148.992 81.1468 148.551 81.1389ZM140.384 76.2788C141.34 77.5214 142.556 78.5421 143.947 79.2704C145.338 79.9986 146.871 80.4171 148.441 80.4967C148.825 80.5189 149.21 80.4694 149.576 80.3508C150.065 80.1386 150.48 79.7884 150.77 79.3437C151.95 77.731 152.316 75.3958 151.869 72.4112C151.664 71.0466 151.232 69.0982 149.899 67.9233C148.566 66.7484 146.434 66.5222 144.273 66.4638H143.409C141.211 66.3544 137.615 66.1719 137.007 68.1495C136.34 70.3388 139.058 74.6661 140.398 76.3226L140.384 76.2788Z" fill="#093F68"/>
<path d="M153.21 50.7013C153.42 50.0053 153.772 49.3596 154.242 48.804C154.485 48.5329 154.806 48.3427 155.161 48.2591C155.516 48.1756 155.888 48.2028 156.227 48.337C156.466 48.4752 156.667 48.6702 156.811 48.9045C156.955 49.1388 157.039 49.4052 157.055 49.6797C157.088 50.2277 156.998 50.7761 156.791 51.2851C156.479 52.2541 155.94 53.1348 155.217 53.8538C154.856 54.2132 154.424 54.4946 153.949 54.6804C153.474 54.8663 152.965 54.9525 152.455 54.9338" fill="white"/>
<path d="M152.667 55.2697H152.433C152.357 55.2623 152.286 55.2252 152.237 55.1665C152.187 55.1078 152.163 55.0322 152.169 54.9559C152.169 54.9171 152.177 54.8788 152.193 54.8434C152.209 54.808 152.232 54.7764 152.261 54.7508C152.29 54.7252 152.325 54.7061 152.362 54.6949C152.399 54.6837 152.438 54.6806 152.477 54.6859C152.946 54.7019 153.414 54.6221 153.851 54.4514C154.288 54.2807 154.685 54.0228 155.019 53.6934C155.694 52.9999 156.196 52.1573 156.484 51.2342C156.67 50.7707 156.757 50.2737 156.74 49.7747C156.728 49.548 156.66 49.3278 156.542 49.1332C156.425 48.9386 156.261 48.7756 156.066 48.6582C155.783 48.5499 155.473 48.5317 155.179 48.6062C154.886 48.6807 154.622 48.8442 154.425 49.0742C153.981 49.5988 153.652 50.2103 153.459 50.8694C153.431 50.9419 153.376 51.0008 153.306 51.0329C153.235 51.0651 153.154 51.0679 153.081 51.0408C153.008 51.0137 152.949 50.9589 152.917 50.8884C152.885 50.818 152.882 50.7376 152.909 50.665C153.128 49.9282 153.503 49.2466 154.008 48.6655C154.293 48.35 154.67 48.13 155.085 48.036C155.501 47.9419 155.936 47.9783 156.33 48.1401C156.61 48.3018 156.847 48.5292 157.019 48.8026C157.192 49.076 157.295 49.3872 157.319 49.7091C157.353 50.3019 157.255 50.8948 157.033 51.4458C156.709 52.4586 156.147 53.3793 155.392 54.1313C154.66 54.8378 153.687 55.2441 152.667 55.2697Z" fill="#093F68"/>
<path d="M149.371 60.3776L150.235 68.9812C150.235 68.9812 149.818 73.8705 144.419 72.8999C142.827 72.5963 141.323 71.9438 140.016 70.9896C138.708 70.0355 137.63 68.8035 136.86 67.3831C136.86 67.3831 137.065 51.9564 137.058 51.9491C137.058 51.3216 138.34 49.1615 137.724 43.7104C139.574 43.5202 141.363 42.9483 142.979 42.0311C144.594 41.1139 146 39.8716 147.108 38.3833C147.108 38.3833 149.613 41.4628 150.667 42.4115C151.496 43.1241 152.234 43.9353 152.865 44.8269C154.528 47.3299 154.469 51.3945 154.066 54.3135C153.751 56.6633 152.36 60.4287 149.371 60.3776Z" fill="white"/>
<path d="M145.767 73.3524C145.295 73.3495 144.825 73.3055 144.361 73.2211C142.713 72.9176 141.155 72.2466 139.804 71.2583C138.453 70.2701 137.344 68.9902 136.56 67.5145C136.536 67.4692 136.524 67.4193 136.523 67.3686C136.523 67.3686 136.728 52.044 136.728 51.9419C136.741 51.657 136.801 51.3761 136.904 51.11C137.596 48.7165 137.761 46.2024 137.387 43.7396C137.382 43.6509 137.408 43.5631 137.461 43.4915C137.52 43.4255 137.6 43.3817 137.688 43.3674C139.486 43.1758 141.226 42.6176 142.798 41.7276C144.371 40.8375 145.743 39.6345 146.829 38.1936C146.861 38.1514 146.901 38.117 146.948 38.0934C146.996 38.0697 147.048 38.0574 147.1 38.0574C147.153 38.0574 147.205 38.0697 147.252 38.0934C147.299 38.117 147.34 38.1514 147.371 38.1936C147.371 38.1936 149.869 41.2585 150.887 42.1853C151.747 42.909 152.513 43.7377 153.165 44.6518C155.114 47.5707 154.689 52.4089 154.418 54.3427C154.088 56.6487 152.74 60.4798 149.737 60.7133L150.565 68.9594C150.423 70.3205 149.753 71.5724 148.697 72.4475C147.849 73.0659 146.818 73.3844 145.767 73.3524ZM137.197 67.2956C137.95 68.6506 138.992 69.8246 140.25 70.7349C141.508 71.6452 142.951 72.2696 144.478 72.5643C145.124 72.7308 145.797 72.7597 146.455 72.649C147.112 72.5383 147.739 72.2907 148.294 71.9221C149.186 71.1662 149.759 70.103 149.898 68.9448L149.034 60.3777C149.029 60.2822 149.06 60.1884 149.122 60.1149C149.191 60.0489 149.283 60.0122 149.378 60.0128C152.162 60.0931 153.444 56.3641 153.773 54.1749C154.037 52.314 154.455 47.6948 152.623 44.9437C151.995 44.0695 151.257 43.2797 150.426 42.5939C149.259 41.408 148.154 40.1634 147.115 38.865C144.883 41.6662 141.638 43.4844 138.076 43.9293C138.404 46.373 138.219 48.8578 137.534 51.2267C137.46 51.4299 137.409 51.6403 137.38 51.8543C137.38 51.8543 137.395 51.9419 137.197 67.2956Z" fill="#093F68"/>
<path d="M149.664 63.2019C148.247 63.453 146.787 63.3013 145.452 62.764C142.376 61.6913 142.2 59.6042 142.2 59.6042C142.2 59.6042 144.786 61.2243 149.371 60.334L149.664 63.2019Z" fill="#093F68"/>
<path d="M148.412 63.6323C147.367 63.6159 146.332 63.426 145.35 63.0704C142.105 61.9393 141.885 59.7209 141.878 59.6479C141.875 59.589 141.887 59.5303 141.914 59.4777C141.941 59.4252 141.982 59.3807 142.032 59.3487C142.083 59.3163 142.143 59.2991 142.204 59.2991C142.265 59.2991 142.324 59.3163 142.376 59.3487C142.376 59.3487 144.925 60.8884 149.313 60.0784C149.4 60.0645 149.49 60.0855 149.562 60.1368C149.598 60.1635 149.629 60.1974 149.651 60.2363C149.674 60.2752 149.688 60.3183 149.694 60.363L149.979 63.136C149.994 63.1949 149.993 63.2567 149.975 63.3147C149.957 63.3727 149.923 63.4245 149.877 63.4644C149.813 63.5165 149.732 63.5448 149.65 63.5447C149.24 63.6094 148.826 63.6387 148.412 63.6323ZM142.72 60.2098C143.014 60.759 143.418 61.2423 143.907 61.6301C144.396 62.0179 144.959 62.302 145.562 62.4647C146.757 62.9164 148.044 63.0741 149.313 62.9244L149.086 60.7352C146.956 61.1506 144.752 60.9687 142.72 60.2098Z" fill="#093F68"/>
<path d="M144.917 48.3298C144.917 48.3298 148.111 52.1829 147.525 52.9637C146.939 53.7445 145.042 53.4599 145.042 53.4599" fill="white"/>
<path d="M145.826 53.8102C145.546 53.8073 145.268 53.7878 144.991 53.7518C144.906 53.7358 144.831 53.6884 144.781 53.6192C144.731 53.5501 144.709 53.4644 144.72 53.3796C144.734 53.2949 144.781 53.2191 144.851 53.1686C144.921 53.1182 145.008 53.097 145.093 53.1096C145.533 53.1753 146.88 53.2556 147.291 52.7448C147.474 52.3872 146.265 50.4023 144.69 48.505C144.636 48.4392 144.61 48.3545 144.618 48.2697C144.626 48.1849 144.668 48.1067 144.734 48.0526C144.8 47.9984 144.885 47.9725 144.97 47.9807C145.056 47.989 145.134 48.0305 145.188 48.0963C146.441 49.6069 148.448 52.2704 147.803 53.1315C147.545 53.3833 147.233 53.5747 146.891 53.692C146.549 53.8094 146.185 53.8497 145.826 53.8102Z" fill="#093F68"/>
<path d="M149.868 49.4103C150.128 49.3755 150.286 48.949 150.22 48.4577C150.154 47.9664 149.889 47.5962 149.629 47.631C149.368 47.6657 149.21 48.0922 149.276 48.5835C149.342 49.0748 149.607 49.445 149.868 49.4103Z" fill="#093F68"/>
<path d="M142.19 49.2097C142.453 49.2066 142.661 48.8023 142.656 48.3066C142.65 47.8109 142.432 47.4116 142.169 47.4146C141.906 47.4177 141.698 47.822 141.703 48.3177C141.709 48.8134 141.927 49.2127 142.19 49.2097Z" fill="#093F68"/>
<path d="M138.831 49.6361C138.639 48.8988 138.311 48.2035 137.864 47.5855C137.608 47.2325 137.271 46.9456 136.881 46.7489C136.491 46.5521 136.059 46.4511 135.622 46.4544C135.353 46.4645 135.09 46.5354 134.853 46.6619C134.616 46.7883 134.41 46.9669 134.252 47.1842C134.061 47.4973 133.941 47.8486 133.901 48.2131C133.623 50.125 134.26 52.5915 136.098 53.6059C136.403 53.797 136.756 53.8984 137.117 53.8984C137.477 53.8984 137.83 53.797 138.135 53.6059" fill="white"/>
<path d="M137.212 54.2042C136.763 54.1948 136.323 54.0772 135.93 53.8613C134.011 52.8104 133.315 50.2126 133.615 48.1693C133.67 47.7597 133.818 47.3679 134.047 47.0236C134.228 46.7681 134.465 46.5576 134.741 46.4083C135.017 46.2589 135.323 46.1749 135.637 46.1625C136.122 46.1575 136.601 46.2682 137.034 46.4853C137.467 46.7023 137.842 47.0195 138.127 47.4104C138.598 48.0535 138.943 48.7787 139.145 49.5485C139.157 49.5854 139.16 49.6241 139.157 49.6625C139.153 49.7009 139.141 49.7381 139.123 49.772C139.104 49.8059 139.079 49.8359 139.049 49.8602C139.019 49.8844 138.985 49.9025 138.948 49.9134C138.874 49.9338 138.795 49.9246 138.728 49.8878C138.661 49.8509 138.611 49.7894 138.589 49.7163C138.404 49.0157 138.091 48.3552 137.666 47.7679C137.441 47.4501 137.142 47.1911 136.796 47.0132C136.449 46.8353 136.064 46.7437 135.673 46.7463C135.45 46.7525 135.23 46.8096 135.032 46.9133C134.834 47.0171 134.663 47.1646 134.531 47.3447C134.363 47.6195 134.26 47.9291 134.23 48.2496C133.959 50.0885 134.56 52.431 136.245 53.3577C136.499 53.5228 136.795 53.6148 137.098 53.6238C137.402 53.6328 137.702 53.5584 137.966 53.4088C137.996 53.379 138.031 53.3559 138.07 53.341C138.109 53.3261 138.151 53.3198 138.193 53.3225C138.235 53.3251 138.276 53.3367 138.313 53.3564C138.35 53.3762 138.382 53.4036 138.408 53.4369C138.433 53.4701 138.451 53.5084 138.46 53.5492C138.47 53.59 138.47 53.6323 138.462 53.6732C138.453 53.7141 138.436 53.7527 138.411 53.7864C138.386 53.8202 138.354 53.8482 138.318 53.8686C137.997 54.1015 137.608 54.2198 137.212 54.2042Z" fill="#093F68"/>
<path d="M168.746 115.721C168.657 115.721 168.57 115.689 168.502 115.632C168.434 115.574 168.388 115.495 168.372 115.407C166.453 103.462 162.776 80.701 162.608 80.0151C162.596 79.9676 162.593 79.9183 162.6 79.8699C162.607 79.8214 162.624 79.7749 162.649 79.7328C162.674 79.6908 162.707 79.6542 162.747 79.6249C162.786 79.5957 162.831 79.5746 162.879 79.5626C162.976 79.5381 163.079 79.5527 163.165 79.6033C163.251 79.6538 163.314 79.7362 163.34 79.8326C163.56 80.7229 168.893 113.875 169.12 115.283C169.134 115.382 169.11 115.482 169.051 115.563C168.992 115.643 168.903 115.698 168.805 115.714L168.746 115.721Z" fill="#093F68"/>
<path d="M145.32 92.3475L135.842 92.4423L135.542 89.0199L144.639 88.9104L145.32 92.3475Z" fill="white"/>
<path d="M251.313 100.44V176.494C251.312 178.328 250.949 180.144 250.243 181.838C249.538 183.532 248.504 185.072 247.202 186.368C245.899 187.664 244.353 188.692 242.652 189.393C240.95 190.094 239.127 190.455 237.286 190.454H52.542C50.7016 190.455 48.879 190.094 47.1784 189.393C45.4779 188.692 43.9328 187.663 42.6314 186.367C41.33 185.07 40.2979 183.531 39.594 181.837C38.8901 180.143 38.5283 178.327 38.5293 176.494V100.44C38.5283 98.6065 38.8901 96.7904 39.5939 95.0959C40.2976 93.4013 41.3296 91.8616 42.6309 90.5645C43.9322 89.2674 45.4773 88.2385 47.1779 87.5365C48.8785 86.8345 50.7012 86.4731 52.542 86.4731H237.286C241.005 86.4731 244.572 87.9445 247.202 90.5636C249.833 93.1827 251.311 96.7353 251.313 100.44Z" fill="white"/>
<path d="M237.286 190.833H52.5421C48.7258 190.829 45.067 189.317 42.3685 186.629C39.67 183.941 38.1523 180.296 38.1484 176.494V100.44C38.1504 96.6373 39.6672 92.9904 42.3659 90.3005C45.0646 87.6106 48.7246 86.0976 52.5421 86.0938H237.286C241.104 86.0976 244.765 87.6104 247.465 90.3001C250.164 92.9897 251.683 96.6366 251.687 100.44V176.494C251.681 180.296 250.162 183.941 247.462 186.629C244.762 189.318 241.103 190.829 237.286 190.833ZM52.5421 86.8454C48.9253 86.8512 45.4583 88.2856 42.9016 90.8341C40.3448 93.3826 38.9068 96.8372 38.9029 100.44V176.494C38.9087 180.095 40.3478 183.547 42.9046 186.093C45.4614 188.639 48.9272 190.07 52.5421 190.074H237.286C240.902 190.072 244.37 188.641 246.928 186.095C249.486 183.549 250.927 180.096 250.932 176.494V100.44C250.928 96.836 249.489 93.3803 246.931 90.8315C244.373 88.2828 240.904 86.8492 237.286 86.8454H52.5421Z" fill="#093F68"/>
<path d="M251.313 100.44V105.549H38.5293V100.44C38.5283 98.6065 38.8901 96.7904 39.5939 95.0959C40.2976 93.4013 41.3296 91.8616 42.6309 90.5645C43.9322 89.2674 45.4773 88.2385 47.1779 87.5365C48.8785 86.8345 50.7012 86.4731 52.542 86.4731H237.286C241.005 86.4731 244.572 87.9445 247.202 90.5636C249.833 93.1827 251.311 96.7353 251.313 100.44Z" fill="white"/>
<path d="M251.313 105.964H38.5293C38.4283 105.964 38.3314 105.924 38.26 105.853C38.1886 105.782 38.1484 105.686 38.1484 105.585V100.477C38.1504 96.6737 39.6672 93.0268 42.3659 90.3369C45.0646 87.647 48.7246 86.134 52.5421 86.1301H237.286C241.098 86.134 244.753 87.6417 247.452 90.3235C250.151 93.0053 251.673 96.6428 251.687 100.44V105.548C251.693 105.601 251.688 105.654 251.672 105.704C251.656 105.755 251.63 105.801 251.594 105.84C251.559 105.88 251.516 105.911 251.467 105.933C251.419 105.954 251.366 105.965 251.313 105.964ZM38.8883 105.235H250.932V100.44C250.928 96.8359 249.489 93.3802 246.931 90.8314C244.373 88.2827 240.904 86.8491 237.286 86.8453H52.5421C48.9253 86.8511 45.4583 88.2855 42.9016 90.834C40.3448 93.3825 38.9068 96.8371 38.9029 100.44L38.8883 105.235Z" fill="#093F68"/>
<path d="M207.473 165.81H74.473C72.3502 165.808 70.3149 164.967 68.8139 163.472C67.3129 161.977 66.4687 159.949 66.4668 157.834V142.16C66.4687 140.045 67.3129 138.017 68.8139 136.522C70.3149 135.026 72.3502 134.185 74.473 134.183H207.473C209.596 134.185 211.631 135.026 213.132 136.522C214.633 138.017 215.477 140.045 215.479 142.16V157.834C215.477 159.949 214.633 161.977 213.132 163.472C211.631 164.967 209.596 165.808 207.473 165.81ZM74.473 134.935C72.5503 134.937 70.707 135.699 69.3474 137.053C67.9879 138.408 67.2232 140.244 67.2213 142.16V157.834C67.2232 159.75 67.9879 161.586 69.3474 162.941C70.707 164.295 72.5503 165.057 74.473 165.059H207.473C209.395 165.057 211.238 164.295 212.596 162.94C213.954 161.586 214.717 159.749 214.717 157.834V142.16C214.717 140.245 213.954 138.408 212.596 137.054C211.238 135.699 209.395 134.937 207.473 134.935H74.473Z" fill="#B3DBD8"/>
<path d="M215.099 142.16V157.834C215.101 158.834 214.906 159.825 214.525 160.749C214.143 161.674 213.582 162.514 212.873 163.223C212.165 163.931 211.324 164.493 210.397 164.877C209.47 165.261 208.477 165.459 207.473 165.46H179.309V134.556H207.473C209.496 134.558 211.436 135.36 212.866 136.785C214.295 138.211 215.099 140.144 215.099 142.16Z" fill="#B3DBD8"/>
<path d="M207.473 165.81H179.309C179.259 165.811 179.21 165.802 179.163 165.784C179.117 165.766 179.075 165.739 179.04 165.704C179.004 165.669 178.976 165.628 178.957 165.582C178.938 165.537 178.928 165.488 178.928 165.438V134.556C178.928 134.506 178.938 134.457 178.957 134.411C178.976 134.366 179.004 134.324 179.04 134.29C179.075 134.255 179.117 134.228 179.163 134.21C179.21 134.191 179.259 134.182 179.309 134.183H207.473C209.596 134.185 211.631 135.026 213.132 136.522C214.633 138.017 215.478 140.045 215.479 142.159V157.834C215.478 159.949 214.633 161.977 213.132 163.472C211.631 164.967 209.596 165.808 207.473 165.81ZM179.682 165.081H207.473C209.395 165.079 211.238 164.317 212.596 162.962C213.955 161.607 214.718 159.771 214.718 157.856V142.159C214.718 140.245 213.955 138.408 212.596 137.054C211.238 135.699 209.395 134.937 207.473 134.935H179.682V165.081Z" fill="#B3DBD8"/>
<path d="M89.404 148.318C89.3128 147.548 88.9427 146.949 88.2937 146.523C87.6447 146.098 86.8487 145.885 85.9056 145.885C85.2161 145.885 84.6127 145.996 84.0955 146.219C83.5835 146.442 83.1829 146.749 82.8939 147.139C82.61 147.53 82.468 147.973 82.468 148.47C82.468 148.886 82.5669 149.244 82.7646 149.543C82.9674 149.837 83.226 150.083 83.5404 150.28C83.8547 150.473 84.1843 150.633 84.529 150.76C84.8738 150.881 85.1907 150.98 85.4797 151.056L87.0616 151.482C87.4672 151.589 87.9185 151.736 88.4154 151.923C88.9173 152.111 89.3964 152.367 89.8528 152.691C90.3141 153.011 90.6944 153.421 90.9935 153.923C91.2927 154.425 91.4423 155.041 91.4423 155.771C91.4423 156.613 91.2217 157.374 90.7806 158.053C90.3446 158.732 89.7057 159.272 88.8641 159.673C88.0275 160.074 87.0109 160.274 85.8143 160.274C84.6989 160.274 83.733 160.094 82.9167 159.734C82.1055 159.374 81.4666 158.872 81.0002 158.228C80.5388 157.584 80.2777 156.836 80.2168 155.984H82.1638C82.2145 156.573 82.4122 157.059 82.757 157.445C83.1069 157.825 83.548 158.109 84.0803 158.296C84.6178 158.479 85.1958 158.57 85.8143 158.57C86.5343 158.57 87.1808 158.454 87.7537 158.22C88.3266 157.982 88.7804 157.652 89.115 157.232C89.4497 156.806 89.617 156.309 89.617 155.741C89.617 155.224 89.4725 154.803 89.1835 154.479C88.8945 154.154 88.5142 153.89 88.0427 153.688C87.5712 153.485 87.0616 153.307 86.514 153.155L84.5975 152.608C83.3806 152.258 82.4173 151.758 81.7075 151.109C80.9977 150.46 80.6427 149.611 80.6427 148.562C80.6427 147.69 80.8785 146.929 81.35 146.28C81.8266 145.626 82.4655 145.119 83.2666 144.759C84.0727 144.394 84.9727 144.211 85.9664 144.211C86.9703 144.211 87.8627 144.391 88.6435 144.751C89.4243 145.106 90.0429 145.593 90.4992 146.212C90.9606 146.83 91.204 147.532 91.2293 148.318H89.404ZM99.1978 160.243C98.0722 160.243 97.1012 159.995 96.2849 159.498C95.4737 158.996 94.8475 158.296 94.4064 157.399C93.9704 156.496 93.7524 155.447 93.7524 154.25C93.7524 153.054 93.9704 151.999 94.4064 151.087C94.8475 150.169 95.461 149.454 96.2469 148.942C97.0378 148.425 97.9606 148.166 99.0152 148.166C99.6236 148.166 100.224 148.268 100.818 148.47C101.411 148.673 101.951 149.003 102.438 149.459C102.924 149.91 103.312 150.509 103.601 151.254C103.89 151.999 104.035 152.917 104.035 154.007V154.768H95.0301V153.216H102.209C102.209 152.557 102.078 151.969 101.814 151.452C101.555 150.934 101.185 150.526 100.704 150.227C100.227 149.928 99.6642 149.778 99.0152 149.778C98.3003 149.778 97.6818 149.956 97.1595 150.311C96.6424 150.661 96.2444 151.117 95.9655 151.68C95.6866 152.243 95.5472 152.846 95.5472 153.49V154.524C95.5472 155.406 95.6993 156.154 96.0035 156.768C96.3128 157.376 96.7412 157.84 97.2888 158.16C97.8364 158.474 98.4727 158.631 99.1978 158.631C99.6693 158.631 100.095 158.565 100.475 158.433C100.861 158.296 101.193 158.094 101.472 157.825C101.751 157.551 101.966 157.211 102.118 156.806L103.852 157.293C103.67 157.881 103.363 158.398 102.932 158.844C102.501 159.285 101.969 159.63 101.335 159.878C100.701 160.122 99.9887 160.243 99.1978 160.243ZM110.203 160.274C109.462 160.274 108.791 160.134 108.187 159.855C107.584 159.572 107.105 159.163 106.75 158.631C106.395 158.094 106.217 157.445 106.217 156.684C106.217 156.015 106.349 155.472 106.613 155.057C106.877 154.636 107.229 154.306 107.67 154.068C108.111 153.83 108.598 153.652 109.13 153.536C109.668 153.414 110.208 153.317 110.75 153.247C111.46 153.155 112.035 153.087 112.477 153.041C112.923 152.99 113.247 152.907 113.45 152.79C113.658 152.674 113.762 152.471 113.762 152.182V152.121C113.762 151.371 113.557 150.787 113.146 150.372C112.74 149.956 112.124 149.748 111.298 149.748C110.441 149.748 109.769 149.936 109.282 150.311C108.796 150.686 108.453 151.087 108.256 151.512L106.552 150.904C106.856 150.194 107.262 149.642 107.769 149.246C108.281 148.846 108.839 148.567 109.442 148.41C110.051 148.247 110.649 148.166 111.237 148.166C111.612 148.166 112.043 148.212 112.53 148.303C113.022 148.389 113.496 148.569 113.952 148.843C114.413 149.117 114.796 149.53 115.1 150.083C115.405 150.635 115.557 151.376 115.557 152.303V160H113.762V158.418H113.671C113.549 158.672 113.346 158.943 113.062 159.232C112.778 159.521 112.401 159.767 111.929 159.97C111.457 160.172 110.882 160.274 110.203 160.274ZM110.476 158.661C111.186 158.661 111.785 158.522 112.271 158.243C112.763 157.964 113.133 157.604 113.382 157.163C113.635 156.722 113.762 156.258 113.762 155.771V154.129C113.686 154.22 113.519 154.304 113.26 154.38C113.006 154.451 112.712 154.514 112.378 154.57C112.048 154.621 111.726 154.666 111.412 154.707C111.103 154.742 110.852 154.773 110.659 154.798C110.192 154.859 109.756 154.958 109.351 155.095C108.95 155.226 108.626 155.427 108.377 155.695C108.134 155.959 108.012 156.319 108.012 156.775C108.012 157.399 108.243 157.871 108.704 158.19C109.171 158.504 109.762 158.661 110.476 158.661ZM118.833 160V148.318H120.567V150.083H120.688C120.901 149.505 121.287 149.036 121.844 148.676C122.402 148.316 123.031 148.136 123.731 148.136C123.862 148.136 124.027 148.138 124.225 148.143C124.423 148.148 124.572 148.156 124.674 148.166V149.991C124.613 149.976 124.473 149.953 124.255 149.923C124.042 149.887 123.817 149.87 123.578 149.87C123.011 149.87 122.504 149.989 122.057 150.227C121.616 150.46 121.266 150.785 121.008 151.201C120.754 151.611 120.628 152.08 120.628 152.608V160H118.833ZM131.191 160.243C130.096 160.243 129.153 159.985 128.362 159.468C127.571 158.95 126.963 158.238 126.537 157.331C126.111 156.423 125.898 155.386 125.898 154.22C125.898 153.034 126.116 151.987 126.552 151.079C126.993 150.166 127.607 149.454 128.393 148.942C129.184 148.425 130.106 148.166 131.161 148.166C131.982 148.166 132.723 148.318 133.382 148.622C134.041 148.927 134.581 149.353 135.002 149.9C135.422 150.448 135.684 151.087 135.785 151.817H133.99C133.853 151.284 133.549 150.813 133.077 150.402C132.611 149.986 131.982 149.778 131.191 149.778C130.492 149.778 129.878 149.961 129.351 150.326C128.829 150.686 128.42 151.196 128.126 151.855C127.837 152.509 127.693 153.277 127.693 154.159C127.693 155.062 127.835 155.848 128.119 156.517C128.408 157.186 128.813 157.706 129.336 158.076C129.863 158.446 130.481 158.631 131.191 158.631C131.658 158.631 132.081 158.55 132.461 158.388C132.842 158.225 133.164 157.992 133.427 157.688C133.691 157.384 133.879 157.019 133.99 156.593H135.785C135.684 157.282 135.433 157.903 135.032 158.456C134.637 159.004 134.112 159.44 133.458 159.764C132.809 160.084 132.053 160.243 131.191 160.243ZM140.204 152.973V160H138.409V144.424H140.204V150.144H140.356C140.629 149.54 141.04 149.061 141.588 148.706C142.14 148.346 142.876 148.166 143.793 148.166C144.589 148.166 145.286 148.326 145.885 148.645C146.483 148.96 146.947 149.444 147.277 150.098C147.611 150.747 147.778 151.573 147.778 152.577V160H145.984V152.699C145.984 151.771 145.743 151.054 145.261 150.547C144.785 150.035 144.123 149.778 143.276 149.778C142.688 149.778 142.161 149.903 141.694 150.151C141.233 150.4 140.868 150.762 140.599 151.239C140.335 151.715 140.204 152.293 140.204 152.973ZM152.37 160.122C151.995 160.122 151.673 159.987 151.404 159.719C151.136 159.45 151.001 159.128 151.001 158.753C151.001 158.378 151.136 158.056 151.404 157.787C151.673 157.518 151.995 157.384 152.37 157.384C152.745 157.384 153.067 157.518 153.336 157.787C153.605 158.056 153.739 158.378 153.739 158.753C153.739 159.001 153.676 159.229 153.549 159.437C153.427 159.645 153.263 159.812 153.055 159.939C152.852 160.061 152.624 160.122 152.37 160.122ZM158.268 160.122C157.893 160.122 157.571 159.987 157.302 159.719C157.033 159.45 156.899 159.128 156.899 158.753C156.899 158.378 157.033 158.056 157.302 157.787C157.571 157.518 157.893 157.384 158.268 157.384C158.643 157.384 158.965 157.518 159.234 157.787C159.503 158.056 159.637 158.378 159.637 158.753C159.637 159.001 159.574 159.229 159.447 159.437C159.325 159.645 159.16 159.812 158.953 159.939C158.75 160.061 158.522 160.122 158.268 160.122ZM164.166 160.122C163.791 160.122 163.469 159.987 163.2 159.719C162.931 159.45 162.797 159.128 162.797 158.753C162.797 158.378 162.931 158.056 163.2 157.787C163.469 157.518 163.791 157.384 164.166 157.384C164.541 157.384 164.863 157.518 165.132 157.787C165.401 158.056 165.535 158.378 165.535 158.753C165.535 159.001 165.472 159.229 165.345 159.437C165.223 159.645 165.058 159.812 164.85 159.939C164.648 160.061 164.419 160.122 164.166 160.122Z" fill="black"/>
<path d="M194.237 154.229C193.02 154.23 191.822 153.931 190.748 153.36C189.675 152.789 188.76 151.963 188.084 150.955C187.407 149.947 186.991 148.789 186.872 147.582C186.752 146.376 186.933 145.159 187.399 144.039C187.865 142.919 188.6 141.931 189.541 141.162C190.482 140.393 191.598 139.867 192.792 139.63C193.985 139.394 195.219 139.454 196.383 139.806C197.547 140.158 198.607 140.791 199.467 141.649C200.501 142.679 201.205 143.992 201.49 145.422C201.776 146.851 201.629 148.333 201.069 149.679C200.51 151.026 199.562 152.177 198.346 152.986C197.13 153.796 195.7 154.229 194.237 154.229ZM194.237 141.685C193.037 141.685 191.874 142.099 190.946 142.857C190.018 143.615 189.383 144.671 189.149 145.843C188.914 147.016 189.095 148.233 189.661 149.287C190.227 150.342 191.142 151.168 192.251 151.625C193.36 152.083 194.594 152.143 195.742 151.795C196.89 151.448 197.882 150.714 198.548 149.72C199.215 148.726 199.514 147.532 199.396 146.342C199.277 145.153 198.749 144.04 197.899 143.196C197.42 142.714 196.849 142.333 196.22 142.074C195.592 141.814 194.917 141.682 194.237 141.685Z" fill="white"/>
<path d="M205.583 159.622C205.434 159.624 205.286 159.595 205.149 159.537C205.011 159.479 204.887 159.394 204.785 159.286L197.899 152.091C197.787 151.991 197.696 151.868 197.634 151.731C197.571 151.594 197.538 151.445 197.535 151.295C197.533 151.144 197.562 150.995 197.62 150.856C197.678 150.717 197.765 150.591 197.874 150.487C197.983 150.383 198.112 150.302 198.254 150.25C198.396 150.198 198.547 150.176 198.698 150.185C198.849 150.193 198.996 150.233 199.131 150.301C199.266 150.369 199.385 150.465 199.481 150.581L206.374 157.776C206.525 157.93 206.626 158.124 206.666 158.335C206.705 158.546 206.681 158.764 206.596 158.962C206.512 159.159 206.37 159.327 206.19 159.445C206.01 159.562 205.799 159.624 205.583 159.622Z" fill="white"/>
<path d="M55.1863 99.1998C56.4687 99.1998 57.5083 98.1641 57.5083 96.8865C57.5083 95.6089 56.4687 94.5732 55.1863 94.5732C53.9039 94.5732 52.8643 95.6089 52.8643 96.8865C52.8643 98.1641 53.9039 99.1998 55.1863 99.1998Z" fill="#B3DBD8"/>
<path d="M63.3171 99.1998C64.5996 99.1998 65.6392 98.1641 65.6392 96.8865C65.6392 95.6089 64.5996 94.5732 63.3171 94.5732C62.0347 94.5732 60.9951 95.6089 60.9951 96.8865C60.9951 98.1641 62.0347 99.1998 63.3171 99.1998Z" fill="#B3DBD8"/>
<path d="M71.448 99.1998C72.7304 99.1998 73.77 98.1641 73.77 96.8865C73.77 95.6089 72.7304 94.5732 71.448 94.5732C70.1656 94.5732 69.126 95.6089 69.126 96.8865C69.126 98.1641 70.1656 99.1998 71.448 99.1998Z" fill="#B3DBD8"/>
<path d="M144.676 112.342C144.676 112.342 150.396 114.429 152.074 114.218C153.751 114.006 159.062 111.649 159.685 112.204C160.307 112.758 160.109 114.291 154.557 116.794C154.557 116.794 169.156 124.514 168.313 125.346C167.471 126.178 161.128 123.332 155.465 121.034C155.465 121.034 152.535 125.974 148.206 125.069C143.877 124.164 141.226 120.34 141.226 120.34" fill="white"/>
<path d="M167.801 125.828C166.394 125.828 163.406 124.66 158.102 122.471L155.627 121.45C154.953 122.471 152.155 126.229 148.17 125.397C143.775 124.478 141.087 120.691 140.977 120.53C140.945 120.495 140.921 120.453 140.906 120.407C140.892 120.362 140.887 120.314 140.892 120.267C140.898 120.219 140.914 120.174 140.938 120.133C140.963 120.092 140.996 120.057 141.035 120.03C141.074 120.003 141.119 119.984 141.166 119.975C141.213 119.967 141.262 119.968 141.308 119.98C141.354 119.991 141.398 120.012 141.435 120.042C141.473 120.071 141.504 120.108 141.526 120.151C141.526 120.187 144.163 123.88 148.302 124.748C152.44 125.616 155.18 120.917 155.209 120.866C155.25 120.797 155.315 120.745 155.392 120.719C155.469 120.694 155.552 120.697 155.627 120.727L158.359 121.851C161.816 123.31 166.929 125.39 167.969 125.179C167.12 124.15 160.593 120.348 154.433 117.086C154.378 117.058 154.332 117.015 154.301 116.962C154.27 116.909 154.254 116.848 154.257 116.787C154.258 116.724 154.277 116.663 154.31 116.611C154.344 116.558 154.391 116.515 154.447 116.487C158.894 114.473 159.531 113.255 159.575 112.839C159.592 112.77 159.589 112.698 159.567 112.631C159.545 112.564 159.504 112.505 159.45 112.459C159.084 112.306 156.916 113.058 155.48 113.554C154.381 113.973 153.252 114.309 152.103 114.561C150.36 114.787 144.778 112.744 144.544 112.664C144.461 112.632 144.393 112.57 144.356 112.489C144.319 112.408 144.315 112.316 144.346 112.233C144.361 112.192 144.384 112.155 144.413 112.123C144.442 112.09 144.478 112.064 144.517 112.046C144.557 112.028 144.6 112.018 144.643 112.016C144.687 112.014 144.73 112.021 144.771 112.036C146.346 112.605 150.719 114.057 152.023 113.897C153.135 113.655 154.227 113.328 155.29 112.919C158.146 111.934 159.458 111.547 159.926 111.963C160.063 112.082 160.166 112.233 160.226 112.403C160.286 112.573 160.302 112.756 160.271 112.934C160.102 114.05 158.447 115.356 155.356 116.823C159.751 119.158 168.541 123.975 168.724 125.193C168.736 125.265 168.731 125.339 168.709 125.409C168.688 125.478 168.65 125.542 168.599 125.595C168.489 125.685 168.361 125.752 168.224 125.792C168.087 125.832 167.943 125.844 167.801 125.828Z" fill="#093F68"/>
<path d="M127.374 67.2373C127.374 67.2373 88.83 85.0283 89.0498 95.8722C89.3281 109.737 138.076 123.639 138.076 123.639L145.628 109.175L114.526 94.3544L137.519 81.8686L127.374 67.2373Z" fill="#B3DBD8"/>
<path d="M185.359 83.8242C183.256 83.1455 180.759 82.715 178.986 84.0358C178.158 84.7468 177.502 85.6348 177.067 86.6337C176.1 88.5402 175.266 90.5102 174.569 92.53C174.386 93.0554 174.269 93.7559 174.723 94.0697C175.177 94.3835 175.983 93.8435 176.342 93.267C176.977 92.2412 177.47 91.134 177.807 89.9759C177.016 91.628 176.458 93.3815 176.151 95.1862C176.085 95.4052 176.085 95.6386 176.151 95.8576C176.264 96.0393 176.442 96.1709 176.649 96.2252C176.857 96.2796 177.077 96.2525 177.265 96.1495C177.632 95.9238 177.929 95.6003 178.122 95.2154C179.028 93.6896 179.765 92.0697 180.319 90.3845C179.681 92.1166 179.33 93.9403 179.279 95.7846C179.264 95.9395 179.283 96.0958 179.333 96.243C179.384 96.3902 179.465 96.525 179.572 96.6384C179.72 96.7329 179.895 96.7775 180.07 96.7657C180.245 96.7539 180.412 96.6862 180.546 96.5727C180.802 96.3327 180.999 96.0383 181.125 95.7116L183.322 91.1143C182.837 92.8256 182.569 94.5907 182.524 96.3684C182.505 96.5152 182.528 96.6644 182.59 96.7989C182.839 97.266 183.564 96.9522 183.879 96.5216C184.351 95.7862 184.682 94.9695 184.853 94.1135C185.454 91.8586 185.974 89.5599 186.663 87.3342C187.322 85.5172 187.52 84.5247 185.359 83.8242Z" fill="white"/>
<path d="M183.073 97.3608H183.007C182.876 97.3565 182.748 97.3169 182.637 97.2463C182.526 97.1757 182.437 97.0766 182.377 96.9595C182.291 96.7698 182.256 96.5611 182.275 96.3538C182.297 95.4916 182.37 94.6314 182.495 93.7778L181.498 95.8576C181.346 96.2272 181.113 96.5587 180.817 96.8281C180.627 96.9909 180.388 97.0864 180.137 97.0996C179.887 97.1128 179.639 97.043 179.433 96.9011C179.289 96.757 179.177 96.5846 179.104 96.3949C179.03 96.2051 178.998 96.0022 179.008 95.7992C178.998 95.275 179.025 94.7507 179.089 94.2303C178.883 94.6243 178.664 95.0111 178.437 95.3906C178.213 95.8313 177.868 96.1986 177.44 96.4487C177.286 96.5249 177.117 96.5693 176.945 96.5793C176.772 96.5893 176.6 96.5648 176.437 96.507C176.313 96.4625 176.199 96.3937 176.102 96.3047C176.005 96.2157 175.927 96.1084 175.873 95.9889C175.771 95.7129 175.756 95.4127 175.829 95.1278C175.887 94.7995 175.953 94.4711 176.019 94.1427C175.811 94.3233 175.558 94.4466 175.287 94.5003C175.151 94.5301 175.011 94.532 174.875 94.5056C174.739 94.4792 174.61 94.4253 174.496 94.347C174.151 94.1062 173.822 93.5808 174.217 92.4278C174.918 90.3918 175.76 88.407 176.737 86.4877C177.188 85.4374 177.878 84.5057 178.752 83.7658C180.275 82.6274 182.465 82.5472 185.432 83.5104C188.003 84.3423 187.556 85.7726 187.036 87.4364C186.575 88.8959 186.186 90.4429 185.813 91.9243C185.622 92.654 185.432 93.4421 185.227 94.1938C185.044 95.0912 184.697 95.9473 184.201 96.7187C184.07 96.8992 183.901 97.0497 183.707 97.1604C183.512 97.2711 183.296 97.3394 183.073 97.3608ZM183.41 90.7932C183.449 90.7862 183.489 90.7862 183.527 90.7932C183.605 90.8256 183.668 90.8846 183.706 90.9596C183.744 91.0346 183.753 91.1206 183.733 91.2019C183.257 92.8851 182.991 94.6204 182.941 96.3684C182.925 96.4577 182.925 96.5491 182.941 96.6384C182.941 96.6384 182.978 96.6822 183.029 96.6895C183.281 96.65 183.509 96.517 183.667 96.3173C184.113 95.6137 184.425 94.8346 184.59 94.0186C184.795 93.2889 184.985 92.5081 185.176 91.7565C185.549 90.2605 185.908 88.7207 186.406 87.2321C186.978 85.4004 187.08 84.7364 185.227 84.1307C182.48 83.2404 180.502 83.2988 179.162 84.2912C178.373 84.9729 177.749 85.8236 177.338 86.7796C176.382 88.669 175.552 90.6192 174.855 92.6175C174.759 92.8948 174.576 93.5589 174.855 93.7778C174.895 93.8059 174.94 93.8251 174.988 93.8339C175.036 93.8427 175.086 93.841 175.133 93.8289C175.497 93.6929 175.803 93.4349 175.997 93.0992C176.173 92.8146 176.342 92.5227 176.495 92.2235C176.764 91.4087 177.085 90.6117 177.455 89.8372C177.493 89.7623 177.557 89.7039 177.635 89.673C177.714 89.642 177.801 89.6408 177.88 89.6694C177.958 89.7005 178.022 89.7598 178.059 89.8354C178.095 89.9111 178.102 89.9976 178.078 90.0781C177.835 90.9092 177.514 91.7155 177.118 92.4862C176.818 93.3893 176.588 94.3139 176.43 95.2519C176.385 95.4069 176.385 95.5712 176.43 95.7262C176.447 95.7643 176.472 95.7982 176.504 95.8259C176.536 95.8535 176.573 95.8743 176.613 95.8868C176.763 95.9484 176.931 95.9484 177.081 95.8868C177.397 95.6943 177.652 95.4158 177.814 95.0841C178.718 93.5801 179.455 91.9822 180.011 90.3189C180.025 90.2775 180.046 90.2392 180.074 90.2062C180.103 90.1731 180.137 90.146 180.176 90.1263C180.215 90.1066 180.257 90.0948 180.301 90.0915C180.344 90.0883 180.388 90.0936 180.429 90.1072C180.513 90.1341 180.583 90.1927 180.624 90.2705C180.665 90.3483 180.674 90.439 180.649 90.5232C180.015 92.218 179.669 94.0058 179.623 95.8138C179.599 96.0298 179.66 96.2466 179.792 96.4195C179.88 96.4649 179.98 96.4823 180.078 96.4692C180.176 96.4562 180.268 96.4133 180.341 96.3465C180.555 96.141 180.722 95.8922 180.832 95.6168L183.029 91.0121C183.052 90.9326 183.103 90.8644 183.174 90.8212C183.245 90.7779 183.329 90.7627 183.41 90.7786V90.7932Z" fill="#093F68"/>
<path d="M150.287 54.6055C150.287 54.6055 144.624 61.7058 140.493 53.8757Z" fill="white"/>
<path d="M145.174 57.8675H144.778C142.998 57.6996 141.46 56.408 140.2 54.0071C140.163 53.9302 140.157 53.8421 140.183 53.7608C140.209 53.6795 140.265 53.611 140.339 53.5693C140.377 53.5492 140.419 53.5368 140.461 53.5328C140.504 53.5289 140.547 53.5336 140.588 53.5465C140.629 53.5594 140.667 53.5803 140.7 53.6081C140.733 53.6358 140.759 53.6698 140.779 53.708C141.929 55.8972 143.291 57.0794 144.837 57.2253C147.554 57.4807 150.008 54.445 150.038 54.4158C150.064 54.3827 150.097 54.3552 150.134 54.3347C150.171 54.3143 150.212 54.3013 150.254 54.2966C150.296 54.2918 150.339 54.2954 150.38 54.3071C150.42 54.3188 150.458 54.3384 150.492 54.3647C150.525 54.3911 150.553 54.4237 150.573 54.4607C150.594 54.4977 150.607 54.5384 150.611 54.5804C150.616 54.6224 150.613 54.6649 150.601 54.7055C150.589 54.7462 150.569 54.7841 150.543 54.8172C150.44 54.9339 148.067 57.8675 145.174 57.8675Z" fill="#093F68"/>
<path d="M195.401 80.7593C195.356 80.7606 195.311 80.7522 195.269 80.7345C195.228 80.7169 195.19 80.6905 195.16 80.6572C195.097 80.5942 195.061 80.5089 195.061 80.42C195.061 80.3311 195.097 80.2458 195.16 80.1828C199.115 76.4028 200.023 68.4049 195.064 62.5159C189.937 56.459 181.799 55.2842 177.382 55.1236C176.422 55.1236 175.441 55.0798 174.452 55.0725C170.057 55.0725 165.567 55.0287 162.095 52.4236C160.08 50.9203 158.696 47.8627 157.231 44.63C155.334 40.4559 153.378 36.1358 150.045 35.6323C149.467 35.6052 148.89 35.7023 148.353 35.9169C147.792 36.2025 147.158 36.3174 146.532 36.2473C145.905 36.1772 145.313 35.9253 144.83 35.5228L144.588 35.3696C141.709 33.5671 137.79 33.5963 134.084 35.4499C129.227 37.8872 127.059 43.4259 126.649 47.797C126.173 52.9052 127.433 57.955 128.656 62.8515C128.678 62.9377 128.665 63.0291 128.62 63.1057C128.575 63.1823 128.501 63.2379 128.414 63.2602C128.327 63.2802 128.235 63.2654 128.159 63.2191C128.082 63.1727 128.027 63.0985 128.004 63.0121C126.766 58.0645 125.492 52.949 125.975 47.7314C126.517 41.8934 129.513 36.9896 133.784 34.8515C137.695 32.8885 141.841 32.8666 144.947 34.8004L145.203 34.9609C145.6 35.3061 146.095 35.5214 146.619 35.5775C147.143 35.6336 147.671 35.5279 148.133 35.2747C148.768 35.0228 149.452 34.918 150.133 34.9682C153.795 35.5228 155.861 40.0107 157.831 44.3527C159.26 47.5051 160.608 50.4825 162.483 51.8909C165.779 54.3574 170.181 54.3793 174.437 54.4012C175.433 54.4012 176.422 54.4012 177.367 54.4522C181.887 54.6128 190.267 55.8242 195.541 62.0853C200.815 68.3465 199.76 76.6801 195.585 80.6645C195.536 80.7152 195.471 80.7486 195.401 80.7593Z" fill="#093F68"/>
<path d="M110.497 96.4269C110.421 96.4271 110.348 96.4019 110.288 96.3553C110.228 96.3086 110.186 96.2434 110.169 96.17C110.151 96.0966 110.158 96.0193 110.19 95.9507C110.222 95.8822 110.276 95.8262 110.343 95.792L135.6 82.7735C135.68 82.7346 135.772 82.7281 135.857 82.7553C135.941 82.7825 136.012 82.8413 136.054 82.9194C136.075 82.9585 136.089 83.0014 136.093 83.0457C136.097 83.09 136.092 83.1346 136.078 83.1769C136.064 83.2192 136.042 83.2583 136.013 83.2918C135.984 83.3253 135.948 83.3525 135.908 83.3718L110.651 96.3904C110.603 96.4127 110.55 96.4251 110.497 96.4269Z" fill="#093F68"/>
<path d="M106.74 34.7493H74.9419V60.0931H106.74V34.7493Z" fill="white"/>
<path d="M106.74 60.4288H74.9419C74.8532 60.4269 74.7685 60.3909 74.7057 60.3284C74.643 60.2658 74.6069 60.1815 74.605 60.0931V34.7493C74.605 34.6602 74.6405 34.5748 74.7037 34.5119C74.7669 34.4489 74.8526 34.4136 74.9419 34.4136H106.74C106.829 34.4136 106.915 34.4489 106.978 34.5119C107.041 34.5748 107.077 34.6602 107.077 34.7493V60.0931C107.075 60.1815 107.039 60.2658 106.976 60.3284C106.913 60.3909 106.829 60.4269 106.74 60.4288ZM75.2789 59.7574H106.403V35.0849H75.2789V59.7574Z" fill="#B3DBD8"/>
<path d="M74.8098 54.5399C74.7436 54.5398 74.6789 54.5204 74.6238 54.4839C74.5687 54.4475 74.5255 54.3957 74.4998 54.335C74.474 54.2743 74.4667 54.2074 74.4789 54.1426C74.491 54.0778 74.522 54.018 74.568 53.9707L84.9695 43.5938C85.2782 43.2863 85.6474 43.0458 86.0539 42.8874C86.4604 42.7289 86.8954 42.656 87.3316 42.6731C87.7678 42.6902 88.1957 42.7971 88.5884 42.9869C88.9811 43.1768 89.3302 43.4455 89.6136 43.7763L97.9348 53.4672C97.9961 53.531 98.0304 53.616 98.0304 53.7043C98.0304 53.7927 97.9961 53.8777 97.9348 53.9415C97.9016 53.9713 97.8627 53.994 97.8204 54.0084C97.7782 54.0227 97.7334 54.0284 97.6889 54.025C97.6443 54.0215 97.601 54.0092 97.5614 53.9885C97.5218 53.9679 97.4869 53.9395 97.4587 53.905L89.1228 44.2287C88.9023 43.9658 88.6283 43.7524 88.319 43.6027C88.0096 43.453 87.6719 43.3704 87.3282 43.3603C86.9841 43.3459 86.6408 43.4034 86.3204 43.5291C86 43.6548 85.7095 43.8458 85.4676 44.09L75.0442 54.4669C74.9788 54.5211 74.8945 54.5473 74.8098 54.5399Z" fill="#B3DBD8"/>
<path d="M106.747 52.139C106.7 52.1395 106.654 52.13 106.611 52.1111C106.568 52.0922 106.529 52.0644 106.498 52.0296L102.103 47.2644C101.871 47.0125 101.589 46.8117 101.275 46.6747C100.961 46.5378 100.622 46.4677 100.279 46.469C99.9344 46.4676 99.5933 46.5383 99.2778 46.6766C98.9624 46.8149 98.6796 47.0176 98.4477 47.2717L95.2248 50.7452C95.1949 50.7778 95.159 50.8042 95.1189 50.823C95.0788 50.8417 95.0355 50.8524 94.9912 50.8544C94.947 50.8565 94.9028 50.8498 94.8612 50.8348C94.8196 50.8198 94.7813 50.7968 94.7486 50.7671C94.7159 50.7374 94.6894 50.7016 94.6706 50.6617C94.6518 50.6218 94.6411 50.5785 94.639 50.5345C94.637 50.4905 94.6437 50.4464 94.6587 50.405C94.6737 50.3635 94.6968 50.3254 94.7267 50.2928L97.9277 46.8192C98.2244 46.4983 98.5844 46.2419 98.9853 46.0661C99.3861 45.8903 99.8191 45.7989 100.257 45.7976C100.688 45.8025 101.114 45.895 101.508 46.0694C101.903 46.2438 102.257 46.4964 102.55 46.8119L106.945 51.5698C106.991 51.6172 107.022 51.677 107.034 51.7418C107.046 51.8065 107.039 51.8735 107.013 51.9342C106.987 51.9948 106.944 52.0466 106.889 52.0831C106.834 52.1195 106.769 52.139 106.703 52.139H106.747Z" fill="#B3DBD8"/>
<path d="M95.6496 41.8204C96.6205 41.8204 97.4076 41.0363 97.4076 40.069C97.4076 39.1017 96.6205 38.3176 95.6496 38.3176C94.6787 38.3176 93.8916 39.1017 93.8916 40.069C93.8916 41.0363 94.6787 41.8204 95.6496 41.8204Z" fill="white"/>
<path d="M95.6496 42.1342C95.2335 42.1357 94.8264 42.0141 94.4797 41.7848C94.133 41.5556 93.8624 41.229 93.7022 40.8464C93.5419 40.4639 93.4993 40.0425 93.5795 39.6358C93.6598 39.2291 93.8595 38.8552 94.1532 38.5616C94.4469 38.2679 94.8215 38.0677 95.2295 37.9863C95.6375 37.9049 96.0606 37.946 96.4451 38.1043C96.8297 38.2626 97.1585 38.531 97.3898 38.8756C97.6211 39.2202 97.7446 39.6254 97.7446 40.0399C97.7446 40.5941 97.5241 41.1257 97.1314 41.5182C96.7388 41.9108 96.2059 42.1323 95.6496 42.1342ZM95.6496 38.6242C95.3665 38.6228 95.0893 38.7052 94.8533 38.861C94.6173 39.0168 94.4331 39.2389 94.3241 39.4993C94.2151 39.7596 94.1862 40.0463 94.2411 40.323C94.2959 40.5997 94.4321 40.8539 94.6323 41.0534C94.8325 41.2528 95.0877 41.3885 95.3655 41.4432C95.6432 41.4978 95.931 41.4691 96.1923 41.3604C96.4536 41.2518 96.6766 41.0683 96.833 40.8332C96.9894 40.5981 97.0721 40.322 97.0707 40.0399C97.063 39.6695 96.9099 39.3169 96.6443 39.0577C96.3786 38.7985 96.0215 38.6533 95.6496 38.6534V38.6242Z" fill="#B3DBD8"/>
<path d="M250.28 74.1188L235.396 81.8394C235.174 81.9509 234.927 82.0042 234.679 81.9945C234.43 81.9848 234.189 81.9123 233.976 81.7838C233.764 81.6554 233.588 81.4752 233.464 81.2603C233.341 81.0453 233.275 80.8027 233.271 80.5551V65.1065C233.275 64.859 233.341 64.6163 233.464 64.4014C233.588 64.1864 233.764 64.0063 233.976 63.8778C234.189 63.7494 234.43 63.6769 234.679 63.6671C234.927 63.6574 235.174 63.7108 235.396 63.8222L250.28 71.5428C250.515 71.6673 250.711 71.8529 250.847 72.0797C250.984 72.3066 251.056 72.5662 251.056 72.8308C251.056 73.0954 250.984 73.355 250.847 73.5819C250.711 73.8088 250.515 73.9944 250.28 74.1188Z" fill="white"/>
<path d="M234.722 82.343C234.247 82.341 233.793 82.1518 233.458 81.8167C233.123 81.4817 232.935 81.028 232.935 80.5551V65.1065C232.934 64.7999 233.012 64.4982 233.163 64.2307C233.313 63.9631 233.53 63.7389 233.794 63.5796C234.057 63.4203 234.356 63.3314 234.664 63.3215C234.972 63.3116 235.277 63.381 235.55 63.523L250.434 71.2509C250.726 71.4006 250.971 71.6276 251.142 71.9069C251.314 72.1863 251.404 72.5072 251.404 72.8345C251.404 73.1618 251.314 73.4827 251.142 73.7621C250.971 74.0414 250.726 74.2684 250.434 74.418L235.55 82.1386C235.293 82.2702 235.01 82.3402 234.722 82.343ZM234.722 63.9973C234.427 63.9973 234.143 64.1142 233.935 64.3222C233.726 64.5302 233.608 64.8124 233.608 65.1065V80.5551C233.608 80.7467 233.657 80.9351 233.751 81.1022C233.845 81.2692 233.981 81.4092 234.145 81.5084C234.31 81.6076 234.497 81.6626 234.689 81.6682C234.882 81.6738 235.072 81.6297 235.242 81.5403L250.119 73.8196C250.3 73.725 250.452 73.5829 250.558 73.4086C250.663 73.2343 250.719 73.0345 250.719 72.8308C250.719 72.6271 250.663 72.4273 250.558 72.2531C250.452 72.0788 250.3 71.9366 250.119 71.842L235.242 64.1214C235.079 64.0484 234.9 64.0158 234.722 64.0265V63.9973Z" fill="#B3DBD8"/>
</svg>
