<svg width="406" height="306" viewBox="0 0 406 306" fill="none" xmlns="http://www.w3.org/2000/svg">
<path d="M274.75 133.299H126.936C121.745 133.299 117.537 137.507 117.537 142.698V221.472C117.537 226.663 121.745 230.871 126.936 230.871H274.75C279.941 230.871 284.149 226.663 284.149 221.472V142.698C284.149 137.507 279.941 133.299 274.75 133.299Z" fill="white"/>
<path d="M274.74 231.378H126.936C124.309 231.376 121.791 230.331 119.934 228.474C118.077 226.617 117.032 224.098 117.03 221.472V142.708C117.032 140.08 118.076 137.561 119.933 135.702C121.79 133.844 124.308 132.797 126.936 132.791H274.74C277.368 132.797 279.886 133.844 281.743 135.702C283.6 137.561 284.644 140.08 284.647 142.708V221.472C284.644 224.098 283.599 226.617 281.742 228.474C279.885 230.331 277.367 231.376 274.74 231.378ZM126.936 133.806C124.577 133.809 122.315 134.748 120.648 136.417C118.981 138.086 118.045 140.349 118.045 142.708V221.472C118.047 223.829 118.985 226.089 120.652 227.756C122.319 229.423 124.579 230.361 126.936 230.363H274.74C277.098 230.361 279.358 229.423 281.024 227.756C282.691 226.089 283.629 223.829 283.632 221.472V142.708C283.632 140.349 282.695 138.086 281.028 136.417C279.361 134.748 277.099 133.809 274.74 133.806H126.936Z" fill="#093F68"/>
<path d="M226.802 196.036H174.885C173.079 196.036 171.616 197.499 171.616 199.304V220.701C171.616 222.506 173.079 223.969 174.885 223.969H226.802C228.607 223.969 230.07 222.506 230.07 220.701V199.304C230.07 197.499 228.607 196.036 226.802 196.036Z" fill="white"/>
<path d="M226.802 224.476H174.874C173.875 224.474 172.917 224.075 172.211 223.367C171.505 222.659 171.109 221.7 171.109 220.701V199.294C171.109 198.296 171.505 197.338 172.212 196.632C172.918 195.925 173.876 195.529 174.874 195.529H226.802C227.8 195.529 228.758 195.925 229.464 196.632C230.171 197.338 230.567 198.296 230.567 199.294V220.701C230.567 221.7 230.171 222.659 229.465 223.367C228.759 224.075 227.801 224.474 226.802 224.476ZM174.874 196.544C174.145 196.544 173.445 196.833 172.929 197.349C172.413 197.865 172.124 198.565 172.124 199.294V220.701C172.122 221.063 172.193 221.421 172.33 221.756C172.468 222.091 172.67 222.396 172.926 222.652C173.181 222.909 173.485 223.112 173.819 223.251C174.154 223.39 174.512 223.461 174.874 223.461H226.802C227.164 223.461 227.522 223.39 227.857 223.251C228.191 223.112 228.495 222.909 228.75 222.652C229.006 222.396 229.208 222.091 229.346 221.756C229.484 221.421 229.554 221.063 229.552 220.701V199.294C229.552 198.565 229.263 197.865 228.747 197.349C228.231 196.833 227.531 196.544 226.802 196.544H174.874Z" fill="#093F68"/>
<path d="M269.259 140.201H132.417C129.536 140.201 127.2 142.537 127.2 145.418V183.156C127.2 186.037 129.536 188.373 132.417 188.373H269.259C272.141 188.373 274.476 186.037 274.476 183.156V145.418C274.476 142.537 272.141 140.201 269.259 140.201Z" fill="white"/>
<path d="M269.259 188.88H132.417C130.899 188.878 129.445 188.274 128.372 187.201C127.299 186.128 126.695 184.673 126.692 183.156V145.428C126.692 143.909 127.295 142.452 128.368 141.377C129.442 140.301 130.898 139.696 132.417 139.693H269.259C270.778 139.696 272.234 140.301 273.308 141.377C274.381 142.452 274.984 143.909 274.984 145.428V183.156C274.981 184.673 274.377 186.128 273.304 187.201C272.231 188.274 270.777 188.878 269.259 188.88ZM132.417 140.708C131.167 140.711 129.969 141.209 129.086 142.094C128.203 142.979 127.707 144.178 127.707 145.428V183.156C127.707 184.405 128.203 185.603 129.087 186.486C129.97 187.369 131.168 187.865 132.417 187.865H269.259C270.508 187.865 271.706 187.369 272.589 186.486C273.473 185.603 273.969 184.405 273.969 183.156V145.428C273.969 144.178 273.473 142.979 272.59 142.094C271.707 141.209 270.509 140.711 269.259 140.708H132.417Z" fill="#093F68"/>
<path d="M129.615 238.26H164.308C165.245 235.982 166.369 233.785 167.668 231.693C173.189 223.867 180.792 219.036 184.923 207.993C189.054 196.949 190.444 188.2 187.217 186.586C183.989 184.972 180.112 197.863 175.94 201.091C175.94 201.091 172.804 185.592 175.331 178.69C177.858 171.788 183.025 166.611 182.335 162.45C181.644 158.288 179.726 159.405 176.64 162.023C175.027 163.404 172.337 167.849 172.337 167.849C172.595 165.589 173.354 163.415 174.56 161.485C177.706 156.806 170.266 154.736 164.745 163.018C164.745 163.018 166.896 154.502 162.715 157.03C158.533 159.557 154.27 169.311 154.27 169.311C154.27 169.311 156.574 156.421 151.286 159.872C145.998 163.323 143.998 179.898 144.688 187.277C145.378 194.656 146.921 211.748 142.232 217.889C140.74 219.899 135.695 228.11 129.615 238.26Z" fill="white"/>
<path d="M164.308 238.768H129.615C129.526 238.767 129.437 238.743 129.359 238.699C129.281 238.654 129.216 238.591 129.169 238.514C129.121 238.436 129.096 238.346 129.096 238.255C129.096 238.164 129.121 238.074 129.169 237.996C136.274 226.253 140.496 219.381 141.867 217.574C146.495 211.484 144.851 193.945 144.232 187.327C143.501 179.552 145.531 163.069 151.042 159.466C152.189 158.725 153.153 158.593 153.904 159.1C155.417 160.115 155.447 163.627 155.214 166.297C156.838 163.17 159.659 158.349 162.491 156.624C163.506 155.994 164.339 155.903 164.948 156.36C165.963 157.111 165.902 159.252 165.668 160.968C168.338 157.831 171.149 156.786 173.078 156.908C173.586 156.905 174.085 157.037 174.524 157.293C174.964 157.548 175.326 157.916 175.575 158.359C175.79 158.932 175.85 159.551 175.746 160.155C175.643 160.758 175.38 161.322 174.986 161.79C174.278 162.874 173.738 164.057 173.382 165.302C174.216 163.981 175.197 162.758 176.306 161.658C178.437 159.831 179.909 158.857 181.117 159.303C181.99 159.618 182.527 160.592 182.832 162.348C183.268 164.977 181.573 167.88 179.614 171.25C178.126 173.657 176.853 176.191 175.808 178.822C173.697 184.577 175.666 196.696 176.275 200.066C178.019 197.943 179.507 195.623 180.711 193.153C183.106 188.758 185.187 184.962 187.45 186.048C192.17 188.413 187.582 202.288 185.42 208.084C182.67 215.412 178.407 220.061 174.255 224.547C172.042 226.868 169.978 229.326 168.074 231.906C166.792 233.97 165.682 236.136 164.755 238.382C164.73 238.485 164.673 238.577 164.593 238.646C164.513 238.715 164.414 238.758 164.308 238.768ZM130.509 237.753H164.004C164.921 235.548 166.017 233.423 167.282 231.399C169.214 228.783 171.313 226.294 173.565 223.949C177.625 219.523 181.817 214.956 184.497 207.81C188.79 196.361 189.764 188.403 187.044 187.043C185.654 186.333 183.522 190.24 181.644 193.681C179.949 196.797 178.183 200.025 176.306 201.487C176.238 201.542 176.158 201.577 176.072 201.59C175.986 201.602 175.898 201.591 175.818 201.558C175.737 201.53 175.665 201.482 175.608 201.418C175.551 201.354 175.512 201.276 175.493 201.192C175.372 200.553 172.357 185.47 174.905 178.517C175.968 175.829 177.269 173.24 178.792 170.783C180.65 167.586 182.253 164.825 181.837 162.551C181.614 161.222 181.249 160.42 180.822 160.247C180.041 159.973 178.528 161.13 177.016 162.429C175.504 163.729 172.855 168.093 172.824 168.134C172.765 168.232 172.675 168.307 172.569 168.348C172.462 168.388 172.344 168.391 172.235 168.357C172.127 168.32 172.033 168.248 171.969 168.153C171.905 168.057 171.874 167.944 171.88 167.829C172.144 165.48 172.935 163.222 174.194 161.222C174.482 160.898 174.681 160.506 174.774 160.083C174.866 159.66 174.848 159.22 174.722 158.806C174.548 158.527 174.303 158.298 174.013 158.143C173.723 157.988 173.397 157.912 173.068 157.923C171.19 157.781 167.993 159.141 165.222 163.323C165.155 163.422 165.056 163.494 164.941 163.527C164.826 163.56 164.704 163.551 164.595 163.503C164.485 163.455 164.397 163.369 164.345 163.262C164.292 163.155 164.279 163.032 164.308 162.917C164.806 160.887 165.171 157.75 164.389 157.172C164.075 156.938 163.425 157.273 163.07 157.486C159.101 159.912 154.869 169.443 154.828 169.534C154.779 169.648 154.69 169.739 154.577 169.792C154.465 169.844 154.338 169.854 154.219 169.819C154.101 169.779 154.001 169.7 153.936 169.594C153.871 169.488 153.846 169.363 153.864 169.24C154.422 166.134 154.777 160.866 153.387 159.943C153.011 159.689 152.372 159.811 151.651 160.318C146.728 163.526 144.546 179.695 145.287 187.236C145.977 194.585 147.591 211.819 142.729 218.193C141.369 219.929 137.269 226.506 130.509 237.753Z" fill="#093F68"/>
<path d="M226.457 177.482C224.315 175.949 221.859 181.166 223.412 188.84C224.965 196.513 234.15 212.773 241.205 219.523C243.062 221.289 245.853 227.217 248.979 234.992H282.688C274.385 219.3 267.29 205.953 266.681 205.1C265.138 202.948 263.524 189.327 263.951 181.319C264.299 173.993 263.76 166.652 262.347 159.455C261.261 154.695 259.546 153.132 257.16 153.132C254.775 153.132 255.963 162.582 255.963 162.582C254.887 156.948 251.202 150.452 247.954 149.803C244.706 149.153 248.675 161.12 248.675 161.12C247.376 157.659 240.291 146.585 237.145 148.341C236.13 148.91 233.562 149.661 237.672 157.243C241.783 164.825 241.732 168.946 241.732 168.946C233.176 154.33 226.507 154.827 224.396 157.892C222.285 160.958 227.766 162.805 232.07 169.311C236.373 175.817 233.907 192.26 233.907 192.26C229.217 189.144 228.608 179.015 226.457 177.482ZM256.186 163.627C256.186 163.465 256.125 163.292 256.084 163.099L256.186 163.627Z" fill="white"/>
<path d="M282.667 235.499H248.959C248.858 235.498 248.759 235.466 248.676 235.408C248.593 235.351 248.529 235.269 248.492 235.174C245.041 226.588 242.463 221.442 240.839 219.889C233.907 213.261 224.518 197.061 222.894 188.931C221.656 182.75 222.894 178.182 224.711 177.015C225.012 176.809 225.37 176.703 225.734 176.712C226.098 176.722 226.451 176.845 226.741 177.066C227.756 177.786 228.355 179.806 229.136 182.364C230.09 185.48 231.258 189.296 233.42 191.266C233.846 187.804 235.125 175.026 231.542 169.545C230.059 167.382 228.328 165.399 226.386 163.637C224.041 161.374 222.326 159.74 223.879 157.547C224.343 156.889 224.971 156.362 225.701 156.018C226.43 155.675 227.236 155.527 228.04 155.588C230.324 155.68 234.901 157.273 240.788 166.53C240.007 163.333 238.788 160.259 237.165 157.395C235.216 153.812 234.516 151.305 234.993 149.701C235.127 149.3 235.346 148.931 235.635 148.621C235.924 148.311 236.276 148.067 236.668 147.905L236.84 147.803C237.152 147.64 237.496 147.55 237.848 147.539C238.2 147.529 238.549 147.598 238.87 147.742C241.387 148.666 244.656 152.97 246.858 156.553C246.219 153.802 245.782 150.726 246.716 149.671C246.882 149.488 247.094 149.354 247.33 149.282C247.566 149.211 247.817 149.205 248.056 149.265C250.735 149.803 253.486 153.711 255.161 158.014C255.161 155.984 255.354 153.954 256.115 153.071C256.24 152.922 256.395 152.802 256.57 152.718C256.745 152.634 256.936 152.588 257.13 152.584C260.002 152.584 261.748 154.614 262.804 159.303C264.231 166.546 264.776 173.935 264.428 181.308C263.991 189.428 265.686 202.837 267.057 204.765C267.605 205.526 272.852 215.321 283.104 234.708C283.146 234.783 283.169 234.869 283.169 234.956C283.169 235.043 283.146 235.129 283.104 235.205C283.063 235.288 283.001 235.359 282.925 235.41C282.848 235.462 282.759 235.493 282.667 235.499ZM249.304 234.484H281.784C269.554 211.352 266.559 205.882 266.204 205.394C264.56 203.09 262.946 189.347 263.382 181.288C263.728 174.01 263.193 166.717 261.789 159.567C260.601 154.34 258.744 153.64 257.099 153.64C257.043 153.64 256.988 153.654 256.939 153.68C256.889 153.707 256.847 153.745 256.815 153.792C255.861 154.868 256.054 159.709 256.409 162.511V162.582C256.429 162.651 256.429 162.725 256.409 162.795C256.452 162.851 256.48 162.918 256.49 162.988L256.592 163.515C256.602 163.569 256.602 163.624 256.592 163.678C256.623 163.728 256.643 163.783 256.653 163.84L256.765 164.378C256.737 164.461 256.737 164.55 256.765 164.632H256.693L256.765 164.723C256.77 164.75 256.77 164.778 256.765 164.805C256.754 164.911 256.71 165.012 256.639 165.092C256.568 165.172 256.473 165.228 256.369 165.251C256.27 165.27 256.167 165.26 256.074 165.222C255.98 165.184 255.899 165.12 255.841 165.038C255.836 165.008 255.836 164.977 255.841 164.947C255.835 164.92 255.835 164.892 255.841 164.865V164.774C255.836 164.73 255.836 164.686 255.841 164.642C255.818 164.601 255.801 164.556 255.79 164.51L255.78 164.165V164.084C255.775 164.043 255.775 164.003 255.78 163.962C255.739 163.905 255.711 163.839 255.699 163.769L255.597 163.241C255.587 163.178 255.587 163.112 255.597 163.049C255.561 162.993 255.537 162.931 255.526 162.866C255.52 162.85 255.52 162.831 255.526 162.815C254.41 157.03 250.715 151.011 247.914 150.452C247.66 150.402 247.579 150.452 247.538 150.544C246.615 151.559 247.954 157.314 249.193 161.059C249.224 161.182 249.208 161.313 249.149 161.425C249.089 161.536 248.989 161.622 248.869 161.664C248.749 161.706 248.618 161.702 248.501 161.652C248.385 161.602 248.291 161.51 248.239 161.394C247.102 158.349 241.844 150.087 238.576 148.889C238.399 148.803 238.204 148.758 238.007 148.758C237.81 148.758 237.616 148.803 237.439 148.889L237.236 148.991C236.965 149.093 236.721 149.253 236.519 149.46C236.317 149.667 236.163 149.915 236.069 150.189C235.673 151.488 236.373 153.812 238.16 157.101C242.291 164.713 242.22 168.885 242.22 169.057C242.215 169.168 242.174 169.273 242.105 169.359C242.036 169.445 241.941 169.506 241.834 169.534C241.728 169.562 241.616 169.555 241.515 169.512C241.414 169.47 241.33 169.396 241.276 169.301C235.013 158.603 230.314 156.857 228.081 156.766C227.447 156.708 226.81 156.819 226.232 157.086C225.655 157.354 225.158 157.768 224.792 158.288C223.777 159.699 224.792 160.775 227.177 163.059C229.171 164.876 230.945 166.92 232.465 169.149C236.82 175.746 234.495 191.773 234.384 192.494C234.373 192.578 234.34 192.658 234.288 192.726C234.236 192.793 234.168 192.846 234.089 192.879C234.014 192.919 233.931 192.94 233.846 192.94C233.761 192.94 233.677 192.919 233.602 192.879C230.709 190.951 229.349 186.485 228.253 182.902C227.583 180.72 226.954 178.659 226.223 178.142C226.095 178.039 225.936 177.982 225.772 177.982C225.607 177.982 225.448 178.039 225.32 178.142C224.061 178.964 222.742 182.983 223.95 189.012C225.513 196.828 234.912 213.037 241.6 219.462C243.275 220.812 245.813 225.826 249.304 234.484Z" fill="#093F68"/>
<path d="M171.616 234.992C170.794 234.992 133.625 222.365 133.625 222.365C133.625 222.365 116.725 252.886 111.579 262.427L160.482 270.273L171.616 234.992Z" fill="#FBE6EA"/>
<path d="M278.374 220.183L239.246 227.481L249.873 265.371L299.537 261.605L278.374 220.183Z" fill="#FBE6EA"/>
<path d="M274.75 35.7269H126.936C121.745 35.7269 117.537 39.935 117.537 45.1258V123.9C117.537 129.091 121.745 133.299 126.936 133.299H274.75C279.941 133.299 284.149 129.091 284.149 123.9V45.1258C284.149 39.935 279.941 35.7269 274.75 35.7269Z" fill="white"/>
<path d="M274.74 133.806H126.936C124.309 133.804 121.791 132.759 119.934 130.902C118.077 129.045 117.032 126.526 117.03 123.9V45.1258C117.043 42.5063 118.092 39.9986 119.948 38.1501C121.804 36.3016 124.316 35.2627 126.936 35.26H274.74C277.367 35.2627 279.885 36.3073 281.742 38.1645C283.599 40.0217 284.644 42.5399 284.647 45.1664V123.941C284.633 126.56 283.584 129.068 281.728 130.916C279.872 132.765 277.36 133.804 274.74 133.806ZM126.936 36.275C124.579 36.2777 122.319 37.2153 120.652 38.8822C118.985 40.5491 118.047 42.8091 118.045 45.1664V123.941C118.047 126.298 118.985 128.558 120.652 130.225C122.319 131.892 124.579 132.829 126.936 132.832H274.74C277.098 132.829 279.358 131.892 281.024 130.225C282.691 128.558 283.629 126.298 283.632 123.941V45.1258C283.618 42.7755 282.676 40.5259 281.01 38.8678C279.344 37.2097 277.091 36.2777 274.74 36.275H126.936Z" fill="#093F68"/>
<path d="M277.237 44.0093H125.819V125.473H277.237V44.0093Z" fill="#FBE6EA"/>
<path d="M277.237 125.981H125.86C125.725 125.981 125.596 125.927 125.501 125.832C125.406 125.737 125.353 125.608 125.353 125.473V44.0093C125.353 43.8747 125.406 43.7456 125.501 43.6505C125.596 43.5553 125.725 43.5018 125.86 43.5018H277.237C277.372 43.5018 277.501 43.5553 277.596 43.6505C277.691 43.7456 277.745 43.8747 277.745 44.0093V125.473C277.745 125.608 277.691 125.737 277.596 125.832C277.501 125.927 277.372 125.981 277.237 125.981ZM126.327 124.966H276.73V44.5168H126.327V124.966Z" fill="#093F68"/>
<path d="M277.237 54.342H125.86C125.725 54.342 125.596 54.2886 125.501 54.1934C125.406 54.0982 125.353 53.9691 125.353 53.8345C125.353 53.6999 125.406 53.5708 125.501 53.4757C125.596 53.3805 125.725 53.327 125.86 53.327H277.237C277.372 53.327 277.501 53.3805 277.596 53.4757C277.691 53.5708 277.745 53.6999 277.745 53.8345C277.745 53.9691 277.691 54.0982 277.596 54.1934C277.501 54.2886 277.372 54.342 277.237 54.342Z" fill="#093F68"/>
<path d="M131.595 50.4342C132.52 50.4342 133.269 49.6844 133.269 48.7595C133.269 47.8345 132.52 47.0847 131.595 47.0847C130.67 47.0847 129.92 47.8345 129.92 48.7595C129.92 49.6844 130.67 50.4342 131.595 50.4342Z" fill="#093F68"/>
<path d="M131.595 50.9418C131.163 50.9418 130.741 50.8138 130.382 50.574C130.023 50.3342 129.744 49.9934 129.579 49.5946C129.413 49.1959 129.37 48.7571 129.454 48.3338C129.539 47.9105 129.746 47.5216 130.052 47.2164C130.357 46.9112 130.746 46.7034 131.169 46.6192C131.592 46.535 132.031 46.5782 132.43 46.7434C132.829 46.9086 133.169 47.1883 133.409 47.5471C133.649 47.906 133.777 48.3279 133.777 48.7595C133.778 49.0465 133.723 49.3308 133.614 49.5962C133.504 49.8616 133.344 50.1027 133.141 50.3056C132.938 50.5085 132.697 50.6692 132.431 50.7784C132.166 50.8876 131.882 50.9431 131.595 50.9418ZM131.595 47.6024C131.363 47.6024 131.137 47.6712 130.945 47.7999C130.753 47.9286 130.603 48.1115 130.515 48.3254C130.427 48.5392 130.405 48.7745 130.451 49.0011C130.497 49.2278 130.609 49.4358 130.773 49.5986C130.937 49.7615 131.146 49.8718 131.373 49.9157C131.6 49.9596 131.835 49.935 132.048 49.8451C132.262 49.7552 132.443 49.604 132.57 49.4108C132.697 49.2175 132.764 48.9908 132.762 48.7595C132.762 48.6067 132.732 48.4554 132.673 48.3144C132.614 48.1733 132.528 48.0453 132.419 47.9377C132.311 47.8301 132.182 47.7451 132.041 47.6876C131.899 47.63 131.748 47.6011 131.595 47.6024Z" fill="#093F68"/>
<path d="M139.197 50.4342C140.122 50.4342 140.872 49.6844 140.872 48.7595C140.872 47.8345 140.122 47.0847 139.197 47.0847C138.272 47.0847 137.522 47.8345 137.522 48.7595C137.522 49.6844 138.272 50.4342 139.197 50.4342Z" fill="#093F68"/>
<path d="M139.197 50.9417C138.765 50.9438 138.342 50.8175 137.982 50.5789C137.622 50.3404 137.34 50.0002 137.174 49.6017C137.007 49.2031 136.962 48.764 137.045 48.34C137.128 47.916 137.335 47.5262 137.64 47.22C137.945 46.9138 138.334 46.705 138.757 46.62C139.181 46.5349 139.62 46.5775 140.02 46.7424C140.419 46.9073 140.76 47.187 141.001 47.5461C141.241 47.9051 141.369 48.3275 141.369 48.7595C141.369 49.3365 141.141 49.89 140.734 50.299C140.327 50.708 139.774 50.9391 139.197 50.9417ZM139.197 47.6024C138.965 47.6004 138.738 47.6674 138.545 47.7949C138.351 47.9224 138.2 48.1046 138.111 48.3183C138.021 48.5319 137.997 48.7675 138.042 48.9948C138.086 49.2222 138.198 49.4311 138.362 49.595C138.525 49.7588 138.734 49.8702 138.962 49.9149C139.189 49.9596 139.425 49.9357 139.638 49.8461C139.852 49.7565 140.034 49.6053 140.162 49.4118C140.289 49.2183 140.356 48.9912 140.354 48.7595C140.352 48.4534 140.229 48.1607 140.012 47.9442C139.796 47.7278 139.503 47.605 139.197 47.6024Z" fill="#093F68"/>
<path d="M146.789 50.4342C147.714 50.4342 148.464 49.6844 148.464 48.7595C148.464 47.8345 147.714 47.0847 146.789 47.0847C145.864 47.0847 145.115 47.8345 145.115 48.7595C145.115 49.6844 145.864 50.4342 146.789 50.4342Z" fill="#093F68"/>
<path d="M146.789 50.9418C146.358 50.9418 145.936 50.8138 145.577 50.574C145.218 50.3342 144.938 49.9934 144.773 49.5946C144.608 49.1959 144.565 48.7571 144.649 48.3338C144.733 47.9105 144.941 47.5216 145.246 47.2164C145.551 46.9112 145.94 46.7034 146.364 46.6192C146.787 46.535 147.226 46.5782 147.624 46.7434C148.023 46.9086 148.364 47.1883 148.604 47.5471C148.844 47.906 148.972 48.3279 148.972 48.7595C148.972 49.3383 148.742 49.8934 148.332 50.3026C147.923 50.7119 147.368 50.9418 146.789 50.9418ZM146.789 47.6024C146.558 47.6024 146.332 47.6712 146.14 47.7999C145.948 47.9286 145.798 48.1115 145.71 48.3254C145.622 48.5392 145.599 48.7745 145.645 49.0011C145.691 49.2278 145.803 49.4358 145.968 49.5986C146.132 49.7615 146.341 49.8718 146.568 49.9157C146.795 49.9596 147.03 49.935 147.243 49.8451C147.456 49.7552 147.638 49.604 147.765 49.4108C147.892 49.2175 147.959 48.9908 147.957 48.7595C147.954 48.4517 147.83 48.1574 147.611 47.9407C147.393 47.724 147.097 47.6024 146.789 47.6024Z" fill="#093F68"/>
<path d="M137.522 125.981C137.388 125.981 137.259 125.927 137.163 125.832C137.068 125.737 137.015 125.608 137.015 125.473V53.8345C137.015 53.6999 137.068 53.5708 137.163 53.4757C137.259 53.3805 137.388 53.327 137.522 53.327C137.657 53.327 137.786 53.3805 137.881 53.4757C137.976 53.5708 138.03 53.6999 138.03 53.8345V125.473C138.03 125.608 137.976 125.737 137.881 125.832C137.786 125.927 137.657 125.981 137.522 125.981Z" fill="#093F68"/>
<path d="M165.333 59.62H144.018C143.884 59.62 143.755 59.5665 143.66 59.4713C143.564 59.3762 143.511 59.2471 143.511 59.1125C143.511 58.9779 143.564 58.8488 143.66 58.7536C143.755 58.6584 143.884 58.605 144.018 58.605H165.333C165.468 58.605 165.597 58.6584 165.692 58.7536C165.787 58.8488 165.841 58.9779 165.841 59.1125C165.841 59.2471 165.787 59.3762 165.692 59.4713C165.597 59.5665 165.468 59.62 165.333 59.62Z" fill="white"/>
<path d="M177.564 59.62H170.611C170.477 59.62 170.348 59.5665 170.253 59.4713C170.157 59.3762 170.104 59.2471 170.104 59.1125C170.104 58.9779 170.157 58.8488 170.253 58.7536C170.348 58.6584 170.477 58.605 170.611 58.605H177.564C177.699 58.605 177.828 58.6584 177.923 58.7536C178.018 58.8488 178.072 58.9779 178.072 59.1125C178.072 59.2471 178.018 59.3762 177.923 59.4713C177.828 59.5665 177.699 59.62 177.564 59.62Z" fill="#093F68"/>
<path d="M196.443 59.62H181.736C181.601 59.62 181.472 59.5665 181.377 59.4713C181.282 59.3762 181.228 59.2471 181.228 59.1125C181.228 58.9779 181.282 58.8488 181.377 58.7536C181.472 58.6584 181.601 58.605 181.736 58.605H196.443C196.578 58.605 196.707 58.6584 196.802 58.7536C196.897 58.8488 196.951 58.9779 196.951 59.1125C196.951 59.1791 196.937 59.2451 196.912 59.3067C196.886 59.3683 196.849 59.4242 196.802 59.4713C196.755 59.5185 196.699 59.5558 196.637 59.5814C196.576 59.6069 196.51 59.62 196.443 59.62Z" fill="#093F68"/>
<path d="M158.533 66.0348H143.978C143.843 66.0348 143.714 65.9813 143.619 65.8861C143.524 65.791 143.47 65.6619 143.47 65.5273C143.47 65.3927 143.524 65.2636 143.619 65.1684C143.714 65.0732 143.843 65.0198 143.978 65.0198H158.533C158.667 65.0198 158.797 65.0732 158.892 65.1684C158.987 65.2636 159.04 65.3927 159.04 65.5273C159.038 65.6611 158.983 65.7886 158.889 65.8833C158.794 65.9779 158.667 66.0322 158.533 66.0348Z" fill="white"/>
<path d="M223.026 66.0348H162.958C162.824 66.0322 162.697 65.9779 162.602 65.8833C162.508 65.7886 162.453 65.6611 162.451 65.5273C162.451 65.3927 162.504 65.2636 162.599 65.1684C162.695 65.0732 162.824 65.0198 162.958 65.0198H223.026C223.161 65.0198 223.29 65.0732 223.385 65.1684C223.48 65.2636 223.533 65.3927 223.533 65.5273C223.533 65.5939 223.52 65.6599 223.495 65.7215C223.469 65.7831 223.432 65.839 223.385 65.8861C223.338 65.9333 223.282 65.9706 223.22 65.9961C223.159 66.0216 223.093 66.0348 223.026 66.0348Z" fill="#093F68"/>
<path d="M256.937 66.0348H227.614C227.479 66.0348 227.35 65.9813 227.255 65.8861C227.16 65.791 227.106 65.6619 227.106 65.5273C227.106 65.3927 227.16 65.2636 227.255 65.1684C227.35 65.0732 227.479 65.0198 227.614 65.0198H256.937C257.072 65.0198 257.201 65.0732 257.296 65.1684C257.391 65.2636 257.445 65.3927 257.445 65.5273C257.442 65.6611 257.388 65.7886 257.293 65.8833C257.198 65.9779 257.071 66.0322 256.937 66.0348Z" fill="white"/>
<path d="M196.443 72.1451H143.978C143.843 72.1451 143.714 72.0917 143.619 71.9965C143.524 71.9013 143.47 71.7722 143.47 71.6376C143.47 71.503 143.524 71.374 143.619 71.2788C143.714 71.1836 143.843 71.1301 143.978 71.1301H196.443C196.578 71.1301 196.707 71.1836 196.802 71.2788C196.897 71.374 196.951 71.503 196.951 71.6376C196.951 71.7722 196.897 71.9013 196.802 71.9965C196.707 72.0917 196.578 72.1451 196.443 72.1451Z" fill="white"/>
<path d="M219.067 72.1451H201.031C200.896 72.1451 200.767 72.0917 200.672 71.9965C200.577 71.9013 200.523 71.7722 200.523 71.6376C200.526 71.5038 200.58 71.3763 200.675 71.2817C200.77 71.187 200.897 71.1327 201.031 71.1301H219.067C219.202 71.1301 219.331 71.1836 219.426 71.2788C219.521 71.374 219.575 71.503 219.575 71.6376C219.575 71.7722 219.521 71.9013 219.426 71.9965C219.331 72.0917 219.202 72.1451 219.067 72.1451Z" fill="#093F68"/>
<path d="M151.235 83.2187H143.957C143.823 83.2187 143.694 83.1653 143.599 83.0701C143.503 82.9749 143.45 82.8458 143.45 82.7112C143.45 82.5766 143.503 82.4476 143.599 82.3524C143.694 82.2572 143.823 82.2037 143.957 82.2037H151.235C151.369 82.2063 151.496 82.2606 151.591 82.3553C151.686 82.4499 151.74 82.5775 151.742 82.7112C151.742 82.8458 151.689 82.9749 151.594 83.0701C151.499 83.1653 151.37 83.2187 151.235 83.2187Z" fill="white"/>
<path d="M174.083 83.2187H155.681C155.546 83.2187 155.417 83.1653 155.322 83.0701C155.227 82.9749 155.173 82.8458 155.173 82.7112C155.176 82.5775 155.23 82.4499 155.325 82.3553C155.419 82.2606 155.547 82.2063 155.681 82.2037H174.083C174.217 82.2037 174.346 82.2572 174.442 82.3524C174.537 82.4476 174.59 82.5766 174.59 82.7112C174.59 82.8458 174.537 82.9749 174.442 83.0701C174.346 83.1653 174.217 83.2187 174.083 83.2187Z" fill="#093F68"/>
<path d="M159.477 88.9231H143.978C143.843 88.9231 143.714 88.8696 143.619 88.7744C143.524 88.6793 143.47 88.5502 143.47 88.4156C143.47 88.281 143.524 88.1519 143.619 88.0567C143.714 87.9615 143.843 87.9081 143.978 87.9081H159.477C159.611 87.9081 159.741 87.9615 159.836 88.0567C159.931 88.1519 159.984 88.281 159.984 88.4156C159.984 88.5502 159.931 88.6793 159.836 88.7744C159.741 88.8696 159.611 88.9231 159.477 88.9231Z" fill="white"/>
<path d="M192.992 88.9231H162.958C162.824 88.9205 162.697 88.8662 162.602 88.7716C162.508 88.6769 162.453 88.5494 162.451 88.4156C162.451 88.281 162.504 88.1519 162.599 88.0567C162.695 87.9615 162.824 87.9081 162.958 87.9081H192.992C193.127 87.9081 193.256 87.9615 193.351 88.0567C193.446 88.1519 193.5 88.281 193.5 88.4156C193.5 88.5502 193.446 88.6793 193.351 88.7744C193.256 88.8696 193.127 88.9231 192.992 88.9231Z" fill="#093F68"/>
<path d="M213.475 88.9231H197.235C197.101 88.9205 196.973 88.8662 196.879 88.7716C196.784 88.6769 196.73 88.5494 196.727 88.4156C196.727 88.281 196.781 88.1519 196.876 88.0567C196.971 87.9615 197.1 87.9081 197.235 87.9081H213.475C213.609 87.9081 213.738 87.9615 213.834 88.0567C213.929 88.1519 213.982 88.281 213.982 88.4156C213.982 88.5502 213.929 88.6793 213.834 88.7744C213.738 88.8696 213.609 88.9231 213.475 88.9231Z" fill="white"/>
<path d="M166.024 95.0333H143.978C143.843 95.0333 143.714 94.9798 143.619 94.8847C143.524 94.7895 143.47 94.6604 143.47 94.5258C143.47 94.3912 143.524 94.2621 143.619 94.167C143.714 94.0718 143.843 94.0183 143.978 94.0183H166.024C166.157 94.0209 166.285 94.0752 166.38 94.1698C166.474 94.2644 166.528 94.392 166.531 94.5258C166.531 94.6604 166.478 94.7895 166.382 94.8847C166.287 94.9798 166.158 95.0333 166.024 95.0333Z" fill="white"/>
<path d="M207.365 95.0333H170.611C170.477 95.0333 170.348 94.9798 170.253 94.8847C170.157 94.7895 170.104 94.6604 170.104 94.5258C170.104 94.3912 170.157 94.2621 170.253 94.167C170.348 94.0718 170.477 94.0183 170.611 94.0183H207.365C207.498 94.0209 207.626 94.0752 207.721 94.1698C207.815 94.2644 207.869 94.392 207.872 94.5258C207.872 94.6604 207.819 94.7895 207.723 94.8847C207.628 94.9798 207.499 95.0333 207.365 95.0333Z" fill="#093F68"/>
<path d="M242.27 95.0333H212.632C212.498 95.0333 212.369 94.9798 212.274 94.8847C212.178 94.7895 212.125 94.6604 212.125 94.5258C212.127 94.392 212.182 94.2644 212.276 94.1698C212.371 94.0752 212.499 94.0209 212.632 94.0183H242.27C242.405 94.0183 242.534 94.0718 242.629 94.167C242.724 94.2621 242.778 94.3912 242.778 94.5258C242.778 94.6604 242.724 94.7895 242.629 94.8847C242.534 94.9798 242.405 95.0333 242.27 95.0333Z" fill="white"/>
<path d="M166.024 105.955H143.978C143.843 105.955 143.714 105.901 143.619 105.806C143.524 105.711 143.47 105.582 143.47 105.447C143.47 105.313 143.524 105.184 143.619 105.088C143.714 104.993 143.843 104.94 143.978 104.94H166.024C166.158 104.94 166.287 104.993 166.382 105.088C166.478 105.184 166.531 105.313 166.531 105.447C166.528 105.581 166.474 105.709 166.38 105.803C166.285 105.898 166.157 105.952 166.024 105.955Z" fill="white"/>
<path d="M177.98 105.955H170.216C170.081 105.955 169.952 105.901 169.857 105.806C169.761 105.711 169.708 105.582 169.708 105.447C169.708 105.313 169.761 105.184 169.857 105.088C169.952 104.993 170.081 104.94 170.216 104.94H177.98C178.115 104.94 178.244 104.993 178.339 105.088C178.434 105.184 178.488 105.313 178.488 105.447C178.485 105.581 178.431 105.709 178.336 105.803C178.242 105.898 178.114 105.952 177.98 105.955Z" fill="#093F68"/>
<path d="M197.235 105.955H181.736C181.601 105.955 181.472 105.901 181.377 105.806C181.282 105.711 181.228 105.582 181.228 105.447C181.228 105.313 181.282 105.184 181.377 105.088C181.472 104.993 181.601 104.94 181.736 104.94H197.235C197.369 104.94 197.499 104.993 197.594 105.088C197.689 105.184 197.742 105.313 197.742 105.447C197.742 105.582 197.689 105.711 197.594 105.806C197.499 105.901 197.369 105.955 197.235 105.955Z" fill="#093F68"/>
<path d="M158.533 111.649H143.978C143.843 111.649 143.714 111.595 143.619 111.5C143.524 111.405 143.47 111.276 143.47 111.141C143.47 111.007 143.524 110.878 143.619 110.783C143.714 110.687 143.843 110.634 143.978 110.634H158.533C158.667 110.634 158.797 110.687 158.892 110.783C158.987 110.878 159.04 111.007 159.04 111.141C159.038 111.275 158.983 111.403 158.889 111.497C158.794 111.592 158.667 111.646 158.533 111.649Z" fill="white"/>
<path d="M223.026 111.649H162.329C162.194 111.649 162.065 111.595 161.97 111.5C161.875 111.405 161.821 111.276 161.821 111.141C161.821 111.007 161.875 110.878 161.97 110.783C162.065 110.687 162.194 110.634 162.329 110.634H223.026C223.161 110.634 223.29 110.687 223.385 110.783C223.48 110.878 223.533 111.007 223.533 111.141C223.533 111.208 223.52 111.274 223.495 111.336C223.469 111.397 223.432 111.453 223.385 111.5C223.338 111.547 223.282 111.585 223.22 111.61C223.159 111.636 223.093 111.649 223.026 111.649Z" fill="#093F68"/>
<path d="M258.825 111.649H227.614C227.479 111.649 227.35 111.595 227.255 111.5C227.16 111.405 227.106 111.276 227.106 111.141C227.106 111.007 227.16 110.878 227.255 110.783C227.35 110.687 227.479 110.634 227.614 110.634H258.825C258.96 110.634 259.089 110.687 259.184 110.783C259.279 110.878 259.333 111.007 259.333 111.141C259.33 111.275 259.276 111.403 259.181 111.497C259.086 111.592 258.959 111.646 258.825 111.649Z" fill="#093F68"/>
<path d="M196.443 118.023H142.821C142.686 118.023 142.557 117.97 142.462 117.874C142.367 117.779 142.313 117.65 142.313 117.516C142.313 117.381 142.367 117.252 142.462 117.157C142.557 117.062 142.686 117.008 142.821 117.008H196.443C196.578 117.008 196.707 117.062 196.802 117.157C196.897 117.252 196.951 117.381 196.951 117.516C196.951 117.582 196.937 117.648 196.912 117.71C196.886 117.771 196.849 117.827 196.802 117.874C196.755 117.922 196.699 117.959 196.637 117.984C196.576 118.01 196.51 118.023 196.443 118.023Z" fill="white"/>
<path d="M217.484 118.023H201.031C200.896 118.023 200.767 117.97 200.672 117.874C200.577 117.779 200.523 117.65 200.523 117.516C200.526 117.382 200.58 117.254 200.675 117.16C200.77 117.065 200.897 117.011 201.031 117.008H217.484C217.619 117.008 217.748 117.062 217.843 117.157C217.938 117.252 217.992 117.381 217.992 117.516C217.992 117.65 217.938 117.779 217.843 117.874C217.748 117.97 217.619 118.023 217.484 118.023Z" fill="#093F68"/>
<path d="M131.189 61.1527C132.108 61.1527 132.853 60.4074 132.853 59.4881C132.853 58.5688 132.108 57.8235 131.189 57.8235C130.269 57.8235 129.524 58.5688 129.524 59.4881C129.524 60.4074 130.269 61.1527 131.189 61.1527Z" fill="white"/>
<path d="M131.189 67.1919C132.108 67.1919 132.853 66.4466 132.853 65.5273C132.853 64.6079 132.108 63.8627 131.189 63.8627C130.269 63.8627 129.524 64.6079 129.524 65.5273C129.524 66.4466 130.269 67.1919 131.189 67.1919Z" fill="white"/>
<path d="M131.189 73.2312C132.108 73.2312 132.853 72.4859 132.853 71.5666C132.853 70.6472 132.108 69.902 131.189 69.902C130.269 69.902 129.524 70.6472 129.524 71.5666C129.524 72.4859 130.269 73.2312 131.189 73.2312Z" fill="white"/>
<path d="M131.189 84.4875C132.108 84.4875 132.853 83.7423 132.853 82.8229C132.853 81.9036 132.108 81.1583 131.189 81.1583C130.269 81.1583 129.524 81.9036 129.524 82.8229C129.524 83.7423 130.269 84.4875 131.189 84.4875Z" fill="white"/>
<path d="M131.189 90.5267C132.108 90.5267 132.853 89.7814 132.853 88.8621C132.853 87.9428 132.108 87.1975 131.189 87.1975C130.269 87.1975 129.524 87.9428 129.524 88.8621C129.524 89.7814 130.269 90.5267 131.189 90.5267Z" fill="white"/>
<path d="M131.189 96.566C132.108 96.566 132.853 95.8207 132.853 94.9014C132.853 93.9821 132.108 93.2368 131.189 93.2368C130.269 93.2368 129.524 93.9821 129.524 94.9014C129.524 95.8207 130.269 96.566 131.189 96.566Z" fill="white"/>
<path d="M131.189 107.112C132.108 107.112 132.853 106.367 132.853 105.447C132.853 104.528 132.108 103.783 131.189 103.783C130.269 103.783 129.524 104.528 129.524 105.447C129.524 106.367 130.269 107.112 131.189 107.112Z" fill="white"/>
<path d="M131.189 113.151C132.108 113.151 132.853 112.406 132.853 111.486C132.853 110.567 132.108 109.822 131.189 109.822C130.269 109.822 129.524 110.567 129.524 111.486C129.524 112.406 130.269 113.151 131.189 113.151Z" fill="white"/>
<path d="M131.189 119.18C132.108 119.18 132.853 118.435 132.853 117.516C132.853 116.596 132.108 115.851 131.189 115.851C130.269 115.851 129.524 116.596 129.524 117.516C129.524 118.435 130.269 119.18 131.189 119.18Z" fill="white"/>
<path d="M101.733 48.455H60.5651V85.2081H101.733V48.455Z" fill="white"/>
<path d="M101.733 85.7157H60.5651C60.4305 85.7157 60.3014 85.6622 60.2062 85.567C60.111 85.4718 60.0576 85.3428 60.0576 85.2082V48.455C60.0576 48.3204 60.111 48.1913 60.2062 48.0962C60.3014 48.001 60.4305 47.9475 60.5651 47.9475H101.733C101.867 47.9501 101.995 48.0044 102.089 48.099C102.184 48.1936 102.238 48.3212 102.241 48.455V85.2082C102.241 85.3428 102.187 85.4718 102.092 85.567C101.997 85.6622 101.868 85.7157 101.733 85.7157ZM61.0726 84.7007H101.226V48.9625H61.0726V84.7007Z" fill="#093F68"/>
<path d="M73.8616 74.3071C73.7375 74.3055 73.6184 74.2586 73.5266 74.1751L66.3303 67.8314C66.2274 67.7366 66.1656 67.6056 66.1577 67.466C66.1564 67.3305 66.2073 67.1996 66.2998 67.1006L73.4962 59.5185C73.5433 59.471 73.5995 59.4332 73.6613 59.4074C73.7232 59.3817 73.7895 59.3684 73.8565 59.3684C73.9235 59.3684 73.9898 59.3817 74.0517 59.4074C74.1135 59.4332 74.1696 59.471 74.2168 59.5185C74.2641 59.5648 74.3016 59.6201 74.3273 59.6811C74.3529 59.7421 74.3661 59.8076 74.3661 59.8738C74.3661 59.9399 74.3529 60.0054 74.3273 60.0664C74.3016 60.1274 74.2641 60.1827 74.2168 60.229L67.396 67.4152L74.1965 73.4139C74.2972 73.5037 74.3589 73.6293 74.3684 73.7639C74.3779 73.8985 74.3344 74.0315 74.2473 74.1345C74.1983 74.1883 74.1388 74.2314 74.0724 74.2611C74.0061 74.2908 73.9343 74.3064 73.8616 74.3071Z" fill="#093F68"/>
<path d="M87.016 74.307C86.9109 74.3102 86.8074 74.2807 86.7198 74.2226C86.6323 74.1645 86.5649 74.0807 86.527 73.9826C86.4891 73.8846 86.4826 73.7772 86.5084 73.6753C86.5342 73.5734 86.5909 73.482 86.6708 73.4138L93.4713 67.4151L86.6404 60.2188C86.5931 60.1725 86.5556 60.1172 86.53 60.0562C86.5043 59.9952 86.4911 59.9297 86.4911 59.8636C86.4911 59.7974 86.5043 59.7319 86.53 59.6709C86.5556 59.6099 86.5931 59.5546 86.6404 59.5083C86.737 59.4147 86.8662 59.3623 87.0007 59.3623C87.1352 59.3623 87.2645 59.4147 87.361 59.5083L94.5574 67.0904C94.6038 67.1386 94.6395 67.1961 94.6623 67.259C94.685 67.322 94.6942 67.389 94.6893 67.4558C94.6897 67.5247 94.6754 67.5929 94.6474 67.6559C94.6194 67.7189 94.5783 67.7752 94.5269 67.8212L87.3306 74.1649C87.2455 74.2476 87.1342 74.2979 87.016 74.307Z" fill="#093F68"/>
<path d="M75.7596 76.2863C75.6778 76.2868 75.5973 76.2658 75.5261 76.2254C75.4669 76.1954 75.4142 76.1539 75.3712 76.1032C75.3283 76.0525 75.2959 75.9938 75.2761 75.9304C75.2562 75.867 75.2492 75.8003 75.2556 75.7341C75.2619 75.668 75.2814 75.6038 75.313 75.5454L84.245 58.3716C84.2735 58.3081 84.3147 58.2512 84.3662 58.2043C84.4176 58.1574 84.4781 58.1216 84.5439 58.0991C84.6098 58.0767 84.6795 58.0679 84.7489 58.0736C84.8182 58.0792 84.8857 58.099 84.9471 58.1317C85.0084 58.1645 85.0624 58.2096 85.1056 58.2641C85.1489 58.3186 85.1804 58.3814 85.1984 58.4487C85.2163 58.5159 85.2202 58.5861 85.2098 58.6549C85.1995 58.7237 85.1751 58.7896 85.1382 58.8486L76.2062 76.0123C76.1637 76.0942 76.0997 76.1631 76.021 76.2114C75.9423 76.2597 75.8519 76.2856 75.7596 76.2863Z" fill="#093F68"/>
<path d="M361.472 50.2415H297.811V144.088H361.472V50.2415Z" fill="white"/>
<path d="M361.462 144.596H297.811C297.677 144.596 297.547 144.542 297.452 144.447C297.357 144.352 297.304 144.223 297.304 144.088V50.2414C297.304 50.1068 297.357 49.9777 297.452 49.8825C297.547 49.7874 297.677 49.7339 297.811 49.7339H361.462C361.596 49.7339 361.725 49.7874 361.821 49.8825C361.916 49.9777 361.969 50.1068 361.969 50.2414V144.088C361.969 144.223 361.916 144.352 361.821 144.447C361.725 144.542 361.596 144.596 361.462 144.596ZM298.319 143.581H360.954V50.7489H298.319V143.581Z" fill="#093F68"/>
<path d="M361.462 56.9404H297.811C297.677 56.9404 297.547 56.8869 297.452 56.7918C297.357 56.6966 297.304 56.5675 297.304 56.4329C297.304 56.2983 297.357 56.1692 297.452 56.0741C297.547 55.9789 297.677 55.9254 297.811 55.9254H361.462C361.596 55.9254 361.725 55.9789 361.821 56.0741C361.916 56.1692 361.969 56.2983 361.969 56.4329C361.969 56.5675 361.916 56.6966 361.821 56.7918C361.725 56.8869 361.596 56.9404 361.462 56.9404Z" fill="#093F68"/>
<path d="M326.505 74.1142H306.337C306.203 74.1142 306.073 74.0607 305.978 73.9655C305.883 73.8704 305.83 73.7413 305.83 73.6067V62.3199C305.83 62.1853 305.883 62.0562 305.978 61.961C306.073 61.8658 306.203 61.8124 306.337 61.8124H326.505C326.64 61.8124 326.769 61.8658 326.864 61.961C326.959 62.0562 327.013 62.1853 327.013 62.3199V73.6067C327.013 73.7413 326.959 73.8704 326.864 73.9655C326.769 74.0607 326.64 74.1142 326.505 74.1142ZM306.845 73.0992H325.998V62.8274H306.845V73.0992Z" fill="#093F68"/>
<path d="M354.874 100.433H334.706C334.572 100.433 334.443 100.38 334.348 100.285C334.252 100.189 334.199 100.06 334.199 99.9257V88.6388C334.199 88.5043 334.252 88.3752 334.348 88.28C334.443 88.1848 334.572 88.1313 334.706 88.1313H354.874C355.009 88.1313 355.138 88.1848 355.233 88.28C355.328 88.3752 355.382 88.5043 355.382 88.6388V99.9257C355.382 100.06 355.328 100.189 355.233 100.285C355.138 100.38 355.009 100.433 354.874 100.433ZM335.214 99.4181H354.367V89.1463H335.214V99.4181Z" fill="#093F68"/>
<path d="M326.505 106.077H306.337C306.203 106.077 306.073 106.023 305.978 105.928C305.883 105.833 305.83 105.704 305.83 105.569V94.2823C305.83 94.1477 305.883 94.0186 305.978 93.9234C306.073 93.8282 306.203 93.7748 306.337 93.7748H326.505C326.639 93.7774 326.767 93.8317 326.861 93.9263C326.956 94.0209 327.01 94.1485 327.013 94.2823V105.569C327.013 105.704 326.959 105.833 326.864 105.928C326.769 106.023 326.64 106.077 326.505 106.077ZM306.845 105.062H325.998V94.7898H306.845V105.062Z" fill="#093F68"/>
<path d="M341.659 135.745H321.491C321.356 135.745 321.227 135.692 321.132 135.596C321.037 135.501 320.984 135.372 320.984 135.237V123.971C320.984 123.836 321.037 123.707 321.132 123.612C321.227 123.517 321.356 123.464 321.491 123.464H341.659C341.793 123.466 341.921 123.52 342.015 123.615C342.11 123.71 342.164 123.837 342.167 123.971V135.258C342.161 135.389 342.106 135.513 342.011 135.604C341.916 135.694 341.79 135.745 341.659 135.745ZM321.999 134.73H341.152V124.479H321.999V134.73Z" fill="#093F68"/>
<path d="M344.795 89.1464C344.661 89.1464 344.532 89.0929 344.437 88.9977C344.341 88.9026 344.288 88.7735 344.288 88.6389V82.8128H316.416C316.281 82.8128 316.152 82.7593 316.057 82.6642C315.962 82.569 315.909 82.4399 315.909 82.3053V73.6067C315.909 73.4721 315.962 73.3431 316.057 73.2479C316.152 73.1527 316.281 73.0992 316.416 73.0992C316.551 73.0992 316.68 73.1527 316.775 73.2479C316.87 73.3431 316.924 73.4721 316.924 73.6067V81.7978H344.795C344.929 81.8004 345.057 81.8547 345.151 81.9493C345.246 82.0439 345.3 82.1715 345.303 82.3053V88.6389C345.303 88.7055 345.29 88.7715 345.264 88.8331C345.239 88.8947 345.201 88.9506 345.154 88.9977C345.107 89.0449 345.051 89.0823 344.99 89.1078C344.928 89.1333 344.862 89.1464 344.795 89.1464Z" fill="#093F68"/>
<path d="M316.416 94.7897C316.281 94.7897 316.152 94.7363 316.057 94.6411C315.962 94.5459 315.909 94.4168 315.909 94.2822V82.3052C315.911 82.1714 315.965 82.0439 316.06 81.9493C316.155 81.8546 316.282 81.8003 316.416 81.7977C316.551 81.7977 316.68 81.8512 316.775 81.9464C316.87 82.0415 316.924 82.1706 316.924 82.3052V94.2822C316.924 94.3489 316.91 94.4149 316.885 94.4764C316.859 94.538 316.822 94.594 316.775 94.6411C316.728 94.6882 316.672 94.7256 316.61 94.7511C316.549 94.7766 316.483 94.7897 316.416 94.7897Z" fill="#093F68"/>
<path d="M332.423 123.961C332.288 123.961 332.159 123.907 332.064 123.812C331.969 123.717 331.915 123.588 331.915 123.453V116.084H316.416C316.281 116.084 316.152 116.031 316.057 115.936C315.962 115.841 315.909 115.712 315.909 115.577V105.569C315.911 105.435 315.965 105.308 316.06 105.213C316.155 105.118 316.282 105.064 316.416 105.062C316.551 105.062 316.68 105.115 316.775 105.21C316.87 105.305 316.924 105.434 316.924 105.569V115.069H332.423C332.557 115.069 332.686 115.123 332.781 115.218C332.877 115.313 332.93 115.442 332.93 115.577V123.453C332.93 123.588 332.877 123.717 332.781 123.812C332.686 123.907 332.557 123.961 332.423 123.961Z" fill="#093F68"/>
<path d="M101.733 53.9055H60.5651C60.4305 53.9055 60.3014 53.852 60.2062 53.7569C60.111 53.6617 60.0576 53.5326 60.0576 53.398C60.0576 53.2634 60.111 53.1343 60.2062 53.0391C60.3014 52.944 60.4305 52.8905 60.5651 52.8905H101.733C101.867 52.8931 101.995 52.9474 102.089 53.042C102.184 53.1366 102.238 53.2642 102.241 53.398C102.241 53.5326 102.187 53.6617 102.092 53.7569C101.997 53.852 101.868 53.9055 101.733 53.9055Z" fill="#093F68"/>
<path d="M107.966 107.193H44.5382V173.219H107.966V107.193Z" fill="white"/>
<path d="M107.955 173.726H44.5382C44.4036 173.726 44.2745 173.673 44.1793 173.578C44.0842 173.483 44.0307 173.353 44.0307 173.219V107.244C44.0307 107.109 44.0842 106.98 44.1793 106.885C44.2745 106.79 44.4036 106.736 44.5382 106.736H107.955C108.09 106.736 108.219 106.79 108.314 106.885C108.409 106.98 108.463 107.109 108.463 107.244V173.219C108.463 173.353 108.409 173.483 108.314 173.578C108.219 173.673 108.09 173.726 107.955 173.726ZM45.0254 172.711H107.428V107.751H45.0457L45.0254 172.711Z" fill="#093F68"/>
<path d="M107.955 114.227H44.5382C44.4036 114.227 44.2745 114.174 44.1793 114.078C44.0842 113.983 44.0307 113.854 44.0307 113.72C44.0307 113.585 44.0842 113.456 44.1793 113.361C44.2745 113.266 44.4036 113.212 44.5382 113.212H107.955C108.09 113.212 108.219 113.266 108.314 113.361C108.409 113.456 108.463 113.585 108.463 113.72C108.463 113.854 108.409 113.983 108.314 114.078C108.219 114.174 108.09 114.227 107.955 114.227Z" fill="#093F68"/>
<path d="M57.855 119.505H50.0903C49.9557 119.505 49.8266 119.452 49.7314 119.356C49.6362 119.261 49.5828 119.132 49.5828 118.997C49.5828 118.863 49.6362 118.734 49.7314 118.639C49.8266 118.543 49.9557 118.49 50.0903 118.49H57.855C57.9896 118.49 58.1187 118.543 58.2139 118.639C58.309 118.734 58.3625 118.863 58.3625 118.997C58.3625 119.132 58.309 119.261 58.2139 119.356C58.1187 119.452 57.9896 119.505 57.855 119.505Z" fill="#093F68"/>
<path d="M77.3735 119.505H61.915C61.7804 119.505 61.6513 119.452 61.5561 119.356C61.461 119.261 61.4075 119.132 61.4075 118.997C61.4101 118.864 61.4644 118.736 61.559 118.642C61.6536 118.547 61.7812 118.493 61.915 118.49H77.3735C77.5081 118.49 77.6371 118.543 77.7323 118.639C77.8275 118.734 77.881 118.863 77.881 118.997C77.881 119.132 77.8275 119.261 77.7323 119.356C77.6371 119.452 77.5081 119.505 77.3735 119.505Z" fill="#093F68"/>
<path d="M82.0323 125.382H66.5738C66.4392 125.382 66.3102 125.328 66.215 125.233C66.1198 125.138 66.0663 125.009 66.0663 124.874C66.0663 124.74 66.1198 124.611 66.215 124.515C66.3102 124.42 66.4392 124.367 66.5738 124.367H82.0323C82.1669 124.367 82.296 124.42 82.3912 124.515C82.4863 124.611 82.5398 124.74 82.5398 124.874C82.5398 125.009 82.4863 125.138 82.3912 125.233C82.296 125.328 82.1669 125.382 82.0323 125.382Z" fill="#093F68"/>
<path d="M59.6617 125.382H51.9071C51.7725 125.382 51.6434 125.328 51.5482 125.233C51.4531 125.138 51.3996 125.009 51.3996 124.874C51.4022 124.741 51.4565 124.613 51.5511 124.518C51.6457 124.424 51.7733 124.369 51.9071 124.367H59.6617C59.7955 124.369 59.9231 124.424 60.0177 124.518C60.1123 124.613 60.1666 124.741 60.1692 124.874C60.1692 125.009 60.1157 125.138 60.0206 125.233C59.9254 125.328 59.7963 125.382 59.6617 125.382Z" fill="#093F68"/>
<path d="M59.9561 131.259H53.724C53.5894 131.259 53.4603 131.205 53.3651 131.11C53.2699 131.015 53.2165 130.886 53.2165 130.751C53.2191 130.617 53.2734 130.49 53.368 130.395C53.4626 130.301 53.5902 130.246 53.724 130.244H59.9561C60.0898 130.246 60.2174 130.301 60.312 130.395C60.4067 130.49 60.461 130.617 60.4636 130.751C60.4636 130.886 60.4101 131.015 60.3149 131.11C60.2197 131.205 60.0907 131.259 59.9561 131.259Z" fill="#093F68"/>
<path d="M84.7931 131.259H65.4472C65.3126 131.259 65.1835 131.205 65.0883 131.11C64.9932 131.015 64.9397 130.886 64.9397 130.751C64.9397 130.617 64.9932 130.487 65.0883 130.392C65.1835 130.297 65.3126 130.244 65.4472 130.244H84.7931C84.9277 130.244 85.0568 130.297 85.152 130.392C85.2471 130.487 85.3006 130.617 85.3006 130.751C85.3006 130.886 85.2471 131.015 85.152 131.11C85.0568 131.205 84.9277 131.259 84.7931 131.259Z" fill="#093F68"/>
<path d="M63.2954 137.136H55.551C55.4164 137.136 55.2873 137.082 55.1921 136.987C55.0969 136.892 55.0435 136.763 55.0435 136.628C55.0435 136.494 55.0969 136.364 55.1921 136.269C55.2873 136.174 55.4164 136.121 55.551 136.121H63.2954C63.43 136.121 63.5591 136.174 63.6543 136.269C63.7494 136.364 63.8029 136.494 63.8029 136.628C63.8029 136.763 63.7494 136.892 63.6543 136.987C63.5591 137.082 63.43 137.136 63.2954 137.136Z" fill="#093F68"/>
<path d="M88.8023 137.136H65.7923C65.6577 137.136 65.5286 137.082 65.4334 136.987C65.3383 136.892 65.2848 136.763 65.2848 136.628C65.2848 136.494 65.3383 136.364 65.4334 136.269C65.5286 136.174 65.6577 136.121 65.7923 136.121H88.8023C88.9361 136.123 89.0637 136.178 89.1583 136.272C89.2529 136.367 89.3072 136.494 89.3098 136.628C89.3098 136.763 89.2564 136.892 89.1612 136.987C89.066 137.082 88.9369 137.136 88.8023 137.136Z" fill="#093F68"/>
<path d="M61.235 143.012H53.4905C53.3559 143.012 53.2268 142.959 53.1316 142.864C53.0365 142.769 52.983 142.64 52.983 142.505C52.983 142.37 53.0365 142.241 53.1316 142.146C53.2268 142.051 53.3559 141.997 53.4905 141.997H61.235C61.3695 141.997 61.4986 142.051 61.5938 142.146C61.689 142.241 61.7425 142.37 61.7425 142.505C61.7425 142.64 61.689 142.769 61.5938 142.864C61.4986 142.959 61.3695 143.012 61.235 143.012Z" fill="#093F68"/>
<path d="M76.6832 143.012H64.2089C64.0743 143.012 63.9452 142.959 63.85 142.864C63.7549 142.769 63.7014 142.64 63.7014 142.505C63.7014 142.37 63.7549 142.241 63.85 142.146C63.9452 142.051 64.0743 141.997 64.2089 141.997H76.6832C76.8178 141.997 76.9469 142.051 77.0421 142.146C77.1373 142.241 77.1907 142.37 77.1907 142.505C77.1907 142.64 77.1373 142.769 77.0421 142.864C76.9469 142.959 76.8178 143.012 76.6832 143.012Z" fill="#093F68"/>
<path d="M93.9281 143.012H81.4538C81.3192 143.012 81.1901 142.959 81.0949 142.864C80.9997 142.769 80.9463 142.64 80.9463 142.505C80.9463 142.37 80.9997 142.241 81.0949 142.146C81.1901 142.051 81.3192 141.997 81.4538 141.997H93.9281C94.0627 141.997 94.1918 142.051 94.287 142.146C94.3821 142.241 94.4356 142.37 94.4356 142.505C94.4356 142.64 94.3821 142.769 94.287 142.864C94.1918 142.959 94.0627 143.012 93.9281 143.012Z" fill="#093F68"/>
<path d="M56.16 148.94H53.4905C53.3559 148.94 53.2268 148.887 53.1316 148.791C53.0365 148.696 52.983 148.567 52.983 148.433C52.983 148.298 53.0365 148.169 53.1316 148.074C53.2268 147.979 53.3559 147.925 53.4905 147.925H56.16C56.2946 147.925 56.4236 147.979 56.5188 148.074C56.614 148.169 56.6675 148.298 56.6675 148.433C56.6675 148.567 56.614 148.696 56.5188 148.791C56.4236 148.887 56.2946 148.94 56.16 148.94Z" fill="#093F68"/>
<path d="M76.6832 148.94H60.7071C60.5725 148.94 60.4435 148.887 60.3483 148.791C60.2531 148.696 60.1996 148.567 60.1996 148.433C60.2022 148.299 60.2565 148.171 60.3512 148.077C60.4458 147.982 60.5734 147.928 60.7071 147.925H76.6832C76.8178 147.925 76.9469 147.979 77.0421 148.074C77.1373 148.169 77.1907 148.298 77.1907 148.433C77.1907 148.567 77.1373 148.696 77.0421 148.791C76.9469 148.887 76.8178 148.94 76.6832 148.94Z" fill="#093F68"/>
<path d="M82.9763 148.94H78.5204C78.3858 148.94 78.2567 148.887 78.1616 148.791C78.0664 148.696 78.0129 148.567 78.0129 148.433C78.0129 148.298 78.0664 148.169 78.1616 148.074C78.2567 147.979 78.3858 147.925 78.5204 147.925H82.9763C83.1109 147.925 83.2399 147.979 83.3351 148.074C83.4303 148.169 83.4838 148.298 83.4838 148.433C83.4838 148.567 83.4303 148.696 83.3351 148.791C83.2399 148.887 83.1109 148.94 82.9763 148.94Z" fill="#093F68"/>
<path d="M57.6825 154.766H53.4905C53.3559 154.766 53.2268 154.713 53.1316 154.617C53.0365 154.522 52.983 154.393 52.983 154.259C52.983 154.124 53.0365 153.995 53.1316 153.9C53.2268 153.805 53.3559 153.751 53.4905 153.751H57.6825C57.817 153.751 57.9461 153.805 58.0413 153.9C58.1365 153.995 58.19 154.124 58.19 154.259C58.19 154.393 58.1365 154.522 58.0413 154.617C57.9461 154.713 57.817 154.766 57.6825 154.766Z" fill="#093F68"/>
<path d="M80.591 154.766H61.6308C61.4962 154.766 61.3671 154.713 61.2719 154.617C61.1768 154.522 61.1233 154.393 61.1233 154.259C61.1259 154.125 61.1802 153.997 61.2748 153.903C61.3694 153.808 61.497 153.754 61.6308 153.751H80.591C80.7256 153.751 80.8547 153.805 80.9498 153.9C81.045 153.995 81.0985 154.124 81.0985 154.259C81.0985 154.393 81.045 154.522 80.9498 154.617C80.8547 154.713 80.7256 154.766 80.591 154.766Z" fill="#093F68"/>
<path d="M90.2132 154.766H82.4687C82.3341 154.766 82.2051 154.713 82.1099 154.617C82.0147 154.522 81.9612 154.393 81.9612 154.259C81.9612 154.124 82.0147 153.995 82.1099 153.9C82.2051 153.805 82.3341 153.751 82.4687 153.751H90.2132C90.3478 153.751 90.4769 153.805 90.572 153.9C90.6672 153.995 90.7207 154.124 90.7207 154.259C90.7207 154.393 90.6672 154.522 90.572 154.617C90.4769 154.713 90.3478 154.766 90.2132 154.766Z" fill="#093F68"/>
<path d="M55.825 160.643H51.6736C51.539 160.643 51.41 160.589 51.3148 160.494C51.2196 160.399 51.1661 160.27 51.1661 160.135C51.1661 160.001 51.2196 159.872 51.3148 159.777C51.41 159.681 51.539 159.628 51.6736 159.628H55.825C55.9588 159.631 56.0864 159.685 56.181 159.779C56.2756 159.874 56.3299 160.002 56.3325 160.135C56.3325 160.27 56.279 160.399 56.1838 160.494C56.0887 160.589 55.9596 160.643 55.825 160.643Z" fill="#093F68"/>
<path d="M78.5204 160.643H60.5651C60.4305 160.643 60.3014 160.589 60.2062 160.494C60.111 160.399 60.0576 160.27 60.0576 160.135C60.0602 160.002 60.1145 159.874 60.2091 159.779C60.3037 159.685 60.4313 159.631 60.5651 159.628H78.5204C78.655 159.628 78.7841 159.681 78.8793 159.777C78.9744 159.872 79.0279 160.001 79.0279 160.135C79.0279 160.27 78.9744 160.399 78.8793 160.494C78.7841 160.589 78.655 160.643 78.5204 160.643Z" fill="#093F68"/>
<path d="M59.4181 166.52H51.6736C51.539 166.52 51.41 166.466 51.3148 166.371C51.2196 166.276 51.1661 166.147 51.1661 166.012C51.1661 165.878 51.2196 165.749 51.3148 165.654C51.41 165.558 51.539 165.505 51.6736 165.505H59.4181C59.5527 165.505 59.6818 165.558 59.7769 165.654C59.8721 165.749 59.9256 165.878 59.9256 166.012C59.9256 166.147 59.8721 166.276 59.7769 166.371C59.6818 166.466 59.5527 166.52 59.4181 166.52Z" fill="#093F68"/>
<path d="M102.403 137.136H91.9286C91.794 137.136 91.6649 137.082 91.5697 136.987C91.4745 136.892 91.4211 136.763 91.4211 136.628C91.4211 136.494 91.4745 136.364 91.5697 136.269C91.6649 136.174 91.794 136.121 91.9286 136.121H102.403C102.538 136.121 102.667 136.174 102.762 136.269C102.857 136.364 102.911 136.494 102.911 136.628C102.911 136.763 102.857 136.892 102.762 136.987C102.667 137.082 102.538 137.136 102.403 137.136Z" fill="#093F68"/>
<path d="M86.7216 119.505C81.474 119.505 81.3624 119.505 81.3015 119.505C81.1741 119.465 81.0676 119.377 81.0049 119.259C80.9422 119.141 80.9284 119.004 80.9665 118.876C80.9998 118.758 81.0751 118.657 81.178 118.592C81.2809 118.526 81.4044 118.501 81.5248 118.52C82.1439 118.52 92.2838 118.52 98.9828 118.52C99.1174 118.52 99.2465 118.574 99.3416 118.669C99.4368 118.764 99.4903 118.893 99.4903 119.028C99.4903 119.163 99.4368 119.292 99.3416 119.387C99.2465 119.482 99.1174 119.535 98.9828 119.535C93.2074 119.505 89.32 119.505 86.7216 119.505Z" fill="#093F68"/>
<path d="M88.4369 160.643H80.591C80.4564 160.643 80.3273 160.589 80.2321 160.494C80.137 160.399 80.0835 160.27 80.0835 160.135C80.0861 160.002 80.1404 159.874 80.235 159.779C80.3296 159.685 80.4572 159.631 80.591 159.628H88.4369C88.5707 159.631 88.6983 159.685 88.7929 159.779C88.8875 159.874 88.9418 160.002 88.9444 160.135C88.9444 160.27 88.891 160.399 88.7958 160.494C88.7006 160.589 88.5715 160.643 88.4369 160.643Z" fill="#093F68"/>
<path d="M70.4512 166.52H64.6758C64.5412 166.52 64.4121 166.466 64.3169 166.371C64.2218 166.276 64.1683 166.147 64.1683 166.012C64.1709 165.879 64.2252 165.751 64.3198 165.656C64.4144 165.562 64.542 165.507 64.6758 165.505H70.4512C70.5849 165.507 70.7125 165.562 70.8071 165.656C70.9018 165.751 70.9561 165.879 70.9587 166.012C70.9587 166.147 70.9052 166.276 70.81 166.371C70.7148 166.466 70.5858 166.52 70.4512 166.52Z" fill="#093F68"/>
<path d="M86.3461 166.52H72.6334C72.4988 166.52 72.3697 166.466 72.2746 166.371C72.1794 166.276 72.1259 166.147 72.1259 166.012C72.1285 165.879 72.1828 165.751 72.2774 165.656C72.3721 165.562 72.4996 165.507 72.6334 165.505H86.3461C86.4799 165.507 86.6074 165.562 86.7021 165.656C86.7967 165.751 86.851 165.879 86.8536 166.012C86.8536 166.147 86.8001 166.276 86.7049 166.371C86.6097 166.466 86.4807 166.52 86.3461 166.52Z" fill="#093F68"/>
<path d="M327.013 206.907C341.15 206.907 352.611 195.446 352.611 181.308C352.611 167.171 341.15 155.71 327.013 155.71C312.875 155.71 301.414 167.171 301.414 181.308C301.414 195.446 312.875 206.907 327.013 206.907Z" fill="white"/>
<path d="M327.013 207.414C321.849 207.414 316.802 205.883 312.509 203.015C308.216 200.146 304.87 196.069 302.894 191.299C300.918 186.528 300.401 181.279 301.408 176.215C302.416 171.151 304.902 166.5 308.553 162.849C312.204 159.198 316.856 156.711 321.92 155.704C326.984 154.697 332.233 155.214 337.003 157.19C341.773 159.166 345.85 162.512 348.719 166.805C351.587 171.098 353.118 176.145 353.118 181.308C353.11 188.23 350.357 194.865 345.463 199.759C340.569 204.653 333.934 207.406 327.013 207.414ZM327.013 156.228C322.05 156.228 317.198 157.699 313.072 160.457C308.946 163.214 305.73 167.134 303.831 171.719C301.932 176.304 301.436 181.35 302.405 186.217C303.374 191.085 305.764 195.555 309.274 199.064C312.784 202.573 317.256 204.961 322.124 205.928C326.992 206.895 332.037 206.397 336.622 204.496C341.206 202.596 345.124 199.378 347.88 195.251C350.636 191.123 352.105 186.271 352.103 181.308C352.095 174.657 349.449 168.281 344.745 163.579C340.041 158.877 333.664 156.233 327.013 156.228Z" fill="#093F68"/>
<path d="M338.257 200.004L338.266 199.999C339.468 199.301 339.878 197.761 339.18 196.558L336.093 191.238C335.396 190.035 333.855 189.626 332.653 190.323L332.644 190.329C331.442 191.026 331.032 192.567 331.73 193.769L334.816 199.089C335.514 200.292 337.054 200.701 338.257 200.004Z" fill="white"/>
<path d="M336.98 200.857C336.716 200.859 336.453 200.825 336.198 200.756C335.814 200.655 335.453 200.478 335.137 200.236C334.822 199.994 334.558 199.691 334.361 199.345L331.316 194.036C330.917 193.341 330.808 192.516 331.013 191.74C331.218 190.965 331.721 190.302 332.412 189.895C333.108 189.496 333.933 189.387 334.708 189.592C335.484 189.797 336.147 190.3 336.554 190.991L339.599 196.31C339.997 197.007 340.105 197.833 339.898 198.608C339.69 199.384 339.185 200.046 338.492 200.451C338.032 200.716 337.511 200.856 336.98 200.857ZM333.935 190.555C333.58 190.555 333.23 190.646 332.92 190.819C332.459 191.09 332.124 191.532 331.987 192.049C331.85 192.566 331.923 193.116 332.189 193.58L335.234 198.888C335.534 199.283 335.968 199.555 336.454 199.651C336.94 199.748 337.445 199.664 337.873 199.414C338.302 199.165 338.624 198.767 338.779 198.296C338.934 197.825 338.912 197.314 338.716 196.858L335.671 191.55C335.404 191.087 334.967 190.748 334.453 190.606C334.283 190.569 334.109 190.552 333.935 190.555Z" fill="#093F68"/>
<path d="M327.013 196.686C335.886 196.686 343.08 189.492 343.08 180.618C343.08 171.744 335.886 164.551 327.013 164.551C318.139 164.551 310.945 171.744 310.945 180.618C310.945 189.492 318.139 196.686 327.013 196.686Z" fill="white"/>
<path d="M327.043 197.203C325.601 197.203 324.164 197.015 322.77 196.645C320.663 196.091 318.686 195.126 316.954 193.803C315.222 192.481 313.77 190.828 312.681 188.941C310.851 185.785 310.114 182.113 310.584 178.494C311.053 174.876 312.704 171.514 315.279 168.929C317.854 166.345 321.21 164.682 324.827 164.199C328.443 163.716 332.118 164.44 335.281 166.259C338.444 168.077 340.919 170.888 342.322 174.256C343.724 177.625 343.976 181.361 343.039 184.887C342.101 188.413 340.027 191.532 337.136 193.758C334.246 195.985 330.702 197.196 327.053 197.203H327.043ZM327.043 165.068C324.313 165.071 321.632 165.793 319.269 167.161C316.906 168.528 314.945 170.494 313.583 172.86C312.221 175.227 311.506 177.91 311.51 180.64C311.513 183.37 312.236 186.051 313.605 188.413C314.972 190.779 316.938 192.743 319.305 194.108C321.672 195.473 324.357 196.19 327.09 196.188C329.822 196.186 332.506 195.464 334.871 194.095C337.236 192.727 339.199 190.759 340.562 188.391C341.925 186.023 342.641 183.337 342.637 180.605C342.633 177.872 341.909 175.189 340.539 172.825C339.168 170.461 337.2 168.499 334.831 167.138C332.462 165.776 329.776 165.062 327.043 165.068Z" fill="#093F68"/>
<path d="M327.013 193.803C334.295 193.803 340.198 187.9 340.198 180.618C340.198 173.336 334.295 167.433 327.013 167.433C319.731 167.433 313.828 173.336 313.828 180.618C313.828 187.9 319.731 193.803 327.013 193.803Z" fill="#093F68"/>
</svg>
