<svg width="211" height="141" viewBox="0 0 211 141" fill="none" xmlns="http://www.w3.org/2000/svg">
<path d="M153.039 59.2823H55.1028C51.6636 59.2823 48.8755 61.7851 48.8755 64.8725V111.725C48.8755 114.812 51.6636 117.315 55.1028 117.315H153.039C156.478 117.315 159.266 114.812 159.266 111.725V64.8725C159.266 61.7851 156.478 59.2823 153.039 59.2823Z" fill="white"/>
<path d="M153.032 117.617H55.1027C53.3624 117.616 51.694 116.994 50.4635 115.89C49.2329 114.785 48.5408 113.287 48.5391 111.725V64.8785C48.5408 63.3158 49.2327 61.8175 50.463 60.7119C51.6934 59.6063 53.3618 58.9837 55.1027 58.9805H153.032C154.773 58.9837 156.441 59.6063 157.672 60.7119C158.902 61.8175 159.594 63.3158 159.596 64.8785V111.725C159.594 113.287 158.902 114.785 157.671 115.89C156.441 116.994 154.772 117.616 153.032 117.617ZM55.1027 59.5842C53.5396 59.5858 52.0412 60.1443 50.9366 61.137C49.832 62.1297 49.2116 63.4754 49.2116 64.8785V111.725C49.2133 113.127 49.8346 114.471 50.939 115.463C52.0434 116.454 53.5408 117.012 55.1027 117.013H153.032C154.594 117.012 156.091 116.454 157.196 115.463C158.3 114.471 158.921 113.127 158.923 111.725V64.8785C158.923 63.4754 158.303 62.1297 157.198 61.137C156.094 60.1443 154.595 59.5858 153.032 59.5842H55.1027Z" fill="#093F68"/>
<path d="M121.27 96.5966H86.8715C85.6756 96.5966 84.7061 97.4669 84.7061 98.5404V111.266C84.7061 112.34 85.6756 113.21 86.8715 113.21H121.27C122.466 113.21 123.435 112.34 123.435 111.266V98.5404C123.435 97.4669 122.466 96.5966 121.27 96.5966Z" fill="white"/>
<path d="M121.27 113.512H86.8646C86.2023 113.51 85.5677 113.273 85.1 112.852C84.6323 112.431 84.3696 111.861 84.3696 111.266V98.5344C84.3696 97.9404 84.6325 97.3707 85.1004 96.9507C85.5683 96.5306 86.2029 96.2947 86.8646 96.2947H121.27C121.931 96.2947 122.566 96.5306 123.034 96.9507C123.502 97.3707 123.765 97.9404 123.765 98.5344V111.266C123.765 111.861 123.502 112.431 123.034 112.852C122.567 113.273 121.932 113.51 121.27 113.512ZM86.8646 96.8984C86.3812 96.8984 85.9177 97.0707 85.5759 97.3775C85.2341 97.6844 85.0421 98.1005 85.0421 98.5344V111.266C85.0412 111.482 85.0877 111.695 85.1789 111.894C85.2701 112.093 85.4042 112.274 85.5735 112.427C85.7429 112.58 85.9441 112.701 86.1656 112.783C86.3872 112.866 86.6247 112.908 86.8646 112.908H121.27C121.51 112.908 121.747 112.866 121.969 112.783C122.19 112.701 122.391 112.58 122.561 112.427C122.73 112.274 122.864 112.093 122.955 111.894C123.047 111.695 123.093 111.482 123.092 111.266V98.5344C123.092 98.1005 122.9 97.6844 122.558 97.3775C122.217 97.0707 121.753 96.8984 121.27 96.8984H86.8646Z" fill="#093F68"/>
<path d="M149.4 63.3875H58.734C56.8249 63.3875 55.2773 64.7767 55.2773 66.4904V88.9357C55.2773 90.6495 56.8249 92.0387 58.734 92.0387H149.4C151.309 92.0387 152.857 90.6495 152.857 88.9357V66.4904C152.857 64.7767 151.309 63.3875 149.4 63.3875Z" fill="white"/>
<path d="M149.401 92.3405H58.7343C57.7289 92.3389 56.7652 91.9797 56.0543 91.3415C55.3434 90.7033 54.9432 89.8382 54.9414 88.9357V66.4964C54.9414 65.5929 55.3408 64.7262 56.0519 64.0867C56.763 63.4472 57.7278 63.0872 58.7343 63.0856H149.401C150.407 63.0872 151.372 63.4472 152.083 64.0867C152.794 64.7262 153.194 65.5929 153.194 66.4964V88.9357C153.192 89.8382 152.792 90.7033 152.081 91.3415C151.37 91.9797 150.406 92.3389 149.401 92.3405ZM58.7343 63.6893C57.9061 63.6909 57.1124 63.9873 56.5274 64.5136C55.9424 65.0399 55.6139 65.753 55.6139 66.4964V88.9357C55.6139 89.6786 55.9427 90.3911 56.5278 90.9164C57.113 91.4417 57.9067 91.7368 58.7343 91.7368H149.401C150.228 91.7368 151.022 91.4417 151.607 90.9164C152.192 90.3911 152.521 89.6786 152.521 88.9357V66.4964C152.521 65.753 152.193 65.0399 151.608 64.5136C151.023 63.9873 150.229 63.6909 149.401 63.6893H58.7343Z" fill="#093F68"/>
<path d="M56.8779 121.71H79.864C80.4846 120.355 81.2291 119.049 82.09 117.804C85.7484 113.15 90.7854 110.276 93.5225 103.708C96.2595 97.1399 97.1809 91.9361 95.0423 90.9762C92.9038 90.0163 90.3348 97.6832 87.5708 99.603C87.5708 99.603 85.4928 90.3846 87.1673 86.2795C88.8419 82.1744 92.2649 79.0955 91.8076 76.6204C91.3503 74.1452 90.0793 74.8093 88.0349 76.3668C86.9656 77.1879 85.1835 79.832 85.1835 79.832C85.3543 78.4876 85.8574 77.1944 86.6562 76.0469C88.741 73.2639 83.8116 72.0323 80.1532 76.9584C80.1532 76.9584 81.5789 71.8935 78.8082 73.3967C76.0375 74.8999 73.213 80.7014 73.213 80.7014C73.213 80.7014 74.7395 73.0345 71.2358 75.087C67.7321 77.1396 66.4073 86.9979 66.8646 91.3867C67.3219 95.7756 68.3441 105.942 65.2371 109.594C64.2485 110.789 60.9062 115.673 56.8779 121.71Z" fill="white"/>
<path d="M79.8643 122.012H56.8782C56.8187 122.012 56.7602 121.997 56.7084 121.971C56.6566 121.945 56.6132 121.907 56.5823 121.861C56.5508 121.815 56.5342 121.761 56.5342 121.707C56.5342 121.653 56.5508 121.6 56.5823 121.553C61.2898 114.569 64.0874 110.482 64.9953 109.407C68.0619 105.785 66.9724 95.353 66.5622 91.4169C66.078 86.7926 67.423 76.9886 71.0747 74.8455C71.8346 74.4048 72.4735 74.3264 72.9711 74.6282C73.9732 75.2319 73.9933 77.3207 73.8387 78.9084C74.9147 77.049 76.7842 74.1815 78.6605 73.1552C79.333 72.7809 79.8844 72.7266 80.2879 72.9982C80.9604 73.445 80.9201 74.7188 80.7654 75.739C82.5341 73.8736 84.3969 73.2518 85.6747 73.3242C86.0112 73.3223 86.3422 73.4013 86.6331 73.5532C86.9241 73.705 87.1644 73.924 87.329 74.1875C87.472 74.528 87.5112 74.8966 87.4426 75.2553C87.3741 75.614 87.2002 75.9497 86.939 76.228C86.4702 76.8725 86.112 77.5766 85.8764 78.3168C86.4287 77.5309 87.0784 76.8039 87.8132 76.1495C89.2255 75.0629 90.2006 74.4833 91.0009 74.7489C91.5792 74.9361 91.9356 75.5156 92.1374 76.56C92.4266 78.1236 91.3035 79.8501 90.0056 81.8544C89.0197 83.2864 88.1759 84.7934 87.4837 86.358C86.0849 89.7809 87.3895 96.989 87.793 98.9932C88.9482 97.7306 89.9345 96.3508 90.7319 94.8821C92.319 92.2681 93.6976 90.0103 95.1973 90.6562C98.3244 92.0628 95.2847 100.315 93.8523 103.762C92.0298 108.121 89.2053 110.886 86.4548 113.554C84.9884 114.934 83.6205 116.396 82.3592 117.931C81.5101 119.159 80.7746 120.447 80.1602 121.783C80.1436 121.844 80.1062 121.899 80.0532 121.94C80.0001 121.981 79.9341 122.006 79.8643 122.012ZM57.47 121.408H79.6625C80.2702 120.097 80.9967 118.833 81.8347 117.629C83.1148 116.073 84.5053 114.593 85.9975 113.198C88.6875 110.566 91.4649 107.849 93.2403 103.599C96.085 96.7898 96.7306 92.0568 94.9283 91.2479C94.0069 90.8253 92.5947 93.1495 91.3506 95.196C90.2275 97.0494 89.0573 98.9691 87.8132 99.8384C87.7688 99.8711 87.7152 99.8924 87.6584 99.8998C87.6015 99.9073 87.5434 99.9006 87.4904 99.8807C87.4367 99.8641 87.3887 99.8355 87.351 99.7974C87.3133 99.7593 87.2872 99.7131 87.2752 99.6633C87.1945 99.283 85.1972 90.3121 86.8852 86.1768C87.5898 84.5778 88.4517 83.0383 89.4608 81.5767C90.6915 79.6751 91.7541 78.033 91.4783 76.6808C91.3304 75.8899 91.0883 75.413 90.8058 75.3104C90.288 75.1474 89.286 75.8356 88.284 76.6083C87.2819 77.381 85.5267 79.9769 85.5065 80.0011C85.4677 80.0594 85.408 80.1042 85.3372 80.1283C85.2664 80.1524 85.1887 80.1544 85.1165 80.1339C85.0446 80.1117 84.9827 80.069 84.9402 80.0123C84.8977 79.9557 84.877 79.8881 84.8811 79.82C85.0558 78.423 85.5799 77.0795 86.4144 75.8899C86.6049 75.6974 86.7371 75.4641 86.7984 75.2125C86.8596 74.9609 86.8478 74.6995 86.7641 74.4531C86.6487 74.287 86.4867 74.1511 86.2943 74.0589C86.1019 73.9667 85.8859 73.9215 85.6679 73.9279C84.4238 73.8434 82.3054 74.6523 80.4695 77.1396C80.4254 77.1985 80.3595 77.2415 80.2835 77.2611C80.2075 77.2808 80.1262 77.2757 80.054 77.2469C79.9817 77.218 79.9231 77.1673 79.8884 77.1035C79.8537 77.0397 79.8452 76.967 79.8643 76.8981C80.1938 75.6907 80.4359 73.8253 79.9181 73.4812C79.7096 73.3423 79.2792 73.5416 79.0438 73.6683C76.4143 75.1112 73.61 80.7798 73.5831 80.8342C73.5504 80.9017 73.4913 80.9561 73.417 80.9872C73.3427 81.0184 73.2583 81.024 73.1796 81.0032C73.1016 80.9799 73.0352 80.9326 72.9921 80.8696C72.9491 80.8067 72.9321 80.7321 72.9442 80.6591C73.3141 78.8118 73.5495 75.6786 72.6282 75.1293C72.3793 74.9783 71.9557 75.0508 71.4782 75.3526C68.2166 77.2603 66.7707 86.8771 67.2616 91.3626C67.7189 95.7333 68.7882 105.984 65.5669 109.775C64.6658 110.808 61.9489 114.719 57.47 121.408Z" fill="#093F68"/>
<path d="M121.041 85.561C119.622 84.6495 117.995 87.7524 119.024 92.3164C120.053 96.8803 126.139 106.551 130.813 110.566C132.043 111.616 133.893 115.142 135.964 119.766H158.298C152.797 110.433 148.096 102.495 147.692 101.988C146.67 100.708 145.601 92.6061 145.883 87.843C146.114 83.4859 145.757 79.1197 144.821 74.8395C144.101 72.0081 142.965 71.0784 141.384 71.0784C139.804 71.0784 140.591 76.6988 140.591 76.6988C139.878 73.3483 137.437 69.4847 135.285 69.0983C133.133 68.712 135.762 75.8295 135.762 75.8295C134.901 73.7709 130.207 67.1846 128.123 68.229C127.45 68.5671 125.749 69.0138 128.472 73.5234C131.196 78.033 131.162 80.484 131.162 80.484C125.493 71.7908 121.075 72.0866 119.676 73.9098C118.277 75.7329 121.909 76.8316 124.76 80.7013C127.611 84.571 125.977 94.3508 125.977 94.3508C122.87 92.4975 122.467 86.4726 121.041 85.561ZM140.739 77.3206C140.739 77.224 140.698 77.1214 140.671 77.0067L140.739 77.3206Z" fill="white"/>
<path d="M158.284 120.068H135.951C135.884 120.067 135.818 120.049 135.763 120.014C135.708 119.98 135.666 119.931 135.641 119.875C133.355 114.768 131.647 111.707 130.571 110.783C125.978 106.841 119.757 97.2063 118.681 92.3707C117.86 88.6942 118.681 85.9776 119.885 85.2834C120.084 85.161 120.321 85.0981 120.563 85.1035C120.804 85.1089 121.037 85.1824 121.23 85.3136C121.902 85.7422 122.299 86.9435 122.817 88.4648C123.449 90.3182 124.222 92.5881 125.655 93.7592C125.937 91.7006 126.785 84.1001 124.411 80.8402C123.428 79.5537 122.281 78.3746 120.994 77.3267C119.441 75.9805 118.304 75.0085 119.333 73.7045C119.641 73.3128 120.057 72.9995 120.541 72.7952C121.024 72.591 121.558 72.5029 122.091 72.5394C123.604 72.5938 126.637 73.5416 130.537 79.0472C130.02 77.1455 129.212 75.3171 128.136 73.614C126.845 71.483 126.381 69.9918 126.697 69.038C126.786 68.7991 126.931 68.58 127.123 68.3957C127.314 68.2114 127.547 68.066 127.807 67.9695L127.921 67.9091C128.128 67.8121 128.356 67.7584 128.589 67.7521C128.822 67.7459 129.053 67.7872 129.266 67.8729C130.934 68.4222 133.099 70.9819 134.559 73.1129C134.135 71.4769 133.846 69.6477 134.465 69.0199C134.574 68.9112 134.715 68.8313 134.871 68.7888C135.027 68.7462 135.194 68.7427 135.352 68.7784C137.128 69.0984 138.95 71.4226 140.06 73.9823C140.06 72.7749 140.187 71.5675 140.692 71.0423C140.774 70.9537 140.877 70.882 140.993 70.832C141.109 70.782 141.236 70.7549 141.364 70.7525C143.268 70.7525 144.424 71.9599 145.124 74.7489C146.069 79.0567 146.43 83.4513 146.2 87.837C145.91 92.6665 147.034 100.641 147.941 101.788C148.305 102.241 151.781 108.067 158.574 119.597C158.602 119.642 158.617 119.693 158.617 119.745C158.617 119.797 158.602 119.848 158.574 119.893C158.547 119.942 158.506 119.985 158.455 120.015C158.404 120.046 158.346 120.064 158.284 120.068ZM136.179 119.464H157.699C149.596 105.706 147.612 102.452 147.377 102.163C146.287 100.792 145.218 92.6182 145.507 87.8249C145.736 83.4961 145.382 79.1583 144.451 74.9059C143.664 71.7969 142.434 71.3803 141.344 71.3803C141.307 71.3805 141.27 71.3889 141.238 71.4047C141.205 71.4204 141.177 71.4432 141.156 71.4709C140.524 72.1108 140.652 74.9904 140.887 76.6566V76.6989C140.9 76.7403 140.9 76.7842 140.887 76.8256C140.915 76.8591 140.934 76.8986 140.941 76.9403L141.008 77.2543C141.015 77.2862 141.015 77.3189 141.008 77.3509C141.028 77.3804 141.042 77.4132 141.048 77.4474L141.122 77.7674C141.104 77.8164 141.104 77.8693 141.122 77.9183H141.075L141.122 77.9727C141.126 77.9886 141.126 78.005 141.122 78.021C141.115 78.0844 141.086 78.1443 141.039 78.192C140.992 78.2397 140.929 78.2729 140.86 78.2866C140.794 78.2977 140.726 78.2916 140.664 78.2691C140.602 78.2467 140.549 78.2087 140.51 78.1598C140.507 78.1418 140.507 78.1235 140.51 78.1055C140.506 78.0896 140.506 78.0731 140.51 78.0572V78.0028C140.507 77.9768 140.507 77.9504 140.51 77.9244C140.495 77.8997 140.484 77.8733 140.477 77.8459L140.47 77.6406V77.5923C140.467 77.5683 140.467 77.5439 140.47 77.5199C140.443 77.4858 140.424 77.4466 140.416 77.4052L140.349 77.0913C140.342 77.0533 140.342 77.0146 140.349 76.9766C140.325 76.9436 140.309 76.9066 140.302 76.8679C140.298 76.8582 140.298 76.8474 140.302 76.8377C139.562 73.3967 137.114 69.8168 135.258 69.4847C135.09 69.4546 135.036 69.4847 135.009 69.5391C134.397 70.1428 135.285 73.5657 136.105 75.7933C136.126 75.8665 136.116 75.944 136.076 76.0106C136.037 76.0772 135.97 76.1281 135.891 76.1531C135.812 76.1781 135.725 76.1755 135.647 76.1458C135.57 76.116 135.508 76.0614 135.473 75.9926C134.72 74.1815 131.237 69.2674 129.071 68.5551C128.954 68.5038 128.825 68.4772 128.694 68.4772C128.564 68.4772 128.435 68.5038 128.318 68.5551L128.183 68.6154C128.004 68.6759 127.842 68.7711 127.708 68.8942C127.575 69.0173 127.473 69.1654 127.41 69.3278C127.148 70.1005 127.612 71.483 128.795 73.4389C131.532 77.9666 131.485 80.4478 131.485 80.5504C131.482 80.616 131.455 80.6789 131.409 80.7299C131.363 80.781 131.301 80.8175 131.23 80.8342C131.16 80.8508 131.085 80.8461 131.019 80.821C130.952 80.7959 130.896 80.7517 130.86 80.6953C126.711 74.3324 123.597 73.294 122.117 73.2397C121.698 73.2057 121.275 73.2714 120.893 73.4304C120.51 73.5894 120.181 73.8359 119.939 74.1453C119.266 74.9844 119.939 75.6243 121.519 76.9826C122.84 78.0636 124.016 79.2792 125.023 80.6048C127.908 84.5288 126.368 94.0611 126.294 94.4897C126.286 94.5399 126.264 94.5875 126.23 94.6277C126.196 94.668 126.151 94.6995 126.099 94.7191C126.049 94.7429 125.994 94.7553 125.937 94.7553C125.881 94.7553 125.825 94.7429 125.776 94.7191C123.859 93.5721 122.958 90.9158 122.232 88.7848C121.788 87.4869 121.371 86.2614 120.887 85.9535C120.802 85.8922 120.696 85.8588 120.587 85.8588C120.479 85.8588 120.373 85.8922 120.288 85.9535C119.454 86.4425 118.58 88.8331 119.38 92.419C120.416 97.0675 126.643 106.708 131.075 110.53C132.185 111.333 133.866 114.315 136.179 119.464Z" fill="#093F68"/>
<path d="M84.7061 119.766C84.1614 119.766 59.5344 112.256 59.5344 112.256C59.5344 112.256 48.3373 130.409 44.9277 136.084L77.3288 140.751L84.7061 119.766Z" fill="#FBE6EA"/>
<path d="M155.44 110.958L129.515 115.299L136.556 137.835L169.461 135.595L155.44 110.958Z" fill="#FBE6EA"/>
<path d="M153.039 1.24933H55.1028C51.6636 1.24933 48.8755 3.75215 48.8755 6.83952V53.6921C48.8755 56.7795 51.6636 59.2823 55.1028 59.2823H153.039C156.478 59.2823 159.266 56.7795 159.266 53.6921V6.83952C159.266 3.75215 156.478 1.24933 153.039 1.24933Z" fill="white"/>
<path d="M153.032 59.5842H55.1027C53.3624 59.5826 51.694 58.9613 50.4635 57.8567C49.2329 56.752 48.5408 55.2543 48.5391 53.6921V6.83951C48.5479 5.28153 49.2432 3.78998 50.4729 2.69057C51.7027 1.59115 53.3671 0.973193 55.1027 0.971619H153.032C154.772 0.973217 156.441 1.5945 157.671 2.69912C158.902 3.80375 159.594 5.30148 159.596 6.86366V53.7163C159.587 55.2742 158.892 56.7658 157.662 57.8652C156.432 58.9646 154.768 59.5826 153.032 59.5842ZM55.1027 1.57531C53.5408 1.57691 52.0434 2.13459 50.939 3.126C49.8346 4.11741 49.2133 5.46159 49.2116 6.86366V53.7163C49.2133 55.1183 49.8346 56.4625 50.939 57.4539C52.0434 58.4453 53.5408 59.003 55.1027 59.0046H153.032C154.594 59.003 156.091 58.4453 157.196 57.4539C158.3 56.4625 158.921 55.1183 158.923 53.7163V6.83951C158.914 5.44164 158.29 4.10364 157.186 3.11744C156.083 2.13124 154.589 1.57688 153.032 1.57531H55.1027Z" fill="#093F68"/>
<path d="M154.686 6.17548H54.3628V54.6279H154.686V6.17548Z" fill="#FBE6EA"/>
<path d="M154.687 54.9297H54.39C54.3008 54.9297 54.2153 54.8979 54.1522 54.8413C54.0891 54.7847 54.0537 54.7079 54.0537 54.6278V6.17544C54.0537 6.09539 54.0891 6.01861 54.1522 5.962C54.2153 5.9054 54.3008 5.8736 54.39 5.8736H154.687C154.776 5.8736 154.861 5.9054 154.924 5.962C154.987 6.01861 155.023 6.09539 155.023 6.17544V54.6278C155.023 54.7079 154.987 54.7847 154.924 54.8413C154.861 54.8979 154.776 54.9297 154.687 54.9297ZM54.6993 54.326H154.35V6.47729H54.6993V54.326Z" fill="#093F68"/>
<path d="M154.687 12.321H54.39C54.3008 12.321 54.2153 12.2892 54.1522 12.2326C54.0891 12.176 54.0537 12.0992 54.0537 12.0192C54.0537 11.9391 54.0891 11.8624 54.1522 11.8058C54.2153 11.7491 54.3008 11.7173 54.39 11.7173H154.687C154.776 11.7173 154.861 11.7491 154.924 11.8058C154.987 11.8624 155.023 11.9391 155.023 12.0192C155.023 12.0992 154.987 12.176 154.924 12.2326C154.861 12.2892 154.776 12.321 154.687 12.321Z" fill="#093F68"/>
<path d="M58.1892 9.99682C58.802 9.99682 59.2988 9.55086 59.2988 9.00073C59.2988 8.4506 58.802 8.00464 58.1892 8.00464C57.5764 8.00464 57.0796 8.4506 57.0796 9.00073C57.0796 9.55086 57.5764 9.99682 58.1892 9.99682Z" fill="#093F68"/>
<path d="M58.1895 10.2987C57.9036 10.2987 57.624 10.2226 57.3862 10.08C57.1485 9.93734 56.9631 9.73463 56.8537 9.49746C56.7443 9.26029 56.7156 8.99932 56.7714 8.74754C56.8272 8.49577 56.9649 8.2645 57.1671 8.08298C57.3693 7.90146 57.627 7.77784 57.9075 7.72776C58.1879 7.67768 58.4786 7.70338 58.7428 7.80162C59.007 7.89986 59.2328 8.06622 59.3917 8.27966C59.5506 8.49311 59.6354 8.74405 59.6354 9.00076C59.6363 9.17143 59.5995 9.34057 59.5272 9.4984C59.4548 9.65624 59.3483 9.79964 59.2139 9.92032C59.0795 10.041 58.9197 10.1366 58.7439 10.2015C58.5681 10.2665 58.3796 10.2995 58.1895 10.2987ZM58.1895 8.31255C58.0363 8.31256 57.8865 8.35343 57.7592 8.42998C57.6319 8.50654 57.5327 8.61532 57.4744 8.74253C57.4161 8.86974 57.4012 9.00964 57.4315 9.14447C57.4619 9.27931 57.5363 9.403 57.6451 9.49984C57.7539 9.59669 57.8924 9.66233 58.0428 9.68843C58.1933 9.71453 58.349 9.69992 58.4902 9.64645C58.6314 9.59298 58.7517 9.50305 58.8358 9.38809C58.92 9.27313 58.9642 9.13832 58.9629 9.00076C58.9629 8.90987 58.9429 8.81989 58.9039 8.73599C58.865 8.6521 58.8079 8.57596 58.736 8.51197C58.6641 8.44799 58.5788 8.39742 58.485 8.36319C58.3912 8.32896 58.2908 8.31175 58.1895 8.31255Z" fill="#093F68"/>
<path d="M63.2263 9.99682C63.8391 9.99682 64.3359 9.55086 64.3359 9.00073C64.3359 8.4506 63.8391 8.00464 63.2263 8.00464C62.6135 8.00464 62.1167 8.4506 62.1167 9.00073C62.1167 9.55086 62.6135 9.99682 63.2263 9.99682Z" fill="#093F68"/>
<path d="M63.2265 10.2987C62.9403 10.2999 62.6601 10.2248 62.4214 10.0829C62.1828 9.94099 61.9964 9.7387 61.8859 9.50164C61.7755 9.26458 61.7459 9.00342 61.8009 8.75125C61.8559 8.49908 61.9931 8.26724 62.195 8.08512C62.397 7.90299 62.6546 7.77878 62.9352 7.72821C63.2159 7.67763 63.507 7.70298 63.7715 7.80104C64.0361 7.8991 64.2624 8.06545 64.4215 8.27903C64.5807 8.4926 64.6657 8.74378 64.6657 9.00074C64.6657 9.34394 64.5143 9.67316 64.2446 9.9164C63.9749 10.1596 63.6088 10.2971 63.2265 10.2987ZM63.2265 8.31254C63.073 8.31134 62.9226 8.3512 62.7944 8.42702C62.6661 8.50284 62.566 8.61121 62.5066 8.73831C62.4473 8.86541 62.4314 9.00549 62.461 9.14072C62.4906 9.27595 62.5644 9.40021 62.673 9.49766C62.7815 9.59512 62.9199 9.66136 63.0706 9.68795C63.2212 9.71455 63.3773 9.70029 63.5189 9.647C63.6605 9.59371 63.7812 9.50379 63.8656 9.3887C63.9501 9.27361 63.9945 9.13856 63.9932 9.00074C63.9914 8.81871 63.9101 8.64457 63.7667 8.51585C63.6233 8.38713 63.4293 8.31411 63.2265 8.31254Z" fill="#093F68"/>
<path d="M68.2566 9.99682C68.8694 9.99682 69.3662 9.55086 69.3662 9.00073C69.3662 8.4506 68.8694 8.00464 68.2566 8.00464C67.6438 8.00464 67.147 8.4506 67.147 9.00073C67.147 9.55086 67.6438 9.99682 68.2566 9.99682Z" fill="#093F68"/>
<path d="M68.2569 10.2987C67.9709 10.2987 67.6914 10.2226 67.4536 10.08C67.2159 9.93734 67.0305 9.73463 66.9211 9.49746C66.8117 9.26029 66.783 8.99932 66.8388 8.74754C66.8946 8.49577 67.0323 8.2645 67.2345 8.08298C67.4367 7.90146 67.6944 7.77784 67.9748 7.72776C68.2553 7.67768 68.546 7.70338 68.8102 7.80162C69.0744 7.89986 69.3002 8.06622 69.4591 8.27966C69.618 8.49311 69.7028 8.74405 69.7028 9.00076C69.7028 9.34499 69.5505 9.67513 69.2793 9.91854C69.0081 10.162 68.6404 10.2987 68.2569 10.2987ZM68.2569 8.31255C68.1037 8.31256 67.9539 8.35343 67.8266 8.42998C67.6992 8.50654 67.6001 8.61532 67.5418 8.74253C67.4835 8.86974 67.4685 9.00964 67.4989 9.14447C67.5293 9.27931 67.6036 9.403 67.7125 9.49984C67.8213 9.59669 67.9597 9.66233 68.1102 9.68843C68.2607 9.71453 68.4164 9.69992 68.5576 9.64645C68.6988 9.59298 68.8191 9.50305 68.9032 9.38809C68.9874 9.27313 69.0316 9.13832 69.0303 9.00076C69.0285 8.81768 68.9463 8.64264 68.8014 8.51375C68.6566 8.38486 68.4609 8.31254 68.2569 8.31255Z" fill="#093F68"/>
<path d="M62.117 54.9297C62.0278 54.9297 61.9423 54.8979 61.8792 54.8413C61.8162 54.7847 61.7808 54.7079 61.7808 54.6278V12.0192C61.7808 11.9391 61.8162 11.8624 61.8792 11.8058C61.9423 11.7491 62.0278 11.7173 62.117 11.7173C62.2062 11.7173 62.2917 11.7491 62.3548 11.8058C62.4178 11.8624 62.4533 11.9391 62.4533 12.0192V54.6278C62.4533 54.7079 62.4178 54.7847 62.3548 54.8413C62.2917 54.8979 62.2062 54.9297 62.117 54.9297Z" fill="#093F68"/>
<path d="M80.5432 15.4603H66.4207C66.3315 15.4603 66.246 15.4285 66.183 15.3719C66.1199 15.3152 66.0845 15.2385 66.0845 15.1584C66.0845 15.0784 66.1199 15.0016 66.183 14.945C66.246 14.8884 66.3315 14.8566 66.4207 14.8566H80.5432C80.6324 14.8566 80.7179 14.8884 80.781 14.945C80.8441 15.0016 80.8795 15.0784 80.8795 15.1584C80.8795 15.2385 80.8441 15.3152 80.781 15.3719C80.7179 15.4285 80.6324 15.4603 80.5432 15.4603Z" fill="white"/>
<path d="M88.647 15.4603H84.0404C83.9512 15.4603 83.8657 15.4285 83.8026 15.3719C83.7395 15.3152 83.7041 15.2385 83.7041 15.1584C83.7041 15.0784 83.7395 15.0016 83.8026 14.945C83.8657 14.8884 83.9512 14.8566 84.0404 14.8566H88.647C88.7362 14.8566 88.8217 14.8884 88.8847 14.945C88.9478 15.0016 88.9832 15.0784 88.9832 15.1584C88.9832 15.2385 88.9478 15.3152 88.8847 15.3719C88.8217 15.4285 88.7362 15.4603 88.647 15.4603Z" fill="#093F68"/>
<path d="M101.155 15.4603H91.411C91.3218 15.4603 91.2362 15.4285 91.1732 15.3719C91.1101 15.3152 91.0747 15.2385 91.0747 15.1584C91.0747 15.0784 91.1101 15.0016 91.1732 14.945C91.2362 14.8884 91.3218 14.8566 91.411 14.8566H101.155C101.245 14.8566 101.33 14.8884 101.393 14.945C101.456 15.0016 101.492 15.0784 101.492 15.1584C101.492 15.1981 101.483 15.2373 101.466 15.2739C101.449 15.3105 101.424 15.3438 101.393 15.3719C101.362 15.3999 101.325 15.4221 101.284 15.4373C101.243 15.4525 101.2 15.4603 101.155 15.4603Z" fill="#093F68"/>
<path d="M76.0375 19.2756H66.3939C66.3047 19.2756 66.2192 19.2438 66.1561 19.1872C66.093 19.1306 66.0576 19.0538 66.0576 18.9737C66.0576 18.8937 66.093 18.8169 66.1561 18.7603C66.2192 18.7037 66.3047 18.6719 66.3939 18.6719H76.0375C76.1267 18.6719 76.2122 18.7037 76.2753 18.7603C76.3383 18.8169 76.3738 18.8937 76.3738 18.9737C76.372 19.0533 76.3361 19.1292 76.2734 19.1855C76.2107 19.2417 76.1262 19.274 76.0375 19.2756Z" fill="white"/>
<path d="M118.768 19.2756H78.9696C78.8809 19.274 78.7964 19.2417 78.7337 19.1855C78.671 19.1292 78.635 19.0533 78.6333 18.9737C78.6333 18.8937 78.6687 18.8169 78.7318 18.7603C78.7948 18.7037 78.8804 18.6719 78.9696 18.6719H118.768C118.857 18.6719 118.943 18.7037 119.006 18.7603C119.069 18.8169 119.104 18.8937 119.104 18.9737C119.104 19.0134 119.096 19.0526 119.079 19.0892C119.062 19.1259 119.037 19.1591 119.006 19.1872C118.975 19.2152 118.938 19.2374 118.897 19.2526C118.856 19.2678 118.812 19.2756 118.768 19.2756Z" fill="#093F68"/>
<path d="M141.236 19.2756H121.808C121.719 19.2756 121.633 19.2438 121.57 19.1872C121.507 19.1306 121.472 19.0538 121.472 18.9737C121.472 18.8937 121.507 18.8169 121.57 18.7603C121.633 18.7037 121.719 18.6719 121.808 18.6719H141.236C141.326 18.6719 141.411 18.7037 141.474 18.7603C141.537 18.8169 141.573 18.8937 141.573 18.9737C141.571 19.0533 141.535 19.1292 141.472 19.1855C141.41 19.2417 141.325 19.274 141.236 19.2756Z" fill="white"/>
<path d="M101.155 22.9098H66.3939C66.3047 22.9098 66.2192 22.878 66.1561 22.8214C66.093 22.7648 66.0576 22.6881 66.0576 22.608C66.0576 22.5279 66.093 22.4512 66.1561 22.3946C66.2192 22.338 66.3047 22.3062 66.3939 22.3062H101.155C101.245 22.3062 101.33 22.338 101.393 22.3946C101.456 22.4512 101.492 22.5279 101.492 22.608C101.492 22.6881 101.456 22.7648 101.393 22.8214C101.33 22.878 101.245 22.9098 101.155 22.9098Z" fill="white"/>
<path d="M116.145 22.9098H104.195C104.106 22.9098 104.02 22.878 103.957 22.8214C103.894 22.7648 103.859 22.6881 103.859 22.608C103.861 22.5284 103.897 22.4525 103.959 22.3963C104.022 22.34 104.106 22.3077 104.195 22.3062H116.145C116.235 22.3062 116.32 22.338 116.383 22.3946C116.446 22.4512 116.482 22.5279 116.482 22.608C116.482 22.6881 116.446 22.7648 116.383 22.8214C116.32 22.878 116.235 22.9098 116.145 22.9098Z" fill="#093F68"/>
<path d="M71.2025 29.4961H66.3807C66.2915 29.4961 66.206 29.4643 66.1429 29.4077C66.0799 29.3511 66.0444 29.2743 66.0444 29.1942C66.0444 29.1142 66.0799 29.0374 66.1429 28.9808C66.206 28.9242 66.2915 28.8924 66.3807 28.8924H71.2025C71.2911 28.8939 71.3757 28.9262 71.4384 28.9825C71.5011 29.0388 71.537 29.1147 71.5388 29.1942C71.5388 29.2743 71.5033 29.3511 71.4403 29.4077C71.3772 29.4643 71.2917 29.4961 71.2025 29.4961Z" fill="white"/>
<path d="M86.3402 29.4961H74.1478C74.0586 29.4961 73.9731 29.4643 73.91 29.4077C73.8469 29.3511 73.8115 29.2743 73.8115 29.1942C73.8132 29.1147 73.8492 29.0388 73.9119 28.9825C73.9746 28.9262 74.0591 28.8939 74.1478 28.8924H86.3402C86.4294 28.8924 86.5149 28.9242 86.578 28.9808C86.641 29.0374 86.6764 29.1142 86.6764 29.1942C86.6764 29.2743 86.641 29.3511 86.578 29.4077C86.5149 29.4643 86.4294 29.4961 86.3402 29.4961Z" fill="#093F68"/>
<path d="M76.6629 32.8888H66.3939C66.3047 32.8888 66.2192 32.857 66.1561 32.8004C66.093 32.7438 66.0576 32.6671 66.0576 32.587C66.0576 32.5069 66.093 32.4302 66.1561 32.3736C66.2192 32.317 66.3047 32.2852 66.3939 32.2852H76.6629C76.7521 32.2852 76.8376 32.317 76.9007 32.3736C76.9638 32.4302 76.9992 32.5069 76.9992 32.587C76.9992 32.6671 76.9638 32.7438 76.9007 32.8004C76.8376 32.857 76.7521 32.8888 76.6629 32.8888Z" fill="white"/>
<path d="M98.8688 32.8888H78.9696C78.8809 32.8873 78.7964 32.855 78.7337 32.7987C78.671 32.7425 78.635 32.6666 78.6333 32.587C78.6333 32.5069 78.6687 32.4302 78.7318 32.3736C78.7948 32.317 78.8804 32.2852 78.9696 32.2852H98.8688C98.958 32.2852 99.0435 32.317 99.1066 32.3736C99.1697 32.4302 99.2051 32.5069 99.2051 32.587C99.2051 32.6671 99.1697 32.7438 99.1066 32.8004C99.0435 32.857 98.958 32.8888 98.8688 32.8888Z" fill="#093F68"/>
<path d="M112.44 32.8888H101.68C101.591 32.8873 101.507 32.855 101.444 32.7987C101.381 32.7425 101.345 32.6666 101.344 32.587C101.344 32.5069 101.379 32.4302 101.442 32.3736C101.505 32.317 101.591 32.2852 101.68 32.2852H112.44C112.529 32.2852 112.615 32.317 112.678 32.3736C112.741 32.4302 112.776 32.5069 112.776 32.587C112.776 32.6671 112.741 32.7438 112.678 32.8004C112.615 32.857 112.529 32.8888 112.44 32.8888Z" fill="white"/>
<path d="M81.0006 36.5231H66.3939C66.3047 36.5231 66.2192 36.4913 66.1561 36.4347C66.093 36.378 66.0576 36.3013 66.0576 36.2212C66.0576 36.1412 66.093 36.0644 66.1561 36.0078C66.2192 35.9512 66.3047 35.9194 66.3939 35.9194H81.0006C81.0892 35.9209 81.1737 35.9532 81.2364 36.0095C81.2991 36.0658 81.3351 36.1416 81.3368 36.2212C81.3368 36.3013 81.3014 36.378 81.2383 36.4347C81.1753 36.4913 81.0897 36.5231 81.0006 36.5231Z" fill="white"/>
<path d="M108.392 36.5231H84.0404C83.9512 36.5231 83.8657 36.4913 83.8026 36.4347C83.7395 36.378 83.7041 36.3013 83.7041 36.2212C83.7041 36.1412 83.7395 36.0644 83.8026 36.0078C83.8657 35.9512 83.9512 35.9194 84.0404 35.9194H108.392C108.48 35.9209 108.565 35.9532 108.627 36.0095C108.69 36.0658 108.726 36.1416 108.728 36.2212C108.728 36.3013 108.692 36.378 108.629 36.4347C108.566 36.4913 108.481 36.5231 108.392 36.5231Z" fill="#093F68"/>
<path d="M131.519 36.5231H111.882C111.792 36.5231 111.707 36.4913 111.644 36.4347C111.581 36.378 111.545 36.3013 111.545 36.2212C111.547 36.1416 111.583 36.0658 111.646 36.0095C111.708 35.9532 111.793 35.9209 111.882 35.9194H131.519C131.608 35.9194 131.693 35.9512 131.756 36.0078C131.819 36.0644 131.855 36.1412 131.855 36.2212C131.855 36.3013 131.819 36.378 131.756 36.4347C131.693 36.4913 131.608 36.5231 131.519 36.5231Z" fill="white"/>
<path d="M81.0006 43.0188H66.3939C66.3047 43.0188 66.2192 42.987 66.1561 42.9304C66.093 42.8738 66.0576 42.797 66.0576 42.7169C66.0576 42.6369 66.093 42.5601 66.1561 42.5035C66.2192 42.4469 66.3047 42.4151 66.3939 42.4151H81.0006C81.0897 42.4151 81.1753 42.4469 81.2383 42.5035C81.3014 42.5601 81.3368 42.6369 81.3368 42.7169C81.3351 42.7965 81.2991 42.8724 81.2364 42.9287C81.1737 42.9849 81.0892 43.0172 81.0006 43.0188Z" fill="white"/>
<path d="M88.9228 43.0188H83.7781C83.689 43.0188 83.6034 42.987 83.5404 42.9304C83.4773 42.8738 83.4419 42.797 83.4419 42.7169C83.4419 42.6369 83.4773 42.5601 83.5404 42.5035C83.6034 42.4469 83.689 42.4151 83.7781 42.4151H88.9228C89.012 42.4151 89.0975 42.4469 89.1605 42.5035C89.2236 42.5601 89.259 42.6369 89.259 42.7169C89.2573 42.7965 89.2213 42.8724 89.1586 42.9287C89.0959 42.9849 89.0114 43.0172 88.9228 43.0188Z" fill="#093F68"/>
<path d="M101.68 43.0188H91.411C91.3218 43.0188 91.2362 42.987 91.1732 42.9304C91.1101 42.8738 91.0747 42.797 91.0747 42.7169C91.0747 42.6369 91.1101 42.5601 91.1732 42.5035C91.2362 42.4469 91.3218 42.4151 91.411 42.4151H101.68C101.769 42.4151 101.855 42.4469 101.918 42.5035C101.981 42.5601 102.016 42.6369 102.016 42.7169C102.016 42.797 101.981 42.8738 101.918 42.9304C101.855 42.987 101.769 43.0188 101.68 43.0188Z" fill="#093F68"/>
<path d="M76.0375 46.4055H66.3939C66.3047 46.4055 66.2192 46.3737 66.1561 46.3171C66.093 46.2605 66.0576 46.1837 66.0576 46.1037C66.0576 46.0236 66.093 45.9468 66.1561 45.8902C66.2192 45.8336 66.3047 45.8018 66.3939 45.8018H76.0375C76.1267 45.8018 76.2122 45.8336 76.2753 45.8902C76.3383 45.9468 76.3738 46.0236 76.3738 46.1037C76.372 46.1832 76.3361 46.2591 76.2734 46.3154C76.2107 46.3717 76.1262 46.404 76.0375 46.4055Z" fill="white"/>
<path d="M118.768 46.4055H78.5526C78.4634 46.4055 78.3779 46.3737 78.3148 46.3171C78.2517 46.2605 78.2163 46.1837 78.2163 46.1037C78.2163 46.0236 78.2517 45.9468 78.3148 45.8902C78.3779 45.8336 78.4634 45.8018 78.5526 45.8018H118.768C118.857 45.8018 118.943 45.8336 119.006 45.8902C119.069 45.9468 119.104 46.0236 119.104 46.1037C119.104 46.1433 119.096 46.1826 119.079 46.2192C119.062 46.2558 119.037 46.2891 119.006 46.3171C118.975 46.3451 118.938 46.3674 118.897 46.3825C118.856 46.3977 118.812 46.4055 118.768 46.4055Z" fill="#093F68"/>
<path d="M142.487 46.4055H121.808C121.719 46.4055 121.633 46.3737 121.57 46.3171C121.507 46.2605 121.472 46.1837 121.472 46.1037C121.472 46.0236 121.507 45.9468 121.57 45.8902C121.633 45.8336 121.719 45.8018 121.808 45.8018H142.487C142.576 45.8018 142.662 45.8336 142.725 45.8902C142.788 45.9468 142.824 46.0236 142.824 46.1037C142.822 46.1832 142.786 46.2591 142.723 46.3154C142.66 46.3717 142.576 46.404 142.487 46.4055Z" fill="#093F68"/>
<path d="M101.155 50.1967H65.6273C65.5381 50.1967 65.4526 50.1649 65.3895 50.1083C65.3264 50.0517 65.291 49.9749 65.291 49.8949C65.291 49.8148 65.3264 49.738 65.3895 49.6814C65.4526 49.6248 65.5381 49.593 65.6273 49.593H101.155C101.245 49.593 101.33 49.6248 101.393 49.6814C101.456 49.738 101.492 49.8148 101.492 49.8949C101.492 49.9345 101.483 49.9738 101.466 50.0104C101.449 50.047 101.424 50.0803 101.393 50.1083C101.362 50.1363 101.325 50.1586 101.284 50.1737C101.243 50.1889 101.2 50.1967 101.155 50.1967Z" fill="white"/>
<path d="M115.096 50.1967H104.195C104.106 50.1967 104.02 50.1649 103.957 50.1083C103.894 50.0517 103.859 49.9749 103.859 49.8949C103.861 49.8153 103.897 49.7394 103.959 49.6831C104.022 49.6269 104.106 49.5946 104.195 49.593H115.096C115.186 49.593 115.271 49.6248 115.334 49.6814C115.397 49.738 115.433 49.8148 115.433 49.8949C115.433 49.9749 115.397 50.0517 115.334 50.1083C115.271 50.1649 115.186 50.1967 115.096 50.1967Z" fill="#093F68"/>
<path d="M57.9203 16.3718C58.5294 16.3718 59.0232 15.9286 59.0232 15.3818C59.0232 14.835 58.5294 14.3917 57.9203 14.3917C57.3112 14.3917 56.8174 14.835 56.8174 15.3818C56.8174 15.9286 57.3112 16.3718 57.9203 16.3718Z" fill="white"/>
<path d="M57.9203 19.9638C58.5294 19.9638 59.0232 19.5206 59.0232 18.9738C59.0232 18.427 58.5294 17.9837 57.9203 17.9837C57.3112 17.9837 56.8174 18.427 56.8174 18.9738C56.8174 19.5206 57.3112 19.9638 57.9203 19.9638Z" fill="white"/>
<path d="M57.9203 23.5558C58.5294 23.5558 59.0232 23.1125 59.0232 22.5657C59.0232 22.0189 58.5294 21.5757 57.9203 21.5757C57.3112 21.5757 56.8174 22.0189 56.8174 22.5657C56.8174 23.1125 57.3112 23.5558 57.9203 23.5558Z" fill="white"/>
<path d="M57.9203 30.2507C58.5294 30.2507 59.0232 29.8075 59.0232 29.2607C59.0232 28.7139 58.5294 28.2706 57.9203 28.2706C57.3112 28.2706 56.8174 28.7139 56.8174 29.2607C56.8174 29.8075 57.3112 30.2507 57.9203 30.2507Z" fill="white"/>
<path d="M57.9203 33.8427C58.5294 33.8427 59.0232 33.3994 59.0232 32.8526C59.0232 32.3058 58.5294 31.8625 57.9203 31.8625C57.3112 31.8625 56.8174 32.3058 56.8174 32.8526C56.8174 33.3994 57.3112 33.8427 57.9203 33.8427Z" fill="white"/>
<path d="M57.9203 37.4346C58.5294 37.4346 59.0232 36.9914 59.0232 36.4446C59.0232 35.8978 58.5294 35.4545 57.9203 35.4545C57.3112 35.4545 56.8174 35.8978 56.8174 36.4446C56.8174 36.9914 57.3112 37.4346 57.9203 37.4346Z" fill="white"/>
<path d="M57.9203 43.707C58.5294 43.707 59.0232 43.2638 59.0232 42.717C59.0232 42.1702 58.5294 41.7269 57.9203 41.7269C57.3112 41.7269 56.8174 42.1702 56.8174 42.717C56.8174 43.2638 57.3112 43.707 57.9203 43.707Z" fill="white"/>
<path d="M57.9203 47.299C58.5294 47.299 59.0232 46.8558 59.0232 46.309C59.0232 45.7622 58.5294 45.3189 57.9203 45.3189C57.3112 45.3189 56.8174 45.7622 56.8174 46.309C56.8174 46.8558 57.3112 47.299 57.9203 47.299Z" fill="white"/>
<path d="M57.9203 50.885C58.5294 50.885 59.0232 50.4417 59.0232 49.8949C59.0232 49.3481 58.5294 48.9048 57.9203 48.9048C57.3112 48.9048 56.8174 49.3481 56.8174 49.8949C56.8174 50.4417 57.3112 50.885 57.9203 50.885Z" fill="white"/>
<path d="M38.4045 8.81964H11.1279V30.6794H38.4045V8.81964Z" fill="white"/>
<path d="M38.4044 30.9812H11.1278C11.0386 30.9812 10.9531 30.9494 10.89 30.8928C10.8269 30.8362 10.7915 30.7594 10.7915 30.6793V8.81961C10.7915 8.73955 10.8269 8.66278 10.89 8.60617C10.9531 8.54956 11.0386 8.51776 11.1278 8.51776H38.4044C38.493 8.51931 38.5775 8.55161 38.6402 8.60788C38.7029 8.66416 38.7389 8.74004 38.7406 8.81961V30.6793C38.7406 30.7594 38.7052 30.8362 38.6421 30.8928C38.5791 30.9494 38.4935 30.9812 38.4044 30.9812ZM11.464 30.3775H38.0681V9.12145H11.464V30.3775Z" fill="#093F68"/>
<path d="M19.9378 24.1957C19.8556 24.1948 19.7767 24.1668 19.7159 24.1172L14.9478 20.3441C14.8797 20.2878 14.8387 20.2098 14.8335 20.1268C14.8326 20.0462 14.8664 19.9684 14.9277 19.9095L19.6957 15.3999C19.7269 15.3716 19.7641 15.3491 19.8051 15.3338C19.8461 15.3185 19.89 15.3106 19.9344 15.3106C19.9788 15.3106 20.0228 15.3185 20.0637 15.3338C20.1047 15.3491 20.1419 15.3716 20.1732 15.3999C20.2045 15.4274 20.2294 15.4603 20.2463 15.4966C20.2633 15.5329 20.2721 15.5718 20.2721 15.6112C20.2721 15.6505 20.2633 15.6895 20.2463 15.7258C20.2294 15.7621 20.2045 15.7949 20.1732 15.8225L15.654 20.0966L20.1597 23.6644C20.2264 23.7179 20.2673 23.7926 20.2736 23.8726C20.2799 23.9527 20.2511 24.0318 20.1933 24.0931C20.1609 24.1251 20.1215 24.1507 20.0775 24.1683C20.0335 24.186 19.986 24.1953 19.9378 24.1957Z" fill="#093F68"/>
<path d="M28.6534 24.1957C28.5838 24.1976 28.5152 24.1801 28.4572 24.1455C28.3992 24.1109 28.3545 24.0611 28.3294 24.0028C28.3043 23.9445 28.3 23.8806 28.3171 23.82C28.3342 23.7594 28.3718 23.705 28.4247 23.6644L32.9305 20.0966L28.4046 15.8164C28.3733 15.7889 28.3484 15.756 28.3314 15.7197C28.3144 15.6834 28.3057 15.6445 28.3057 15.6051C28.3057 15.5658 28.3144 15.5268 28.3314 15.4905C28.3484 15.4543 28.3733 15.4214 28.4046 15.3938C28.4686 15.3381 28.5542 15.307 28.6433 15.307C28.7324 15.307 28.8181 15.3381 28.882 15.3938L33.6501 19.9034C33.6808 19.9321 33.7045 19.9663 33.7195 20.0037C33.7346 20.0412 33.7407 20.0811 33.7375 20.1208C33.7377 20.1618 33.7282 20.2023 33.7097 20.2398C33.6911 20.2772 33.6639 20.3108 33.6299 20.3381L28.8619 24.1112C28.8055 24.1603 28.7318 24.1902 28.6534 24.1957Z" fill="#093F68"/>
<path d="M21.1953 25.3729C21.1411 25.3732 21.0878 25.3607 21.0406 25.3367C21.0014 25.3188 20.9665 25.2941 20.938 25.264C20.9096 25.2338 20.8881 25.1989 20.8749 25.1612C20.8618 25.1235 20.8572 25.0838 20.8614 25.0445C20.8656 25.0051 20.8785 24.967 20.8994 24.9322L26.8174 14.7177C26.8363 14.68 26.8636 14.6461 26.8977 14.6182C26.9318 14.5904 26.9719 14.5691 27.0155 14.5557C27.0591 14.5423 27.1053 14.5371 27.1513 14.5405C27.1972 14.5438 27.2419 14.5556 27.2826 14.5751C27.3232 14.5946 27.359 14.6214 27.3877 14.6538C27.4163 14.6862 27.4372 14.7236 27.4491 14.7636C27.461 14.8036 27.4635 14.8453 27.4567 14.8862C27.4498 14.9272 27.4337 14.9664 27.4092 15.0015L21.4912 25.2099C21.4631 25.2587 21.4207 25.2996 21.3685 25.3283C21.3164 25.3571 21.2565 25.3725 21.1953 25.3729Z" fill="#093F68"/>
<path d="M210.497 9.88214H168.318V65.6996H210.497V9.88214Z" fill="white"/>
<path d="M210.491 66.0014H168.318C168.229 66.0014 168.143 65.9696 168.08 65.913C168.017 65.8564 167.982 65.7796 167.982 65.6996V9.88211C167.982 9.80205 168.017 9.72528 168.08 9.66867C168.143 9.61206 168.229 9.58026 168.318 9.58026H210.491C210.58 9.58026 210.665 9.61206 210.728 9.66867C210.791 9.72528 210.827 9.80205 210.827 9.88211V65.6996C210.827 65.7796 210.791 65.8564 210.728 65.913C210.665 65.9696 210.58 66.0014 210.491 66.0014ZM168.654 65.3977H210.154V10.184H168.654V65.3977Z" fill="#093F68"/>
<path d="M210.491 13.8665H168.318C168.229 13.8665 168.143 13.8347 168.08 13.7781C168.017 13.7215 167.982 13.6447 167.982 13.5647C167.982 13.4846 168.017 13.4078 168.08 13.3512C168.143 13.2946 168.229 13.2628 168.318 13.2628H210.491C210.58 13.2628 210.665 13.2946 210.728 13.3512C210.791 13.4078 210.827 13.4846 210.827 13.5647C210.827 13.6447 210.791 13.7215 210.728 13.7781C210.665 13.8347 210.58 13.8665 210.491 13.8665Z" fill="#093F68"/>
<path d="M187.33 24.081H173.967C173.878 24.081 173.792 24.0492 173.729 23.9926C173.666 23.936 173.631 23.8592 173.631 23.7791V17.0661C173.631 16.986 173.666 16.9092 173.729 16.8526C173.792 16.796 173.878 16.7642 173.967 16.7642H187.33C187.419 16.7642 187.504 16.796 187.567 16.8526C187.63 16.9092 187.666 16.986 187.666 17.0661V23.7791C187.666 23.8592 187.63 23.936 187.567 23.9926C187.504 24.0492 187.419 24.081 187.33 24.081ZM174.303 23.4773H186.993V17.3679H174.303V23.4773Z" fill="#093F68"/>
<path d="M206.126 39.7347H192.763C192.674 39.7347 192.589 39.7029 192.526 39.6463C192.463 39.5897 192.427 39.5129 192.427 39.4329V32.7198C192.427 32.6398 192.463 32.563 192.526 32.5064C192.589 32.4498 192.674 32.418 192.763 32.418H206.126C206.215 32.418 206.301 32.4498 206.364 32.5064C206.427 32.563 206.462 32.6398 206.462 32.7198V39.4329C206.462 39.5129 206.427 39.5897 206.364 39.6463C206.301 39.7029 206.215 39.7347 206.126 39.7347ZM193.1 39.131H205.79V33.0217H193.1V39.131Z" fill="#093F68"/>
<path d="M187.33 43.0913H173.967C173.878 43.0913 173.792 43.0595 173.729 43.0029C173.666 42.9463 173.631 42.8695 173.631 42.7894V36.0764C173.631 35.9963 173.666 35.9196 173.729 35.8629C173.792 35.8063 173.878 35.7745 173.967 35.7745H187.33C187.418 35.7761 187.503 35.8084 187.566 35.8647C187.628 35.9209 187.664 35.9968 187.666 36.0764V42.7894C187.666 42.8695 187.63 42.9463 187.567 43.0029C187.504 43.0595 187.419 43.0913 187.33 43.0913ZM174.303 42.4876H186.993V36.3782H174.303V42.4876Z" fill="#093F68"/>
<path d="M197.37 60.7372H184.008C183.918 60.7372 183.833 60.7054 183.77 60.6488C183.707 60.5922 183.671 60.5154 183.671 60.4353V53.7343C183.671 53.6543 183.707 53.5775 183.77 53.5209C183.833 53.4643 183.918 53.4325 184.008 53.4325H197.37C197.459 53.434 197.543 53.4663 197.606 53.5226C197.669 53.5789 197.705 53.6548 197.706 53.7343V60.4474C197.703 60.5254 197.666 60.5991 197.603 60.6531C197.541 60.7071 197.457 60.7372 197.37 60.7372ZM184.344 60.1335H197.034V54.0362H184.344V60.1335Z" fill="#093F68"/>
<path d="M199.448 33.0217C199.359 33.0217 199.273 32.9899 199.21 32.9333C199.147 32.8767 199.112 32.7999 199.112 32.7198V29.2546H180.645C180.556 29.2546 180.47 29.2228 180.407 29.1662C180.344 29.1096 180.309 29.0328 180.309 28.9528V23.7791C180.309 23.6991 180.344 23.6223 180.407 23.5657C180.47 23.5091 180.556 23.4773 180.645 23.4773C180.734 23.4773 180.82 23.5091 180.883 23.5657C180.946 23.6223 180.981 23.6991 180.981 23.7791V28.6509H199.448C199.537 28.6525 199.621 28.6848 199.684 28.7411C199.746 28.7973 199.782 28.8732 199.784 28.9528V32.7198C199.784 32.7595 199.775 32.7987 199.759 32.8353C199.742 32.872 199.717 32.9052 199.686 32.9333C199.654 32.9613 199.617 32.9835 199.577 32.9987C199.536 33.0139 199.492 33.0217 199.448 33.0217Z" fill="#093F68"/>
<path d="M180.645 36.3782C180.556 36.3782 180.47 36.3464 180.407 36.2898C180.344 36.2332 180.309 36.1564 180.309 36.0764V28.9528C180.31 28.8732 180.346 28.7973 180.409 28.7411C180.472 28.6848 180.556 28.6525 180.645 28.6509C180.734 28.6509 180.82 28.6827 180.883 28.7393C180.946 28.796 180.981 28.8727 180.981 28.9528V36.0764C180.981 36.116 180.972 36.1553 180.956 36.1919C180.939 36.2285 180.914 36.2618 180.883 36.2898C180.851 36.3178 180.814 36.3401 180.774 36.3552C180.733 36.3704 180.689 36.3782 180.645 36.3782Z" fill="#093F68"/>
<path d="M191.25 53.7283C191.161 53.7283 191.075 53.6965 191.012 53.6399C190.949 53.5833 190.914 53.5065 190.914 53.4265V49.0437H180.645C180.556 49.0437 180.47 49.0119 180.407 48.9552C180.344 48.8986 180.309 48.8219 180.309 48.7418V42.7894C180.31 42.7098 180.346 42.6339 180.409 42.5777C180.472 42.5214 180.556 42.4891 180.645 42.4875C180.734 42.4875 180.82 42.5194 180.883 42.576C180.946 42.6326 180.981 42.7093 180.981 42.7894V48.44H191.25C191.339 48.44 191.425 48.4718 191.488 48.5284C191.551 48.585 191.586 48.6618 191.586 48.7418V53.4265C191.586 53.5065 191.551 53.5833 191.488 53.6399C191.425 53.6965 191.339 53.7283 191.25 53.7283Z" fill="#093F68"/>
<path d="M38.4044 12.0615H11.1278C11.0386 12.0615 10.9531 12.0297 10.89 11.973C10.8269 11.9164 10.7915 11.8397 10.7915 11.7596C10.7915 11.6796 10.8269 11.6028 10.89 11.5462C10.9531 11.4896 11.0386 11.4578 11.1278 11.4578H38.4044C38.493 11.4593 38.5775 11.4916 38.6402 11.5479C38.7029 11.6042 38.7389 11.68 38.7406 11.7596C38.7406 11.8397 38.7052 11.9164 38.6421 11.973C38.5791 12.0297 38.4935 12.0615 38.4044 12.0615Z" fill="#093F68"/>
<path d="M42.5338 43.7553H0.509277V83.0255H42.5338V43.7553Z" fill="white"/>
<path d="M42.5269 83.3274H0.509102C0.419923 83.3274 0.334396 83.2956 0.271337 83.239C0.208278 83.1824 0.172852 83.1056 0.172852 83.0255V43.7855C0.172852 43.7054 0.208278 43.6287 0.271337 43.5721C0.334396 43.5154 0.419923 43.4836 0.509102 43.4836H42.5269C42.6161 43.4836 42.7016 43.5154 42.7647 43.5721C42.8277 43.6287 42.8632 43.7054 42.8632 43.7855V83.0255C42.8632 83.1056 42.8277 83.1824 42.7647 83.239C42.7016 83.2956 42.6161 83.3274 42.5269 83.3274ZM0.831901 82.7237H42.1772V44.0873H0.845352L0.831901 82.7237Z" fill="#093F68"/>
<path d="M42.5269 47.9389H0.509102C0.419923 47.9389 0.334396 47.9071 0.271337 47.8505C0.208278 47.7939 0.172852 47.7171 0.172852 47.6371C0.172852 47.557 0.208278 47.4802 0.271337 47.4236C0.334396 47.367 0.419923 47.3352 0.509102 47.3352H42.5269C42.6161 47.3352 42.7016 47.367 42.7647 47.4236C42.8277 47.4802 42.8632 47.557 42.8632 47.6371C42.8632 47.7171 42.8277 47.7939 42.7647 47.8505C42.7016 47.9071 42.6161 47.9389 42.5269 47.9389Z" fill="#093F68"/>
<path d="M9.33244 51.0781H4.18781C4.09863 51.0781 4.01311 51.0463 3.95005 50.9897C3.88699 50.9331 3.85156 50.8563 3.85156 50.7763C3.85156 50.6962 3.88699 50.6194 3.95005 50.5628C4.01311 50.5062 4.09863 50.4744 4.18781 50.4744H9.33244C9.42162 50.4744 9.50714 50.5062 9.5702 50.5628C9.63326 50.6194 9.66869 50.6962 9.66869 50.7763C9.66869 50.8563 9.63326 50.9331 9.5702 50.9897C9.50714 51.0463 9.42162 51.0781 9.33244 51.0781Z" fill="#093F68"/>
<path d="M22.2645 51.0781H12.0223C11.9331 51.0781 11.8476 51.0463 11.7845 50.9897C11.7215 50.9331 11.686 50.8563 11.686 50.7763C11.6878 50.6967 11.7237 50.6208 11.7864 50.5645C11.8491 50.5083 11.9336 50.476 12.0223 50.4744H22.2645C22.3536 50.4744 22.4392 50.5062 22.5022 50.5628C22.5653 50.6194 22.6007 50.6962 22.6007 50.7763C22.6007 50.8563 22.5653 50.9331 22.5022 50.9897C22.4392 51.0463 22.3536 51.0781 22.2645 51.0781Z" fill="#093F68"/>
<path d="M25.3514 54.5735H15.1092C15.02 54.5735 14.9345 54.5417 14.8714 54.4851C14.8084 54.4285 14.7729 54.3517 14.7729 54.2716C14.7729 54.1916 14.8084 54.1148 14.8714 54.0582C14.9345 54.0016 15.02 53.9698 15.1092 53.9698H25.3514C25.4406 53.9698 25.5261 54.0016 25.5891 54.0582C25.6522 54.1148 25.6876 54.1916 25.6876 54.2716C25.6876 54.3517 25.6522 54.4285 25.5891 54.4851C25.5261 54.5417 25.4406 54.5735 25.3514 54.5735Z" fill="#093F68"/>
<path d="M10.5293 54.5735H5.39143C5.30225 54.5735 5.21672 54.5417 5.15366 54.4851C5.0906 54.4285 5.05518 54.3517 5.05518 54.2716C5.0569 54.1921 5.09288 54.1162 5.15557 54.0599C5.21826 54.0036 5.30279 53.9713 5.39143 53.9698H10.5293C10.618 53.9713 10.7025 54.0036 10.7652 54.0599C10.8279 54.1162 10.8639 54.1921 10.8656 54.2716C10.8656 54.3517 10.8301 54.4285 10.7671 54.4851C10.704 54.5417 10.6185 54.5735 10.5293 54.5735Z" fill="#093F68"/>
<path d="M10.7242 58.0689H6.59504C6.50586 58.0689 6.42033 58.0371 6.35727 57.9805C6.29422 57.9239 6.25879 57.8471 6.25879 57.7671C6.26051 57.6875 6.29649 57.6116 6.35918 57.5553C6.42187 57.4991 6.5064 57.4668 6.59504 57.4652H10.7242C10.8128 57.4668 10.8974 57.4991 10.96 57.5553C11.0227 57.6116 11.0587 57.6875 11.0604 57.7671C11.0604 57.8471 11.025 57.9239 10.962 57.9805C10.8989 58.0371 10.8134 58.0689 10.7242 58.0689Z" fill="#093F68"/>
<path d="M27.1805 58.0689H14.3626C14.2734 58.0689 14.1879 58.0371 14.1249 57.9805C14.0618 57.9239 14.0264 57.8471 14.0264 57.7671C14.0264 57.687 14.0618 57.6102 14.1249 57.5536C14.1879 57.497 14.2734 57.4652 14.3626 57.4652H27.1805C27.2696 57.4652 27.3552 57.497 27.4182 57.5536C27.4813 57.6102 27.5167 57.687 27.5167 57.7671C27.5167 57.8471 27.4813 57.9239 27.4182 57.9805C27.3552 58.0371 27.2696 58.0689 27.1805 58.0689Z" fill="#093F68"/>
<path d="M12.9367 61.5643H7.80549C7.71631 61.5643 7.63078 61.5325 7.56772 61.4759C7.50466 61.4193 7.46924 61.3425 7.46924 61.2624C7.46924 61.1824 7.50466 61.1056 7.56772 61.049C7.63078 60.9924 7.71631 60.9606 7.80549 60.9606H12.9367C13.0258 60.9606 13.1114 60.9924 13.1744 61.049C13.2375 61.1056 13.2729 61.1824 13.2729 61.2624C13.2729 61.3425 13.2375 61.4193 13.1744 61.4759C13.1114 61.5325 13.0258 61.5643 12.9367 61.5643Z" fill="#093F68"/>
<path d="M29.8367 61.5643H14.5911C14.502 61.5643 14.4164 61.5325 14.3534 61.4759C14.2903 61.4193 14.2549 61.3425 14.2549 61.2624C14.2549 61.1824 14.2903 61.1056 14.3534 61.049C14.4164 60.9924 14.502 60.9606 14.5911 60.9606H29.8367C29.9253 60.9621 30.0099 60.9944 30.0726 61.0507C30.1353 61.107 30.1712 61.1828 30.173 61.2624C30.173 61.3425 30.1375 61.4193 30.0745 61.4759C30.0114 61.5325 29.9259 61.5643 29.8367 61.5643Z" fill="#093F68"/>
<path d="M11.5719 65.0596H6.44074C6.35156 65.0596 6.26604 65.0278 6.20298 64.9712C6.13992 64.9146 6.10449 64.8378 6.10449 64.7578C6.10449 64.6777 6.13992 64.6009 6.20298 64.5443C6.26604 64.4877 6.35156 64.4559 6.44074 64.4559H11.5719C11.6611 64.4559 11.7466 64.4877 11.8097 64.5443C11.8727 64.6009 11.9082 64.6777 11.9082 64.7578C11.9082 64.8378 11.8727 64.9146 11.8097 64.9712C11.7466 65.0278 11.6611 65.0596 11.5719 65.0596Z" fill="#093F68"/>
<path d="M21.8073 65.0596H13.5423C13.4531 65.0596 13.3676 65.0278 13.3045 64.9712C13.2415 64.9146 13.2061 64.8378 13.2061 64.7578C13.2061 64.6777 13.2415 64.6009 13.3045 64.5443C13.3676 64.4877 13.4531 64.4559 13.5423 64.4559H21.8073C21.8965 64.4559 21.982 64.4877 22.0451 64.5443C22.1082 64.6009 22.1436 64.6777 22.1436 64.7578C22.1436 64.8378 22.1082 64.9146 22.0451 64.9712C21.982 65.0278 21.8965 65.0596 21.8073 65.0596Z" fill="#093F68"/>
<path d="M33.2331 65.0596H24.9681C24.8789 65.0596 24.7934 65.0278 24.7303 64.9712C24.6673 64.9146 24.6318 64.8378 24.6318 64.7578C24.6318 64.6777 24.6673 64.6009 24.7303 64.5443C24.7934 64.4877 24.8789 64.4559 24.9681 64.4559H33.2331C33.3223 64.4559 33.4078 64.4877 33.4709 64.5443C33.5339 64.6009 33.5694 64.6777 33.5694 64.7578C33.5694 64.8378 33.5339 64.9146 33.4709 64.9712C33.4078 65.0278 33.3223 65.0596 33.2331 65.0596Z" fill="#093F68"/>
<path d="M8.20942 68.5852H6.44074C6.35156 68.5852 6.26604 68.5534 6.20298 68.4968C6.13992 68.4402 6.10449 68.3634 6.10449 68.2834C6.10449 68.2033 6.13992 68.1265 6.20298 68.0699C6.26604 68.0133 6.35156 67.9815 6.44074 67.9815H8.20942C8.2986 67.9815 8.38412 68.0133 8.44718 68.0699C8.51024 68.1265 8.54567 68.2033 8.54567 68.2834C8.54567 68.3634 8.51024 68.4402 8.44718 68.4968C8.38412 68.5534 8.2986 68.5852 8.20942 68.5852Z" fill="#093F68"/>
<path d="M21.8071 68.5852H11.222C11.1328 68.5852 11.0473 68.5534 10.9842 68.4968C10.9212 68.4402 10.8857 68.3634 10.8857 68.2834C10.8875 68.2038 10.9234 68.1279 10.9861 68.0716C11.0488 68.0153 11.1334 67.9831 11.222 67.9815H21.8071C21.8963 67.9815 21.9818 68.0133 22.0449 68.0699C22.108 68.1265 22.1434 68.2033 22.1434 68.2834C22.1434 68.3634 22.108 68.4402 22.0449 68.4968C21.9818 68.5534 21.8963 68.5852 21.8071 68.5852Z" fill="#093F68"/>
<path d="M25.9765 68.5852H23.0242C22.9351 68.5852 22.8495 68.5534 22.7865 68.4968C22.7234 68.4402 22.688 68.3634 22.688 68.2834C22.688 68.2033 22.7234 68.1265 22.7865 68.0699C22.8495 68.0133 22.9351 67.9815 23.0242 67.9815H25.9765C26.0657 67.9815 26.1512 68.0133 26.2143 68.0699C26.2773 68.1265 26.3128 68.2033 26.3128 68.2834C26.3128 68.3634 26.2773 68.4402 26.2143 68.4968C26.1512 68.5534 26.0657 68.5852 25.9765 68.5852Z" fill="#093F68"/>
<path d="M9.21817 72.0504H6.44074C6.35156 72.0504 6.26604 72.0186 6.20298 71.962C6.13992 71.9054 6.10449 71.8286 6.10449 71.7486C6.10449 71.6685 6.13992 71.5917 6.20298 71.5351C6.26604 71.4785 6.35156 71.4467 6.44074 71.4467H9.21817C9.30735 71.4467 9.39287 71.4785 9.45593 71.5351C9.51899 71.5917 9.55442 71.6685 9.55442 71.7486C9.55442 71.8286 9.51899 71.9054 9.45593 71.962C9.39287 72.0186 9.30735 72.0504 9.21817 72.0504Z" fill="#093F68"/>
<path d="M24.3961 72.0504H11.8338C11.7446 72.0504 11.6591 72.0186 11.596 71.962C11.533 71.9054 11.4976 71.8286 11.4976 71.7486C11.4993 71.669 11.5353 71.5931 11.5979 71.5368C11.6606 71.4806 11.7452 71.4483 11.8338 71.4467H24.3961C24.4853 71.4467 24.5708 71.4785 24.6339 71.5351C24.6969 71.5917 24.7324 71.6685 24.7324 71.7486C24.7324 71.8286 24.6969 71.9054 24.6339 71.962C24.5708 72.0186 24.4853 72.0504 24.3961 72.0504Z" fill="#093F68"/>
<path d="M30.7716 72.0504H25.6404C25.5513 72.0504 25.4657 72.0186 25.4027 71.962C25.3396 71.9054 25.3042 71.8286 25.3042 71.7486C25.3042 71.6685 25.3396 71.5917 25.4027 71.5351C25.4657 71.4785 25.5513 71.4467 25.6404 71.4467H30.7716C30.8608 71.4467 30.9463 71.4785 31.0094 71.5351C31.0724 71.5917 31.1079 71.6685 31.1079 71.7486C31.1079 71.8286 31.0724 71.9054 31.0094 71.962C30.9463 72.0186 30.8608 72.0504 30.7716 72.0504Z" fill="#093F68"/>
<path d="M7.98717 75.5458H5.23664C5.14746 75.5458 5.06193 75.514 4.99888 75.4574C4.93582 75.4008 4.90039 75.324 4.90039 75.2439C4.90039 75.1639 4.93582 75.0871 4.99888 75.0305C5.06193 74.9739 5.14746 74.9421 5.23664 74.9421H7.98717C8.07581 74.9436 8.16033 74.9759 8.22302 75.0322C8.28571 75.0885 8.32169 75.1644 8.32342 75.2439C8.32342 75.324 8.28799 75.4008 8.22493 75.4574C8.16187 75.514 8.07634 75.5458 7.98717 75.5458Z" fill="#093F68"/>
<path d="M23.0243 75.5458H11.1278C11.0386 75.5458 10.9531 75.514 10.89 75.4574C10.8269 75.4008 10.7915 75.324 10.7915 75.2439C10.7932 75.1644 10.8292 75.0885 10.8919 75.0322C10.9546 74.9759 11.0391 74.9436 11.1278 74.9421H23.0243C23.1135 74.9421 23.199 74.9739 23.262 75.0305C23.3251 75.0871 23.3605 75.1639 23.3605 75.2439C23.3605 75.324 23.3251 75.4008 23.262 75.4574C23.199 75.514 23.1135 75.5458 23.0243 75.5458Z" fill="#093F68"/>
<path d="M10.3678 79.0412H5.23664C5.14746 79.0412 5.06193 79.0094 4.99888 78.9528C4.93582 78.8962 4.90039 78.8194 4.90039 78.7393C4.90039 78.6593 4.93582 78.5825 4.99888 78.5259C5.06193 78.4693 5.14746 78.4375 5.23664 78.4375H10.3678C10.457 78.4375 10.5425 78.4693 10.6056 78.5259C10.6686 78.5825 10.7041 78.6593 10.7041 78.7393C10.7041 78.8194 10.6686 78.8962 10.6056 78.9528C10.5425 79.0094 10.457 79.0412 10.3678 79.0412Z" fill="#093F68"/>
<path d="M38.8482 61.5643H31.908C31.8188 61.5643 31.7333 61.5325 31.6703 61.4759C31.6072 61.4193 31.5718 61.3425 31.5718 61.2624C31.5718 61.1824 31.6072 61.1056 31.6703 61.049C31.7333 60.9924 31.8188 60.9606 31.908 60.9606H38.8482C38.9374 60.9606 39.0229 60.9924 39.086 61.049C39.1491 61.1056 39.1845 61.1824 39.1845 61.2624C39.1845 61.3425 39.1491 61.4193 39.086 61.4759C39.0229 61.5325 38.9374 61.5643 38.8482 61.5643Z" fill="#093F68"/>
<path d="M28.4584 51.0781C24.9816 51.0781 24.9076 51.0781 24.8673 51.0781C24.7829 51.0544 24.7123 51.0019 24.6708 50.9318C24.6292 50.8618 24.6201 50.7799 24.6453 50.7038C24.6674 50.634 24.7173 50.5739 24.7855 50.535C24.8537 50.496 24.9354 50.4809 25.0152 50.4925C25.4254 50.4925 32.1437 50.4925 36.5822 50.4925C36.6714 50.4925 36.7569 50.5243 36.82 50.5809C36.883 50.6376 36.9185 50.7143 36.9185 50.7944C36.9185 50.8744 36.883 50.9512 36.82 51.0078C36.7569 51.0644 36.6714 51.0962 36.5822 51.0962C32.7557 51.0781 30.18 51.0781 28.4584 51.0781Z" fill="#093F68"/>
<path d="M29.5947 75.5458H24.3963C24.3071 75.5458 24.2216 75.514 24.1585 75.4574C24.0955 75.4008 24.0601 75.324 24.0601 75.2439C24.0618 75.1644 24.0978 75.0885 24.1604 75.0322C24.2231 74.9759 24.3077 74.9436 24.3963 74.9421H29.5947C29.6834 74.9436 29.7679 74.9759 29.8306 75.0322C29.8933 75.0885 29.9293 75.1644 29.931 75.2439C29.931 75.324 29.8956 75.4008 29.8325 75.4574C29.7694 75.514 29.6839 75.5458 29.5947 75.5458Z" fill="#093F68"/>
<path d="M17.6779 79.0412H13.8514C13.7622 79.0412 13.6767 79.0094 13.6136 78.9528C13.5506 78.8962 13.5151 78.8194 13.5151 78.7393C13.5169 78.6598 13.5528 78.5839 13.6155 78.5276C13.6782 78.4713 13.7627 78.439 13.8514 78.4375H17.6779C17.7666 78.439 17.8511 78.4713 17.9138 78.5276C17.9765 78.5839 18.0124 78.6598 18.0142 78.7393C18.0142 78.8194 17.9787 78.8962 17.9157 78.9528C17.8526 79.0094 17.7671 79.0412 17.6779 79.0412Z" fill="#093F68"/>
<path d="M28.2093 79.0412H19.1238C19.0347 79.0412 18.9491 79.0094 18.8861 78.9528C18.823 78.8962 18.7876 78.8194 18.7876 78.7393C18.7893 78.6598 18.8253 78.5839 18.888 78.5276C18.9507 78.4713 19.0352 78.439 19.1238 78.4375H28.2093C28.298 78.439 28.3825 78.4713 28.4452 78.5276C28.5079 78.5839 28.5439 78.6598 28.5456 78.7393C28.5456 78.8194 28.5101 78.8962 28.4471 78.9528C28.384 79.0094 28.2985 79.0412 28.2093 79.0412Z" fill="#093F68"/>
<path d="M187.666 103.062C197.033 103.062 204.626 96.2456 204.626 87.8369C204.626 79.4283 197.033 72.6118 187.666 72.6118C178.299 72.6118 170.706 79.4283 170.706 87.8369C170.706 96.2456 178.299 103.062 187.666 103.062Z" fill="white"/>
<path d="M187.666 103.364C184.245 103.364 180.901 102.453 178.056 100.747C175.212 99.0411 172.995 96.6161 171.686 93.7789C170.377 90.9417 170.034 87.8198 170.701 84.8078C171.369 81.7959 173.016 79.0292 175.435 76.8578C177.854 74.6863 180.936 73.2075 184.291 72.6083C187.647 72.0092 191.124 72.3167 194.285 73.4919C197.446 74.6671 200.147 76.6573 202.048 79.2107C203.948 81.7641 204.963 84.766 204.963 87.837C204.957 91.9535 203.133 95.9001 199.891 98.8109C196.648 101.722 192.252 103.359 187.666 103.364ZM187.666 72.9197C184.378 72.9197 181.163 73.7951 178.429 75.4352C175.695 77.0752 173.564 79.4063 172.306 82.1335C171.048 84.8608 170.72 87.8616 171.362 90.7566C172.004 93.6516 173.588 96.3107 175.913 98.3975C178.239 100.484 181.202 101.905 184.427 102.48C187.652 103.055 190.995 102.759 194.032 101.629C197.07 100.498 199.666 98.5845 201.492 96.1296C203.318 93.6746 204.291 90.7888 204.29 87.837C204.285 83.8811 202.531 80.0887 199.415 77.2921C196.298 74.4954 192.073 72.9229 187.666 72.9197Z" fill="#093F68"/>
<path d="M195.116 98.9563L195.122 98.9533C195.919 98.5384 196.19 97.6222 195.728 96.907L193.682 93.7426C193.22 93.0274 192.2 92.784 191.403 93.1989L191.397 93.2019C190.6 93.6168 190.329 94.533 190.791 95.2482L192.836 98.4126C193.299 99.1278 194.319 99.3713 195.116 98.9563Z" fill="white"/>
<path d="M194.27 99.4641C194.095 99.4652 193.921 99.4449 193.752 99.4037C193.497 99.3438 193.258 99.2386 193.049 99.0945C192.84 98.9504 192.665 98.7703 192.535 98.5646L190.517 95.4073C190.252 94.9936 190.18 94.5029 190.316 94.0417C190.452 93.5805 190.785 93.1862 191.243 92.9442C191.704 92.7066 192.251 92.6418 192.765 92.7639C193.278 92.8859 193.718 93.185 193.987 93.5962L196.005 96.7596C196.269 97.174 196.34 97.6652 196.203 98.1265C196.066 98.5878 195.731 98.9817 195.272 99.2226C194.967 99.3802 194.621 99.4634 194.27 99.4641ZM192.252 93.3366C192.017 93.3368 191.785 93.3908 191.58 93.4936C191.274 93.6549 191.052 93.9178 190.962 94.2253C190.871 94.5327 190.919 94.8599 191.095 95.1356L193.113 98.293C193.312 98.5278 193.599 98.6893 193.921 98.7469C194.243 98.8046 194.578 98.7544 194.862 98.6058C195.145 98.4573 195.359 98.2207 195.462 97.9406C195.564 97.6606 195.549 97.3564 195.42 97.0856L193.402 93.9282C193.226 93.6532 192.936 93.4515 192.595 93.3668C192.483 93.345 192.367 93.3349 192.252 93.3366Z" fill="#093F68"/>
<path d="M187.666 96.9829C193.545 96.9829 198.311 92.7043 198.311 87.4265C198.311 82.1486 193.545 77.87 187.666 77.87C181.786 77.87 177.02 82.1486 177.02 87.4265C177.02 92.7043 181.786 96.9829 187.666 96.9829Z" fill="white"/>
<path d="M187.686 97.2908C186.73 97.2907 185.778 97.1791 184.855 96.9588C183.458 96.6295 182.149 96.0551 181.001 95.2686C179.854 94.4821 178.892 93.4992 178.17 92.3768C176.958 90.4994 176.469 88.3153 176.78 86.1633C177.092 84.0113 178.185 82.0116 179.891 80.4744C181.598 78.9371 183.821 77.9482 186.217 77.661C188.614 77.3737 191.048 77.8043 193.144 78.8858C195.24 79.9673 196.88 81.6394 197.809 83.6427C198.738 85.646 198.905 87.8685 198.284 89.9657C197.663 92.0629 196.288 93.9175 194.373 95.2419C192.458 96.5663 190.11 97.2865 187.693 97.2908H187.686ZM187.686 78.1779C185.877 78.1796 184.1 78.6088 182.535 79.4223C180.969 80.2359 179.67 81.4051 178.768 82.8124C177.865 84.2197 177.391 85.8155 177.394 87.4393C177.396 89.0632 177.875 90.6578 178.782 92.0628C179.688 93.47 180.99 94.6382 182.559 95.45C184.127 96.2618 185.906 96.6884 187.717 96.6871C189.527 96.6858 191.305 96.2564 192.872 95.4424C194.439 94.6283 195.74 93.4581 196.643 92.0496C197.546 90.6411 198.02 89.0439 198.018 87.4186C198.015 85.7934 197.536 84.1975 196.628 82.7914C195.72 81.3853 194.415 80.2187 192.846 79.4088C191.276 78.5989 189.496 78.1744 187.686 78.1779Z" fill="#093F68"/>
<path d="M187.666 95.2684C192.491 95.2684 196.402 91.7574 196.402 87.4264C196.402 83.0954 192.491 79.5845 187.666 79.5845C182.841 79.5845 178.93 83.0954 178.93 87.4264C178.93 91.7574 182.841 95.2684 187.666 95.2684Z" fill="#093F68"/>
</svg>
