<svg width="242" height="175" viewBox="0 0 242 175" fill="none" xmlns="http://www.w3.org/2000/svg">
<path d="M220.917 160.715C221.196 159.766 221.339 158.782 221.343 157.792C221.343 149.449 211.193 142.689 198.627 142.689C186.062 142.689 175.911 149.449 175.911 157.792C175.914 158.782 176.061 159.767 176.348 160.715H220.917Z" fill="#E2F6F6"/>
<path d="M220.917 161.73H176.348C176.121 161.739 175.898 161.672 175.715 161.54C175.531 161.407 175.396 161.217 175.333 160.999C175.021 159.958 174.861 158.878 174.856 157.792C174.856 148.901 185.503 141.674 198.587 141.674C211.67 141.674 222.317 148.901 222.317 157.792C222.317 158.879 222.157 159.96 221.84 160.999C221.781 161.202 221.661 161.381 221.495 161.512C221.33 161.643 221.127 161.719 220.917 161.73ZM177.13 159.7H220.125C220.257 159.073 220.325 158.433 220.328 157.792C220.328 150.017 210.594 143.704 198.627 143.704C186.66 143.704 176.927 150.017 176.927 157.792C176.929 158.433 176.997 159.073 177.13 159.7Z" fill="#093F68"/>
<path d="M198.627 152.717C198.358 152.717 198.1 152.61 197.909 152.42C197.719 152.229 197.612 151.971 197.612 151.702V142.689C197.612 142.42 197.719 142.161 197.909 141.971C198.1 141.781 198.358 141.674 198.627 141.674C198.896 141.674 199.155 141.781 199.345 141.971C199.535 142.161 199.642 142.42 199.642 142.689V151.702C199.642 151.971 199.535 152.229 199.345 152.42C199.155 152.61 198.896 152.717 198.627 152.717Z" fill="#093F68"/>
<path d="M235.015 160.715H6.98504C3.75056 160.715 1.12849 163.337 1.12849 166.572V167.526C1.12849 170.76 3.75056 173.382 6.98504 173.382H235.015C238.249 173.382 240.872 170.76 240.872 167.526V166.572C240.872 163.337 238.249 160.715 235.015 160.715Z" fill="#093F68"/>
<path d="M235.015 174.397H6.98504C5.16342 174.395 3.41718 173.67 2.12909 172.382C0.841007 171.094 0.11618 169.347 0.113495 167.526V166.572C0.11618 164.75 0.841007 163.004 2.12909 161.716C3.41718 160.428 5.16342 159.703 6.98504 159.7H235.015C236.837 159.703 238.583 160.428 239.871 161.716C241.159 163.004 241.884 164.75 241.887 166.572V167.526C241.884 169.347 241.159 171.094 239.871 172.382C238.583 173.67 236.837 174.395 235.015 174.397ZM6.98504 161.73C5.70181 161.733 4.4719 162.244 3.56451 163.151C2.65713 164.058 2.14618 165.288 2.14349 166.572V167.526C2.14618 168.809 2.65713 170.039 3.56451 170.946C4.4719 171.854 5.70181 172.365 6.98504 172.367H235.015C236.298 172.365 237.528 171.854 238.435 170.946C239.343 170.039 239.854 168.809 239.857 167.526V166.572C239.854 165.288 239.343 164.058 238.435 163.151C237.528 162.244 236.298 161.733 235.015 161.73H6.98504Z" fill="#093F68"/>
<path d="M193.369 9.15527H48.6305C43.0304 9.15527 38.4906 13.695 38.4906 19.2951V123.749C38.4906 129.349 43.0304 133.889 48.6305 133.889H193.369C198.97 133.889 203.509 129.349 203.509 123.749V19.2951C203.509 13.695 198.97 9.15527 193.369 9.15527Z" fill="#E2F6F6"/>
<path d="M193.369 134.904H48.6305C45.6693 134.904 42.8295 133.727 40.7356 131.633C38.6418 129.54 37.4655 126.7 37.4655 123.739V19.2951C37.4655 16.334 38.6418 13.4941 40.7356 11.4003C42.8295 9.30644 45.6693 8.13013 48.6305 8.13013H193.369C196.331 8.13013 199.171 9.30644 201.264 11.4003C203.358 13.4941 204.534 16.334 204.534 19.2951V123.739C204.534 126.7 203.358 129.54 201.264 131.633C199.171 133.727 196.331 134.904 193.369 134.904ZM48.6305 10.1703C46.2077 10.1703 43.8842 11.1327 42.1711 12.8459C40.4579 14.559 39.4955 16.8825 39.4955 19.3053V123.739C39.4955 126.161 40.4579 128.485 42.1711 130.198C43.8842 131.911 46.2077 132.874 48.6305 132.874H193.369C195.792 132.874 198.116 131.911 199.829 130.198C201.542 128.485 202.504 126.161 202.504 123.739V19.2951C202.504 16.8724 201.542 14.5489 199.829 12.8357C198.116 11.1226 195.792 10.1601 193.369 10.1601L48.6305 10.1703Z" fill="#093F68"/>
<path d="M150.252 160.715H91.7477L97.858 133.889H144.142L150.252 160.715Z" fill="#E2F6F6"/>
<path d="M150.252 161.73H91.7477C91.5952 161.729 91.4449 161.694 91.3078 161.628C91.1708 161.561 91.0505 161.464 90.956 161.344C90.8623 161.226 90.7965 161.087 90.7631 160.94C90.7297 160.792 90.7297 160.639 90.7631 160.492L96.8531 133.665C96.9047 133.436 97.034 133.232 97.2191 133.088C97.4041 132.944 97.6335 132.868 97.8681 132.874H144.152C144.387 132.868 144.616 132.944 144.801 133.088C144.986 133.232 145.116 133.436 145.167 133.665L151.257 160.492C151.291 160.639 151.291 160.792 151.257 160.94C151.224 161.087 151.158 161.226 151.064 161.344C150.968 161.467 150.844 161.565 150.703 161.632C150.562 161.699 150.408 161.732 150.252 161.73ZM93.0266 159.7H148.973L143.33 134.904H98.67L93.0266 159.7Z" fill="#093F68"/>
<path d="M192.253 19.549H49.7368V112.127H192.253V19.549Z" fill="white"/>
<path d="M192.263 113.142H49.7368C49.4676 113.142 49.2095 113.035 49.0191 112.845C48.8288 112.654 48.7218 112.396 48.7218 112.127V19.5489C48.7218 19.2797 48.8288 19.0216 49.0191 18.8312C49.2095 18.6409 49.4676 18.5339 49.7368 18.5339H192.263C192.532 18.5339 192.791 18.6409 192.981 18.8312C193.171 19.0216 193.278 19.2797 193.278 19.5489V112.127C193.278 112.396 193.171 112.654 192.981 112.845C192.791 113.035 192.532 113.142 192.263 113.142ZM50.7518 111.112H191.248V20.5639H50.7518V111.112Z" fill="#093F68"/>
<path d="M91.7477 19.549H49.7368V112.127H91.7477V19.549Z" fill="white"/>
<path d="M91.7477 113.142H49.7368C49.4676 113.142 49.2095 113.035 49.0191 112.845C48.8288 112.654 48.7218 112.396 48.7218 112.127V19.5489C48.7218 19.2797 48.8288 19.0216 49.0191 18.8312C49.2095 18.6409 49.4676 18.5339 49.7368 18.5339H91.7477C92.0169 18.5339 92.275 18.6409 92.4654 18.8312C92.6557 19.0216 92.7627 19.2797 92.7627 19.5489V112.127C92.7627 112.396 92.6557 112.654 92.4654 112.845C92.275 113.035 92.0169 113.142 91.7477 113.142ZM50.7518 111.112H90.7327V20.5639H50.7518V111.112Z" fill="#093F68"/>
<path d="M192.253 19.549H91.7477V112.127H192.253V19.549Z" fill="#093F68"/>
<path d="M192.263 113.142H91.7781C91.509 113.142 91.2508 113.035 91.0604 112.845C90.8701 112.654 90.7631 112.396 90.7631 112.127V19.5489C90.7631 19.2797 90.8701 19.0216 91.0604 18.8312C91.2508 18.6409 91.509 18.5339 91.7781 18.5339H192.263C192.532 18.5339 192.791 18.6409 192.981 18.8312C193.171 19.0216 193.278 19.2797 193.278 19.5489V112.127C193.278 112.396 193.171 112.654 192.981 112.845C192.791 113.035 192.532 113.142 192.263 113.142ZM92.7931 111.112H191.248V20.5639H92.7931V111.112Z" fill="#093F68"/>
<path d="M79.1008 32.2769H62.0488C61.7796 32.2769 61.5214 32.17 61.3311 31.9797C61.1407 31.7893 61.0338 31.5311 61.0338 31.2619C61.0338 30.9928 61.1407 30.7346 61.3311 30.5442C61.5214 30.3539 61.7796 30.2469 62.0488 30.2469H79.1008C79.37 30.2469 79.6282 30.3539 79.8185 30.5442C80.0089 30.7346 80.1158 30.9928 80.1158 31.2619C80.1158 31.5311 80.0089 31.7893 79.8185 31.9797C79.6282 32.17 79.37 32.2769 79.1008 32.2769Z" fill="#093F68"/>
<path d="M82.024 42.2646H67.6516C67.3824 42.2646 67.1242 42.1577 66.9339 41.9673C66.7435 41.777 66.6366 41.5188 66.6366 41.2496C66.6366 40.9804 66.7435 40.7223 66.9339 40.5319C67.1242 40.3416 67.3824 40.2346 67.6516 40.2346H82.024C82.2932 40.2346 82.5514 40.3416 82.7417 40.5319C82.9321 40.7223 83.039 40.9804 83.039 41.2496C83.039 41.5188 82.9321 41.777 82.7417 41.9673C82.5514 42.1577 82.2932 42.2646 82.024 42.2646Z" fill="#093F68"/>
<path d="M83.9728 52.2522H72.0364C71.7672 52.2522 71.509 52.1452 71.3187 51.9549C71.1283 51.7645 71.0214 51.5064 71.0214 51.2372C71.0214 50.968 71.1283 50.7098 71.3187 50.5195C71.509 50.3291 71.7672 50.2222 72.0364 50.2222H83.9728C84.242 50.2222 84.5002 50.3291 84.6905 50.5195C84.8809 50.7098 84.9878 50.968 84.9878 51.2372C84.9878 51.5064 84.8809 51.7645 84.6905 51.9549C84.5002 52.1452 84.242 52.2522 83.9728 52.2522Z" fill="#093F68"/>
<path d="M80.0752 62.2398H64.972C64.7028 62.2398 64.4446 62.1329 64.2543 61.9425C64.0639 61.7522 63.957 61.494 63.957 61.2248C63.957 60.9556 64.0639 60.6975 64.2543 60.5071C64.4446 60.3168 64.7028 60.2098 64.972 60.2098H80.0752C80.3444 60.2098 80.6026 60.3168 80.7929 60.5071C80.9833 60.6975 81.0902 60.9556 81.0902 61.2248C81.0902 61.494 80.9833 61.7522 80.7929 61.9425C80.6026 62.1329 80.3444 62.2398 80.0752 62.2398Z" fill="#093F68"/>
<path d="M76.0152 72.2274H62.0488C61.7796 72.2274 61.5214 72.1205 61.3311 71.9301C61.1407 71.7398 61.0338 71.4816 61.0338 71.2124C61.0338 70.9432 61.1407 70.685 61.3311 70.4947C61.5214 70.3043 61.7796 70.1974 62.0488 70.1974H76.0152C76.2844 70.1974 76.5425 70.3043 76.7329 70.4947C76.9232 70.685 77.0302 70.9432 77.0302 71.2124C77.0302 71.4816 76.9232 71.7398 76.7329 71.9301C76.5425 72.1205 76.2844 72.2274 76.0152 72.2274Z" fill="#093F68"/>
<path d="M79.1008 82.2151H66.7584C66.4892 82.2151 66.231 82.1081 66.0407 81.9178C65.8503 81.7274 65.7434 81.4693 65.7434 81.2001C65.7434 80.9309 65.8503 80.6727 66.0407 80.4823C66.231 80.292 66.4892 80.1851 66.7584 80.1851H79.1008C79.37 80.1851 79.6282 80.292 79.8185 80.4823C80.0089 80.6727 80.1158 80.9309 80.1158 81.2001C80.1158 81.4693 80.0089 81.7274 79.8185 81.9178C79.6282 82.1081 79.37 82.2151 79.1008 82.2151Z" fill="#093F68"/>
<path d="M74.8378 92.2026H62.0488C61.7796 92.2026 61.5214 92.0957 61.3311 91.9053C61.1407 91.715 61.0338 91.4568 61.0338 91.1876C61.0338 90.9184 61.1407 90.6603 61.3311 90.4699C61.5214 90.2796 61.7796 90.1726 62.0488 90.1726H74.8378C75.107 90.1726 75.3652 90.2796 75.5555 90.4699C75.7459 90.6603 75.8528 90.9184 75.8528 91.1876C75.8528 91.4568 75.7459 91.715 75.5555 91.9053C75.3652 92.0957 75.107 92.2026 74.8378 92.2026Z" fill="#093F68"/>
<path d="M79.1008 102.19H66.7584C66.4892 102.19 66.231 102.083 66.0407 101.893C65.8503 101.703 65.7434 101.444 65.7434 101.175C65.7434 100.906 65.8503 100.648 66.0407 100.457C66.231 100.267 66.4892 100.16 66.7584 100.16H79.1008C79.37 100.16 79.6282 100.267 79.8185 100.457C80.0089 100.648 80.1158 100.906 80.1158 101.175C80.1158 101.444 80.0089 101.703 79.8185 101.893C79.6282 102.083 79.37 102.19 79.1008 102.19Z" fill="#093F68"/>
<path d="M122.015 32.2769H104.963C104.694 32.2769 104.436 32.17 104.245 31.9797C104.055 31.7893 103.948 31.5311 103.948 31.2619C103.948 30.9928 104.055 30.7346 104.245 30.5442C104.436 30.3539 104.694 30.2469 104.963 30.2469H122.015C122.284 30.2469 122.542 30.3539 122.733 30.5442C122.923 30.7346 123.03 30.9928 123.03 31.2619C123.03 31.5311 122.923 31.7893 122.733 31.9797C122.542 32.17 122.284 32.2769 122.015 32.2769Z" fill="white"/>
<path d="M145.522 42.2646H110.525C110.256 42.2646 109.998 42.1577 109.807 41.9673C109.617 41.777 109.51 41.5188 109.51 41.2496C109.51 40.9804 109.617 40.7223 109.807 40.5319C109.998 40.3416 110.256 40.2346 110.525 40.2346H145.522C145.792 40.2346 146.05 40.3416 146.24 40.5319C146.43 40.7223 146.537 40.9804 146.537 41.2496C146.537 41.5188 146.43 41.777 146.24 41.9673C146.05 42.1577 145.792 42.2646 145.522 42.2646Z" fill="#FFBC0E"/>
<path d="M136.834 52.2522H110.525C110.256 52.2522 109.998 52.1452 109.807 51.9549C109.617 51.7645 109.51 51.5064 109.51 51.2372C109.51 50.968 109.617 50.7098 109.807 50.5195C109.998 50.3291 110.256 50.2222 110.525 50.2222H136.834C137.103 50.2222 137.361 50.3291 137.552 50.5195C137.742 50.7098 137.849 50.968 137.849 51.2372C137.849 51.5064 137.742 51.7645 137.552 51.9549C137.361 52.1452 137.103 52.2522 136.834 52.2522Z" fill="#FFBC0E"/>
<path d="M122.949 62.2398H107.805C107.536 62.2398 107.278 62.1329 107.087 61.9425C106.897 61.7522 106.79 61.494 106.79 61.2248C106.79 60.9556 106.897 60.6975 107.087 60.5071C107.278 60.3168 107.536 60.2098 107.805 60.2098H122.908C123.177 60.2098 123.436 60.3168 123.626 60.5071C123.816 60.6975 123.923 60.9556 123.923 61.2248C123.923 61.494 123.816 61.7522 123.626 61.9425C123.436 62.1329 123.177 62.2398 122.908 62.2398H122.949Z" fill="white"/>
<path d="M128.958 72.2274H111.865C111.596 72.2274 111.338 72.1205 111.147 71.9301C110.957 71.7398 110.85 71.4816 110.85 71.2124C110.85 70.9432 110.957 70.685 111.147 70.4947C111.338 70.3043 111.596 70.1974 111.865 70.1974H128.917C129.186 70.1974 129.444 70.3043 129.635 70.4947C129.825 70.685 129.932 70.9432 129.932 71.2124C129.932 71.4816 129.825 71.7398 129.635 71.9301C129.444 72.1205 129.186 72.2274 128.917 72.2274H128.958Z" fill="#F56132"/>
<path d="M137.646 82.2151H111.317C111.048 82.2151 110.79 82.1081 110.599 81.9178C110.409 81.7274 110.302 81.4693 110.302 81.2001C110.302 80.9309 110.409 80.6727 110.599 80.4823C110.79 80.292 111.048 80.1851 111.317 80.1851H137.646C137.915 80.1851 138.173 80.292 138.364 80.4823C138.554 80.6727 138.661 80.9309 138.661 81.2001C138.661 81.4693 138.554 81.7274 138.364 81.9178C138.173 82.1081 137.915 82.2151 137.646 82.2151Z" fill="white"/>
<path d="M117.711 92.2026H104.922C104.653 92.2026 104.395 92.0957 104.205 91.9053C104.014 91.715 103.907 91.4568 103.907 91.1876C103.907 90.9184 104.014 90.6603 104.205 90.4699C104.395 90.2796 104.653 90.1726 104.922 90.1726H117.711C117.981 90.1726 118.239 90.2796 118.429 90.4699C118.619 90.6603 118.726 90.9184 118.726 91.1876C118.726 91.4568 118.619 91.715 118.429 91.9053C118.239 92.0957 117.981 92.2026 117.711 92.2026Z" fill="white"/>
<path d="M137.646 102.19H109.632C109.363 102.19 109.105 102.083 108.914 101.893C108.724 101.703 108.617 101.444 108.617 101.175C108.617 100.906 108.724 100.648 108.914 100.457C109.105 100.267 109.363 100.16 109.632 100.16H137.646C137.915 100.16 138.173 100.267 138.364 100.457C138.554 100.648 138.661 100.906 138.661 101.175C138.661 101.444 138.554 101.703 138.364 101.893C138.173 102.083 137.915 102.19 137.646 102.19Z" fill="#70CC40"/>
<path d="M164.483 102.19H146.091C145.822 102.19 145.563 102.083 145.373 101.893C145.183 101.703 145.076 101.444 145.076 101.175C145.076 100.906 145.183 100.648 145.373 100.457C145.563 100.267 145.822 100.16 146.091 100.16H164.483C164.752 100.16 165.01 100.267 165.2 100.457C165.391 100.648 165.498 100.906 165.498 101.175C165.498 101.444 165.391 101.703 165.2 101.893C165.01 102.083 164.752 102.19 164.483 102.19Z" fill="#FFBC0E"/>
<path d="M158.555 52.2522H145.563C145.294 52.2522 145.036 52.1452 144.845 51.9549C144.655 51.7645 144.548 51.5064 144.548 51.2372C144.548 50.968 144.655 50.7098 144.845 50.5195C145.036 50.3291 145.294 50.2222 145.563 50.2222H158.555C158.824 50.2222 159.082 50.3291 159.273 50.5195C159.463 50.7098 159.57 50.968 159.57 51.2372C159.57 51.5064 159.463 51.7645 159.273 51.9549C159.082 52.1452 158.824 52.2522 158.555 52.2522Z" fill="white"/>
<path d="M177.038 42.2646H152.018C151.749 42.2646 151.491 42.1577 151.301 41.9673C151.11 41.777 151.003 41.5188 151.003 41.2496C151.003 40.9804 151.11 40.7223 151.301 40.5319C151.491 40.3416 151.749 40.2346 152.018 40.2346H177.038C177.307 40.2346 177.566 40.3416 177.756 40.5319C177.946 40.7223 178.053 40.9804 178.053 41.2496C178.053 41.5188 177.946 41.777 177.756 41.9673C177.566 42.1577 177.307 42.2646 177.038 42.2646Z" fill="#E2F6F6"/>
<path d="M172.887 52.2522H165.579C165.31 52.2522 165.051 52.1452 164.861 51.9549C164.671 51.7645 164.564 51.5064 164.564 51.2372C164.564 50.968 164.671 50.7098 164.861 50.5195C165.051 50.3291 165.31 50.2222 165.579 50.2222H172.887C173.156 50.2222 173.414 50.3291 173.604 50.5195C173.795 50.7098 173.902 50.968 173.902 51.2372C173.902 51.5064 173.795 51.7645 173.604 51.9549C173.414 52.1452 173.156 52.2522 172.887 52.2522Z" fill="#F56132"/>
<path d="M141.3 72.2274H133.992C133.723 72.2274 133.465 72.1205 133.274 71.9301C133.084 71.7398 132.977 71.4816 132.977 71.2124C132.977 70.9432 133.084 70.685 133.274 70.4947C133.465 70.3043 133.723 70.1974 133.992 70.1974H141.3C141.569 70.1974 141.827 70.3043 142.018 70.4947C142.208 70.685 142.315 70.9432 142.315 71.2124C142.315 71.4816 142.208 71.7398 142.018 71.9301C141.827 72.1205 141.569 72.2274 141.3 72.2274Z" fill="#F56132"/>
<path d="M177.038 72.2274H147.309C147.04 72.2274 146.781 72.1205 146.591 71.9301C146.401 71.7398 146.294 71.4816 146.294 71.2124C146.294 70.9432 146.401 70.685 146.591 70.4947C146.781 70.3043 147.04 70.1974 147.309 70.1974H177.038C177.307 70.1974 177.566 70.3043 177.756 70.4947C177.946 70.685 178.053 70.9432 178.053 71.2124C178.053 71.4816 177.946 71.7398 177.756 71.9301C177.566 72.1205 177.307 72.2274 177.038 72.2274Z" fill="#FFBC0E"/>
<path d="M152.018 82.2151H145.522C145.253 82.2151 144.995 82.1081 144.805 81.9178C144.614 81.7274 144.507 81.4693 144.507 81.2001C144.507 80.9309 144.614 80.6727 144.805 80.4823C144.995 80.292 145.253 80.1851 145.522 80.1851H152.018C152.288 80.1851 152.546 80.292 152.736 80.4823C152.926 80.6727 153.033 80.9309 153.033 81.2001C153.033 81.4693 152.926 81.7274 152.736 81.9178C152.546 82.1081 152.288 82.2151 152.018 82.2151Z" fill="#E2F6F6"/>
<path d="M177.038 102.19H172.887C172.618 102.19 172.359 102.083 172.169 101.893C171.979 101.703 171.872 101.444 171.872 101.175C171.872 100.906 171.979 100.648 172.169 100.457C172.359 100.267 172.618 100.16 172.887 100.16H177.038C177.307 100.16 177.566 100.267 177.756 100.457C177.946 100.648 178.053 100.906 178.053 101.175C178.053 101.444 177.946 101.703 177.756 101.893C177.566 102.083 177.307 102.19 177.038 102.19Z" fill="white"/>
<path d="M231.615 1.01501H169.426C166.982 1.01501 165 2.99633 165 5.44042V52.7394C165 55.1835 166.982 57.1648 169.426 57.1648H231.615C234.059 57.1648 236.04 55.1835 236.04 52.7394V5.44042C236.04 2.99633 234.059 1.01501 231.615 1.01501Z" fill="white"/>
<path d="M231.635 58.1798H169.426C167.984 58.1771 166.601 57.6031 165.582 56.5834C164.562 55.5637 163.988 54.1815 163.985 52.7394V5.4404C163.988 3.99834 164.562 2.61611 165.582 1.59642C166.601 0.576731 167.984 0.00268291 169.426 0H231.635C233.077 0.00268291 234.459 0.576731 235.479 1.59642C236.499 2.61611 237.073 3.99834 237.075 5.4404V52.7394C237.073 54.1815 236.499 55.5637 235.479 56.5834C234.459 57.6031 233.077 58.1771 231.635 58.1798ZM169.426 2.03C168.522 2.03268 167.656 2.39285 167.017 3.03184C166.378 3.67084 166.018 4.53673 166.015 5.4404V52.7394C166.018 53.6431 166.378 54.509 167.017 55.148C167.656 55.787 168.522 56.1471 169.426 56.1498H231.635C232.539 56.1471 233.405 55.787 234.044 55.148C234.683 54.509 235.043 53.6431 235.045 52.7394V5.4404C235.043 4.53673 234.683 3.67084 234.044 3.03184C233.405 2.39285 232.539 2.03268 231.635 2.03H169.426Z" fill="#093F68"/>
<path d="M236.04 14.8596H164.99C164.721 14.8596 164.463 14.7526 164.272 14.5623C164.082 14.3719 163.975 14.1138 163.975 13.8446C163.975 13.5754 164.082 13.3172 164.272 13.1269C164.463 12.9365 164.721 12.8296 164.99 12.8296H236.04C236.309 12.8296 236.567 12.9365 236.758 13.1269C236.948 13.3172 237.055 13.5754 237.055 13.8446C237.055 14.1138 236.948 14.3719 236.758 14.5623C236.567 14.7526 236.309 14.8596 236.04 14.8596Z" fill="#093F68"/>
<path d="M171.801 9.29746C172.927 9.29746 173.841 8.38405 173.841 7.25731C173.841 6.13056 172.927 5.21716 171.801 5.21716C170.674 5.21716 169.761 6.13056 169.761 7.25731C169.761 8.38405 170.674 9.29746 171.801 9.29746Z" fill="#E2F6F6"/>
<path d="M178.216 9.29746C179.342 9.29746 180.256 8.38405 180.256 7.25731C180.256 6.13056 179.342 5.21716 178.216 5.21716C177.089 5.21716 176.175 6.13056 176.175 7.25731C176.175 8.38405 177.089 9.29746 178.216 9.29746Z" fill="#093F68"/>
<path d="M184.62 9.29746C185.747 9.29746 186.66 8.38405 186.66 7.25731C186.66 6.13056 185.747 5.21716 184.62 5.21716C183.493 5.21716 182.58 6.13056 182.58 7.25731C182.58 8.38405 183.493 9.29746 184.62 9.29746Z" fill="#093F68"/>
<path d="M191.776 43.7466C191.541 43.75 191.314 43.6669 191.137 43.5131L181.575 35.5961C181.46 35.5009 181.368 35.3814 181.304 35.2464C181.241 35.1113 181.208 34.9638 181.208 34.8146C181.208 34.6653 181.241 34.5178 181.304 34.3828C181.368 34.2477 181.46 34.1283 181.575 34.033L191.137 26.1059C191.346 25.9543 191.605 25.8881 191.861 25.9208C192.117 25.9535 192.351 26.0826 192.515 26.2818C192.68 26.4811 192.762 26.7355 192.745 26.9932C192.728 27.2509 192.614 27.4926 192.426 27.669L183.818 34.774L192.426 41.879C192.528 41.9642 192.613 42.0688 192.676 42.1869C192.738 42.305 192.776 42.4342 192.788 42.5672C192.801 42.7001 192.787 42.8341 192.747 42.9616C192.707 43.0891 192.643 43.2075 192.557 43.3101C192.469 43.4378 192.353 43.5435 192.217 43.6191C192.082 43.6948 191.931 43.7384 191.776 43.7466Z" fill="#E2F6F6"/>
<path d="M209.305 43.7465C209.156 43.7468 209.009 43.7141 208.874 43.651C208.738 43.5878 208.619 43.4957 208.523 43.3811C208.438 43.2785 208.374 43.1601 208.334 43.0326C208.294 42.9052 208.28 42.7711 208.293 42.6382C208.305 42.5052 208.343 42.376 208.405 42.2579C208.468 42.1398 208.553 42.0352 208.655 41.95L217.263 34.845L208.655 27.74C208.553 27.6547 208.468 27.55 208.406 27.4319C208.344 27.3138 208.305 27.1846 208.293 27.0517C208.281 26.9188 208.295 26.7848 208.334 26.6573C208.374 26.5299 208.438 26.4114 208.523 26.3088C208.609 26.2062 208.713 26.1213 208.832 26.0592C208.95 25.997 209.079 25.9587 209.212 25.9464C209.345 25.9342 209.479 25.9482 209.606 25.9878C209.734 26.0273 209.852 26.0915 209.955 26.1769L219.455 34.033C219.57 34.1282 219.662 34.2476 219.726 34.3827C219.789 34.5178 219.822 34.6652 219.822 34.8145C219.822 34.9638 219.789 35.1112 219.726 35.2463C219.662 35.3814 219.57 35.5008 219.455 35.5961L209.914 43.5537C209.737 43.6818 209.523 43.7494 209.305 43.7465Z" fill="#E2F6F6"/>
<path d="M195.389 48.4663C195.25 48.4638 195.113 48.4363 194.983 48.3851C194.861 48.3312 194.751 48.2537 194.659 48.1572C194.567 48.0606 194.495 47.9469 194.447 47.8225C194.399 47.698 194.376 47.5654 194.379 47.432C194.382 47.2986 194.412 47.1672 194.466 47.0453L205.631 21.7616C205.685 21.6396 205.762 21.5294 205.859 21.4373C205.955 21.3453 206.069 21.2732 206.193 21.2251C206.318 21.177 206.45 21.1539 206.584 21.1572C206.717 21.1604 206.849 21.1899 206.971 21.244C207.093 21.2979 207.203 21.3753 207.295 21.4719C207.387 21.5684 207.459 21.6821 207.507 21.8066C207.555 21.931 207.578 22.0637 207.575 22.197C207.572 22.3304 207.542 22.4618 207.488 22.5838L196.323 47.8674C196.242 48.0471 196.111 48.1994 195.945 48.3057C195.779 48.412 195.586 48.4678 195.389 48.4663Z" fill="#E2F6F6"/>
<path d="M74.4622 117.872H27.2038C25.0569 117.872 23.3164 119.612 23.3164 121.759V143.409C23.3164 145.556 25.0569 147.297 27.2038 147.297H74.4622C76.6092 147.297 78.3497 145.556 78.3497 143.409V121.759C78.3497 119.612 76.6092 117.872 74.4622 117.872Z" fill="white"/>
<path d="M74.4622 148.322H27.2038C25.9044 148.319 24.659 147.802 23.7402 146.883C22.8214 145.964 22.3041 144.719 22.3014 143.419V121.759C22.3041 120.46 22.8214 119.215 23.7402 118.296C24.659 117.377 25.9044 116.86 27.2038 116.857H74.4622C75.106 116.857 75.7435 116.984 76.3383 117.23C76.9331 117.476 77.4736 117.838 77.9288 118.293C78.384 118.748 78.7451 119.289 78.9915 119.883C79.2379 120.478 79.3647 121.116 79.3647 121.759V143.419C79.3647 144.72 78.8482 145.967 77.9288 146.886C77.0094 147.805 75.7624 148.322 74.4622 148.322ZM27.2038 118.887C26.442 118.887 25.7114 119.19 25.1727 119.728C24.634 120.267 24.3314 120.998 24.3314 121.759V143.419C24.3314 144.181 24.634 144.912 25.1727 145.451C25.7114 145.989 26.442 146.292 27.2038 146.292H74.4622C74.8394 146.292 75.213 146.218 75.5615 146.073C75.91 145.929 76.2266 145.717 76.4934 145.451C76.7601 145.184 76.9717 144.867 77.116 144.519C77.2604 144.17 77.3347 143.797 77.3347 143.419V121.759C77.3347 121.382 77.2604 121.009 77.116 120.66C76.9717 120.312 76.7601 119.995 76.4934 119.728C76.2266 119.462 75.91 119.25 75.5615 119.106C75.213 118.961 74.8394 118.887 74.4622 118.887H27.2038Z" fill="#093F68"/>
<path d="M34.5727 128.113H36.1054V131.544H40.1654V128.113H41.698V136.741H40.1654V132.935H36.1054V136.741H34.5727V128.113Z" fill="#E2F6F6"/>
<path d="M45.3622 129.504H42.713V128.113H49.5338V129.504H46.905V136.741H45.3723L45.3622 129.504Z" fill="#E2F6F6"/>
<path d="M50.6199 128.113H52.995L55.2991 134.153L57.6234 128.113H59.9376V136.741H58.476V129.575L55.8573 136.741H54.7205L52.112 129.575V136.741H50.6504L50.6199 128.113Z" fill="#E2F6F6"/>
<path d="M61.8661 128.113H63.3987V135.35H67.0629V136.741H61.8661V128.113Z" fill="#E2F6F6"/>
</svg>
