<svg xmlns="http://www.w3.org/2000/svg" width="227" height="164" viewBox="0 0 227 164" fill="none">
  <path d="M207.114 150.578C207.376 149.689 207.51 148.767 207.514 147.839C207.514 140.022 198.004 133.689 186.231 133.689C174.458 133.689 164.948 140.022 164.948 147.839C164.95 148.767 165.087 149.69 165.357 150.578H207.114Z" fill="#E2F6F6"/>
  <path d="M207.114 151.529H165.357C165.145 151.538 164.936 151.475 164.763 151.351C164.591 151.227 164.465 151.048 164.406 150.844C164.114 149.869 163.964 148.857 163.959 147.839C163.959 139.509 173.935 132.738 186.193 132.738C198.451 132.738 208.427 139.509 208.427 147.839C208.427 148.858 208.276 149.87 207.98 150.844C207.925 151.034 207.812 151.202 207.657 151.325C207.501 151.448 207.312 151.519 207.114 151.529ZM166.089 149.627H206.373C206.497 149.039 206.56 148.44 206.563 147.839C206.563 140.555 197.443 134.64 186.231 134.64C175.019 134.64 165.899 140.555 165.899 147.839C165.902 148.44 165.965 149.039 166.089 149.627Z" fill="#093F68"/>
  <path d="M186.231 143.084C185.979 143.084 185.737 142.984 185.559 142.806C185.38 142.628 185.28 142.386 185.28 142.133V133.689C185.28 133.437 185.38 133.195 185.559 133.016C185.737 132.838 185.979 132.738 186.231 132.738C186.483 132.738 186.725 132.838 186.904 133.016C187.082 133.195 187.182 133.437 187.182 133.689V142.133C187.182 142.386 187.082 142.628 186.904 142.806C186.725 142.984 186.483 143.084 186.231 143.084Z" fill="#093F68"/>
  <path d="M220.324 150.578H6.6766C3.64613 150.578 1.18945 153.035 1.18945 156.065V156.959C1.18945 159.99 3.64613 162.446 6.6766 162.446H220.324C223.354 162.446 225.811 159.99 225.811 156.959V156.065C225.811 153.035 223.354 150.578 220.324 150.578Z" fill="#093F68"/>
  <path d="M220.323 163.397H6.67641C4.96968 163.395 3.33358 162.716 2.12675 161.509C0.919906 160.302 0.240797 158.666 0.238281 156.959V156.065C0.240797 154.358 0.919906 152.722 2.12675 151.516C3.33358 150.309 4.96968 149.63 6.67641 149.627H220.323C222.03 149.63 223.666 150.309 224.873 151.516C226.08 152.722 226.759 154.358 226.762 156.065V156.959C226.759 158.666 226.08 160.302 224.873 161.509C223.666 162.716 222.03 163.395 220.323 163.397ZM6.67641 151.529C5.47411 151.532 4.32178 152.01 3.47163 152.86C2.62147 153.711 2.14275 154.863 2.14024 156.065V156.959C2.14275 158.161 2.62147 159.314 3.47163 160.164C4.32178 161.014 5.47411 161.493 6.67641 161.495H220.323C221.526 161.493 222.678 161.014 223.528 160.164C224.378 159.314 224.857 158.161 224.86 156.959V156.065C224.857 154.863 224.378 153.711 223.528 152.86C222.678 152.01 221.526 151.532 220.323 151.529H6.67641Z" fill="#093F68"/>
  <path d="M181.305 8.57776H45.6951C40.4482 8.57776 36.1948 12.8312 36.1948 18.078V115.943C36.1948 121.19 40.4482 125.444 45.6951 125.444H181.305C186.552 125.444 190.805 121.19 190.805 115.943V18.078C190.805 12.8312 186.552 8.57776 181.305 8.57776Z" fill="#E2F6F6"/>
  <path d="M181.305 126.395H45.6951C42.9208 126.395 40.26 125.293 38.2983 123.331C36.3365 121.369 35.2344 118.708 35.2344 115.934V18.0781C35.2344 15.3037 36.3365 12.643 38.2983 10.6812C40.26 8.71942 42.9208 7.61731 45.6951 7.61731H181.305C184.079 7.61731 186.74 8.71942 188.702 10.6812C190.663 12.643 191.766 15.3037 191.766 18.0781V115.934C191.766 118.708 190.663 121.369 188.702 123.331C186.74 125.293 184.079 126.395 181.305 126.395ZM45.6951 9.52878C43.4252 9.52878 41.2482 10.4305 39.6432 12.0356C38.0381 13.6407 37.1363 15.8177 37.1363 18.0876V115.934C37.1363 118.204 38.0381 120.381 39.6432 121.986C41.2482 123.591 43.4252 124.493 45.6951 124.493H181.305C183.575 124.493 185.752 123.591 187.357 121.986C188.962 120.381 189.864 118.204 189.864 115.934V18.0781C189.864 15.8081 188.962 13.6312 187.357 12.0261C185.752 10.421 183.575 9.51927 181.305 9.51927L45.6951 9.52878Z" fill="#093F68"/>
  <path d="M140.907 150.578H86.0928L91.8177 125.444H135.182L140.907 150.578Z" fill="#E2F6F6"/>
  <path d="M140.907 151.529H86.0929C85.9501 151.528 85.8092 151.496 85.6808 151.433C85.5524 151.37 85.4397 151.28 85.3511 151.168C85.2634 151.056 85.2017 150.927 85.1704 150.789C85.1391 150.651 85.1392 150.507 85.1705 150.369L90.8763 125.234C90.9247 125.02 91.0458 124.829 91.2192 124.694C91.3926 124.558 91.6075 124.487 91.8273 124.493H135.192C135.412 124.487 135.627 124.558 135.8 124.694C135.973 124.829 136.095 125.02 136.143 125.234L141.849 150.369C141.88 150.507 141.88 150.651 141.849 150.789C141.818 150.927 141.756 151.056 141.668 151.168C141.578 151.282 141.462 151.375 141.33 151.437C141.198 151.5 141.053 151.531 140.907 151.529ZM87.2911 149.627H139.709L134.422 126.395H92.5786L87.2911 149.627Z" fill="#093F68"/>
  <path d="M180.259 18.3159H46.7314V105.055H180.259V18.3159Z" fill="white"/>
  <path d="M180.268 106.006H46.7317C46.4795 106.006 46.2376 105.906 46.0593 105.727C45.881 105.549 45.7808 105.307 45.7808 105.055V18.316C45.7808 18.0638 45.881 17.8219 46.0593 17.6435C46.2376 17.4652 46.4795 17.365 46.7317 17.365H180.268C180.52 17.365 180.762 17.4652 180.941 17.6435C181.119 17.8219 181.219 18.0638 181.219 18.316V105.055C181.219 105.307 181.119 105.549 180.941 105.727C180.762 105.906 180.52 106.006 180.268 106.006ZM47.6827 104.104H179.317V19.2669H47.6827V104.104Z" fill="#093F68"/>
  <path d="M86.0925 18.3159H46.7314V105.055H86.0925V18.3159Z" fill="white"/>
  <path d="M86.0928 106.006H46.7317C46.4795 106.006 46.2376 105.906 46.0593 105.727C45.881 105.549 45.7808 105.307 45.7808 105.055V18.316C45.7808 18.0638 45.881 17.8219 46.0593 17.6435C46.2376 17.4652 46.4795 17.365 46.7317 17.365H86.0928C86.345 17.365 86.5869 17.4652 86.7652 17.6435C86.9436 17.8219 87.0438 18.0638 87.0438 18.316V105.055C87.0438 105.307 86.9436 105.549 86.7652 105.727C86.5869 105.906 86.345 106.006 86.0928 106.006ZM47.6827 104.104H85.1418V19.2669H47.6827V104.104Z" fill="#093F68"/>
  <path d="M180.259 18.3159H86.0928V105.055H180.259V18.3159Z" fill="#093F68"/>
  <path d="M180.268 106.006H86.1214C85.8692 106.006 85.6273 105.906 85.4489 105.727C85.2706 105.549 85.1704 105.307 85.1704 105.055V18.316C85.1704 18.0638 85.2706 17.8219 85.4489 17.6435C85.6273 17.4652 85.8692 17.365 86.1214 17.365H180.268C180.521 17.365 180.762 17.4652 180.941 17.6435C181.119 17.8219 181.219 18.0638 181.219 18.316V105.055C181.219 105.307 181.119 105.549 180.941 105.727C180.762 105.906 180.521 106.006 180.268 106.006ZM87.0724 104.104H179.317V19.2669H87.0724V104.104Z" fill="#093F68"/>
  <path d="M74.2434 30.2412H58.2669C58.0147 30.2412 57.7728 30.141 57.5945 29.9627C57.4161 29.7843 57.3159 29.5424 57.3159 29.2902C57.3159 29.038 57.4161 28.7961 57.5945 28.6178C57.7728 28.4394 58.0147 28.3392 58.2669 28.3392H74.2434C74.4956 28.3392 74.7375 28.4394 74.9158 28.6178C75.0941 28.7961 75.1943 29.038 75.1943 29.2902C75.1943 29.5424 75.0941 29.7843 74.9158 29.9627C74.7375 30.141 74.4956 30.2412 74.2434 30.2412Z" fill="#093F68"/>
  <path d="M76.9823 39.5989H63.5164C63.2642 39.5989 63.0223 39.4987 62.844 39.3203C62.6656 39.142 62.5654 38.9001 62.5654 38.6479C62.5654 38.3957 62.6656 38.1538 62.844 37.9754C63.0223 37.7971 63.2642 37.6969 63.5164 37.6969H76.9823C77.2345 37.6969 77.4764 37.7971 77.6547 37.9754C77.8331 38.1538 77.9333 38.3957 77.9333 38.6479C77.9333 38.9001 77.8331 39.142 77.6547 39.3203C77.4764 39.4987 77.2345 39.5989 76.9823 39.5989Z" fill="#093F68"/>
  <path d="M78.8083 48.9563H67.6248C67.3726 48.9563 67.1307 48.8561 66.9524 48.6777C66.774 48.4994 66.6738 48.2575 66.6738 48.0053C66.6738 47.7531 66.774 47.5112 66.9524 47.3329C67.1307 47.1545 67.3726 47.0543 67.6248 47.0543H78.8083C79.0606 47.0543 79.3024 47.1545 79.4808 47.3329C79.6591 47.5112 79.7593 47.7531 79.7593 48.0053C79.7593 48.2575 79.6591 48.4994 79.4808 48.6777C79.3024 48.8561 79.0606 48.9563 78.8083 48.9563Z" fill="#093F68"/>
  <path d="M75.1562 58.3142H61.0057C60.7535 58.3142 60.5116 58.214 60.3332 58.0356C60.1549 57.8573 60.0547 57.6154 60.0547 57.3632C60.0547 57.111 60.1549 56.8691 60.3332 56.6908C60.5116 56.5124 60.7535 56.4122 61.0057 56.4122H75.1562C75.4084 56.4122 75.6503 56.5124 75.8287 56.6908C76.007 56.8691 76.1072 57.111 76.1072 57.3632C76.1072 57.6154 76.007 57.8573 75.8287 58.0356C75.6503 58.214 75.4084 58.3142 75.1562 58.3142Z" fill="#093F68"/>
  <path d="M71.3524 67.6716H58.2669C58.0147 67.6716 57.7728 67.5714 57.5945 67.3931C57.4161 67.2147 57.3159 66.9728 57.3159 66.7206C57.3159 66.4684 57.4161 66.2265 57.5945 66.0482C57.7728 65.8698 58.0147 65.7697 58.2669 65.7697H71.3524C71.6046 65.7697 71.8465 65.8698 72.0248 66.0482C72.2032 66.2265 72.3034 66.4684 72.3034 66.7206C72.3034 66.9728 72.2032 67.2147 72.0248 67.3931C71.8465 67.5714 71.6046 67.6716 71.3524 67.6716Z" fill="#093F68"/>
  <path d="M74.2434 77.0294H62.6795C62.4273 77.0294 62.1854 76.9292 62.0071 76.7509C61.8287 76.5725 61.7285 76.3306 61.7285 76.0784C61.7285 75.8262 61.8287 75.5843 62.0071 75.406C62.1854 75.2276 62.4273 75.1274 62.6795 75.1274H74.2434C74.4956 75.1274 74.7375 75.2276 74.9159 75.406C75.0942 75.5843 75.1944 75.8262 75.1944 76.0784C75.1944 76.3306 75.0942 76.5725 74.9159 76.7509C74.7375 76.9292 74.4956 77.0294 74.2434 77.0294Z" fill="#093F68"/>
  <path d="M70.2492 86.3869H58.2669C58.0147 86.3869 57.7728 86.2868 57.5945 86.1084C57.4161 85.9301 57.3159 85.6882 57.3159 85.436C57.3159 85.1837 57.4161 84.9419 57.5945 84.7635C57.7728 84.5852 58.0147 84.485 58.2669 84.485H70.2492C70.5015 84.485 70.7433 84.5852 70.9217 84.7635C71.1 84.9419 71.2002 85.1837 71.2002 85.436C71.2002 85.6882 71.1 85.9301 70.9217 86.1084C70.7433 86.2868 70.5015 86.3869 70.2492 86.3869Z" fill="#093F68"/>
  <path d="M74.2434 95.7446H62.6795C62.4273 95.7446 62.1854 95.6444 62.0071 95.4661C61.8287 95.2877 61.7285 95.0458 61.7285 94.7936C61.7285 94.5414 61.8287 94.2995 62.0071 94.1212C62.1854 93.9428 62.4273 93.8427 62.6795 93.8427H74.2434C74.4956 93.8427 74.7375 93.9428 74.9159 94.1212C75.0942 94.2995 75.1944 94.5414 75.1944 94.7936C75.1944 95.0458 75.0942 95.2877 74.9159 95.4661C74.7375 95.6444 74.4956 95.7446 74.2434 95.7446Z" fill="#093F68"/>
  <path d="M114.451 30.2412H98.4744C98.2222 30.2412 97.9803 30.141 97.802 29.9627C97.6236 29.7843 97.5234 29.5424 97.5234 29.2902C97.5234 29.038 97.6236 28.7961 97.802 28.6178C97.9803 28.4394 98.2222 28.3392 98.4744 28.3392H114.451C114.703 28.3392 114.945 28.4394 115.123 28.6178C115.302 28.7961 115.402 29.038 115.402 29.2902C115.402 29.5424 115.302 29.7843 115.123 29.9627C114.945 30.141 114.703 30.2412 114.451 30.2412Z" fill="white"/>
  <path d="M136.476 39.5989H103.686C103.434 39.5989 103.192 39.4987 103.013 39.3203C102.835 39.142 102.735 38.9001 102.735 38.6479C102.735 38.3957 102.835 38.1538 103.013 37.9754C103.192 37.7971 103.434 37.6969 103.686 37.6969H136.476C136.728 37.6969 136.97 37.7971 137.148 37.9754C137.326 38.1538 137.427 38.3957 137.427 38.6479C137.427 38.9001 137.326 39.142 137.148 39.3203C136.97 39.4987 136.728 39.5989 136.476 39.5989Z" fill="#FFBC0E"/>
  <path d="M128.335 48.9563H103.686C103.434 48.9563 103.192 48.8561 103.013 48.6777C102.835 48.4994 102.735 48.2575 102.735 48.0053C102.735 47.7531 102.835 47.5112 103.013 47.3329C103.192 47.1545 103.434 47.0543 103.686 47.0543H128.335C128.587 47.0543 128.829 47.1545 129.008 47.3329C129.186 47.5112 129.286 47.7531 129.286 48.0053C129.286 48.2575 129.186 48.4994 129.008 48.6777C128.829 48.8561 128.587 48.9563 128.335 48.9563Z" fill="#FFBC0E"/>
  <path d="M115.326 58.3142H101.137C100.885 58.3142 100.643 58.214 100.465 58.0356C100.286 57.8573 100.186 57.6154 100.186 57.3632C100.186 57.111 100.286 56.8691 100.465 56.6908C100.643 56.5124 100.885 56.4122 101.137 56.4122H115.288C115.54 56.4122 115.782 56.5124 115.96 56.6908C116.138 56.8691 116.239 57.111 116.239 57.3632C116.239 57.6154 116.138 57.8573 115.96 58.0356C115.782 58.214 115.54 58.3142 115.288 58.3142H115.326Z" fill="white"/>
  <path d="M120.956 67.6716H104.941C104.689 67.6716 104.447 67.5714 104.269 67.3931C104.09 67.2147 103.99 66.9728 103.99 66.7206C103.99 66.4684 104.09 66.2265 104.269 66.0482C104.447 65.8698 104.689 65.7697 104.941 65.7697H120.918C121.17 65.7697 121.412 65.8698 121.59 66.0482C121.768 66.2265 121.869 66.4684 121.869 66.7206C121.869 66.9728 121.768 67.2147 121.59 67.3931C121.412 67.5714 121.17 67.6716 120.918 67.6716H120.956Z" fill="#F56132"/>
  <path d="M129.096 77.0294H104.428C104.175 77.0294 103.933 76.9292 103.755 76.7509C103.577 76.5725 103.477 76.3306 103.477 76.0784C103.477 75.8262 103.577 75.5843 103.755 75.406C103.933 75.2276 104.175 75.1274 104.428 75.1274H129.096C129.348 75.1274 129.59 75.2276 129.768 75.406C129.947 75.5843 130.047 75.8262 130.047 76.0784C130.047 76.3306 129.947 76.5725 129.768 76.7509C129.59 76.9292 129.348 77.0294 129.096 77.0294Z" fill="white"/>
  <path d="M110.419 86.3869H98.4363C98.1841 86.3869 97.9422 86.2868 97.7639 86.1084C97.5855 85.9301 97.4854 85.6882 97.4854 85.436C97.4854 85.1837 97.5855 84.9419 97.7639 84.7635C97.9422 84.5852 98.1841 84.485 98.4363 84.485H110.419C110.671 84.485 110.913 84.5852 111.091 84.7635C111.269 84.9419 111.37 85.1837 111.37 85.436C111.37 85.6882 111.269 85.9301 111.091 86.1084C110.913 86.2868 110.671 86.3869 110.419 86.3869Z" fill="white"/>
  <path d="M129.096 95.7446H102.849C102.597 95.7446 102.355 95.6444 102.176 95.4661C101.998 95.2877 101.898 95.0458 101.898 94.7936C101.898 94.5414 101.998 94.2995 102.176 94.1212C102.355 93.9428 102.597 93.8427 102.849 93.8427H129.096C129.348 93.8427 129.59 93.9428 129.768 94.1212C129.947 94.2995 130.047 94.5414 130.047 94.7936C130.047 95.0458 129.947 95.2877 129.768 95.4661C129.59 95.6444 129.348 95.7446 129.096 95.7446Z" fill="#70CC40"/>
  <path d="M154.24 95.7446H137.008C136.756 95.7446 136.514 95.6444 136.336 95.4661C136.157 95.2877 136.057 95.0458 136.057 94.7936C136.057 94.5414 136.157 94.2995 136.336 94.1212C136.514 93.9428 136.756 93.8427 137.008 93.8427H154.24C154.492 93.8427 154.734 93.9428 154.912 94.1212C155.091 94.2995 155.191 94.5414 155.191 94.7936C155.191 95.0458 155.091 95.2877 154.912 95.4661C154.734 95.6444 154.492 95.7446 154.24 95.7446Z" fill="#FFBC0E"/>
  <path d="M148.686 48.9563H136.513C136.261 48.9563 136.019 48.8561 135.841 48.6777C135.663 48.4994 135.562 48.2575 135.562 48.0053C135.562 47.7531 135.663 47.5112 135.841 47.3329C136.019 47.1545 136.261 47.0543 136.513 47.0543H148.686C148.938 47.0543 149.18 47.1545 149.358 47.3329C149.537 47.5112 149.637 47.7531 149.637 48.0053C149.637 48.2575 149.537 48.4994 149.358 48.6777C149.18 48.8561 148.938 48.9563 148.686 48.9563Z" fill="white"/>
  <path d="M166.003 39.5989H142.562C142.31 39.5989 142.068 39.4987 141.889 39.3203C141.711 39.142 141.611 38.9001 141.611 38.6479C141.611 38.3957 141.711 38.1538 141.889 37.9754C142.068 37.7971 142.31 37.6969 142.562 37.6969H166.003C166.256 37.6969 166.498 37.7971 166.676 37.9754C166.854 38.1538 166.954 38.3957 166.954 38.6479C166.954 38.9001 166.854 39.142 166.676 39.3203C166.498 39.4987 166.256 39.5989 166.003 39.5989Z" fill="#E2F6F6"/>
  <path d="M162.114 48.9563H155.267C155.015 48.9563 154.773 48.8561 154.594 48.6777C154.416 48.4994 154.316 48.2575 154.316 48.0053C154.316 47.7531 154.416 47.5112 154.594 47.3329C154.773 47.1545 155.015 47.0543 155.267 47.0543H162.114C162.366 47.0543 162.608 47.1545 162.786 47.3329C162.965 47.5112 163.065 47.7531 163.065 48.0053C163.065 48.2575 162.965 48.4994 162.786 48.6777C162.608 48.8561 162.366 48.9563 162.114 48.9563Z" fill="#F56132"/>
  <path d="M132.52 67.6716H125.673C125.42 67.6716 125.179 67.5714 125 67.3931C124.822 67.2147 124.722 66.9728 124.722 66.7206C124.722 66.4684 124.822 66.2265 125 66.0482C125.179 65.8698 125.42 65.7697 125.673 65.7697H132.52C132.772 65.7697 133.014 65.8698 133.192 66.0482C133.37 66.2265 133.471 66.4684 133.471 66.7206C133.471 66.9728 133.37 67.2147 133.192 67.3931C133.014 67.5714 132.772 67.6716 132.52 67.6716Z" fill="#F56132"/>
  <path d="M166.003 67.6716H138.149C137.897 67.6716 137.655 67.5714 137.477 67.3931C137.298 67.2147 137.198 66.9728 137.198 66.7206C137.198 66.4684 137.298 66.2265 137.477 66.0482C137.655 65.8698 137.897 65.7697 138.149 65.7697H166.003C166.256 65.7697 166.498 65.8698 166.676 66.0482C166.854 66.2265 166.954 66.4684 166.954 66.7206C166.954 66.9728 166.854 67.2147 166.676 67.3931C166.498 67.5714 166.256 67.6716 166.003 67.6716Z" fill="#FFBC0E"/>
  <path d="M142.562 77.0294H136.475C136.223 77.0294 135.981 76.9292 135.803 76.7509C135.625 76.5725 135.524 76.3306 135.524 76.0784C135.524 75.8262 135.625 75.5843 135.803 75.406C135.981 75.2276 136.223 75.1274 136.475 75.1274H142.562C142.814 75.1274 143.056 75.2276 143.234 75.406C143.412 75.5843 143.513 75.8262 143.513 76.0784C143.513 76.3306 143.412 76.5725 143.234 76.7509C143.056 76.9292 142.814 77.0294 142.562 77.0294Z" fill="#E2F6F6"/>
  <path d="M166.004 95.7446H162.114C161.862 95.7446 161.62 95.6444 161.442 95.4661C161.263 95.2877 161.163 95.0458 161.163 94.7936C161.163 94.5414 161.263 94.2995 161.442 94.1212C161.62 93.9428 161.862 93.8427 162.114 93.8427H166.004C166.256 93.8427 166.498 93.9428 166.676 94.1212C166.854 94.2995 166.955 94.5414 166.955 94.7936C166.955 95.0458 166.854 95.2877 166.676 95.4661C166.498 95.6444 166.256 95.7446 166.004 95.7446Z" fill="white"/>
  <path d="M217.138 0.95105H158.871C156.581 0.95105 154.725 2.8074 154.725 5.09732V49.413C154.725 51.7029 156.581 53.5592 158.871 53.5592H217.138C219.428 53.5592 221.284 51.7029 221.284 49.413V5.09732C221.284 2.8074 219.428 0.95105 217.138 0.95105Z" fill="white"/>
  <path d="M217.157 54.5102H158.871C157.52 54.5076 156.225 53.9698 155.27 53.0144C154.314 52.059 153.776 50.764 153.774 49.4129V5.09725C153.776 3.74615 154.314 2.4511 155.27 1.49573C156.225 0.540354 157.52 0.00251369 158.871 0H217.157C218.508 0.00251369 219.803 0.540354 220.758 1.49573C221.714 2.4511 222.251 3.74615 222.254 5.09725V49.4129C222.251 50.764 221.714 52.059 220.758 53.0144C219.803 53.9698 218.508 54.5076 217.157 54.5102ZM158.871 1.90196C158.025 1.90447 157.213 2.24192 156.615 2.84061C156.016 3.4393 155.678 4.25058 155.676 5.09725V49.4129C155.678 50.2596 156.016 51.0708 156.615 51.6695C157.213 52.2682 158.025 52.6057 158.871 52.6082H217.157C218.003 52.6057 218.815 52.2682 219.413 51.6695C220.012 51.0708 220.349 50.2596 220.352 49.4129V5.09725C220.349 4.25058 220.012 3.4393 219.413 2.84061C218.815 2.24192 218.003 1.90447 217.157 1.90196H158.871Z" fill="#093F68"/>
  <path d="M221.284 13.9223H154.715C154.463 13.9223 154.221 13.8221 154.043 13.6438C153.864 13.4655 153.764 13.2236 153.764 12.9714C153.764 12.7191 153.864 12.4773 154.043 12.2989C154.221 12.1206 154.463 12.0204 154.715 12.0204H221.284C221.536 12.0204 221.778 12.1206 221.956 12.2989C222.135 12.4773 222.235 12.7191 222.235 12.9714C222.235 13.2236 222.135 13.4655 221.956 13.6438C221.778 13.8221 221.536 13.9223 221.284 13.9223Z" fill="#093F68"/>
  <path d="M161.097 8.71112C162.152 8.71112 163.008 7.85532 163.008 6.79965C163.008 5.74397 162.152 4.88818 161.097 4.88818C160.041 4.88818 159.185 5.74397 159.185 6.79965C159.185 7.85532 160.041 8.71112 161.097 8.71112Z" fill="#E2F6F6"/>
  <path d="M167.107 8.71112C168.162 8.71112 169.018 7.85532 169.018 6.79965C169.018 5.74397 168.162 4.88818 167.107 4.88818C166.051 4.88818 165.195 5.74397 165.195 6.79965C165.195 7.85532 166.051 8.71112 167.107 8.71112Z" fill="#093F68"/>
  <path d="M173.107 8.71112C174.163 8.71112 175.019 7.85532 175.019 6.79965C175.019 5.74397 174.163 4.88818 173.107 4.88818C172.052 4.88818 171.196 5.74397 171.196 6.79965C171.196 7.85532 172.052 8.71112 173.107 8.71112Z" fill="#093F68"/>
  <path d="M179.812 40.9873C179.592 40.9905 179.379 40.9127 179.213 40.7686L170.254 33.3509C170.147 33.2617 170.06 33.1498 170.001 33.0232C169.941 32.8967 169.91 32.7585 169.91 32.6187C169.91 32.4788 169.941 32.3407 170.001 32.2141C170.06 32.0875 170.147 31.9757 170.254 31.8864L179.213 24.4593C179.408 24.3172 179.651 24.2552 179.891 24.2859C180.131 24.3165 180.351 24.4375 180.504 24.6241C180.658 24.8108 180.735 25.0492 180.72 25.2906C180.704 25.5321 180.597 25.7585 180.42 25.9238L172.356 32.5806L180.42 39.2375C180.517 39.3173 180.596 39.4154 180.655 39.526C180.713 39.6367 180.749 39.7577 180.76 39.8823C180.772 40.0068 180.759 40.1324 180.721 40.2519C180.684 40.3713 180.624 40.4823 180.544 40.5784C180.461 40.698 180.352 40.797 180.225 40.8679C180.098 40.9388 179.957 40.9796 179.812 40.9873Z" fill="#E2F6F6"/>
  <path d="M196.235 40.9872C196.096 40.9874 195.958 40.9568 195.831 40.8977C195.705 40.8385 195.593 40.7522 195.503 40.6448C195.423 40.5487 195.363 40.4378 195.326 40.3183C195.288 40.1989 195.275 40.0733 195.287 39.9487C195.298 39.8242 195.334 39.7031 195.392 39.5924C195.451 39.4818 195.53 39.3838 195.627 39.3039L203.691 32.6471L195.627 25.9902C195.531 25.9103 195.451 25.8122 195.393 25.7016C195.335 25.5909 195.299 25.4699 195.287 25.3454C195.276 25.2209 195.289 25.0953 195.326 24.9759C195.363 24.8565 195.423 24.7455 195.503 24.6493C195.583 24.5532 195.681 24.4737 195.792 24.4154C195.902 24.3572 196.023 24.3213 196.148 24.3098C196.272 24.2983 196.398 24.3115 196.517 24.3485C196.637 24.3856 196.748 24.4458 196.844 24.5257L205.745 31.8863C205.853 31.9755 205.94 32.0874 205.999 32.214C206.059 32.3405 206.089 32.4787 206.089 32.6185C206.089 32.7584 206.059 32.8965 205.999 33.0231C205.94 33.1497 205.853 33.2616 205.745 33.3508L196.806 40.8065C196.64 40.9265 196.44 40.9899 196.235 40.9872Z" fill="#E2F6F6"/>
  <path d="M183.198 45.4093C183.067 45.407 182.938 45.3812 182.817 45.3332C182.703 45.2827 182.6 45.2101 182.513 45.1197C182.427 45.0292 182.359 44.9227 182.314 44.8061C182.269 44.6895 182.248 44.5652 182.251 44.4402C182.254 44.3153 182.281 44.1922 182.332 44.0779L192.793 20.389C192.843 20.2747 192.916 20.1714 193.006 20.0852C193.097 19.9989 193.203 19.9313 193.32 19.8863C193.437 19.8413 193.561 19.8196 193.686 19.8227C193.811 19.8257 193.934 19.8533 194.048 19.904C194.163 19.9545 194.266 20.0271 194.352 20.1175C194.438 20.208 194.506 20.3145 194.551 20.4311C194.596 20.5477 194.618 20.672 194.615 20.797C194.611 20.9219 194.584 21.045 194.533 21.1593L184.072 44.8482C183.997 45.0165 183.874 45.1592 183.718 45.2588C183.563 45.3585 183.382 45.4107 183.198 45.4093Z" fill="#E2F6F6"/>
  <path d="M69.8974 110.437H25.6198C23.6082 110.437 21.9775 112.068 21.9775 114.08V134.364C21.9775 136.375 23.6082 138.006 25.6198 138.006H69.8974C71.9089 138.006 73.5396 136.375 73.5396 134.364V114.08C73.5396 112.068 71.9089 110.437 69.8974 110.437Z" fill="white"/>
  <path d="M69.8977 138.967H25.6201C24.4027 138.964 23.2358 138.479 22.375 137.619C21.5141 136.758 21.0294 135.591 21.0269 134.373V114.08C21.0294 112.862 21.5141 111.695 22.375 110.834C23.2358 109.974 24.4027 109.489 25.6201 109.486H69.8977C70.5009 109.486 71.0982 109.605 71.6555 109.836C72.2127 110.067 72.7191 110.405 73.1456 110.832C73.5721 111.258 73.9104 111.765 74.1413 112.322C74.3721 112.879 74.4909 113.476 74.4909 114.08V134.373C74.4909 135.592 74.007 136.76 73.1456 137.621C72.2842 138.483 71.1159 138.967 69.8977 138.967ZM25.6201 111.388C24.9063 111.388 24.2218 111.672 23.7171 112.177C23.2124 112.681 22.9288 113.366 22.9288 114.08V134.373C22.9288 135.087 23.2124 135.772 23.7171 136.276C24.2218 136.781 24.9063 137.065 25.6201 137.065H69.8977C70.2511 137.065 70.6011 136.995 70.9276 136.86C71.2541 136.725 71.5508 136.526 71.8007 136.276C72.0506 136.027 72.2488 135.73 72.3841 135.403C72.5193 135.077 72.589 134.727 72.589 134.373V114.08C72.589 113.726 72.5193 113.376 72.3841 113.05C72.2488 112.723 72.0506 112.426 71.8007 112.177C71.5508 111.927 71.2541 111.728 70.9276 111.593C70.6011 111.458 70.2511 111.388 69.8977 111.388H25.6201Z" fill="#093F68"/>
  <path d="M32.5239 120.033H33.9599V123.247H37.7638V120.033H39.1998V128.116H37.7638V124.55H33.9599V128.116H32.5239V120.033Z" fill="#E2F6F6"/>
  <path d="M42.6329 121.335H40.1509V120.033H46.5415V121.335H44.0784V128.116H42.6424L42.6329 121.335Z" fill="#E2F6F6"/>
  <path d="M47.5591 120.033H49.7844L51.9431 125.691L54.1208 120.033H56.2891V128.116H54.9197V121.402L52.4661 128.116H51.401L48.957 121.402V128.116H47.5876L47.5591 120.033Z" fill="#E2F6F6"/>
  <path d="M58.0957 120.033H59.5317V126.813H62.9647V128.116H58.0957V120.033Z" fill="#E2F6F6"/>
</svg>