<svg width="1440" height="2165" viewBox="0 0 1440 2165" fill="none" xmlns="http://www.w3.org/2000/svg">
<rect x="-1" y="113" width="1449" height="1822" rx="30" fill="#E2F6F6"/>
<path d="M43.0938 264L32.0938 228.156H31.8125C31.8542 229.01 31.9167 230.302 32 232.031C32.1042 233.74 32.1979 235.562 32.2812 237.5C32.3646 239.438 32.4062 241.188 32.4062 242.75V264H23.75V218.312H36.9375L47.75 253.25H47.9375L59.4062 218.312H72.5938V264H63.5625V242.375C63.5625 240.938 63.5833 239.281 63.625 237.406C63.6875 235.531 63.7604 233.75 63.8438 232.062C63.9271 230.354 63.9896 229.073 64.0312 228.219H63.75L51.9688 264H43.0938ZM109.158 264H82.845V218.312H109.158V226.25H92.5325V236.281H108.001V244.219H92.5325V256H109.158V264ZM143.753 264H117.44V218.312H143.753V226.25H127.128V236.281H142.596V244.219H127.128V256H143.753V264ZM169.66 264H159.973V226.375H147.566V218.312H182.066V226.375H169.66V264ZM220.788 264H211.1V226.375H198.694V218.312H233.194V226.375H220.788V264ZM276.383 264H266.726V244.281H248.633V264H238.945V218.312H248.633V236.219H266.726V218.312H276.383V264ZM312.978 264H286.665V218.312H312.978V226.25H296.353V236.281H311.821V244.219H296.353V256H312.978V264ZM392.73 218.312L381.105 264H370.074L363.886 240C363.761 239.542 363.595 238.844 363.386 237.906C363.178 236.969 362.959 235.948 362.73 234.844C362.501 233.719 362.293 232.667 362.105 231.688C361.938 230.688 361.824 229.896 361.761 229.312C361.699 229.896 361.574 230.677 361.386 231.656C361.22 232.635 361.022 233.677 360.793 234.781C360.584 235.885 360.376 236.917 360.168 237.875C359.959 238.833 359.793 239.562 359.668 240.062L353.511 264H342.511L330.855 218.312H340.386L346.23 243.25C346.397 244 346.584 244.896 346.793 245.938C347.022 246.979 347.24 248.073 347.449 249.219C347.678 250.344 347.876 251.438 348.043 252.5C348.23 253.542 348.365 254.448 348.449 255.219C348.553 254.427 348.688 253.51 348.855 252.469C349.022 251.406 349.199 250.333 349.386 249.25C349.595 248.146 349.803 247.125 350.011 246.188C350.22 245.25 350.407 244.49 350.574 243.906L357.23 218.312H366.386L373.043 243.906C373.188 244.469 373.355 245.229 373.543 246.188C373.751 247.125 373.959 248.146 374.168 249.25C374.376 250.354 374.563 251.438 374.73 252.5C374.918 253.542 375.053 254.448 375.136 255.219C375.282 254.177 375.48 252.917 375.73 251.438C376.001 249.938 376.282 248.448 376.574 246.969C376.886 245.49 377.157 244.25 377.386 243.25L383.199 218.312H392.73ZM453.325 218.312L441.7 264H430.669L424.481 240C424.356 239.542 424.19 238.844 423.981 237.906C423.773 236.969 423.554 235.948 423.325 234.844C423.096 233.719 422.888 232.667 422.7 231.688C422.533 230.688 422.419 229.896 422.356 229.312C422.294 229.896 422.169 230.677 421.981 231.656C421.815 232.635 421.617 233.677 421.388 234.781C421.179 235.885 420.971 236.917 420.763 237.875C420.554 238.833 420.388 239.562 420.263 240.062L414.106 264H403.106L391.45 218.312H400.981L406.825 243.25C406.992 244 407.179 244.896 407.388 245.938C407.617 246.979 407.835 248.073 408.044 249.219C408.273 250.344 408.471 251.438 408.638 252.5C408.825 253.542 408.96 254.448 409.044 255.219C409.148 254.427 409.283 253.51 409.45 252.469C409.617 251.406 409.794 250.333 409.981 249.25C410.19 248.146 410.398 247.125 410.606 246.188C410.815 245.25 411.002 244.49 411.169 243.906L417.825 218.312H426.981L433.638 243.906C433.783 244.469 433.95 245.229 434.138 246.188C434.346 247.125 434.554 248.146 434.763 249.25C434.971 250.354 435.158 251.438 435.325 252.5C435.513 253.542 435.648 254.448 435.731 255.219C435.877 254.177 436.075 252.917 436.325 251.438C436.596 249.938 436.877 248.448 437.169 246.969C437.481 245.49 437.752 244.25 437.981 243.25L443.794 218.312H453.325ZM477.201 225.719C475.347 225.719 473.701 226.083 472.264 226.812C470.847 227.521 469.649 228.552 468.67 229.906C467.712 231.26 466.983 232.896 466.483 234.812C465.983 236.729 465.733 238.885 465.733 241.281C465.733 244.51 466.128 247.271 466.92 249.562C467.733 251.833 468.983 253.573 470.67 254.781C472.358 255.969 474.535 256.562 477.201 256.562C479.055 256.562 480.91 256.354 482.764 255.938C484.639 255.521 486.67 254.927 488.858 254.156V262.281C486.837 263.115 484.847 263.708 482.889 264.062C480.93 264.438 478.733 264.625 476.295 264.625C471.587 264.625 467.712 263.656 464.67 261.719C461.649 259.76 459.41 257.031 457.951 253.531C456.493 250.01 455.764 245.906 455.764 241.219C455.764 237.76 456.233 234.594 457.17 231.719C458.108 228.844 459.483 226.354 461.295 224.25C463.108 222.146 465.347 220.521 468.014 219.375C470.68 218.229 473.743 217.656 477.201 217.656C479.472 217.656 481.743 217.948 484.014 218.531C486.305 219.094 488.493 219.875 490.576 220.875L487.451 228.75C485.743 227.938 484.024 227.229 482.295 226.625C480.566 226.021 478.868 225.719 477.201 225.719ZM530.297 264H520.61V226.375H508.204V218.312H542.704V226.375H530.297V264ZM574.768 264H548.455V218.312H574.768V226.25H558.143V236.281H573.611V244.219H558.143V256H574.768V264ZM611.019 264L607.706 253.125H591.05L587.737 264H577.3L593.425 218.125H605.269L621.456 264H611.019ZM605.394 245L602.081 234.375C601.873 233.667 601.592 232.76 601.237 231.656C600.904 230.531 600.56 229.396 600.206 228.25C599.873 227.083 599.602 226.073 599.394 225.219C599.185 226.073 598.894 227.135 598.519 228.406C598.165 229.656 597.821 230.844 597.487 231.969C597.154 233.094 596.915 233.896 596.769 234.375L593.487 245H605.394ZM645.301 264L634.301 228.156H634.02C634.062 229.01 634.124 230.302 634.208 232.031C634.312 233.74 634.405 235.562 634.489 237.5C634.572 239.438 634.614 241.188 634.614 242.75V264H625.958V218.312H639.145L649.958 253.25H650.145L661.614 218.312H674.801V264H665.77V242.375C665.77 240.938 665.791 239.281 665.833 237.406C665.895 235.531 665.968 233.75 666.051 232.062C666.135 230.354 666.197 229.073 666.239 228.219H665.958L654.176 264H645.301Z" fill="black"/>
<path d="M-40 239C-40 210.833 -17.1665 188 11 188H1443C1471.17 188 1494 210.833 1494 239C1494 213.043 1472.06 192 1445 192H9C-18.062 192 -40 213.043 -40 239ZM1494 239C1494 267.167 1471.17 290 1443 290H11C-17.1665 290 -40 267.167 -40 239C-40 264.957 -18.062 286 9 286H1445C1472.06 286 1494 264.957 1494 239ZM-40 288V190V288ZM1494 190V288V190Z" fill="black" mask="url(#path-2-inside-1_4_3386)"/>
<path fill-rule="evenodd" clip-rule="evenodd" d="M1440 2165L1379.67 2159.68C1319.33 2155.03 1198.67 2145.72 1078 2131.1C957.335 2117.14 836.669 2097.86 714.997 2073.93C594.331 2050 473.665 2021.42 352.999 2006.79C232.332 1992.17 111.666 1992.17 51.3331 1992.17L-8.99998 1992.17L-8.99997 1935L51.3331 1935C111.666 1935 232.332 1935 352.999 1935C473.665 1935 594.331 1935 714.997 1935C836.669 1935 957.335 1935 1078 1935C1198.67 1935 1319.33 1935 1379.67 1935L1440 1935L1440 2165Z" fill="#E2F6F6"/>
<path fill-rule="evenodd" clip-rule="evenodd" d="M-1 0L59.3331 3.14451C119.666 5.89595 240.332 11.3988 360.999 20.0462C481.665 28.3006 602.331 39.6994 724.003 53.8497C844.669 68 965.335 84.9017 1086 93.5491C1206.67 102.197 1327.33 102.197 1387.67 102.197H1448V136H1387.67C1327.33 136 1206.67 136 1086 136C965.335 136 844.669 136 724.003 136C602.331 136 481.665 136 360.999 136C240.332 136 119.666 136 59.3331 136H-1L-1 0Z" fill="#E2F6F6"/>
</svg>
