<svg width="1652" height="1273" viewBox="0 0 1652 1273" fill="none" xmlns="http://www.w3.org/2000/svg">
<rect x="-1" y="113" width="1651.94" height="959" rx="30" fill="#E2F6F6"/>
<path fill-rule="evenodd" clip-rule="evenodd" d="M1652 1273L1583.22 1267.68C1514.43 1263.03 1376.87 1253.72 1239.3 1239.1C1101.74 1225.14 964.171 1205.86 825.459 1181.93C687.893 1158 550.327 1129.42 412.761 1114.79C275.195 1100.17 137.63 1100.17 68.8467 1100.17L0.063763 1100.17L0.0637683 1043L68.8467 1043C137.63 1043 275.195 1043 412.761 1043C550.327 1043 687.893 1043 825.459 1043C964.171 1043 1101.74 1043 1239.3 1043C1376.87 1043 1514.43 1043 1583.22 1043L1652 1043L1652 1273Z" fill="#E2F6F6"/>
<path fill-rule="evenodd" clip-rule="evenodd" d="M-1 0L67.7829 3.14451C136.566 5.89595 274.132 11.3988 411.697 20.0462C549.263 28.3006 686.829 39.6994 825.541 53.8497C963.107 68 1100.67 84.9017 1238.24 93.5491C1375.8 102.197 1513.37 102.197 1582.15 102.197H1650.94V136H1582.15C1513.37 136 1375.8 136 1238.24 136C1100.67 136 963.107 136 825.541 136C686.829 136 549.263 136 411.697 136C274.132 136 136.566 136 67.7829 136H-1L-1 0Z" fill="#E2F6F6"/>
<path d="M43.0938 210L32.0938 174.156H31.8125C32.2083 181.448 32.4062 186.312 32.4062 188.75V210H23.75V164.312H36.9375L47.75 199.25H47.9375L59.4062 164.312H72.5938V210H63.5625V188.375C63.5625 187.354 63.5729 186.177 63.5938 184.844C63.6354 183.51 63.7812 179.969 64.0312 174.219H63.75L51.9688 210H43.0938ZM109.158 210H82.845V164.312H109.158V172.25H92.5325V182.281H108.001V190.219H92.5325V202H109.158V210ZM143.753 210H117.44V164.312H143.753V172.25H127.128V182.281H142.596V190.219H127.128V202H143.753V210ZM169.66 210H159.973V172.375H147.566V164.312H182.066V172.375H169.66V210ZM220.788 210H211.1V172.375H198.694V164.312H233.194V172.375H220.788V210ZM276.383 210H266.726V190.281H248.633V210H238.945V164.312H248.633V182.219H266.726V164.312H276.383V210ZM312.978 210H286.665V164.312H312.978V172.25H296.353V182.281H311.821V190.219H296.353V202H312.978V210ZM381.105 210H370.074L363.886 186C363.657 185.146 363.261 183.385 362.699 180.719C362.157 178.031 361.845 176.229 361.761 175.312C361.636 176.438 361.324 178.25 360.824 180.75C360.324 183.229 359.938 185 359.668 186.062L353.511 210H342.511L330.855 164.312H340.386L346.23 189.25C347.251 193.854 347.99 197.844 348.449 201.219C348.574 200.031 348.855 198.198 349.293 195.719C349.751 193.219 350.178 191.281 350.574 189.906L357.23 164.312H366.386L373.043 189.906C373.334 191.052 373.699 192.802 374.136 195.156C374.574 197.51 374.907 199.531 375.136 201.219C375.345 199.594 375.678 197.573 376.136 195.156C376.595 192.719 377.011 190.75 377.386 189.25L383.199 164.312H392.73L381.105 210ZM441.7 210H430.669L424.481 186C424.252 185.146 423.856 183.385 423.294 180.719C422.752 178.031 422.44 176.229 422.356 175.312C422.231 176.438 421.919 178.25 421.419 180.75C420.919 183.229 420.533 185 420.263 186.062L414.106 210H403.106L391.45 164.312H400.981L406.825 189.25C407.846 193.854 408.585 197.844 409.044 201.219C409.169 200.031 409.45 198.198 409.888 195.719C410.346 193.219 410.773 191.281 411.169 189.906L417.825 164.312H426.981L433.638 189.906C433.929 191.052 434.294 192.802 434.731 195.156C435.169 197.51 435.502 199.531 435.731 201.219C435.94 199.594 436.273 197.573 436.731 195.156C437.19 192.719 437.606 190.75 437.981 189.25L443.794 164.312H453.325L441.7 210ZM477.201 171.719C473.555 171.719 470.733 173.094 468.733 175.844C466.733 178.573 465.733 182.385 465.733 187.281C465.733 197.469 469.555 202.562 477.201 202.562C480.41 202.562 484.295 201.76 488.858 200.156V208.281C485.108 209.844 480.92 210.625 476.295 210.625C469.649 210.625 464.566 208.615 461.045 204.594C457.524 200.552 455.764 194.76 455.764 187.219C455.764 182.469 456.628 178.312 458.358 174.75C460.087 171.167 462.566 168.427 465.795 166.531C469.045 164.615 472.847 163.656 477.201 163.656C481.639 163.656 486.097 164.729 490.576 166.875L487.451 174.75C485.743 173.938 484.024 173.229 482.295 172.625C480.566 172.021 478.868 171.719 477.201 171.719ZM530.297 210H520.61V172.375H508.204V164.312H542.704V172.375H530.297V210ZM574.768 210H548.455V164.312H574.768V172.25H558.143V182.281H573.611V190.219H558.143V202H574.768V210ZM611.019 210L607.706 199.125H591.05L587.737 210H577.3L593.425 164.125H605.269L621.456 210H611.019ZM605.394 191C602.331 181.146 600.602 175.573 600.206 174.281C599.831 172.99 599.56 171.969 599.394 171.219C598.706 173.885 596.737 180.479 593.487 191H605.394ZM645.301 210L634.301 174.156H634.02C634.416 181.448 634.614 186.312 634.614 188.75V210H625.958V164.312H639.145L649.958 199.25H650.145L661.614 164.312H674.801V210H665.77V188.375C665.77 187.354 665.78 186.177 665.801 184.844C665.843 183.51 665.989 179.969 666.239 174.219H665.958L654.176 210H645.301Z" fill="black"/>
<path d="M750.094 210L739.094 174.156H738.812C739.208 181.448 739.406 186.312 739.406 188.75V210H730.75V164.312H743.938L754.75 199.25H754.938L766.406 164.312H779.594V210H770.562V188.375C770.562 187.354 770.573 186.177 770.594 184.844C770.635 183.51 770.781 179.969 771.031 174.219H770.75L758.969 210H750.094ZM816.158 210H789.845V164.312H816.158V172.25H799.533V182.281H815.001V190.219H799.533V202H816.158V210ZM850.753 210H824.44V164.312H850.753V172.25H834.128V182.281H849.596V190.219H834.128V202H850.753V210ZM876.66 210H866.973V172.375H854.566V164.312H889.066V172.375H876.66V210ZM927.788 210H918.1V172.375H905.694V164.312H940.194V172.375H927.788V210ZM983.383 210H973.726V190.281H955.633V210H945.945V164.312H955.633V182.219H973.726V164.312H983.383V210ZM1019.98 210H993.665V164.312H1019.98V172.25H1003.35V182.281H1018.82V190.219H1003.35V202H1019.98V210ZM1088.11 210H1077.07L1070.89 186C1070.66 185.146 1070.26 183.385 1069.7 180.719C1069.16 178.031 1068.84 176.229 1068.76 175.312C1068.64 176.438 1068.32 178.25 1067.82 180.75C1067.32 183.229 1066.94 185 1066.67 186.062L1060.51 210H1049.51L1037.86 164.312H1047.39L1053.23 189.25C1054.25 193.854 1054.99 197.844 1055.45 201.219C1055.57 200.031 1055.86 198.198 1056.29 195.719C1056.75 193.219 1057.18 191.281 1057.57 189.906L1064.23 164.312H1073.39L1080.04 189.906C1080.33 191.052 1080.7 192.802 1081.14 195.156C1081.57 197.51 1081.91 199.531 1082.14 201.219C1082.34 199.594 1082.68 197.573 1083.14 195.156C1083.59 192.719 1084.01 190.75 1084.39 189.25L1090.2 164.312H1099.73L1088.11 210ZM1148.7 210H1137.67L1131.48 186C1131.25 185.146 1130.86 183.385 1130.29 180.719C1129.75 178.031 1129.44 176.229 1129.36 175.312C1129.23 176.438 1128.92 178.25 1128.42 180.75C1127.92 183.229 1127.53 185 1127.26 186.062L1121.11 210H1110.11L1098.45 164.312H1107.98L1113.83 189.25C1114.85 193.854 1115.59 197.844 1116.04 201.219C1116.17 200.031 1116.45 198.198 1116.89 195.719C1117.35 193.219 1117.77 191.281 1118.17 189.906L1124.83 164.312H1133.98L1140.64 189.906C1140.93 191.052 1141.29 192.802 1141.73 195.156C1142.17 197.51 1142.5 199.531 1142.73 201.219C1142.94 199.594 1143.27 197.573 1143.73 195.156C1144.19 192.719 1144.61 190.75 1144.98 189.25L1150.79 164.312H1160.33L1148.7 210ZM1184.2 171.719C1180.56 171.719 1177.73 173.094 1175.73 175.844C1173.73 178.573 1172.73 182.385 1172.73 187.281C1172.73 197.469 1176.56 202.562 1184.2 202.562C1187.41 202.562 1191.3 201.76 1195.86 200.156V208.281C1192.11 209.844 1187.92 210.625 1183.3 210.625C1176.65 210.625 1171.57 208.615 1168.05 204.594C1164.52 200.552 1162.76 194.76 1162.76 187.219C1162.76 182.469 1163.63 178.312 1165.36 174.75C1167.09 171.167 1169.57 168.427 1172.8 166.531C1176.05 164.615 1179.85 163.656 1184.2 163.656C1188.64 163.656 1193.1 164.729 1197.58 166.875L1194.45 174.75C1192.74 173.938 1191.02 173.229 1189.3 172.625C1187.57 172.021 1185.87 171.719 1184.2 171.719ZM1237.3 210H1227.61V172.375H1215.2V164.312H1249.7V172.375H1237.3V210ZM1281.77 210H1255.46V164.312H1281.77V172.25H1265.14V182.281H1280.61V190.219H1265.14V202H1281.77V210ZM1318.02 210L1314.71 199.125H1298.05L1294.74 210H1284.3L1300.42 164.125H1312.27L1328.46 210H1318.02ZM1312.39 191C1309.33 181.146 1307.6 175.573 1307.21 174.281C1306.83 172.99 1306.56 171.969 1306.39 171.219C1305.71 173.885 1303.74 180.479 1300.49 191H1312.39ZM1352.3 210L1341.3 174.156H1341.02C1341.42 181.448 1341.61 186.312 1341.61 188.75V210H1332.96V164.312H1346.15L1356.96 199.25H1357.15L1368.61 164.312H1381.8V210H1372.77V188.375C1372.77 187.354 1372.78 186.177 1372.8 184.844C1372.84 183.51 1372.99 179.969 1373.24 174.219H1372.96L1361.18 210H1352.3Z" fill="black"/>
<path d="M1457.09 210L1446.09 174.156H1445.81C1446.21 181.448 1446.41 186.312 1446.41 188.75V210H1437.75V164.312H1450.94L1461.75 199.25H1461.94L1473.41 164.312H1486.59V210H1477.56V188.375C1477.56 187.354 1477.57 186.177 1477.59 184.844C1477.64 183.51 1477.78 179.969 1478.03 174.219H1477.75L1465.97 210H1457.09ZM1523.16 210H1496.85V164.312H1523.16V172.25H1506.53V182.281H1522V190.219H1506.53V202H1523.16V210ZM1557.75 210H1531.44V164.312H1557.75V172.25H1541.13V182.281H1556.6V190.219H1541.13V202H1557.75V210ZM1583.66 210H1573.97V172.375H1561.57V164.312H1596.07V172.375H1583.66V210ZM1634.79 210H1625.1V172.375H1612.69V164.312H1647.19V172.375H1634.79V210ZM1690.38 210H1680.73V190.281H1662.63V210H1652.95V164.312H1662.63V182.219H1680.73V164.312H1690.38V210ZM1726.98 210H1700.67V164.312H1726.98V172.25H1710.35V182.281H1725.82V190.219H1710.35V202H1726.98V210ZM1795.11 210H1784.07L1777.89 186C1777.66 185.146 1777.26 183.385 1776.7 180.719C1776.16 178.031 1775.84 176.229 1775.76 175.312C1775.64 176.438 1775.32 178.25 1774.82 180.75C1774.32 183.229 1773.94 185 1773.67 186.062L1767.51 210H1756.51L1744.86 164.312H1754.39L1760.23 189.25C1761.25 193.854 1761.99 197.844 1762.45 201.219C1762.57 200.031 1762.86 198.198 1763.29 195.719C1763.75 193.219 1764.18 191.281 1764.57 189.906L1771.23 164.312H1780.39L1787.04 189.906C1787.33 191.052 1787.7 192.802 1788.14 195.156C1788.57 197.51 1788.91 199.531 1789.14 201.219C1789.34 199.594 1789.68 197.573 1790.14 195.156C1790.59 192.719 1791.01 190.75 1791.39 189.25L1797.2 164.312H1806.73L1795.11 210ZM1855.7 210H1844.67L1838.48 186C1838.25 185.146 1837.86 183.385 1837.29 180.719C1836.75 178.031 1836.44 176.229 1836.36 175.312C1836.23 176.438 1835.92 178.25 1835.42 180.75C1834.92 183.229 1834.53 185 1834.26 186.062L1828.11 210H1817.11L1805.45 164.312H1814.98L1820.83 189.25C1821.85 193.854 1822.59 197.844 1823.04 201.219C1823.17 200.031 1823.45 198.198 1823.89 195.719C1824.35 193.219 1824.77 191.281 1825.17 189.906L1831.83 164.312H1840.98L1847.64 189.906C1847.93 191.052 1848.29 192.802 1848.73 195.156C1849.17 197.51 1849.5 199.531 1849.73 201.219C1849.94 199.594 1850.27 197.573 1850.73 195.156C1851.19 192.719 1851.61 190.75 1851.98 189.25L1857.79 164.312H1867.33L1855.7 210ZM1891.2 171.719C1887.56 171.719 1884.73 173.094 1882.73 175.844C1880.73 178.573 1879.73 182.385 1879.73 187.281C1879.73 197.469 1883.56 202.562 1891.2 202.562C1894.41 202.562 1898.3 201.76 1902.86 200.156V208.281C1899.11 209.844 1894.92 210.625 1890.3 210.625C1883.65 210.625 1878.57 208.615 1875.05 204.594C1871.52 200.552 1869.76 194.76 1869.76 187.219C1869.76 182.469 1870.63 178.312 1872.36 174.75C1874.09 171.167 1876.57 168.427 1879.8 166.531C1883.05 164.615 1886.85 163.656 1891.2 163.656C1895.64 163.656 1900.1 164.729 1904.58 166.875L1901.45 174.75C1899.74 173.938 1898.02 173.229 1896.3 172.625C1894.57 172.021 1892.87 171.719 1891.2 171.719ZM1944.3 210H1934.61V172.375H1922.2V164.312H1956.7V172.375H1944.3V210ZM1988.77 210H1962.46V164.312H1988.77V172.25H1972.14V182.281H1987.61V190.219H1972.14V202H1988.77V210ZM2025.02 210L2021.71 199.125H2005.05L2001.74 210H1991.3L2007.42 164.125H2019.27L2035.46 210H2025.02ZM2019.39 191C2016.33 181.146 2014.6 175.573 2014.21 174.281C2013.83 172.99 2013.56 171.969 2013.39 171.219C2012.71 173.885 2010.74 180.479 2007.49 191H2019.39ZM2059.3 210L2048.3 174.156H2048.02C2048.42 181.448 2048.61 186.312 2048.61 188.75V210H2039.96V164.312H2053.15L2063.96 199.25H2064.15L2075.61 164.312H2088.8V210H2079.77V188.375C2079.77 187.354 2079.78 186.177 2079.8 184.844C2079.84 183.51 2079.99 179.969 2080.24 174.219H2079.96L2068.18 210H2059.3Z" fill="black"/>
<path d="M-40 185C-40 156.833 -17.1665 134 11 134H2116C2144.17 134 2167 156.833 2167 185C2167 159.043 2145.06 138 2118 138H9C-18.062 138 -40 159.043 -40 185ZM2167 185C2167 213.167 2144.17 236 2116 236H11C-17.1665 236 -40 213.167 -40 185C-40 210.957 -18.062 232 9 232H2118C2145.06 232 2167 210.957 2167 185ZM-40 234V136V234ZM2167 136V234V136Z" fill="black" mask="url(#path-4-inside-1_0_1)"/>
</svg>
