<svg width="1440" height="1329" viewBox="0 0 1440 1329" fill="none" xmlns="http://www.w3.org/2000/svg">
<rect x="-1" y="109" width="1450" height="990" fill="#E2F6F6"/>
<path fill-rule="evenodd" clip-rule="evenodd" d="M1453 1329L1392.5 1323.68C1332 1319.03 1211 1309.72 1090 1295.1C969.003 1281.14 848.003 1261.86 725.996 1237.93C604.997 1214 483.997 1185.42 362.998 1170.79C241.999 1156.17 120.999 1156.17 60.4996 1156.17L1.51095e-05 1156.17L2.01072e-05 1099L60.4997 1099C120.999 1099 241.999 1099 362.998 1099C483.997 1099 604.997 1099 725.996 1099C848.003 1099 969.003 1099 1090 1099C1211 1099 1332 1099 1392.5 1099L1453 1099L1453 1329Z" fill="#E2F6F6"/>
<path fill-rule="evenodd" clip-rule="evenodd" d="M-1 0L59.3331 3.14451C119.666 5.89595 240.332 11.3988 360.999 20.0462C481.665 28.3006 602.331 39.6994 724.003 53.8497C844.669 68 965.335 84.9017 1086 93.5491C1206.67 102.197 1327.33 102.197 1387.67 102.197H1448V136H1387.67C1327.33 136 1206.67 136 1086 136C965.335 136 844.669 136 724.003 136C602.331 136 481.665 136 360.999 136C240.332 136 119.666 136 59.3331 136H-1L-1 0Z" fill="#E2F6F6"/>
</svg>
